<?xml version="1.0" encoding="us-ascii" standalone="no"?><svg xmlns="http://www.w3.org/2000/svg" xmlns:xlink="http://www.w3.org/1999/xlink" contentStyleType="text/css" height="507px" preserveAspectRatio="none" style="width:1016px;height:507px;background:#FFFFFF;" version="1.1" viewBox="0 0 1016 507" width="1016px" zoomAndPan="magnify"><defs/><g><g id="elem_Contact"><rect fill="#F0F8FF" height="60.8906" style="stroke:#0000FF;stroke-width:0.5;" width="222" x="787" y="108.5"/><rect fill="#87CEFA" height="20.2969" style="stroke:#0000FF;stroke-width:0.5;" width="222" x="787" y="108.5"/><text fill="#000000" font-family="sans-serif" font-size="14" lengthAdjust="spacing" textLength="96" x="850" y="123.4951">ContactPoint</text><line style="stroke:#0000FF;stroke-width:1.0;" x1="787" x2="1009" y1="128.7969" y2="128.7969"/><text fill="#000000" font-family="sans-serif" font-size="14" lengthAdjust="spacing" textLength="33" x="846.5" y="143.792">Nom</text><text fill="#000000" font-family="sans-serif" font-size="14" lengthAdjust="spacing" textLength="40" x="944" y="143.792">name</text><line style="stroke:#0000FF;stroke-width:1.0;" x1="939" x2="939" y1="128.7969" y2="149.0938"/><line style="stroke:#0000FF;stroke-width:1.0;" x1="787" x2="1009" y1="149.0938" y2="149.0938"/><text fill="#000000" font-family="sans-serif" font-size="14" lengthAdjust="spacing" textLength="142" x="792" y="164.0889">T&#233;l&#233;communication</text><text fill="#000000" font-family="sans-serif" font-size="14" lengthAdjust="spacing" textLength="60" x="944" y="164.0889">telecom</text><line style="stroke:#0000FF;stroke-width:1.0;" x1="939" x2="939" y1="149.0938" y2="169.3906"/></g><g id="elem_Group"><rect fill="#C9FFC9" height="162.375" style="stroke:#181818;stroke-width:0.5;" width="249" x="234.5" y="338"/><rect fill="#90EE90" height="20.2969" style="stroke:#181818;stroke-width:0.5;" width="249" x="234.5" y="338"/><text fill="#000000" font-family="sans-serif" font-size="14" lengthAdjust="spacing" textLength="44" x="337" y="352.9951">Group</text><line style="stroke:#181818;stroke-width:1.0;" x1="234.5" x2="483.5" y1="358.2969" y2="358.2969"/><text fill="#000000" font-family="sans-serif" font-size="14" lengthAdjust="spacing" textLength="4" x="302.5" y="373.292">&#160;</text><text fill="#000000" font-family="sans-serif" font-size="14" lengthAdjust="spacing" textLength="67" x="379.5" y="373.292">identifier</text><line style="stroke:#181818;stroke-width:1.0;" x1="374.5" x2="374.5" y1="358.2969" y2="378.5938"/><line style="stroke:#181818;stroke-width:1.0;" x1="234.5" x2="483.5" y1="378.5938" y2="378.5938"/><text fill="#000000" font-family="sans-serif" font-size="14" lengthAdjust="spacing" textLength="34" x="287.5" y="393.5889">type</text><text fill="#000000" font-family="sans-serif" font-size="14" lengthAdjust="spacing" textLength="63" x="379.5" y="393.5889">"Person"</text><line style="stroke:#181818;stroke-width:1.0;" x1="374.5" x2="374.5" y1="378.5938" y2="398.8906"/><line style="stroke:#181818;stroke-width:1.0;" x1="234.5" x2="483.5" y1="398.8906" y2="398.8906"/><text fill="#000000" font-family="sans-serif" font-size="14" lengthAdjust="spacing" textLength="43" x="283" y="413.8857">actual</text><text fill="#000000" font-family="sans-serif" font-size="14" lengthAdjust="spacing" textLength="46" x="379.5" y="413.8857">"True"</text><line style="stroke:#181818;stroke-width:1.0;" x1="374.5" x2="374.5" y1="398.8906" y2="419.1875"/><line style="stroke:#181818;stroke-width:1.0;" x1="234.5" x2="483.5" y1="419.1875" y2="419.1875"/><text fill="#000000" font-family="sans-serif" font-size="14" lengthAdjust="spacing" textLength="130" x="239.5" y="434.1826">Effectif &#224; recruter</text><text fill="#000000" font-family="sans-serif" font-size="14" lengthAdjust="spacing" textLength="60" x="379.5" y="434.1826">quantity</text><line style="stroke:#181818;stroke-width:1.0;" x1="374.5" x2="374.5" y1="419.1875" y2="439.4844"/><line style="stroke:#181818;stroke-width:1.0;" x1="234.5" x2="483.5" y1="439.4844" y2="439.4844"/><text fill="#000000" font-family="sans-serif" font-size="14" lengthAdjust="spacing" textLength="58" x="275.5" y="454.4795">Crit&#232;res</text><text fill="#000000" font-family="sans-serif" font-size="14" lengthAdjust="spacing" textLength="99" x="379.5" y="454.4795">characteristic</text><line style="stroke:#181818;stroke-width:1.0;" x1="374.5" x2="374.5" y1="439.4844" y2="459.7813"/><line style="stroke:#181818;stroke-width:1.0;" x1="234.5" x2="483.5" y1="459.7813" y2="459.7813"/><text fill="#000000" font-family="sans-serif" font-size="14" lengthAdjust="spacing" textLength="28" x="290.5" y="474.7764">Age</text><text fill="#000000" font-family="sans-serif" font-size="14" lengthAdjust="spacing" textLength="99" x="379.5" y="474.7764">characteristic</text><line style="stroke:#181818;stroke-width:1.0;" x1="374.5" x2="374.5" y1="459.7813" y2="480.0781"/><line style="stroke:#181818;stroke-width:1.0;" x1="234.5" x2="483.5" y1="480.0781" y2="480.0781"/><text fill="#000000" font-family="sans-serif" font-size="14" lengthAdjust="spacing" textLength="44" x="282.5" y="495.0732">Genre</text><text fill="#000000" font-family="sans-serif" font-size="14" lengthAdjust="spacing" textLength="99" x="379.5" y="495.0732">characteristic</text><line style="stroke:#181818;stroke-width:1.0;" x1="374.5" x2="374.5" y1="480.0781" y2="500.375"/></g><g id="elem_Characteristic"><rect fill="#C9FFC9" height="81.1875" style="stroke:#181818;stroke-width:0.5;" width="176" x="7" y="378.5"/><rect fill="#90EE90" height="20.2969" style="stroke:#181818;stroke-width:0.5;" width="176" x="7" y="378.5"/><text fill="#000000" font-family="sans-serif" font-size="14" lengthAdjust="spacing" textLength="101" x="44.5" y="393.4951">Characteristic</text><line style="stroke:#181818;stroke-width:1.0;" x1="7" x2="183" y1="398.7969" y2="398.7969"/><text fill="#000000" font-family="sans-serif" font-size="14" lengthAdjust="spacing" textLength="35" x="22" y="413.792">code</text><text fill="#000000" font-family="sans-serif" font-size="14" lengthAdjust="spacing" textLength="16" x="77" y="413.792">xx</text><line style="stroke:#181818;stroke-width:1.0;" x1="72" x2="72" y1="398.7969" y2="419.0938"/><line style="stroke:#181818;stroke-width:1.0;" x1="7" x2="183" y1="419.0938" y2="419.0938"/><text fill="#000000" font-family="sans-serif" font-size="14" lengthAdjust="spacing" textLength="37" x="21" y="434.0889">value</text><text fill="#000000" font-family="sans-serif" font-size="14" lengthAdjust="spacing" textLength="16" x="77" y="434.0889">xx</text><line style="stroke:#181818;stroke-width:1.0;" x1="72" x2="72" y1="419.0938" y2="439.3906"/><line style="stroke:#181818;stroke-width:1.0;" x1="7" x2="183" y1="439.3906" y2="439.3906"/><text fill="#000000" font-family="sans-serif" font-size="14" lengthAdjust="spacing" textLength="55" x="12" y="454.3857">exclude</text><text fill="#000000" font-family="sans-serif" font-size="14" lengthAdjust="spacing" textLength="101" x="77" y="454.3857">"True"/"False"</text><line style="stroke:#181818;stroke-width:1.0;" x1="72" x2="72" y1="439.3906" y2="459.6875"/></g><g id="elem_Organization"><rect fill="#FFFFCC" height="81.1875" style="stroke:#181818;stroke-width:0.5;" width="144" x="535" y="378.5"/><rect fill="#FFD700" height="20.2969" style="stroke:#181818;stroke-width:0.5;" width="144" x="535" y="378.5"/><text fill="#000000" font-family="sans-serif" font-size="14" lengthAdjust="spacing" textLength="92" x="561" y="393.4951">Organization</text><line style="stroke:#181818;stroke-width:1.0;" x1="535" x2="679" y1="398.7969" y2="398.7969"/><text fill="#000000" font-family="sans-serif" font-size="14" lengthAdjust="spacing" textLength="4" x="566.5" y="413.792">&#160;</text><text fill="#000000" font-family="sans-serif" font-size="14" lengthAdjust="spacing" textLength="67" x="607" y="413.792">identifier</text><line style="stroke:#181818;stroke-width:1.0;" x1="602" x2="602" y1="398.7969" y2="419.0938"/><line style="stroke:#181818;stroke-width:1.0;" x1="535" x2="679" y1="419.0938" y2="419.0938"/><text fill="#000000" font-family="sans-serif" font-size="14" lengthAdjust="spacing" textLength="33" x="552" y="434.0889">Nom</text><text fill="#000000" font-family="sans-serif" font-size="14" lengthAdjust="spacing" textLength="40" x="607" y="434.0889">name</text><line style="stroke:#181818;stroke-width:1.0;" x1="602" x2="602" y1="419.0938" y2="439.3906"/><line style="stroke:#181818;stroke-width:1.0;" x1="535" x2="679" y1="439.3906" y2="439.3906"/><text fill="#000000" font-family="sans-serif" font-size="14" lengthAdjust="spacing" textLength="57" x="540" y="454.3857">Adresse</text><text fill="#000000" font-family="sans-serif" font-size="14" lengthAdjust="spacing" textLength="55" x="607" y="454.3857">address</text><line style="stroke:#181818;stroke-width:1.0;" x1="602" x2="602" y1="439.3906" y2="459.6875"/></g><g id="elem_Location"><rect fill="#FFE4E1" height="81.1875" style="stroke:#181818;stroke-width:0.5;" width="144" x="730" y="378.5"/><rect fill="#EE82EE" height="20.2969" style="stroke:#181818;stroke-width:0.5;" width="144" x="730" y="378.5"/><text fill="#000000" font-family="sans-serif" font-size="14" lengthAdjust="spacing" textLength="62" x="771" y="393.4951">Location</text><line style="stroke:#181818;stroke-width:1.0;" x1="730" x2="874" y1="398.7969" y2="398.7969"/><text fill="#000000" font-family="sans-serif" font-size="14" lengthAdjust="spacing" textLength="4" x="761.5" y="413.792">&#160;</text><text fill="#000000" font-family="sans-serif" font-size="14" lengthAdjust="spacing" textLength="67" x="802" y="413.792">identifier</text><line style="stroke:#181818;stroke-width:1.0;" x1="797" x2="797" y1="398.7969" y2="419.0938"/><line style="stroke:#181818;stroke-width:1.0;" x1="730" x2="874" y1="419.0938" y2="419.0938"/><text fill="#000000" font-family="sans-serif" font-size="14" lengthAdjust="spacing" textLength="33" x="747" y="434.0889">Nom</text><text fill="#000000" font-family="sans-serif" font-size="14" lengthAdjust="spacing" textLength="40" x="802" y="434.0889">name</text><line style="stroke:#181818;stroke-width:1.0;" x1="797" x2="797" y1="419.0938" y2="439.3906"/><line style="stroke:#181818;stroke-width:1.0;" x1="730" x2="874" y1="439.3906" y2="439.3906"/><text fill="#000000" font-family="sans-serif" font-size="14" lengthAdjust="spacing" textLength="57" x="735" y="454.3857">Adresse</text><text fill="#000000" font-family="sans-serif" font-size="14" lengthAdjust="spacing" textLength="55" x="802" y="454.3857">address</text><line style="stroke:#181818;stroke-width:1.0;" x1="797" x2="797" y1="439.3906" y2="459.6875"/></g><g id="elem_RS"><rect fill="#F0F8FF" height="263.8594" style="stroke:#0000FF;stroke-width:0.5;" width="258" x="478" y="7"/><rect fill="#87CEFA" height="20.2969" style="stroke:#0000FF;stroke-width:0.5;" width="258" x="478" y="7"/><text fill="#000000" font-family="sans-serif" font-size="14" lengthAdjust="spacing" textLength="243" x="485.5" y="21.9951">EssaisCliniques =&gt; ResearchStudy</text><line style="stroke:#0000FF;stroke-width:1.0;" x1="478" x2="736" y1="27.2969" y2="27.2969"/><text fill="#000000" font-family="sans-serif" font-size="14" lengthAdjust="spacing" textLength="76" x="520.5" y="42.292">Identifiant</text><text fill="#000000" font-family="sans-serif" font-size="14" lengthAdjust="spacing" textLength="67" x="644" y="42.292">identifier</text><line style="stroke:#0000FF;stroke-width:1.0;" x1="639" x2="639" y1="27.2969" y2="47.5938"/><line style="stroke:#0000FF;stroke-width:1.0;" x1="478" x2="736" y1="47.5938" y2="47.5938"/><text fill="#000000" font-family="sans-serif" font-size="14" lengthAdjust="spacing" textLength="102" x="507.5" y="62.5889">Nom de l'essai</text><text fill="#000000" font-family="sans-serif" font-size="14" lengthAdjust="spacing" textLength="31" x="644" y="62.5889">title</text><line style="stroke:#0000FF;stroke-width:1.0;" x1="639" x2="639" y1="47.5938" y2="67.8906"/><line style="stroke:#0000FF;stroke-width:1.0;" x1="478" x2="736" y1="67.8906" y2="67.8906"/><text fill="#000000" font-family="sans-serif" font-size="14" lengthAdjust="spacing" textLength="115" x="501" y="82.8857">Statut de l'essai</text><text fill="#000000" font-family="sans-serif" font-size="14" lengthAdjust="spacing" textLength="44" x="644" y="82.8857">status</text><line style="stroke:#0000FF;stroke-width:1.0;" x1="639" x2="639" y1="67.8906" y2="88.1875"/><line style="stroke:#0000FF;stroke-width:1.0;" x1="478" x2="736" y1="88.1875" y2="88.1875"/><text fill="#000000" font-family="sans-serif" font-size="14" lengthAdjust="spacing" textLength="111" x="503" y="103.1826">Phase de l'essai</text><text fill="#000000" font-family="sans-serif" font-size="14" lengthAdjust="spacing" textLength="43" x="644" y="103.1826">phase</text><line style="stroke:#0000FF;stroke-width:1.0;" x1="639" x2="639" y1="88.1875" y2="108.4844"/><line style="stroke:#0000FF;stroke-width:1.0;" x1="478" x2="736" y1="108.4844" y2="108.4844"/><text fill="#000000" font-family="sans-serif" font-size="14" lengthAdjust="spacing" textLength="88" x="514.5" y="123.4795">Type d'essai</text><text fill="#000000" font-family="sans-serif" font-size="14" lengthAdjust="spacing" textLength="64" x="644" y="123.4795">category</text><line style="stroke:#0000FF;stroke-width:1.0;" x1="639" x2="639" y1="108.4844" y2="128.7813"/><line style="stroke:#0000FF;stroke-width:1.0;" x1="478" x2="736" y1="128.7813" y2="128.7813"/><text fill="#000000" font-family="sans-serif" font-size="14" lengthAdjust="spacing" textLength="108" x="504.5" y="143.7764">Sujet concern&#233;</text><text fill="#000000" font-family="sans-serif" font-size="14" lengthAdjust="spacing" textLength="68" x="644" y="143.7764">condition</text><line style="stroke:#0000FF;stroke-width:1.0;" x1="639" x2="639" y1="128.7813" y2="149.0781"/><line style="stroke:#0000FF;stroke-width:1.0;" x1="478" x2="736" y1="149.0781" y2="149.0781"/><text fill="#000000" font-family="sans-serif" font-size="14" lengthAdjust="spacing" textLength="58" x="529.5" y="164.0732">Contact</text><text fill="#000000" font-family="sans-serif" font-size="14" lengthAdjust="spacing" textLength="56" x="644" y="164.0732">contact</text><line style="stroke:#0000FF;stroke-width:1.0;" x1="639" x2="639" y1="149.0781" y2="169.375"/><line style="stroke:#0000FF;stroke-width:1.0;" x1="478" x2="736" y1="169.375" y2="169.375"/><text fill="#000000" font-family="sans-serif" font-size="14" lengthAdjust="spacing" textLength="126" x="495.5" y="184.3701">R&#233;sum&#233; de l'essai</text><text fill="#000000" font-family="sans-serif" font-size="14" lengthAdjust="spacing" textLength="82" x="644" y="184.3701">description</text><line style="stroke:#0000FF;stroke-width:1.0;" x1="639" x2="639" y1="169.375" y2="189.6719"/><line style="stroke:#0000FF;stroke-width:1.0;" x1="478" x2="736" y1="189.6719" y2="189.6719"/><text fill="#000000" font-family="sans-serif" font-size="14" lengthAdjust="spacing" textLength="151" x="483" y="204.667">Date d&#233;but de l'essai</text><text fill="#000000" font-family="sans-serif" font-size="14" lengthAdjust="spacing" textLength="87" x="644" y="204.667">period.start</text><line style="stroke:#0000FF;stroke-width:1.0;" x1="639" x2="639" y1="189.6719" y2="209.9688"/><line style="stroke:#0000FF;stroke-width:1.0;" x1="478" x2="736" y1="209.9688" y2="209.9688"/><text fill="#000000" font-family="sans-serif" font-size="14" lengthAdjust="spacing" textLength="37" x="540" y="224.9639">Lieux</text><text fill="#000000" font-family="sans-serif" font-size="14" lengthAdjust="spacing" textLength="27" x="644" y="224.9639">site</text><line style="stroke:#0000FF;stroke-width:1.0;" x1="639" x2="639" y1="209.9688" y2="230.2656"/><line style="stroke:#0000FF;stroke-width:1.0;" x1="478" x2="736" y1="230.2656" y2="230.2656"/><text fill="#000000" font-family="sans-serif" font-size="14" lengthAdjust="spacing" textLength="87" x="515" y="245.2607">Participants</text><text fill="#000000" font-family="sans-serif" font-size="14" lengthAdjust="spacing" textLength="80" x="644" y="245.2607">enrollment</text><line style="stroke:#0000FF;stroke-width:1.0;" x1="639" x2="639" y1="230.2656" y2="250.5625"/><line style="stroke:#0000FF;stroke-width:1.0;" x1="478" x2="736" y1="250.5625" y2="250.5625"/><text fill="#000000" font-family="sans-serif" font-size="14" lengthAdjust="spacing" textLength="77" x="520" y="265.5576">Promoteur</text><text fill="#000000" font-family="sans-serif" font-size="14" lengthAdjust="spacing" textLength="57" x="644" y="265.5576">sponsor</text><line style="stroke:#0000FF;stroke-width:1.0;" x1="639" x2="639" y1="250.5625" y2="270.8594"/></g><!--link RS to Location--><g id="link_RS_Location"><path codeLine="51" d="M744.352,230.715 C755.288,255.445 773.359,316.084 786.355,361.712 " fill="none" id="RS-Location" style="stroke:#EE82EE;stroke-width:4.0;stroke-dasharray:7.0,7.0;"/><polygon fill="#EE82EE" points="737,219.5,736.9444,226.7109,743.5792,229.5356,743.6348,222.3247,737,219.5" style="stroke:#EE82EE;stroke-width:4.0;"/><polygon fill="#EE82EE" points="789.96,374.438,791.356,364.6886,788.5974,369.6272,783.6588,366.8687,789.96,374.438" style="stroke:#EE82EE;stroke-width:4.0;"/><line style="stroke:#EE82EE;stroke-width:4.0;" x1="788.5974" x2="786.417" y1="369.6272" y2="361.93"/></g><!--link RS to Group--><g id="link_RS_Group"><path codeLine="52" d="M463.976,241.664 C426.629,248.478 401.727,284.193 385.592,321.716 " fill="none" id="RS-Group" style="stroke:#90EE90;stroke-width:4.0;stroke-dasharray:7.0,7.0;"/><polygon fill="#90EE90" points="477,240.5,470.6678,237.0499,465.0476,241.5681,471.3799,245.0182,477,240.5" style="stroke:#90EE90;stroke-width:4.0;"/><polygon fill="#90EE90" points="380.657,333.928,387.7381,327.0827,382.5306,329.2923,380.321,324.0849,380.657,333.928" style="stroke:#90EE90;stroke-width:4.0;"/><line style="stroke:#90EE90;stroke-width:4.0;" x1="382.5306" x2="385.5285" y1="329.2923" y2="321.875"/></g><!--link RS to Organization--><g id="link_RS_Organization"><path codeLine="53" d="M607,284.658 C607,310.632 607,338.084 607,361.284 " fill="none" id="RS-Organization" style="stroke:#FFD700;stroke-width:4.0;stroke-dasharray:7.0,7.0;"/><polygon fill="#FFD700" points="607,271.5,603,277.5,607,283.5,611,277.5,607,271.5" style="stroke:#FFD700;stroke-width:4.0;"/><polygon fill="#FFD700" points="607,374.409,611,365.409,607,369.409,603,365.409,607,374.409" style="stroke:#FFD700;stroke-width:4.0;"/><line style="stroke:#FFD700;stroke-width:4.0;" x1="607" x2="607" y1="369.409" y2="361.409"/></g><!--link RS to Contact--><g id="link_RS_Contact"><path codeLine="54" d="M737,159.5 C750.482,159.5 764.548,158.758 778.504,157.553 " fill="none" id="RS-Contact" style="stroke:#ADD8E6;stroke-width:2.0;"/></g><!--reverse link Characteristic to Group--><g id="link_Characteristic_Group"><path codeLine="56" d="M191.188,445.2005 C205.431,447.5127 220.025,449 234,449 " fill="none" id="Characteristic-backto-Group" style="stroke:#90EE90;stroke-width:2.0;"/></g><!--reverse link Characteristic to Group--><g id="link_Characteristic_Group"><path codeLine="57" d="M191.328,462.9688 C205.361,466.65 219.857,469 234,469 " fill="none" id="Characteristic-backto-Group-1" style="stroke:#90EE90;stroke-width:2.0;"/></g><!--link Group to Characteristic--><g id="link_Group_Characteristic"><path codeLine="58" d="M234,490 C205.44,490 176.872,477.8272 153.198,463.5622 " fill="none" id="Group-to-Characteristic" style="stroke:#90EE90;stroke-width:2.0;"/></g><!--SRC=[fLJBRXCn5DtdAqRf0War825MGQtKXX0gXJRA52I4kd3jcuofnvxwWH8G_yAIVCVy6DVNCqcc4Aagi_ASw-DpV1ykMPNrHqPxnltCIEtx6NDP0sH7jupV3S-Kv72k0hmfW0cmmwbS5Zw_MnEcf8RXBQwo7xqClqjJPYUdcMObqFzrlL7rXfko35fovgNHCUv10OAzdxrU6JrCh0aLYTEgaRuUZzvVNasl9fyxsXCBe1kzU9WKeBrSIB04-NK54UxFm3gZ-mJYVG9J15_R00aSBnR0aPdLlp8Bt0OFDcwv3mmFz6lQDBBIrxyjk1ZX1RDu55ZflEGKFrl2WSW4jFrNhBtqg0Edr7UWnwU16q5AgnNzVcEn8hj_M74Lqevq_PVzTqmvJ4FhvSekcPRVgK3aP1zeV9n_p2ykntdUkfWO9GwNuM4dd0dCeICFJD2QuAs3gU4xzVQdKVw0wLZFZTlsu2Tf5FZ_4czrnyunwKROoF8-f2hFmG6plCXz46loCy-VD0qNZIjifmCciIZg6KGBD1RIAyWec7lcWtyGTn5qQSEiO7YXRhoAM9gxE0HY5y5qmjBOrD9v-8h9uqPpiBhUKDne8MF6KyytBq0An2N1ythZGec4hge0nwsijkotg9M9UdFxb_yA6zk85tWDcqwSIWWhkfdqoVWCGvBB2bD6jS0PCagLcBWKjgOq7WBDgQkCTiR6KlRc-N2OJdi- -7AK-kDOC5U0EFQ5v7SQNPoylXcSRfkBE1szIDtDrW5wUg4IUUicCkCy7E3iJnCnsmmZJKN1s3vxf5StRGrwFT93nlOT6YXO-8xHVUBfWqUavSTtwcdCz8uD7itx0m00]--></g></svg>