<?xml version="1.0" encoding="us-ascii" standalone="no"?><svg xmlns="http://www.w3.org/2000/svg" xmlns:xlink="http://www.w3.org/1999/xlink" contentStyleType="text/css" height="693px" preserveAspectRatio="none" style="width:1862px;height:693px;background:#FFFFFF;" version="1.1" viewBox="0 0 1862 693" width="1862px" zoomAndPan="magnify"><defs/><g><rect fill="#DDDDDD" height="58.8906" id="_legend" rx="7.5" ry="7.5" style="stroke:#000000;stroke-width:1.0;" width="277" x="12" y="12"/><path d="M18,20.4635 L18,25.1302 L22.6667,25.1302 L22.6667,20.4635 L18,20.4635 M23.8333,22.7969 L23.8333,26.2969 L20.3333,26.2969 L20.3333,27.4635 L25,27.4635 L25,22.7969 L23.8333,22.7969 M26.1667,25.1302 L26.1667,28.6302 L22.6667,28.6302 L22.6667,29.7969 L27.3333,29.7969 L27.3333,25.1302 L26.1667,25.1302 " fill="#000000" style="stroke:;stroke-width:0.0;stroke-dasharray:;"/><text fill="#000000" font-family="sans-serif" font-size="14" lengthAdjust="spacing" textLength="41" x="32.3333" y="29.9951">: slice</text><path d="M21.5,36.7604 L21.5,40.2604 L18,40.2604 L18,42.5938 L21.5,42.5938 L21.5,46.0938 L23.8333,46.0938 L23.8333,42.5938 L27.3333,42.5938 L27.3333,40.2604 L23.8333,40.2604 L23.8333,36.7604 L21.5,36.7604 " fill="#000000" style="stroke:;stroke-width:0.0;stroke-dasharray:;"/><text fill="#000000" font-family="sans-serif" font-size="14" lengthAdjust="spacing" textLength="80" x="32.3333" y="46.292">: extension</text><ellipse cx="22.5" cy="58.3906" fill="#000000" rx="2.5" ry="2.5" style="stroke:#000000;stroke-width:0.0;"/><text fill="#000000" font-family="sans-serif" font-size="14" lengthAdjust="spacing" textLength="255" x="29" y="62.5889">: pas d'&#233;quivalence Sant&#233;.fr ni WHO</text><g id="elem_Contact"><rect fill="#F0F8FF" height="97.4844" style="stroke:#0000FF;stroke-width:0.5;" width="371" x="1484" y="224.8906"/><rect fill="#87CEFA" height="20.2969" style="stroke:#0000FF;stroke-width:0.5;" width="371" x="1484" y="224.8906"/><text fill="#000000" font-family="sans-serif" font-size="14" lengthAdjust="spacing" textLength="101" x="1619" y="239.8857">ContactDetail</text><line style="stroke:#0000FF;stroke-width:1.0;" x1="1484" x2="1855" y1="245.1875" y2="245.1875"/><text fill="#000000" font-family="sans-serif" font-size="14" lengthAdjust="spacing" textLength="33" x="1543.5" y="260.1826">Nom</text><text fill="#000000" font-family="sans-serif" font-size="14" lengthAdjust="spacing" textLength="49" x="1641" y="260.1826">name :</text><text fill="#000000" font-family="sans-serif" font-size="14" font-style="italic" lengthAdjust="spacing" textLength="80" x="1698" y="260.1826">string [0..1]</text><line style="stroke:#0000FF;stroke-width:1.0;" x1="1636" x2="1636" y1="245.1875" y2="265.4844"/><line style="stroke:#0000FF;stroke-width:1.0;" x1="1484" x2="1855" y1="265.4844" y2="265.4844"/><text fill="#000000" font-family="sans-serif" font-size="14" lengthAdjust="spacing" textLength="142" x="1489" y="280.4795">T&#233;l&#233;communication</text><text fill="#000000" font-family="sans-serif" font-size="14" lengthAdjust="spacing" textLength="69" x="1641" y="280.4795">telecom :</text><text fill="#000000" font-family="sans-serif" font-size="14" font-style="italic" lengthAdjust="spacing" textLength="128" x="1718" y="280.4795">ContactPoint [0..*]</text><line style="stroke:#0000FF;stroke-width:1.0;" x1="1636" x2="1636" y1="265.4844" y2="285.7813"/><line style="stroke:#0000FF;stroke-width:1.0;" x1="1484" x2="1855" y1="285.7813" y2="285.7813"/><text fill="#000000" font-family="sans-serif" font-size="14" lengthAdjust="spacing" textLength="36" x="1542" y="300.7764">Type</text><text fill="#000000" font-family="sans-serif" font-size="14" lengthAdjust="spacing" textLength="85" x="1641" y="300.7764">contacType</text><path d="M1734.5,291.2448 L1734.5,294.7448 L1731,294.7448 L1731,297.0781 L1734.5,297.0781 L1734.5,300.5781 L1736.8333,300.5781 L1736.8333,297.0781 L1740.3333,297.0781 L1740.3333,294.7448 L1736.8333,294.7448 L1736.8333,291.2448 L1734.5,291.2448 " fill="#000000" style="stroke:;stroke-width:0.0;stroke-dasharray:;"/><text fill="#000000" font-family="sans-serif" font-size="14" lengthAdjust="spacing" textLength="5" x="1745.3333" y="300.7764">:</text><text fill="#000000" font-family="sans-serif" font-size="14" font-style="italic" lengthAdjust="spacing" textLength="75" x="1758.3333" y="300.7764">code [0..1]</text><text fill="#000000" font-family="sans-serif" font-size="14" lengthAdjust="spacing" textLength="4" x="1837.3333" y="300.7764">&#160;</text><text fill="#000000" font-family="sans-serif" font-size="14" lengthAdjust="spacing" textLength="4" x="1641" y="317.0732">&#160;</text><text fill="#000000" font-family="sans-serif" font-size="14" font-style="italic" lengthAdjust="spacing" textLength="146" x="1649" y="317.0732">("Public"/"Scientific")</text><line style="stroke:#0000FF;stroke-width:1.0;" x1="1636" x2="1636" y1="285.7813" y2="322.375"/></g><g id="elem_slice_identifier"><rect fill="#F0F8FF" height="60.8906" style="stroke:#0000FF;stroke-width:0.5;" width="304" x="210.5" y="243.3906"/><rect fill="#87CEFA" height="20.2969" style="stroke:#0000FF;stroke-width:0.5;" width="304" x="210.5" y="243.3906"/><text fill="#000000" font-family="sans-serif" font-size="14" lengthAdjust="spacing" textLength="105" x="310" y="258.3857">Slice identifier</text><line style="stroke:#0000FF;stroke-width:1.0;" x1="210.5" x2="514.5" y1="263.6875" y2="263.6875"/><text fill="#000000" font-family="sans-serif" font-size="14" lengthAdjust="spacing" textLength="143" x="223" y="278.6826">Identifiant principal</text><text fill="#000000" font-family="sans-serif" font-size="14" lengthAdjust="spacing" textLength="111" x="383.5" y="278.6826">primaryId [0..1]</text><line style="stroke:#0000FF;stroke-width:1.0;" x1="378.5" x2="378.5" y1="263.6875" y2="283.9844"/><line style="stroke:#0000FF;stroke-width:1.0;" x1="210.5" x2="514.5" y1="283.9844" y2="283.9844"/><text fill="#000000" font-family="sans-serif" font-size="14" lengthAdjust="spacing" textLength="158" x="215.5" y="298.9795">Identifiant secondaire</text><text fill="#000000" font-family="sans-serif" font-size="14" lengthAdjust="spacing" textLength="126" x="383.5" y="298.9795">secondaryId [0..*]</text><line style="stroke:#0000FF;stroke-width:1.0;" x1="378.5" x2="378.5" y1="283.9844" y2="304.2813"/></g><g id="elem_Group"><rect fill="#C9FFC9" height="162.375" style="stroke:#181818;stroke-width:0.5;" width="438" x="367.5" y="523.8906"/><rect fill="#90EE90" height="20.2969" style="stroke:#181818;stroke-width:0.5;" width="438" x="367.5" y="523.8906"/><text fill="#000000" font-family="sans-serif" font-size="14" lengthAdjust="spacing" textLength="44" x="564.5" y="538.8857">Group</text><line style="stroke:#181818;stroke-width:1.0;" x1="367.5" x2="805.5" y1="544.1875" y2="544.1875"/><text fill="#000000" font-family="sans-serif" font-size="14" lengthAdjust="spacing" textLength="76" x="399.5" y="559.1826">Identifiant</text><text fill="#000000" font-family="sans-serif" font-size="14" lengthAdjust="spacing" textLength="76" x="512.5" y="559.1826">identifier :</text><text fill="#000000" font-family="sans-serif" font-size="14" font-style="italic" lengthAdjust="spacing" textLength="102" x="596.5" y="559.1826">Identifier [0..*]</text><line style="stroke:#181818;stroke-width:1.0;" x1="507.5" x2="507.5" y1="544.1875" y2="564.4844"/><line style="stroke:#181818;stroke-width:1.0;" x1="367.5" x2="805.5" y1="564.4844" y2="564.4844"/><text fill="#000000" font-family="sans-serif" font-size="14" lengthAdjust="spacing" textLength="113" x="381" y="579.4795">Type de groupe</text><text fill="#000000" font-family="sans-serif" font-size="14" lengthAdjust="spacing" textLength="43" x="512.5" y="579.4795">type :</text><text fill="#000000" font-family="sans-serif" font-size="14" font-style="italic" lengthAdjust="spacing" textLength="155" x="563.5" y="579.4795">code [1..1] = "Person"</text><line style="stroke:#181818;stroke-width:1.0;" x1="507.5" x2="507.5" y1="564.4844" y2="584.7813"/><line style="stroke:#181818;stroke-width:1.0;" x1="367.5" x2="805.5" y1="584.7813" y2="584.7813"/><text fill="#000000" font-family="sans-serif" font-size="14" lengthAdjust="spacing" textLength="90" x="392.5" y="599.7764">Groupe actif</text><text fill="#000000" font-family="sans-serif" font-size="14" lengthAdjust="spacing" textLength="52" x="512.5" y="599.7764">actual :</text><text fill="#000000" font-family="sans-serif" font-size="14" font-style="italic" lengthAdjust="spacing" textLength="163" x="572.5" y="599.7764">boolean [1..1] = "True"</text><line style="stroke:#181818;stroke-width:1.0;" x1="507.5" x2="507.5" y1="584.7813" y2="605.0781"/><line style="stroke:#181818;stroke-width:1.0;" x1="367.5" x2="805.5" y1="605.0781" y2="605.0781"/><text fill="#000000" font-family="sans-serif" font-size="14" lengthAdjust="spacing" textLength="130" x="372.5" y="620.0732">Effectif &#224; recruter</text><text fill="#000000" font-family="sans-serif" font-size="14" lengthAdjust="spacing" textLength="69" x="512.5" y="620.0732">quantity :</text><text fill="#000000" font-family="sans-serif" font-size="14" font-style="italic" lengthAdjust="spacing" textLength="123" x="589.5" y="620.0732">unsignedInt [0..1]</text><line style="stroke:#181818;stroke-width:1.0;" x1="507.5" x2="507.5" y1="605.0781" y2="625.375"/><line style="stroke:#181818;stroke-width:1.0;" x1="367.5" x2="805.5" y1="625.375" y2="625.375"/><text fill="#000000" font-family="sans-serif" font-size="14" lengthAdjust="spacing" textLength="58" x="408.5" y="640.3701">Crit&#232;res</text><text fill="#000000" font-family="sans-serif" font-size="14" lengthAdjust="spacing" textLength="108" x="512.5" y="640.3701">characteristic :</text><text fill="#000000" font-family="sans-serif" font-size="14" font-style="italic" lengthAdjust="spacing" textLength="168" x="628.5" y="640.3701">BackboneElement [0..*]</text><line style="stroke:#181818;stroke-width:1.0;" x1="507.5" x2="507.5" y1="625.375" y2="645.6719"/><line style="stroke:#181818;stroke-width:1.0;" x1="367.5" x2="805.5" y1="645.6719" y2="645.6719"/><text fill="#000000" font-family="sans-serif" font-size="14" lengthAdjust="spacing" textLength="28" x="423.5" y="660.667">Age</text><text fill="#000000" font-family="sans-serif" font-size="14" lengthAdjust="spacing" textLength="108" x="512.5" y="660.667">characteristic :</text><text fill="#000000" font-family="sans-serif" font-size="14" font-style="italic" lengthAdjust="spacing" textLength="168" x="628.5" y="660.667">BackboneElement [0..*]</text><line style="stroke:#181818;stroke-width:1.0;" x1="507.5" x2="507.5" y1="645.6719" y2="665.9688"/><line style="stroke:#181818;stroke-width:1.0;" x1="367.5" x2="805.5" y1="665.9688" y2="665.9688"/><text fill="#000000" font-family="sans-serif" font-size="14" lengthAdjust="spacing" textLength="44" x="415.5" y="680.9639">Genre</text><text fill="#000000" font-family="sans-serif" font-size="14" lengthAdjust="spacing" textLength="108" x="512.5" y="680.9639">characteristic :</text><text fill="#000000" font-family="sans-serif" font-size="14" font-style="italic" lengthAdjust="spacing" textLength="168" x="628.5" y="680.9639">BackboneElement [0..*]</text><line style="stroke:#181818;stroke-width:1.0;" x1="507.5" x2="507.5" y1="665.9688" y2="686.2656"/></g><g id="elem_Characteristic"><rect fill="#C9FFC9" height="81.1875" style="stroke:#181818;stroke-width:0.5;" width="309" x="7" y="564.3906"/><rect fill="#90EE90" height="20.2969" style="stroke:#181818;stroke-width:0.5;" width="309" x="7" y="564.3906"/><text fill="#000000" font-family="sans-serif" font-size="14" lengthAdjust="spacing" textLength="101" x="111" y="579.3857">Characteristic</text><line style="stroke:#181818;stroke-width:1.0;" x1="7" x2="316" y1="584.6875" y2="584.6875"/><text fill="#000000" font-family="sans-serif" font-size="14" lengthAdjust="spacing" textLength="34" x="28" y="599.6826">type</text><text fill="#000000" font-family="sans-serif" font-size="14" lengthAdjust="spacing" textLength="44" x="88" y="599.6826">code :</text><text fill="#000000" font-family="sans-serif" font-size="14" font-style="italic" lengthAdjust="spacing" textLength="167" x="140" y="599.6826">CodeableConcept [1..1]</text><line style="stroke:#181818;stroke-width:1.0;" x1="83" x2="83" y1="584.6875" y2="604.9844"/><line style="stroke:#181818;stroke-width:1.0;" x1="7" x2="316" y1="604.9844" y2="604.9844"/><text fill="#000000" font-family="sans-serif" font-size="14" lengthAdjust="spacing" textLength="43" x="23.5" y="619.9795">valeur</text><text fill="#000000" font-family="sans-serif" font-size="14" lengthAdjust="spacing" textLength="64" x="88" y="619.9795">value[x] :</text><text fill="#000000" font-family="sans-serif" font-size="14" font-style="italic" lengthAdjust="spacing" textLength="36" x="160" y="619.9795">[1..1]</text><line style="stroke:#181818;stroke-width:1.0;" x1="83" x2="83" y1="604.9844" y2="625.2813"/><line style="stroke:#181818;stroke-width:1.0;" x1="7" x2="316" y1="625.2813" y2="625.2813"/><text fill="#000000" font-family="sans-serif" font-size="14" lengthAdjust="spacing" textLength="66" x="12" y="640.2764">exclusion</text><text fill="#000000" font-family="sans-serif" font-size="14" lengthAdjust="spacing" textLength="64" x="88" y="640.2764">exclude :</text><text fill="#000000" font-family="sans-serif" font-size="14" font-style="italic" lengthAdjust="spacing" textLength="98" x="160" y="640.2764">boolean [1..1]</text><line style="stroke:#181818;stroke-width:1.0;" x1="83" x2="83" y1="625.2813" y2="645.5781"/></g><g id="elem_Organization"><rect fill="#FFFFCC" height="81.1875" style="stroke:#181818;stroke-width:0.5;" width="286" x="856.5" y="564.3906"/><rect fill="#FFD700" height="20.2969" style="stroke:#181818;stroke-width:0.5;" width="286" x="856.5" y="564.3906"/><text fill="#000000" font-family="sans-serif" font-size="14" lengthAdjust="spacing" textLength="92" x="953.5" y="579.3857">Organization</text><line style="stroke:#181818;stroke-width:1.0;" x1="856.5" x2="1142.5" y1="584.6875" y2="584.6875"/><text fill="#000000" font-family="sans-serif" font-size="14" lengthAdjust="spacing" textLength="76" x="861.5" y="599.6826">Identifiant</text><text fill="#000000" font-family="sans-serif" font-size="14" lengthAdjust="spacing" textLength="76" x="947.5" y="599.6826">identifier :</text><text fill="#000000" font-family="sans-serif" font-size="14" font-style="italic" lengthAdjust="spacing" textLength="102" x="1031.5" y="599.6826">Identifier [0..*]</text><line style="stroke:#181818;stroke-width:1.0;" x1="942.5" x2="942.5" y1="584.6875" y2="604.9844"/><line style="stroke:#181818;stroke-width:1.0;" x1="856.5" x2="1142.5" y1="604.9844" y2="604.9844"/><text fill="#000000" font-family="sans-serif" font-size="14" lengthAdjust="spacing" textLength="33" x="883" y="619.9795">Nom</text><text fill="#000000" font-family="sans-serif" font-size="14" lengthAdjust="spacing" textLength="49" x="947.5" y="619.9795">name :</text><text fill="#000000" font-family="sans-serif" font-size="14" font-style="italic" lengthAdjust="spacing" textLength="80" x="1004.5" y="619.9795">string [0..1]</text><line style="stroke:#181818;stroke-width:1.0;" x1="942.5" x2="942.5" y1="604.9844" y2="625.2813"/><line style="stroke:#181818;stroke-width:1.0;" x1="856.5" x2="1142.5" y1="625.2813" y2="625.2813"/><text fill="#000000" font-family="sans-serif" font-size="14" lengthAdjust="spacing" textLength="57" x="871" y="640.2764">Adresse</text><text fill="#000000" font-family="sans-serif" font-size="14" lengthAdjust="spacing" textLength="64" x="947.5" y="640.2764">address :</text><text fill="#000000" font-family="sans-serif" font-size="14" font-style="italic" lengthAdjust="spacing" textLength="95" x="1019.5" y="640.2764">Address [0..*]</text><line style="stroke:#181818;stroke-width:1.0;" x1="942.5" x2="942.5" y1="625.2813" y2="645.5781"/></g><g id="elem_Location"><rect fill="#FFE4E1" height="81.1875" style="stroke:#181818;stroke-width:0.5;" width="286" x="1193.5" y="564.3906"/><rect fill="#EE82EE" height="20.2969" style="stroke:#181818;stroke-width:0.5;" width="286" x="1193.5" y="564.3906"/><text fill="#000000" font-family="sans-serif" font-size="14" lengthAdjust="spacing" textLength="62" x="1305.5" y="579.3857">Location</text><line style="stroke:#181818;stroke-width:1.0;" x1="1193.5" x2="1479.5" y1="584.6875" y2="584.6875"/><text fill="#000000" font-family="sans-serif" font-size="14" lengthAdjust="spacing" textLength="76" x="1198.5" y="599.6826">Identifiant</text><text fill="#000000" font-family="sans-serif" font-size="14" lengthAdjust="spacing" textLength="76" x="1284.5" y="599.6826">identifier :</text><text fill="#000000" font-family="sans-serif" font-size="14" font-style="italic" lengthAdjust="spacing" textLength="102" x="1368.5" y="599.6826">Identifier [0..*]</text><line style="stroke:#181818;stroke-width:1.0;" x1="1279.5" x2="1279.5" y1="584.6875" y2="604.9844"/><line style="stroke:#181818;stroke-width:1.0;" x1="1193.5" x2="1479.5" y1="604.9844" y2="604.9844"/><text fill="#000000" font-family="sans-serif" font-size="14" lengthAdjust="spacing" textLength="33" x="1220" y="619.9795">Nom</text><text fill="#000000" font-family="sans-serif" font-size="14" lengthAdjust="spacing" textLength="49" x="1284.5" y="619.9795">name :</text><text fill="#000000" font-family="sans-serif" font-size="14" font-style="italic" lengthAdjust="spacing" textLength="80" x="1341.5" y="619.9795">string [0..1]</text><line style="stroke:#181818;stroke-width:1.0;" x1="1279.5" x2="1279.5" y1="604.9844" y2="625.2813"/><line style="stroke:#181818;stroke-width:1.0;" x1="1193.5" x2="1479.5" y1="625.2813" y2="625.2813"/><text fill="#000000" font-family="sans-serif" font-size="14" lengthAdjust="spacing" textLength="57" x="1208" y="640.2764">Adresse</text><text fill="#000000" font-family="sans-serif" font-size="14" lengthAdjust="spacing" textLength="64" x="1284.5" y="640.2764">address :</text><text fill="#000000" font-family="sans-serif" font-size="14" font-style="italic" lengthAdjust="spacing" textLength="97" x="1356.5" y="640.2764">Address [0..1]</text><line style="stroke:#181818;stroke-width:1.0;" x1="1279.5" x2="1279.5" y1="625.2813" y2="645.5781"/></g><g id="elem_RS"><rect fill="#F0F8FF" height="365.3438" style="stroke:#0000FF;stroke-width:0.5;" width="867.3333" x="566" y="90.8906"/><rect fill="#87CEFA" height="20.2969" style="stroke:#0000FF;stroke-width:0.5;" width="867.3333" x="566" y="90.8906"/><text fill="#000000" font-family="sans-serif" font-size="14" lengthAdjust="spacing" textLength="212" x="893.6667" y="105.8857">EssaiClinique : ResearchStudy</text><line style="stroke:#0000FF;stroke-width:1.0;" x1="566" x2="1433.3333" y1="111.1875" y2="111.1875"/><text fill="#000000" font-family="sans-serif" font-size="14" lengthAdjust="spacing" textLength="404" x="602" y="126.1826">Identifiant (Primary and Secondary Identifying Numbers)</text><text fill="#000000" font-family="sans-serif" font-size="14" lengthAdjust="spacing" textLength="67" x="1047" y="126.1826">identifier</text><path d="M1119,116.651 L1119,121.3177 L1123.6667,121.3177 L1123.6667,116.651 L1119,116.651 M1124.8333,118.9844 L1124.8333,122.4844 L1121.3333,122.4844 L1121.3333,123.651 L1126,123.651 L1126,118.9844 L1124.8333,118.9844 M1127.1667,121.3177 L1127.1667,124.8177 L1123.6667,124.8177 L1123.6667,125.9844 L1128.3333,125.9844 L1128.3333,121.3177 L1127.1667,121.3177 " fill="#000000" style="stroke:;stroke-width:0.0;stroke-dasharray:;"/><text fill="#000000" font-family="sans-serif" font-size="14" lengthAdjust="spacing" textLength="5" x="1133.3333" y="126.1826">:</text><text fill="#000000" font-family="sans-serif" font-size="14" font-style="italic" lengthAdjust="spacing" textLength="102" x="1146.3333" y="126.1826">Identifier [0..*]</text><line style="stroke:#0000FF;stroke-width:1.0;" x1="1042" x2="1042" y1="111.1875" y2="131.4844"/><line style="stroke:#0000FF;stroke-width:1.0;" x1="566" x2="1433.3333" y1="131.4844" y2="131.4844"/><text fill="#000000" font-family="sans-serif" font-size="14" lengthAdjust="spacing" textLength="193" x="707.5" y="146.4795">Date de r&#233;vision technique</text><text fill="#000000" font-family="sans-serif" font-size="14" lengthAdjust="spacing" textLength="139" x="1047" y="146.4795">meta.lastUpdated :</text><text fill="#000000" font-family="sans-serif" font-size="14" font-style="italic" lengthAdjust="spacing" textLength="88" x="1194" y="146.4795">instant [0..1]</text><line style="stroke:#0000FF;stroke-width:1.0;" x1="1042" x2="1042" y1="131.4844" y2="151.7813"/><line style="stroke:#0000FF;stroke-width:1.0;" x1="566" x2="1433.3333" y1="151.7813" y2="151.7813"/><text fill="#000000" font-family="sans-serif" font-size="14" lengthAdjust="spacing" textLength="217" x="695.5" y="166.7764">Date de r&#233;vision fonctionnelle</text><text fill="#000000" font-family="sans-serif" font-size="14" lengthAdjust="spacing" textLength="82" x="1047" y="166.7764">reviewDate</text><path d="M1137.5,157.2448 L1137.5,160.7448 L1134,160.7448 L1134,163.0781 L1137.5,163.0781 L1137.5,166.5781 L1139.8333,166.5781 L1139.8333,163.0781 L1143.3333,163.0781 L1143.3333,160.7448 L1139.8333,160.7448 L1139.8333,157.2448 L1137.5,157.2448 " fill="#000000" style="stroke:;stroke-width:0.0;stroke-dasharray:;"/><text fill="#000000" font-family="sans-serif" font-size="14" lengthAdjust="spacing" textLength="5" x="1148.3333" y="166.7764">:</text><text fill="#000000" font-family="sans-serif" font-size="14" font-style="italic" lengthAdjust="spacing" textLength="108" x="1161.3333" y="166.7764">dateTime [0..1]</text><line style="stroke:#0000FF;stroke-width:1.0;" x1="1042" x2="1042" y1="151.7813" y2="172.0781"/><line style="stroke:#0000FF;stroke-width:1.0;" x1="566" x2="1433.3333" y1="172.0781" y2="172.0781"/><text fill="#000000" font-family="sans-serif" font-size="14" lengthAdjust="spacing" textLength="194" x="707" y="187.0732">Nom de l'essai (Public title)</text><text fill="#000000" font-family="sans-serif" font-size="14" lengthAdjust="spacing" textLength="40" x="1047" y="187.0732">title :</text><text fill="#000000" font-family="sans-serif" font-size="14" font-style="italic" lengthAdjust="spacing" textLength="80" x="1095" y="187.0732">string [0..1]</text><line style="stroke:#0000FF;stroke-width:1.0;" x1="1042" x2="1042" y1="172.0781" y2="192.375"/><line style="stroke:#0000FF;stroke-width:1.0;" x1="566" x2="1433.3333" y1="192.375" y2="192.375"/><text fill="#000000" font-family="sans-serif" font-size="14" lengthAdjust="spacing" textLength="115" x="746.5" y="207.3701">Statut de l'essai</text><text fill="#000000" font-family="sans-serif" font-size="14" lengthAdjust="spacing" textLength="4" x="1047" y="207.3701">&#160;</text><line style="stroke:#0000FF;stroke-width:1.0;" x1="1042" x2="1042" y1="192.375" y2="212.6719"/><line style="stroke:#0000FF;stroke-width:1.0;" x1="566" x2="1433.3333" y1="212.6719" y2="212.6719"/><text fill="#000000" font-family="sans-serif" font-size="14" lengthAdjust="spacing" textLength="260" x="674" y="227.667">Phase de l'essai (Study type : phase)</text><text fill="#000000" font-family="sans-serif" font-size="14" lengthAdjust="spacing" textLength="52" x="1047" y="227.667">phase :</text><text fill="#000000" font-family="sans-serif" font-size="14" font-style="italic" lengthAdjust="spacing" textLength="167" x="1107" y="227.667">CodeableConcept [0..1]</text><line style="stroke:#0000FF;stroke-width:1.0;" x1="1042" x2="1042" y1="212.6719" y2="232.9688"/><line style="stroke:#0000FF;stroke-width:1.0;" x1="566" x2="1433.3333" y1="232.9688" y2="232.9688"/><text fill="#000000" font-family="sans-serif" font-size="14" lengthAdjust="spacing" textLength="290" x="659" y="247.9639">Type d'essai (Study type : type of study)</text><text fill="#000000" font-family="sans-serif" font-size="14" lengthAdjust="spacing" textLength="73" x="1047" y="247.9639">category :</text><text fill="#000000" font-family="sans-serif" font-size="14" font-style="italic" lengthAdjust="spacing" textLength="165" x="1128" y="247.9639">CodeableConcept [0..*]</text><line style="stroke:#0000FF;stroke-width:1.0;" x1="1042" x2="1042" y1="232.9688" y2="253.2656"/><line style="stroke:#0000FF;stroke-width:1.0;" x1="566" x2="1433.3333" y1="253.2656" y2="253.2656"/><text fill="#000000" font-family="sans-serif" font-size="14" lengthAdjust="spacing" textLength="420" x="594" y="268.2607">Sujet concern&#233; (Health Condition(s) or Problem(s) Studied)</text><text fill="#000000" font-family="sans-serif" font-size="14" lengthAdjust="spacing" textLength="77" x="1047" y="268.2607">condition :</text><text fill="#000000" font-family="sans-serif" font-size="14" font-style="italic" lengthAdjust="spacing" textLength="231" x="1132" y="268.2607">CodeableConcept [0..*] (MeDRA)</text><line style="stroke:#0000FF;stroke-width:1.0;" x1="1042" x2="1042" y1="253.2656" y2="273.5625"/><line style="stroke:#0000FF;stroke-width:1.0;" x1="566" x2="1433.3333" y1="273.5625" y2="273.5625"/><text fill="#000000" font-family="sans-serif" font-size="14" lengthAdjust="spacing" textLength="466" x="571" y="288.5576">Pr&#233;cision sur le sujet (Health Condition(s)  or  Problem(s) Studied)</text><text fill="#000000" font-family="sans-serif" font-size="14" lengthAdjust="spacing" textLength="118" x="1047" y="288.5576">conditionDetails</text><path d="M1173.5,279.026 L1173.5,282.526 L1170,282.526 L1170,284.8594 L1173.5,284.8594 L1173.5,288.3594 L1175.8333,288.3594 L1175.8333,284.8594 L1179.3333,284.8594 L1179.3333,282.526 L1175.8333,282.526 L1175.8333,279.026 L1173.5,279.026 " fill="#000000" style="stroke:;stroke-width:0.0;stroke-dasharray:;"/><text fill="#000000" font-family="sans-serif" font-size="14" lengthAdjust="spacing" textLength="5" x="1184.3333" y="288.5576">:</text><text fill="#000000" font-family="sans-serif" font-size="14" font-style="italic" lengthAdjust="spacing" textLength="80" x="1197.3333" y="288.5576">string [0..1]</text><line style="stroke:#0000FF;stroke-width:1.0;" x1="1042" x2="1042" y1="273.5625" y2="293.8594"/><line style="stroke:#0000FF;stroke-width:1.0;" x1="566" x2="1433.3333" y1="293.8594" y2="293.8594"/><text fill="#000000" font-family="sans-serif" font-size="14" lengthAdjust="spacing" textLength="178" x="715" y="308.8545">Domaine th&#233;rapeutique*</text><text fill="#000000" font-family="sans-serif" font-size="14" lengthAdjust="spacing" textLength="118" x="1047" y="308.8545">therapeuticArea</text><path d="M1173.5,299.3229 L1173.5,302.8229 L1170,302.8229 L1170,305.1562 L1173.5,305.1562 L1173.5,308.6562 L1175.8333,308.6562 L1175.8333,305.1562 L1179.3333,305.1562 L1179.3333,302.8229 L1175.8333,302.8229 L1175.8333,299.3229 L1173.5,299.3229 " fill="#000000" style="stroke:;stroke-width:0.0;stroke-dasharray:;"/><text fill="#000000" font-family="sans-serif" font-size="14" lengthAdjust="spacing" textLength="5" x="1184.3333" y="308.8545">:</text><text fill="#000000" font-family="sans-serif" font-size="14" font-style="italic" lengthAdjust="spacing" textLength="80" x="1197.3333" y="308.8545">string [0..1]</text><line style="stroke:#0000FF;stroke-width:1.0;" x1="1042" x2="1042" y1="293.8594" y2="314.1563"/><line style="stroke:#0000FF;stroke-width:1.0;" x1="566" x2="1433.3333" y1="314.1563" y2="314.1563"/><text fill="#000000" font-family="sans-serif" font-size="14" lengthAdjust="spacing" textLength="126" x="741" y="329.1514">R&#233;sum&#233; de l'essai</text><text fill="#000000" font-family="sans-serif" font-size="14" lengthAdjust="spacing" textLength="91" x="1047" y="329.1514">description :</text><text fill="#000000" font-family="sans-serif" font-size="14" font-style="italic" lengthAdjust="spacing" textLength="115" x="1146" y="329.1514">markdown [0..1]</text><line style="stroke:#0000FF;stroke-width:1.0;" x1="1042" x2="1042" y1="314.1563" y2="334.4531"/><line style="stroke:#0000FF;stroke-width:1.0;" x1="566" x2="1433.3333" y1="334.4531" y2="334.4531"/><text fill="#000000" font-family="sans-serif" font-size="14" lengthAdjust="spacing" textLength="278" x="665" y="349.4482">P&#233;riode pr&#233;visionnelle de recrutement</text><text fill="#000000" font-family="sans-serif" font-size="14" lengthAdjust="spacing" textLength="4" x="1047" y="349.4482">&#160;</text><line style="stroke:#0000FF;stroke-width:1.0;" x1="1042" x2="1042" y1="334.4531" y2="354.75"/><line style="stroke:#0000FF;stroke-width:1.0;" x1="566" x2="1433.3333" y1="354.75" y2="354.75"/><text fill="#000000" font-family="sans-serif" font-size="14" lengthAdjust="spacing" textLength="338" x="635" y="369.7451">Contact (Contact for public / scientific queries)</text><text fill="#000000" font-family="sans-serif" font-size="14" lengthAdjust="spacing" textLength="65" x="1047" y="369.7451">contact :</text><text fill="#000000" font-family="sans-serif" font-size="14" font-style="italic" lengthAdjust="spacing" textLength="135" x="1120" y="369.7451">ContactDetail [0..*]</text><line style="stroke:#0000FF;stroke-width:1.0;" x1="1042" x2="1042" y1="354.75" y2="375.0469"/><line style="stroke:#0000FF;stroke-width:1.0;" x1="566" x2="1433.3333" y1="375.0469" y2="375.0469"/><text fill="#000000" font-family="sans-serif" font-size="14" lengthAdjust="spacing" textLength="446" x="581" y="390.042">Participants (Key Inclusion and Exclusion Criteria, Sample size)</text><text fill="#000000" font-family="sans-serif" font-size="14" lengthAdjust="spacing" textLength="89" x="1047" y="390.042">enrollment :</text><text fill="#000000" font-family="sans-serif" font-size="14" font-style="italic" lengthAdjust="spacing" textLength="166" x="1144" y="390.042">Reference(Group) [0..*]</text><line style="stroke:#0000FF;stroke-width:1.0;" x1="1042" x2="1042" y1="375.0469" y2="395.3438"/><line style="stroke:#0000FF;stroke-width:1.0;" x1="566" x2="1433.3333" y1="395.3438" y2="395.3438"/><text fill="#000000" font-family="sans-serif" font-size="14" lengthAdjust="spacing" textLength="234" x="687" y="410.3389">Lieux (Countries of Recruitment)</text><text fill="#000000" font-family="sans-serif" font-size="14" lengthAdjust="spacing" textLength="36" x="1047" y="410.3389">site :</text><text fill="#000000" font-family="sans-serif" font-size="14" font-style="italic" lengthAdjust="spacing" textLength="185" x="1091" y="410.3389">Reference(Location) [0..1]</text><line style="stroke:#0000FF;stroke-width:1.0;" x1="1042" x2="1042" y1="395.3438" y2="415.6406"/><line style="stroke:#0000FF;stroke-width:1.0;" x1="566" x2="1433.3333" y1="415.6406" y2="415.6406"/><text fill="#000000" font-family="sans-serif" font-size="14" lengthAdjust="spacing" textLength="274" x="667" y="430.6357">Promoteur principal (Primary sponsor)</text><text fill="#000000" font-family="sans-serif" font-size="14" lengthAdjust="spacing" textLength="66" x="1047" y="430.6357">sponsor :</text><text fill="#000000" font-family="sans-serif" font-size="14" font-style="italic" lengthAdjust="spacing" textLength="215" x="1121" y="430.6357">Reference(Organization) [0..1]</text><line style="stroke:#0000FF;stroke-width:1.0;" x1="1042" x2="1042" y1="415.6406" y2="435.9375"/><line style="stroke:#0000FF;stroke-width:1.0;" x1="566" x2="1433.3333" y1="435.9375" y2="435.9375"/><text fill="#000000" font-family="sans-serif" font-size="14" lengthAdjust="spacing" textLength="328" x="640" y="450.9326">Promoteur secondaire (Secondary Sponsor(s))</text><text fill="#000000" font-family="sans-serif" font-size="14" lengthAdjust="spacing" textLength="132" x="1047" y="450.9326">secondarySponsor</text><path d="M1187.5,441.401 L1187.5,444.901 L1184,444.901 L1184,447.2344 L1187.5,447.2344 L1187.5,450.7344 L1189.8333,450.7344 L1189.8333,447.2344 L1193.3333,447.2344 L1193.3333,444.901 L1189.8333,444.901 L1189.8333,441.401 L1187.5,441.401 " fill="#000000" style="stroke:;stroke-width:0.0;stroke-dasharray:;"/><text fill="#000000" font-family="sans-serif" font-size="14" lengthAdjust="spacing" textLength="5" x="1198.3333" y="450.9326">:</text><text fill="#000000" font-family="sans-serif" font-size="14" font-style="italic" lengthAdjust="spacing" textLength="213" x="1211.3333" y="450.9326">Reference(Organization) [0..*]</text><line style="stroke:#0000FF;stroke-width:1.0;" x1="1042" x2="1042" y1="435.9375" y2="456.2344"/></g><!--link RS to Location--><g id="link_RS_Location"><path codeLine="61" d="M1199.04,469.4876 C1229.63,499.3996 1258.81,527.9296 1282.35,550.9466 " fill="none" id="RS-Location" style="stroke:#EE82EE;stroke-width:4.0;stroke-dasharray:7.0,7.0;"/><polygon fill="#EE82EE" points="1189.67,460.3256,1191.1649,467.3801,1198.2517,468.7134,1196.7568,461.659,1189.67,460.3256" style="stroke:#EE82EE;stroke-width:4.0;"/><polygon fill="#EE82EE" points="1291.75,560.1356,1288.1097,550.9842,1288.1743,556.6407,1282.5178,556.7053,1291.75,560.1356" style="stroke:#EE82EE;stroke-width:4.0;"/><line style="stroke:#EE82EE;stroke-width:4.0;" x1="1288.1743" x2="1282.45" y1="556.6407" y2="551.0471"/></g><!--link RS to Group--><g id="link_RS_Group"><path codeLine="62" d="M756.416,468.3286 C737.863,483.1296 719.718,497.6066 702.605,511.2596 " fill="none" id="RS-Group" style="stroke:#90EE90;stroke-width:4.0;stroke-dasharray:7.0,7.0;"/><polygon fill="#90EE90" points="766.747,460.0856,759.5621,460.7003,757.3662,467.5689,764.551,466.9542,766.747,460.0856" style="stroke:#90EE90;stroke-width:4.0;"/><polygon fill="#90EE90" points="692.088,519.6506,701.6181,517.1651,695.9967,516.5326,696.6292,510.9112,692.088,519.6506" style="stroke:#90EE90;stroke-width:4.0;"/><line style="stroke:#90EE90;stroke-width:4.0;" x1="695.9967" x2="702.2505" y1="516.5326" y2="511.5426"/></g><!--link RS to Organization--><g id="link_RS_Organization"><path codeLine="63" d="M999.5,473.3896 C999.5,500.2506 999.5,525.8406 999.5,547.1306 " fill="none" id="RS-Organization" style="stroke:#FFD700;stroke-width:4.0;stroke-dasharray:7.0,7.0;"/><polygon fill="#FFD700" points="999.5,460.3256,995.5,466.3256,999.5,472.3256,1003.5,466.3256,999.5,460.3256" style="stroke:#FFD700;stroke-width:4.0;"/><polygon fill="#FFD700" points="999.5,560.1356,1003.5,551.1356,999.5,555.1356,995.5,551.1356,999.5,560.1356" style="stroke:#FFD700;stroke-width:4.0;"/><line style="stroke:#FFD700;stroke-width:4.0;" x1="999.5" x2="999.5" y1="555.1356" y2="547.1356"/></g><!--link slice_identifier to RS--><g id="link_slice_identifier_RS"><path codeLine="64" d="M522.683,273.3906 C534.324,273.3906 545.965,273.3906 557.606,273.3906 " fill="none" id="slice_identifier-RS" style="stroke:#ADD8E6;stroke-width:2.0;"/></g><!--link RS to Contact--><g id="link_RS_Contact"><path codeLine="65" d="M1441.15,273.3906 C1452.75,273.3906 1464.34,273.3906 1475.94,273.3906 " fill="none" id="RS-Contact" style="stroke:#ADD8E6;stroke-width:6.0;stroke-dasharray:1.0,3.0;"/></g><!--link Group to Organization--><!--reverse link Characteristic to Group--><g id="link_Characteristic_Group"><path codeLine="69" d="M324.201,633.0591 C338.467,634.2121 352.718,634.8906 366.5,634.8906 " fill="none" id="Characteristic-backto-Group" style="stroke:#90EE90;stroke-width:2.0;"/></g><!--reverse link Characteristic to Group--><g id="link_Characteristic_Group"><path codeLine="70" d="M307.71,649.3967 C327.295,652.7677 347.265,654.8906 366.5,654.8906 " fill="none" id="Characteristic-backto-Group-1" style="stroke:#90EE90;stroke-width:2.0;"/></g><!--link Group to Characteristic--><g id="link_Group_Characteristic"><path codeLine="71" d="M366.5,675.8906 C326.75,675.8906 284.942,663.7178 249.596,649.4528 " fill="none" id="Group-to-Characteristic" style="stroke:#90EE90;stroke-width:2.0;"/></g><!--SRC=[pLRTJYCt5BxFKrX1saqGWMvLzO8kIFn4B5eMeWpRgg9HvSoS92uUUx0zBDcgxzBBvZdoOZq-didC148HUzDSW7t6t_d_Itd6sYTQEHwxKt1So3RZbXKKjZNcyUt-aHGn7CiSVfe1Jy3iNuZfp4MtSw99eM1_Z2VsPulXxrAdxE2GAPu2ssTxUymw8zIKtNotk_jkX0HwTRrSoEKYrccQAn5p9xJoA0SIa1Y0XHO3BPGZ-BQ7iu2VP-01CRsXs_itcSpjOS36Ee5A9FjD-R-TzY0Vep7jlNOK2r1EJF3I9QP_jLgfTqRaZMKY2L_1a3-i9_vU4L_bcFC2pj6Q35qIYunBRmDUKcxcvqcXyAFN5dsY4YuCcLpSLe3jqKhvCwFpZ3IcKw7cTV_am-NLnTNPhmqzpmo0Ua8t556pbBnvNjrNSQZ2W9wUUd6adVEKMWZUKGWEM7i0nchLBf5d0O7n5HEFmqEExY3aM6i9NDN0roQ7Te7iJoP0gENVp41iSeTg8OUx7BKNRXvuvCgAgOBalCYTAlLEZ73BVmnOofyPDoWQZB1En05wZ4uRQmLz2IdKKu_WHrDu7V0Cb7a5j8pjIGCLohJ9wCNHfXY5wacWhBK4-5W2rbmCcIjTNwX-poNav6GyvN3pC0gevYjuYB40YqgcIybzBQ0rgwxCb2lnbHe0sLGd51OTVuxEB_jHLDfpfcNoZNdxiYPrb62MM8ePJ-WS7XyLbyT1kj1nPKfvASpuX56Q3xLTTOkV1Nh5_MyiQGQcRoqN9zZ3n5tkEG_10ZVnB79vCYVpXj4tjy7E8BG-nbN2ehAlbK_ctexBF1rZv-YkEUNz6yddI3_Sx9umA4wvemvbbejxGSdf89u5gv1bYaDlLtBhFcS9lam2Ew6iu_N6iOdN1Cl5XrY1bCJFmBs0B_ImCOyyyskHmbfSVFIGeNmBtjte3vfF3DkO13APJiy4DdBSvQxE0q7qPJ3Z5XhCANHbWyxyPn91fmrTe3cpgTa_oOt-wGdgY4JYYgaFKstccnbNEHpbVs0TnFwRKSi5wtm0BjtCBm29yExjOForOGEZaKVgRrwwWAHRx03XsREoEf_WT7ZKBMKEC8Xn2AB5rePEjgJ5axAzyF-K7lOdsupxaq4xrId7gc1kjbmOda7kV3fkKxndK53Y8mFy1So6ouNDK_HQCmSIiB4HMUKMhBFRH7zHQ_01gY3y6CXMMHsIsUTvcAuqaCgqAbV3JdcOe6-oaBQeuMgjmd6CSmbijzhIN6Ej2-vQouG1DsWvBaRAMTRv2DWBL3bKV8_ehqQCd-8eWE-mYAUP3v_u2bq_U9JHKfBE96u84p20gT2XbQEx9l52GFxWhScLy_hwB1vwkuNpF4XzYwBMcPNDlRlkJwDJxVoqh7QyLPkpcLPMcy0qdDVvrkTVTxq1LSnhAs6dQfnHu8afscriYWMzcKtFoImQA0w3rZ3QtmzEskxTR8MPjPDmEuDanyr4VAimvmv-6FKELmEFC8rGUcYrXco0XvqrW5U6UgGV-1imTTK9MHylFGaJTxCblM0_YshWxqUFbdg2brdTgyCIxLn3z8-ZCejRhQ1rxsOc4cGrQceKlYBRrSvPw5HpHbsfmxMThiJxfVDroB1rzbwEmv-4AM2nEPqnBnDJhpvkoMz4AvC97XmeNvL8tVQp1RU3vEroSPSBlpbYYc6HAhTSx4uCKuBzyk6gXGA2c7y1]--></g></svg>