<?xml version="1.0" encoding="us-ascii" standalone="no"?><svg xmlns="http://www.w3.org/2000/svg" xmlns:xlink="http://www.w3.org/1999/xlink" contentStyleType="text/css" height="1011px" preserveAspectRatio="none" style="width:1284px;height:1011px;background:#FFFFFF;" version="1.1" viewBox="0 0 1284 1011" width="1284px" zoomAndPan="magnify"><defs/><g><rect fill="#DDDDDD" height="81.6406" id="_legend" rx="7.5" ry="7.5" style="stroke:#000000;stroke-width:1.0;" width="276" x="12" y="12"/><path d="M18,20.4635 L18,25.1302 L22.6667,25.1302 L22.6667,20.4635 L18,20.4635 M23.8333,22.7969 L23.8333,26.2969 L20.3333,26.2969 L20.3333,27.4635 L25,27.4635 L25,22.7969 L23.8333,22.7969 M26.1667,25.1302 L26.1667,28.6302 L22.6667,28.6302 L22.6667,29.7969 L27.3333,29.7969 L27.3333,25.1302 L26.1667,25.1302 " fill="#000000" style="stroke:;stroke-width:0.0;stroke-dasharray:;"/><text fill="#000000" font-family="sans-serif" font-size="14" lengthAdjust="spacing" textLength="41" x="32.3333" y="29.9951">: slice</text><path d="M21.5,36.7604 L21.5,40.2604 L18,40.2604 L18,42.5938 L21.5,42.5938 L21.5,46.0938 L23.8333,46.0938 L23.8333,42.5938 L27.3333,42.5938 L27.3333,40.2604 L23.8333,40.2604 L23.8333,36.7604 L21.5,36.7604 " fill="#000000" style="stroke:;stroke-width:0.0;stroke-dasharray:;"/><text fill="#000000" font-family="sans-serif" font-size="14" lengthAdjust="spacing" textLength="80" x="32.3333" y="46.292">: extension</text><text fill="#000000" font-family="sans-serif" font-size="14" lengthAdjust="spacing" textLength="266" x="17" y="62.5889">* : pas d'&#233;quivalence Sant&#233;.fr ni WHO</text><path d="M18.5476,86.3073 C17.4731,86.3073 16.9994,85.5268 17.4941,84.573 L26.5993,67.041 C27.0946,66.0872 27.9048,66.0872 28.4001,67.041 L37.5053,84.5736 C38.0012,85.5268 37.5269,86.3073 36.4524,86.3073 L18.5476,86.3073 " fill="#FFCC4D" style="stroke:;stroke-width:0.0;stroke-dasharray:;"/><path d="M26.0901,82.7799 C26.0901,82.0023 26.723,81.3694 27.5012,81.3694 C28.2788,81.3694 28.9117,82.0023 28.9117,82.7799 C28.9117,83.558 28.2782,84.191 27.5012,84.191 C26.723,84.191 26.0901,83.558 26.0901,82.7799 M26.1986,72.109 C26.1986,71.3495 26.7592,70.8793 27.5006,70.8793 C28.2245,70.8793 28.8032,71.3675 28.8032,72.109 L28.8032,79.0728 C28.8032,79.8142 28.2245,80.3025 27.5006,80.3025 C26.7592,80.3025 26.1986,79.8317 26.1986,79.0728 L26.1986,72.109 " fill="#231F20" style="stroke:;stroke-width:0.0;stroke-dasharray:;"/><text fill="#000000" font-family="sans-serif" font-size="14" lengthAdjust="spacing" textLength="103" x="42" y="85.3389">: en discussion</text><g id="elem_Contact"><rect fill="#F0F8FF" height="81.1875" style="stroke:#0000FF;stroke-width:0.5;" width="671.3333" x="64" y="113.6406"/><rect fill="#87CEFA" height="20.2969" style="stroke:#0000FF;stroke-width:0.5;" width="671.3333" x="64" y="113.6406"/><text fill="#000000" font-family="sans-serif" font-size="14" lengthAdjust="spacing" textLength="101" x="349.1667" y="128.6357">ContactDetail</text><line style="stroke:#0000FF;stroke-width:1.0;" x1="64" x2="735.3333" y1="133.9375" y2="133.9375"/><text fill="#000000" font-family="sans-serif" font-size="14" lengthAdjust="spacing" textLength="33" x="123.5" y="148.9326">Nom</text><text fill="#000000" font-family="sans-serif" font-size="14" lengthAdjust="spacing" textLength="141" x="221" y="148.9326">name :  string [0..1]</text><line style="stroke:#0000FF;stroke-width:1.0;" x1="216" x2="216" y1="133.9375" y2="154.2344"/><line style="stroke:#0000FF;stroke-width:1.0;" x1="64" x2="735.3333" y1="154.2344" y2="154.2344"/><text fill="#000000" font-family="sans-serif" font-size="14" lengthAdjust="spacing" textLength="142" x="69" y="169.2295">T&#233;l&#233;communication</text><text fill="#000000" font-family="sans-serif" font-size="14" lengthAdjust="spacing" textLength="213" x="221" y="169.2295">telecom :  ContactPoint [0..*]</text><line style="stroke:#0000FF;stroke-width:1.0;" x1="216" x2="216" y1="154.2344" y2="174.5313"/><line style="stroke:#0000FF;stroke-width:1.0;" x1="64" x2="735.3333" y1="174.5313" y2="174.5313"/><text fill="#000000" font-family="sans-serif" font-size="14" lengthAdjust="spacing" textLength="36" x="122" y="189.5264">Type</text><path d="M225.5,179.9948 L225.5,183.4948 L222,183.4948 L222,185.8281 L225.5,185.8281 L225.5,189.3281 L227.8333,189.3281 L227.8333,185.8281 L231.3333,185.8281 L231.3333,183.4948 L227.8333,183.4948 L227.8333,179.9948 L225.5,179.9948 " fill="#000000" style="stroke:;stroke-width:0.0;stroke-dasharray:;"/><text fill="#000000" font-family="sans-serif" font-size="14" lengthAdjust="spacing" textLength="494" x="236.3333" y="189.5264">ECLAIREContacType :  CodeableConcept [0..1] ("Public"/"Scientific")</text><line style="stroke:#0000FF;stroke-width:1.0;" x1="216" x2="216" y1="174.5313" y2="194.8281"/></g><g id="elem_slice_identifier"><rect fill="#F0F8FF" height="60.8906" style="stroke:#0000FF;stroke-width:0.5;" width="306" x="786.5" y="124.1406"/><rect fill="#87CEFA" height="20.2969" style="stroke:#0000FF;stroke-width:0.5;" width="306" x="786.5" y="124.1406"/><path d="M880.3333,129.6042 L880.3333,134.2708 L885,134.2708 L885,129.6042 L880.3333,129.6042 M886.1667,131.9375 L886.1667,135.4375 L882.6667,135.4375 L882.6667,136.6042 L887.3333,136.6042 L887.3333,131.9375 L886.1667,131.9375 M888.5,134.2708 L888.5,137.7708 L885,137.7708 L885,138.9375 L889.6667,138.9375 L889.6667,134.2708 L888.5,134.2708 " fill="#000000" style="stroke:;stroke-width:0.0;stroke-dasharray:;"/><text fill="#000000" font-family="sans-serif" font-size="14" lengthAdjust="spacing" textLength="105" x="894.6667" y="139.1357">Slice identifier</text><line style="stroke:#0000FF;stroke-width:1.0;" x1="786.5" x2="1092.5" y1="144.4375" y2="144.4375"/><text fill="#000000" font-family="sans-serif" font-size="14" lengthAdjust="spacing" textLength="143" x="799" y="159.4326">Identifiant principal</text><text fill="#000000" font-family="sans-serif" font-size="14" lengthAdjust="spacing" textLength="110" x="959.5" y="159.4326">idPrimary [0..1]</text><line style="stroke:#0000FF;stroke-width:1.0;" x1="954.5" x2="954.5" y1="144.4375" y2="164.7344"/><line style="stroke:#0000FF;stroke-width:1.0;" x1="786.5" x2="1092.5" y1="164.7344" y2="164.7344"/><text fill="#000000" font-family="sans-serif" font-size="14" lengthAdjust="spacing" textLength="158" x="791.5" y="179.7295">Identifiant secondaire</text><text fill="#000000" font-family="sans-serif" font-size="14" lengthAdjust="spacing" textLength="128" x="959.5" y="179.7295">idSecondary [0..*]</text><line style="stroke:#0000FF;stroke-width:1.0;" x1="954.5" x2="954.5" y1="164.7344" y2="185.0313"/></g><g id="elem_Group"><rect fill="#C9FFC9" height="154.375" style="stroke:#181818;stroke-width:0.5;" width="439" x="7" y="701.6406"/><rect fill="#90EE90" height="20.2969" style="stroke:#181818;stroke-width:0.5;" width="439" x="7" y="701.6406"/><text fill="#000000" font-family="sans-serif" font-size="14" lengthAdjust="spacing" textLength="44" x="204.5" y="716.6357">Group</text><line style="stroke:#181818;stroke-width:1.0;" x1="7" x2="446" y1="721.9375" y2="721.9375"/><text fill="#000000" font-family="sans-serif" font-size="14" lengthAdjust="spacing" textLength="83" x="35.5" y="736.9326">Identifiant*</text><text fill="#000000" font-family="sans-serif" font-size="14" lengthAdjust="spacing" textLength="187" x="152" y="736.9326">identifier : Identifier [0..*]</text><line style="stroke:#181818;stroke-width:1.0;" x1="147" x2="147" y1="721.9375" y2="742.2344"/><line style="stroke:#181818;stroke-width:1.0;" x1="7" x2="446" y1="742.2344" y2="742.2344"/><text fill="#000000" font-family="sans-serif" font-size="14" lengthAdjust="spacing" textLength="120" x="17" y="757.2295">Type de groupe*</text><text fill="#000000" font-family="sans-serif" font-size="14" lengthAdjust="spacing" textLength="206" x="152" y="757.2295">type : code [1..1] = "Person"</text><line style="stroke:#181818;stroke-width:1.0;" x1="147" x2="147" y1="742.2344" y2="762.5313"/><line style="stroke:#181818;stroke-width:1.0;" x1="7" x2="446" y1="762.5313" y2="762.5313"/><text fill="#000000" font-family="sans-serif" font-size="14" lengthAdjust="spacing" textLength="97" x="28.5" y="777.5264">Groupe actif*</text><text fill="#000000" font-family="sans-serif" font-size="14" lengthAdjust="spacing" textLength="221" x="152" y="777.5264">actual : boolean [1..1] = "True"</text><line style="stroke:#181818;stroke-width:1.0;" x1="147" x2="147" y1="762.5313" y2="782.8281"/><line style="stroke:#181818;stroke-width:1.0;" x1="7" x2="446" y1="782.8281" y2="782.8281"/><text fill="#000000" font-family="sans-serif" font-size="14" lengthAdjust="spacing" textLength="130" x="12" y="797.8232">Effectif &#224; recruter</text><text fill="#000000" font-family="sans-serif" font-size="14" lengthAdjust="spacing" textLength="199" x="152" y="797.8232">quantity : unsignedInt [0..1]</text><line style="stroke:#181818;stroke-width:1.0;" x1="147" x2="147" y1="782.8281" y2="803.125"/><line style="stroke:#181818;stroke-width:1.0;" x1="7" x2="446" y1="803.125" y2="803.125"/><text fill="#000000" font-family="sans-serif" font-size="14" lengthAdjust="spacing" textLength="58" x="46" y="818.1201">Crit&#232;res</text><text fill="#000000" font-family="sans-serif" font-size="14" lengthAdjust="spacing" textLength="28" x="50" y="834.417">Age</text><text fill="#000000" font-family="sans-serif" font-size="14" lengthAdjust="spacing" textLength="44" x="50" y="850.7139">Genre</text><text fill="#000000" font-family="sans-serif" font-size="14" lengthAdjust="spacing" textLength="4" x="152" y="818.1201">&#160;</text><text fill="#000000" font-family="sans-serif" font-size="14" lengthAdjust="spacing" textLength="285" x="156" y="834.417">characteristic : BackboneElement [0..*]</text><line style="stroke:#181818;stroke-width:1.0;" x1="147" x2="147" y1="803.125" y2="856.0156"/></g><g id="elem_Characteristic"><rect fill="#C9FFC9" height="81.1875" style="stroke:#181818;stroke-width:0.5;" width="306" x="73.5" y="923.6406"/><rect fill="#90EE90" height="20.2969" style="stroke:#181818;stroke-width:0.5;" width="306" x="73.5" y="923.6406"/><text fill="#000000" font-family="sans-serif" font-size="14" lengthAdjust="spacing" textLength="101" x="176" y="938.6357">Characteristic</text><line style="stroke:#181818;stroke-width:1.0;" x1="73.5" x2="379.5" y1="943.9375" y2="943.9375"/><text fill="#000000" font-family="sans-serif" font-size="14" lengthAdjust="spacing" textLength="34" x="94.5" y="958.9326">type</text><text fill="#000000" font-family="sans-serif" font-size="14" lengthAdjust="spacing" textLength="220" x="154.5" y="958.9326">code : CodeableConcept [1..1]</text><line style="stroke:#181818;stroke-width:1.0;" x1="149.5" x2="149.5" y1="943.9375" y2="964.2344"/><line style="stroke:#181818;stroke-width:1.0;" x1="73.5" x2="379.5" y1="964.2344" y2="964.2344"/><text fill="#000000" font-family="sans-serif" font-size="14" lengthAdjust="spacing" textLength="43" x="90" y="979.2295">valeur</text><text fill="#000000" font-family="sans-serif" font-size="14" lengthAdjust="spacing" textLength="106" x="154.5" y="979.2295">value[x] : [1..1]</text><line style="stroke:#181818;stroke-width:1.0;" x1="149.5" x2="149.5" y1="964.2344" y2="984.5313"/><line style="stroke:#181818;stroke-width:1.0;" x1="73.5" x2="379.5" y1="984.5313" y2="984.5313"/><text fill="#000000" font-family="sans-serif" font-size="14" lengthAdjust="spacing" textLength="66" x="78.5" y="999.5264">exclusion</text><text fill="#000000" font-family="sans-serif" font-size="14" lengthAdjust="spacing" textLength="168" x="154.5" y="999.5264">exclude : boolean [1..1]</text><line style="stroke:#181818;stroke-width:1.0;" x1="149.5" x2="149.5" y1="984.5313" y2="1004.8281"/></g><g id="elem_Organization"><rect fill="#FFFFCC" height="101.4844" style="stroke:#181818;stroke-width:0.5;" width="345" x="497" y="728.1406"/><rect fill="#FFD700" height="20.2969" style="stroke:#181818;stroke-width:0.5;" width="345" x="497" y="728.1406"/><text fill="#000000" font-family="sans-serif" font-size="14" lengthAdjust="spacing" textLength="92" x="623.5" y="743.1357">Organization</text><line style="stroke:#181818;stroke-width:1.0;" x1="497" x2="842" y1="748.4375" y2="748.4375"/><text fill="#000000" font-family="sans-serif" font-size="14" lengthAdjust="spacing" textLength="83" x="502" y="763.4326">Identifiant*</text><text fill="#000000" font-family="sans-serif" font-size="14" lengthAdjust="spacing" textLength="187" x="595" y="763.4326">identifier : Identifier [0..*]</text><line style="stroke:#181818;stroke-width:1.0;" x1="590" x2="590" y1="748.4375" y2="768.7344"/><line style="stroke:#181818;stroke-width:1.0;" x1="497" x2="842" y1="768.7344" y2="768.7344"/><text fill="#000000" font-family="sans-serif" font-size="14" lengthAdjust="spacing" textLength="33" x="527" y="783.7295">Nom</text><text fill="#000000" font-family="sans-serif" font-size="14" lengthAdjust="spacing" textLength="137" x="595" y="783.7295">name : string [0..1]</text><line style="stroke:#181818;stroke-width:1.0;" x1="590" x2="590" y1="768.7344" y2="789.0313"/><line style="stroke:#181818;stroke-width:1.0;" x1="497" x2="842" y1="789.0313" y2="789.0313"/><text fill="#000000" font-family="sans-serif" font-size="14" lengthAdjust="spacing" textLength="57" x="515" y="804.0264">Adresse</text><text fill="#000000" font-family="sans-serif" font-size="14" lengthAdjust="spacing" textLength="165" x="595" y="804.0264">address : Address [0..*]</text><line style="stroke:#181818;stroke-width:1.0;" x1="590" x2="590" y1="789.0313" y2="809.3281"/><line style="stroke:#181818;stroke-width:1.0;" x1="497" x2="842" y1="809.3281" y2="809.3281"/><text fill="#000000" font-family="sans-serif" font-size="14" lengthAdjust="spacing" textLength="58" x="514.5" y="824.3232">Contact</text><text fill="#000000" font-family="sans-serif" font-size="14" lengthAdjust="spacing" textLength="242" x="595" y="824.3232">contact : BackboneElement [0..*]</text><line style="stroke:#181818;stroke-width:1.0;" x1="590" x2="590" y1="809.3281" y2="829.625"/></g><g id="elem_Location"><rect fill="#FFE4E1" height="107.9375" style="stroke:#181818;stroke-width:0.5;" width="384.3333" x="893.5" y="725.1406"/><rect fill="#EE82EE" height="20.2969" style="stroke:#181818;stroke-width:0.5;" width="384.3333" x="893.5" y="725.1406"/><text fill="#000000" font-family="sans-serif" font-size="14" lengthAdjust="spacing" textLength="62" x="1054.6667" y="740.1357">Location</text><line style="stroke:#181818;stroke-width:1.0;" x1="893.5" x2="1277.8333" y1="745.4375" y2="745.4375"/><text fill="#000000" font-family="sans-serif" font-size="14" lengthAdjust="spacing" textLength="83" x="898.5" y="760.4326">Identifiant*</text><text fill="#000000" font-family="sans-serif" font-size="14" lengthAdjust="spacing" textLength="187" x="991.5" y="760.4326">identifier : Identifier [0..*]</text><line style="stroke:#181818;stroke-width:1.0;" x1="986.5" x2="986.5" y1="745.4375" y2="765.7344"/><line style="stroke:#181818;stroke-width:1.0;" x1="893.5" x2="1277.8333" y1="765.7344" y2="765.7344"/><text fill="#000000" font-family="sans-serif" font-size="14" lengthAdjust="spacing" textLength="33" x="923.5" y="780.7295">Nom</text><text fill="#000000" font-family="sans-serif" font-size="14" lengthAdjust="spacing" textLength="137" x="991.5" y="780.7295">name : string [0..1]</text><line style="stroke:#181818;stroke-width:1.0;" x1="986.5" x2="986.5" y1="765.7344" y2="786.0313"/><line style="stroke:#181818;stroke-width:1.0;" x1="893.5" x2="1277.8333" y1="786.0313" y2="786.0313"/><text fill="#000000" font-family="sans-serif" font-size="14" lengthAdjust="spacing" textLength="57" x="911.5" y="801.0264">Adresse</text><text fill="#000000" font-family="sans-serif" font-size="14" lengthAdjust="spacing" textLength="167" x="991.5" y="801.0264">address : Address [0..1]</text><line style="stroke:#181818;stroke-width:1.0;" x1="986.5" x2="986.5" y1="786.0313" y2="806.3281"/><line style="stroke:#181818;stroke-width:1.0;" x1="893.5" x2="1277.8333" y1="806.3281" y2="806.3281"/><text fill="#000000" font-family="sans-serif" font-size="14" lengthAdjust="spacing" textLength="58" x="911" y="821.3232">Contact</text><path d="M993.0476,828.7448 C991.9731,828.7448 991.4994,827.9643 991.9941,827.0105 L1001.0993,809.4785 C1001.5946,808.5247 1002.4048,808.5247 1002.9001,809.4785 L1012.0053,827.0111 C1012.5012,827.9643 1012.0269,828.7448 1010.9524,828.7448 L993.0476,828.7448 " fill="#FFCC4D" style="stroke:;stroke-width:0.0;stroke-dasharray:;"/><path d="M1000.5901,825.2174 C1000.5901,824.4398 1001.223,823.8069 1002.0012,823.8069 C1002.7788,823.8069 1003.4117,824.4398 1003.4117,825.2174 C1003.4117,825.9955 1002.7782,826.6285 1002.0012,826.6285 C1001.223,826.6285 1000.5901,825.9955 1000.5901,825.2174 M1000.6986,814.5465 C1000.6986,813.787 1001.2592,813.3168 1002.0006,813.3168 C1002.7245,813.3168 1003.3032,813.805 1003.3032,814.5465 L1003.3032,821.5103 C1003.3032,822.2517 1002.7245,822.74 1002.0006,822.74 C1001.2592,822.74 1000.6986,822.2692 1000.6986,821.5103 L1000.6986,814.5465 " fill="#231F20" style="stroke:;stroke-width:0.0;stroke-dasharray:;"/><text fill="#000000" font-family="sans-serif" font-size="14" lengthAdjust="spacing" textLength="4" x="1012.5" y="827.7764">&#160;</text><path d="M1021,818.2448 L1021,821.7448 L1017.5,821.7448 L1017.5,824.0781 L1021,824.0781 L1021,827.5781 L1023.3333,827.5781 L1023.3333,824.0781 L1026.8333,824.0781 L1026.8333,821.7448 L1023.3333,821.7448 L1023.3333,818.2448 L1021,818.2448 " fill="#000000" style="stroke:;stroke-width:0.0;stroke-dasharray:;"/><text fill="#000000" font-family="sans-serif" font-size="14" lengthAdjust="spacing" textLength="212" x="1031.8333" y="827.7764">contact : ContactDetail [0..1]</text><path d="M1253.3809,828.7448 C1252.3064,828.7448 1251.8328,827.9643 1252.3274,827.0105 L1261.4327,809.4785 C1261.9279,808.5247 1262.7382,808.5247 1263.2334,809.4785 L1272.3387,827.0111 C1272.8345,827.9643 1272.3603,828.7448 1271.2858,828.7448 L1253.3809,828.7448 " fill="#FFCC4D" style="stroke:;stroke-width:0.0;stroke-dasharray:;"/><path d="M1260.9234,825.2174 C1260.9234,824.4398 1261.5563,823.8069 1262.3345,823.8069 C1263.1121,823.8069 1263.745,824.4398 1263.745,825.2174 C1263.745,825.9955 1263.1115,826.6285 1262.3345,826.6285 C1261.5563,826.6285 1260.9234,825.9955 1260.9234,825.2174 M1261.0319,814.5465 C1261.0319,813.787 1261.5925,813.3168 1262.3339,813.3168 C1263.0578,813.3168 1263.6365,813.805 1263.6365,814.5465 L1263.6365,821.5103 C1263.6365,822.2517 1263.0578,822.74 1262.3339,822.74 C1261.5925,822.74 1261.0319,822.2692 1261.0319,821.5103 L1261.0319,814.5465 " fill="#231F20" style="stroke:;stroke-width:0.0;stroke-dasharray:;"/><line style="stroke:#181818;stroke-width:1.0;" x1="986.5" x2="986.5" y1="806.3281" y2="833.0781"/></g><g id="elem_RS"><rect fill="#F0F8FF" height="371.7969" style="stroke:#0000FF;stroke-width:0.5;" width="929.3333" x="205" y="262.6406"/><rect fill="#87CEFA" height="20.2969" style="stroke:#0000FF;stroke-width:0.5;" width="929.3333" x="205" y="262.6406"/><text fill="#000000" font-family="sans-serif" font-size="14" lengthAdjust="spacing" textLength="212" x="563.6667" y="277.6357">EssaiClinique : ResearchStudy</text><line style="stroke:#0000FF;stroke-width:1.0;" x1="205" x2="1134.3333" y1="282.9375" y2="282.9375"/><text fill="#000000" font-family="sans-serif" font-size="14" lengthAdjust="spacing" textLength="404" x="241" y="297.9326">Identifiant (Primary and Secondary Identifying Numbers)</text><path d="M687,288.401 L687,293.0677 L691.6667,293.0677 L691.6667,288.401 L687,288.401 M692.8333,290.7344 L692.8333,294.2344 L689.3333,294.2344 L689.3333,295.401 L694,295.401 L694,290.7344 L692.8333,290.7344 M695.1667,293.0677 L695.1667,296.5677 L691.6667,296.5677 L691.6667,297.7344 L696.3333,297.7344 L696.3333,293.0677 L695.1667,293.0677 " fill="#000000" style="stroke:;stroke-width:0.0;stroke-dasharray:;"/><text fill="#000000" font-family="sans-serif" font-size="14" lengthAdjust="spacing" textLength="187" x="701.3333" y="297.9326">identifier : Identifier [0..*]</text><line style="stroke:#0000FF;stroke-width:1.0;" x1="681" x2="681" y1="282.9375" y2="303.2344"/><line style="stroke:#0000FF;stroke-width:1.0;" x1="205" x2="1134.3333" y1="303.2344" y2="303.2344"/><text fill="#000000" font-family="sans-serif" font-size="14" lengthAdjust="spacing" textLength="193" x="346.5" y="318.2295">Date de r&#233;vision technique</text><text fill="#000000" font-family="sans-serif" font-size="14" lengthAdjust="spacing" textLength="236" x="686" y="318.2295">meta.lastUpdated : instant [0..1]</text><line style="stroke:#0000FF;stroke-width:1.0;" x1="681" x2="681" y1="303.2344" y2="323.5313"/><line style="stroke:#0000FF;stroke-width:1.0;" x1="205" x2="1134.3333" y1="323.5313" y2="323.5313"/><text fill="#000000" font-family="sans-serif" font-size="14" lengthAdjust="spacing" textLength="217" x="334.5" y="338.5264">Date de r&#233;vision fonctionnelle</text><path d="M690.5,328.9948 L690.5,332.4948 L687,332.4948 L687,334.8281 L690.5,334.8281 L690.5,338.3281 L692.8333,338.3281 L692.8333,334.8281 L696.3333,334.8281 L696.3333,332.4948 L692.8333,332.4948 L692.8333,328.9948 L690.5,328.9948 " fill="#000000" style="stroke:;stroke-width:0.0;stroke-dasharray:;"/><text fill="#000000" font-family="sans-serif" font-size="14" lengthAdjust="spacing" textLength="234" x="701.3333" y="338.5264">ECLAIREReviewDate : date [0..1]</text><line style="stroke:#0000FF;stroke-width:1.0;" x1="681" x2="681" y1="323.5313" y2="343.8281"/><line style="stroke:#0000FF;stroke-width:1.0;" x1="205" x2="1134.3333" y1="343.8281" y2="343.8281"/><text fill="#000000" font-family="sans-serif" font-size="14" lengthAdjust="spacing" textLength="194" x="346" y="358.8232">Nom de l'essai (Public title)</text><text fill="#000000" font-family="sans-serif" font-size="14" lengthAdjust="spacing" textLength="128" x="686" y="358.8232">title : string [0..1]</text><line style="stroke:#0000FF;stroke-width:1.0;" x1="681" x2="681" y1="343.8281" y2="364.125"/><line style="stroke:#0000FF;stroke-width:1.0;" x1="205" x2="1134.3333" y1="364.125" y2="364.125"/><text fill="#000000" font-family="sans-serif" font-size="14" lengthAdjust="spacing" textLength="115" x="385.5" y="379.1201">Statut de l'essai</text><path d="M687.5476,386.5417 C686.4731,386.5417 685.9994,385.7612 686.4941,384.8074 L695.5993,367.2753 C696.0946,366.3216 696.9048,366.3216 697.4001,367.2753 L706.5053,384.808 C707.0012,385.7612 706.5269,386.5417 705.4524,386.5417 L687.5476,386.5417 " fill="#FFCC4D" style="stroke:;stroke-width:0.0;stroke-dasharray:;"/><path d="M695.0901,383.0143 C695.0901,382.2367 695.723,381.6038 696.5012,381.6038 C697.2788,381.6038 697.9117,382.2367 697.9117,383.0143 C697.9117,383.7924 697.2782,384.4253 696.5012,384.4253 C695.723,384.4253 695.0901,383.7924 695.0901,383.0143 M695.1986,372.3433 C695.1986,371.5838 695.7592,371.1137 696.5006,371.1137 C697.2245,371.1137 697.8032,371.6019 697.8032,372.3433 L697.8032,379.3072 C697.8032,380.0486 697.2245,380.5368 696.5006,380.5368 C695.7592,380.5368 695.1986,380.0661 695.1986,379.3072 L695.1986,372.3433 " fill="#231F20" style="stroke:;stroke-width:0.0;stroke-dasharray:;"/><text fill="#000000" font-family="sans-serif" font-size="14" lengthAdjust="spacing" textLength="134" x="711" y="385.5732">status : code [1..1]</text><path d="M850.5476,386.5417 C849.4731,386.5417 848.9994,385.7612 849.4941,384.8074 L858.5993,367.2753 C859.0946,366.3216 859.9048,366.3216 860.4001,367.2753 L869.5053,384.808 C870.0012,385.7612 869.5269,386.5417 868.4524,386.5417 L850.5476,386.5417 " fill="#FFCC4D" style="stroke:;stroke-width:0.0;stroke-dasharray:;"/><path d="M858.0901,383.0143 C858.0901,382.2367 858.723,381.6038 859.5012,381.6038 C860.2788,381.6038 860.9117,382.2367 860.9117,383.0143 C860.9117,383.7924 860.2782,384.4253 859.5012,384.4253 C858.723,384.4253 858.0901,383.7924 858.0901,383.0143 M858.1986,372.3433 C858.1986,371.5838 858.7592,371.1137 859.5006,371.1137 C860.2245,371.1137 860.8032,371.6019 860.8032,372.3433 L860.8032,379.3072 C860.8032,380.0486 860.2245,380.5368 859.5006,380.5368 C858.7592,380.5368 858.1986,380.0661 858.1986,379.3072 L858.1986,372.3433 " fill="#231F20" style="stroke:;stroke-width:0.0;stroke-dasharray:;"/><line style="stroke:#0000FF;stroke-width:1.0;" x1="681" x2="681" y1="364.125" y2="390.875"/><line style="stroke:#0000FF;stroke-width:1.0;" x1="205" x2="1134.3333" y1="390.875" y2="390.875"/><text fill="#000000" font-family="sans-serif" font-size="14" lengthAdjust="spacing" textLength="260" x="313" y="405.8701">Phase de l'essai (Study type : phase)</text><text fill="#000000" font-family="sans-serif" font-size="14" lengthAdjust="spacing" textLength="228" x="686" y="405.8701">phase : CodeableConcept [0..1]</text><line style="stroke:#0000FF;stroke-width:1.0;" x1="681" x2="681" y1="390.875" y2="411.1719"/><line style="stroke:#0000FF;stroke-width:1.0;" x1="205" x2="1134.3333" y1="411.1719" y2="411.1719"/><text fill="#000000" font-family="sans-serif" font-size="14" lengthAdjust="spacing" textLength="290" x="298" y="426.167">Type d'essai (Study type : type of study)</text><text fill="#000000" font-family="sans-serif" font-size="14" lengthAdjust="spacing" textLength="247" x="686" y="426.167">category : CodeableConcept [0..*]</text><line style="stroke:#0000FF;stroke-width:1.0;" x1="681" x2="681" y1="411.1719" y2="431.4688"/><line style="stroke:#0000FF;stroke-width:1.0;" x1="205" x2="1134.3333" y1="431.4688" y2="431.4688"/><text fill="#000000" font-family="sans-serif" font-size="14" lengthAdjust="spacing" textLength="420" x="233" y="446.4639">Sujet concern&#233; (Health Condition(s) or Problem(s) Studied)</text><text fill="#000000" font-family="sans-serif" font-size="14" lengthAdjust="spacing" textLength="317" x="686" y="446.4639">condition : CodeableConcept [0..*] (MeDRA)</text><line style="stroke:#0000FF;stroke-width:1.0;" x1="681" x2="681" y1="431.4688" y2="451.7656"/><line style="stroke:#0000FF;stroke-width:1.0;" x1="205" x2="1134.3333" y1="451.7656" y2="451.7656"/><text fill="#000000" font-family="sans-serif" font-size="14" lengthAdjust="spacing" textLength="466" x="210" y="466.7607">Pr&#233;cision sur le sujet (Health Condition(s)  or  Problem(s) Studied)</text><path d="M690.5,457.2292 L690.5,460.7292 L687,460.7292 L687,463.0625 L690.5,463.0625 L690.5,466.5625 L692.8333,466.5625 L692.8333,463.0625 L696.3333,463.0625 L696.3333,460.7292 L692.8333,460.7292 L692.8333,457.2292 L690.5,457.2292 " fill="#000000" style="stroke:;stroke-width:0.0;stroke-dasharray:;"/><text fill="#000000" font-family="sans-serif" font-size="14" lengthAdjust="spacing" textLength="277" x="701.3333" y="466.7607">ECLAIREConditionDetails : string [0..1]</text><line style="stroke:#0000FF;stroke-width:1.0;" x1="681" x2="681" y1="451.7656" y2="472.0625"/><line style="stroke:#0000FF;stroke-width:1.0;" x1="205" x2="1134.3333" y1="472.0625" y2="472.0625"/><text fill="#000000" font-family="sans-serif" font-size="14" lengthAdjust="spacing" textLength="178" x="354" y="487.0576">Domaine th&#233;rapeutique*</text><path d="M690.5,477.526 L690.5,481.026 L687,481.026 L687,483.3594 L690.5,483.3594 L690.5,486.8594 L692.8333,486.8594 L692.8333,483.3594 L696.3333,483.3594 L696.3333,481.026 L692.8333,481.026 L692.8333,477.526 L690.5,477.526 " fill="#000000" style="stroke:;stroke-width:0.0;stroke-dasharray:;"/><text fill="#000000" font-family="sans-serif" font-size="14" lengthAdjust="spacing" textLength="277" x="701.3333" y="487.0576">ECLAIRETherapeuticArea : string [0..1]</text><line style="stroke:#0000FF;stroke-width:1.0;" x1="681" x2="681" y1="472.0625" y2="492.3594"/><line style="stroke:#0000FF;stroke-width:1.0;" x1="205" x2="1134.3333" y1="492.3594" y2="492.3594"/><text fill="#000000" font-family="sans-serif" font-size="14" lengthAdjust="spacing" textLength="126" x="380" y="507.3545">R&#233;sum&#233; de l'essai</text><text fill="#000000" font-family="sans-serif" font-size="14" lengthAdjust="spacing" textLength="212" x="686" y="507.3545">description : markdown [0..1]</text><line style="stroke:#0000FF;stroke-width:1.0;" x1="681" x2="681" y1="492.3594" y2="512.6563"/><line style="stroke:#0000FF;stroke-width:1.0;" x1="205" x2="1134.3333" y1="512.6563" y2="512.6563"/><text fill="#000000" font-family="sans-serif" font-size="14" lengthAdjust="spacing" textLength="278" x="304" y="527.6514">P&#233;riode pr&#233;visionnelle de recrutement</text><path d="M690.5,518.1198 L690.5,521.6198 L687,521.6198 L687,523.9531 L690.5,523.9531 L690.5,527.4531 L692.8333,527.4531 L692.8333,523.9531 L696.3333,523.9531 L696.3333,521.6198 L692.8333,521.6198 L692.8333,518.1198 L690.5,518.1198 " fill="#000000" style="stroke:;stroke-width:0.0;stroke-dasharray:;"/><text fill="#000000" font-family="sans-serif" font-size="14" lengthAdjust="spacing" textLength="299" x="701.3333" y="527.6514">ECLAIRERecruitmentPeriod : period [0..1]</text><line style="stroke:#0000FF;stroke-width:1.0;" x1="681" x2="681" y1="512.6563" y2="532.9531"/><line style="stroke:#0000FF;stroke-width:1.0;" x1="205" x2="1134.3333" y1="532.9531" y2="532.9531"/><text fill="#000000" font-family="sans-serif" font-size="14" lengthAdjust="spacing" textLength="338" x="274" y="547.9482">Contact (Contact for public / scientific queries)</text><text fill="#000000" font-family="sans-serif" font-size="14" lengthAdjust="spacing" textLength="210" x="686" y="547.9482">contact : ContactDetail [0..*]</text><line style="stroke:#0000FF;stroke-width:1.0;" x1="681" x2="681" y1="532.9531" y2="553.25"/><line style="stroke:#0000FF;stroke-width:1.0;" x1="205" x2="1134.3333" y1="553.25" y2="553.25"/><text fill="#000000" font-family="sans-serif" font-size="14" lengthAdjust="spacing" textLength="446" x="220" y="568.2451">Participants (Key Inclusion and Exclusion Criteria, Sample size)</text><text fill="#000000" font-family="sans-serif" font-size="14" lengthAdjust="spacing" textLength="262" x="686" y="568.2451">enrollment : Reference(Group) [0..*]</text><line style="stroke:#0000FF;stroke-width:1.0;" x1="681" x2="681" y1="553.25" y2="573.5469"/><line style="stroke:#0000FF;stroke-width:1.0;" x1="205" x2="1134.3333" y1="573.5469" y2="573.5469"/><text fill="#000000" font-family="sans-serif" font-size="14" lengthAdjust="spacing" textLength="234" x="326" y="588.542">Lieux (Countries of Recruitment)</text><text fill="#000000" font-family="sans-serif" font-size="14" lengthAdjust="spacing" textLength="229" x="686" y="588.542">site : Reference(Location) [0..1]</text><line style="stroke:#0000FF;stroke-width:1.0;" x1="681" x2="681" y1="573.5469" y2="593.8438"/><line style="stroke:#0000FF;stroke-width:1.0;" x1="205" x2="1134.3333" y1="593.8438" y2="593.8438"/><text fill="#000000" font-family="sans-serif" font-size="14" lengthAdjust="spacing" textLength="274" x="306" y="608.8389">Promoteur principal (Primary sponsor)</text><text fill="#000000" font-family="sans-serif" font-size="14" lengthAdjust="spacing" textLength="289" x="686" y="608.8389">sponsor : Reference(Organization) [0..1]</text><line style="stroke:#0000FF;stroke-width:1.0;" x1="681" x2="681" y1="593.8438" y2="614.1406"/><line style="stroke:#0000FF;stroke-width:1.0;" x1="205" x2="1134.3333" y1="614.1406" y2="614.1406"/><text fill="#000000" font-family="sans-serif" font-size="14" lengthAdjust="spacing" textLength="328" x="279" y="629.1357">Promoteur secondaire (Secondary Sponsor(s))</text><path d="M690.5,619.6042 L690.5,623.1042 L687,623.1042 L687,625.4375 L690.5,625.4375 L690.5,628.9375 L692.8333,628.9375 L692.8333,625.4375 L696.3333,625.4375 L696.3333,623.1042 L692.8333,623.1042 L692.8333,619.6042 L690.5,619.6042 " fill="#000000" style="stroke:;stroke-width:0.0;stroke-dasharray:;"/><text fill="#000000" font-family="sans-serif" font-size="14" lengthAdjust="spacing" textLength="428" x="701.3333" y="629.1357">ECLAIRESecondarySponsor  : Reference(Organization) [0..*]</text><line style="stroke:#0000FF;stroke-width:1.0;" x1="681" x2="681" y1="614.1406" y2="634.4375"/></g><!--link RS to Location--><g id="link_RS_Location"><path codeLine="61" d="M918.783,645.9906 C949.115,669.9426 978.226,692.9296 1003.39,712.8046 " fill="none" id="RS-Location" style="stroke:#EE82EE;stroke-width:4.0;stroke-dasharray:7.0,7.0;"/><polygon fill="#EE82EE" points="908.475,637.8506,910.7048,644.7083,917.8926,645.2876,915.6628,638.4299,908.475,637.8506" style="stroke:#EE82EE;stroke-width:4.0;"/><polygon fill="#EE82EE" points="1013.93,721.1256,1009.3464,712.4084,1010.0062,718.0266,1004.388,718.6864,1013.93,721.1256" style="stroke:#EE82EE;stroke-width:4.0;"/><line style="stroke:#EE82EE;stroke-width:4.0;" x1="1010.0062" x2="1003.73" y1="718.0266" y2="713.0691"/></g><!--link RS to Group--><g id="link_RS_Group"><path codeLine="62" d="M404.495,645.6516 C383.961,660.8776 363.947,675.7196 345.195,689.6236 " fill="none" id="RS-Group" style="stroke:#90EE90;stroke-width:4.0;stroke-dasharray:7.0,7.0;"/><polygon fill="#90EE90" points="415.014,637.8506,407.8119,638.2115,405.3751,644.9984,412.5771,644.6375,415.014,637.8506" style="stroke:#90EE90;stroke-width:4.0;"/><polygon fill="#90EE90" points="334.611,697.4726,344.2228,695.3248,338.6272,694.4944,339.4576,688.8988,334.611,697.4726" style="stroke:#90EE90;stroke-width:4.0;"/><line style="stroke:#90EE90;stroke-width:4.0;" x1="338.6272" x2="345.053" y1="694.4944" y2="689.7291"/></g><!--link RS to Organization--><g id="link_RS_Organization"><path codeLine="63" d="M669.5,651.0956 C669.5,672.4326 669.5,692.8726 669.5,710.8676 " fill="none" id="RS-Organization" style="stroke:#FFD700;stroke-width:4.0;stroke-dasharray:7.0,7.0;"/><polygon fill="#FFD700" points="669.5,637.8506,665.5,643.8506,669.5,649.8506,673.5,643.8506,669.5,637.8506" style="stroke:#FFD700;stroke-width:4.0;"/><polygon fill="#FFD700" points="669.5,724.1256,673.5,715.1256,669.5,719.1256,665.5,715.1256,669.5,724.1256" style="stroke:#FFD700;stroke-width:4.0;"/><line style="stroke:#FFD700;stroke-width:4.0;" x1="669.5" x2="669.5" y1="719.1256" y2="711.1256"/></g><!--link slice_identifier to RS--><g id="link_slice_identifier_RS"><path codeLine="65" d="M908.79,188.3526 C891.652,206.8876 868.779,231.6246 843.955,258.4706 " fill="none" id="slice_identifier-RS" style="stroke:#ADD8E6;stroke-width:2.0;"/></g><!--link Contact to RS--><g id="link_Contact_RS"><path codeLine="66" d="M439.922,198.8556 C455.589,215.7996 474.672,236.4376 495.071,258.4986 " fill="none" id="Contact-RS" style="stroke:#ADD8E6;stroke-width:6.0;stroke-dasharray:1.0,3.0;"/></g><!--link Group to Organization--><!--link Group to Characteristic--><g id="link_Group_Characteristic"><path codeLine="70" d="M226.5,859.8596 C226.5,878.4756 226.5,897.7346 226.5,914.5061 " fill="none" id="Group-to-Characteristic" style="stroke:#90EE90;stroke-width:2.0;"/><polygon fill="#90EE90" points="226.5,919.6278,230.5,910.6278,226.5,914.6278,222.5,910.6278,226.5,919.6278" style="stroke:#90EE90;stroke-width:2.0;"/></g><!--SRC=[nLVTJYCt5BxFKrXPQJT1m9QgwiKKa094B5eMeWpRgg9HvSoS92upzc1xW6pLFailc-V8Y_KSUtv945Ntejp4O_ixFz_vCodFMFTKISiZUmQMYwJBk6753dipvT5TC4X412T93ZyiWCUWWqinNzZmRkds4Y4XcEAA_TvX-7UbKdPqp2HFWGMC6Qk5dBFRR_Rt3oRCtRXPhvBrAb9fcaiHSIkK98I5172JG8N-aHBIEkZEX1NOPGPq-V1jbkJcc0rFBmSNuw47k4C7Zu5F4y3T239RAkzrH_aKVUc-xuQH06d533_wAFcFJYSb9WxV9dm96kM6v3CJiRy5sj5YQFFNUlC_yNDHm3cwbY4taSXuGYw9UAH5olMoi7VZja5wPCo51dyzzDy5O6TIkN6kLPuvYzsgCFDcUFhXwlho-lpdbftd6a1kshRZTLIk1jKXVXGXgICI0vkJAd0mw-CGOHZOxO7Z_eXrHqYiabsFSeO1mo2BcSFWAaSU0ZPLAW4k6y0RdKFNeOQp6H22hVzY6YATMpG6mVSvMYpi4k6vD68k8RwGjfLqfrhOzTyQ3Fj5ii4SwESSfESIrz62QxG1j31MH2Ze13cRAWd315Aeqx0Y-RG5y6NJbl6lQNTyaHsEiM0pVmzgFnvu0hbp6bSvt3vD4D2y04yHLaPHK-x3oNn6Q-N6jPvpARwuAdHED3SA5qu-XnTNmp0i7JXNIVmL6TFk45iQn236E1aN6HwxDTuR5AkcfB9FEUhyylN0NQgezhRyA3pzX95RZfMfIlb7WRJP_zNPWqrd3uD7hYLA2kfEM1FGwkUbY2Qcec9e31UdsA74VKxcZS40rz4Yj7cyTFoCmwzkShsohN4Pixfd5LUMnCTLdawnE_HzPozxy2lqUbREk7NjHwzN3yAblOLeuHr2QIcIi9zmOpzdCTwCKPAGnlAwExmaPeR5HvaX8KcsZPmnF0XuTBY0aUnMi2ZiA2vv1qGnSk0c3yCcbO1pqwssPqHekSrj4_uiv8Okc6STjXbVaZ9QS0Cj6rnKo-QSqR6pnAssTPtco7PDVgiWzwDcQ1HkEe5OKJ1NUlc2pB8omlmthAo8JhHShrZl0_34BYXzOq7Czp0Xb6OZhL12Ib-aM43SBmhUNtjPJUyJd8q7VQzkXA6DV6WDDb0atpW3jgeblIyftdnwU9olDxCzfcSgvLWZp2xMAyqpo2rbwCuMUJSBA2v40mrykxZnUcNo54bh9qaC9j8YArZ1ehkBrQDi8KUeNr3QP5Mg-modvFSZrNNDRGcFfyBIAOvob45Pv1UjKYhxLAzSp93CpEV_UsQgbnTERKI3wRVRzsRtAXDcn3MIWiybQGthVGJi8RASTTHRXjNaes6Filak2tcQKQZ55v_iEF5LaZWFgTtDG0EcJCyzH_ejRPS2yYTo8fUMpAGSRr3Wf1bXeIMd72VzDkTQfShIsAuVV5LND9cIHcalpwzR8flpkDzckfRRU1hswXORUd6OmDiIjxfNN6Elg7Kj5oT7Pnm6WMTdP-_sZP-Gkp4t2uXtxK94Tn8JykYxoTvnDLuTfXK_WjOFeHVW_ldgmPMlXAGNo0kOfk6TpiQJVG_H2UcbkTN0VZjXfAOOCsXYfqpVDY9MrhQKVk-1nUrEnzkyTxiGCSgQFBF7dUBjwZMwr-QXQT3nimSbKf_0733JhSgmWSqiPa4zBWF__udRyu4EyFrdGL99uEwVErImEDFZT-lLVIxe9OcHnXAHThtQdsac1VlfmtMdzLOW8PB5maIvSO9GlxVY7m00]--></g></svg>