<?xml version="1.0" encoding="us-ascii" standalone="no"?><svg xmlns="http://www.w3.org/2000/svg" xmlns:xlink="http://www.w3.org/1999/xlink" contentStyleType="text/css" height="1038px" preserveAspectRatio="none" style="width:1262px;height:1038px;background:#FFFFFF;" version="1.1" viewBox="0 0 1262 1038" width="1262px" zoomAndPan="magnify"><defs/><g><rect fill="#DDDDDD" height="81.6406" id="_legend" rx="7.5" ry="7.5" style="stroke:#000000;stroke-width:1.0;" width="276" x="12" y="12"/><path d="M18,20.4635 L18,25.1302 L22.6667,25.1302 L22.6667,20.4635 L18,20.4635 M23.8333,22.7969 L23.8333,26.2969 L20.3333,26.2969 L20.3333,27.4635 L25,27.4635 L25,22.7969 L23.8333,22.7969 M26.1667,25.1302 L26.1667,28.6302 L22.6667,28.6302 L22.6667,29.7969 L27.3333,29.7969 L27.3333,25.1302 L26.1667,25.1302 " fill="#000000" style="stroke:;stroke-width:0.0;stroke-dasharray:;"/><text fill="#000000" font-family="sans-serif" font-size="14" lengthAdjust="spacing" textLength="41" x="32.3333" y="29.9951">: slice</text><path d="M21.5,36.7604 L21.5,40.2604 L18,40.2604 L18,42.5938 L21.5,42.5938 L21.5,46.0938 L23.8333,46.0938 L23.8333,42.5938 L27.3333,42.5938 L27.3333,40.2604 L23.8333,40.2604 L23.8333,36.7604 L21.5,36.7604 " fill="#000000" style="stroke:;stroke-width:0.0;stroke-dasharray:;"/><text fill="#000000" font-family="sans-serif" font-size="14" lengthAdjust="spacing" textLength="80" x="32.3333" y="46.292">: extension</text><text fill="#000000" font-family="sans-serif" font-size="14" lengthAdjust="spacing" textLength="266" x="17" y="62.5889">* : pas d'&#233;quivalence Sant&#233;.fr ni WHO</text><path d="M18.5476,86.3073 C17.4731,86.3073 16.9994,85.5268 17.4941,84.573 L26.5993,67.041 C27.0946,66.0872 27.9048,66.0872 28.4001,67.041 L37.5053,84.5736 C38.0012,85.5268 37.5269,86.3073 36.4524,86.3073 L18.5476,86.3073 " fill="#FFCC4D" style="stroke:;stroke-width:0.0;stroke-dasharray:;"/><path d="M26.0901,82.7799 C26.0901,82.0023 26.723,81.3694 27.5012,81.3694 C28.2788,81.3694 28.9117,82.0023 28.9117,82.7799 C28.9117,83.558 28.2782,84.191 27.5012,84.191 C26.723,84.191 26.0901,83.558 26.0901,82.7799 M26.1986,72.109 C26.1986,71.3495 26.7592,70.8793 27.5006,70.8793 C28.2245,70.8793 28.8032,71.3675 28.8032,72.109 L28.8032,79.0728 C28.8032,79.8142 28.2245,80.3025 27.5006,80.3025 C26.7592,80.3025 26.1986,79.8317 26.1986,79.0728 L26.1986,72.109 " fill="#231F20" style="stroke:;stroke-width:0.0;stroke-dasharray:;"/><text fill="#000000" font-family="sans-serif" font-size="14" lengthAdjust="spacing" textLength="103" x="42" y="85.3389">: en discussion</text><g id="elem_Contact"><rect fill="#F0F8FF" height="81.1875" style="stroke:#0000FF;stroke-width:0.5;" width="671.3333" x="64" y="113.6406"/><rect fill="#87CEFA" height="20.2969" style="stroke:#0000FF;stroke-width:0.5;" width="671.3333" x="64" y="113.6406"/><text fill="#000000" font-family="sans-serif" font-size="14" lengthAdjust="spacing" textLength="101" x="349.1667" y="128.6357">ContactDetail</text><line style="stroke:#0000FF;stroke-width:1.0;" x1="64" x2="735.3333" y1="133.9375" y2="133.9375"/><text fill="#000000" font-family="sans-serif" font-size="14" lengthAdjust="spacing" textLength="33" x="123.5" y="148.9326">Nom</text><text fill="#000000" font-family="sans-serif" font-size="14" lengthAdjust="spacing" textLength="141" x="221" y="148.9326">name :  string [0..1]</text><line style="stroke:#0000FF;stroke-width:1.0;" x1="216" x2="216" y1="133.9375" y2="154.2344"/><line style="stroke:#0000FF;stroke-width:1.0;" x1="64" x2="735.3333" y1="154.2344" y2="154.2344"/><text fill="#000000" font-family="sans-serif" font-size="14" lengthAdjust="spacing" textLength="142" x="69" y="169.2295">T&#233;l&#233;communication</text><text fill="#000000" font-family="sans-serif" font-size="14" lengthAdjust="spacing" textLength="213" x="221" y="169.2295">telecom :  ContactPoint [0..*]</text><line style="stroke:#0000FF;stroke-width:1.0;" x1="216" x2="216" y1="154.2344" y2="174.5313"/><line style="stroke:#0000FF;stroke-width:1.0;" x1="64" x2="735.3333" y1="174.5313" y2="174.5313"/><text fill="#000000" font-family="sans-serif" font-size="14" lengthAdjust="spacing" textLength="36" x="122" y="189.5264">Type</text><path d="M225.5,179.9948 L225.5,183.4948 L222,183.4948 L222,185.8281 L225.5,185.8281 L225.5,189.3281 L227.8333,189.3281 L227.8333,185.8281 L231.3333,185.8281 L231.3333,183.4948 L227.8333,183.4948 L227.8333,179.9948 L225.5,179.9948 " fill="#000000" style="stroke:;stroke-width:0.0;stroke-dasharray:;"/><text fill="#000000" font-family="sans-serif" font-size="14" lengthAdjust="spacing" textLength="494" x="236.3333" y="189.5264">ECLAIREContacType :  CodeableConcept [0..1] ("Public"/"Scientific")</text><line style="stroke:#0000FF;stroke-width:1.0;" x1="216" x2="216" y1="174.5313" y2="194.8281"/></g><g id="elem_slice_identifier"><rect fill="#F0F8FF" height="60.8906" style="stroke:#0000FF;stroke-width:0.5;" width="306" x="786.5" y="124.1406"/><rect fill="#87CEFA" height="20.2969" style="stroke:#0000FF;stroke-width:0.5;" width="306" x="786.5" y="124.1406"/><path d="M880.3333,129.6042 L880.3333,134.2708 L885,134.2708 L885,129.6042 L880.3333,129.6042 M886.1667,131.9375 L886.1667,135.4375 L882.6667,135.4375 L882.6667,136.6042 L887.3333,136.6042 L887.3333,131.9375 L886.1667,131.9375 M888.5,134.2708 L888.5,137.7708 L885,137.7708 L885,138.9375 L889.6667,138.9375 L889.6667,134.2708 L888.5,134.2708 " fill="#000000" style="stroke:;stroke-width:0.0;stroke-dasharray:;"/><text fill="#000000" font-family="sans-serif" font-size="14" lengthAdjust="spacing" textLength="105" x="894.6667" y="139.1357">Slice identifier</text><line style="stroke:#0000FF;stroke-width:1.0;" x1="786.5" x2="1092.5" y1="144.4375" y2="144.4375"/><text fill="#000000" font-family="sans-serif" font-size="14" lengthAdjust="spacing" textLength="143" x="799" y="159.4326">Identifiant principal</text><text fill="#000000" font-family="sans-serif" font-size="14" lengthAdjust="spacing" textLength="110" x="959.5" y="159.4326">idPrimary [0..1]</text><line style="stroke:#0000FF;stroke-width:1.0;" x1="954.5" x2="954.5" y1="144.4375" y2="164.7344"/><line style="stroke:#0000FF;stroke-width:1.0;" x1="786.5" x2="1092.5" y1="164.7344" y2="164.7344"/><text fill="#000000" font-family="sans-serif" font-size="14" lengthAdjust="spacing" textLength="158" x="791.5" y="179.7295">Identifiant secondaire</text><text fill="#000000" font-family="sans-serif" font-size="14" lengthAdjust="spacing" textLength="128" x="959.5" y="179.7295">idSecondary [0..*]</text><line style="stroke:#0000FF;stroke-width:1.0;" x1="954.5" x2="954.5" y1="164.7344" y2="185.0313"/></g><g id="elem_Group"><rect fill="#C9FFC9" height="154.375" style="stroke:#181818;stroke-width:0.5;" width="439" x="7" y="728.6406"/><rect fill="#90EE90" height="20.2969" style="stroke:#181818;stroke-width:0.5;" width="439" x="7" y="728.6406"/><text fill="#000000" font-family="sans-serif" font-size="14" lengthAdjust="spacing" textLength="44" x="204.5" y="743.6357">Group</text><line style="stroke:#181818;stroke-width:1.0;" x1="7" x2="446" y1="748.9375" y2="748.9375"/><text fill="#000000" font-family="sans-serif" font-size="14" lengthAdjust="spacing" textLength="83" x="35.5" y="763.9326">Identifiant*</text><text fill="#000000" font-family="sans-serif" font-size="14" lengthAdjust="spacing" textLength="187" x="152" y="763.9326">identifier : Identifier [0..*]</text><line style="stroke:#181818;stroke-width:1.0;" x1="147" x2="147" y1="748.9375" y2="769.2344"/><line style="stroke:#181818;stroke-width:1.0;" x1="7" x2="446" y1="769.2344" y2="769.2344"/><text fill="#000000" font-family="sans-serif" font-size="14" lengthAdjust="spacing" textLength="120" x="17" y="784.2295">Type de groupe*</text><text fill="#000000" font-family="sans-serif" font-size="14" lengthAdjust="spacing" textLength="206" x="152" y="784.2295">type : code [1..1] = "Person"</text><line style="stroke:#181818;stroke-width:1.0;" x1="147" x2="147" y1="769.2344" y2="789.5313"/><line style="stroke:#181818;stroke-width:1.0;" x1="7" x2="446" y1="789.5313" y2="789.5313"/><text fill="#000000" font-family="sans-serif" font-size="14" lengthAdjust="spacing" textLength="97" x="28.5" y="804.5264">Groupe actif*</text><text fill="#000000" font-family="sans-serif" font-size="14" lengthAdjust="spacing" textLength="221" x="152" y="804.5264">actual : boolean [1..1] = "True"</text><line style="stroke:#181818;stroke-width:1.0;" x1="147" x2="147" y1="789.5313" y2="809.8281"/><line style="stroke:#181818;stroke-width:1.0;" x1="7" x2="446" y1="809.8281" y2="809.8281"/><text fill="#000000" font-family="sans-serif" font-size="14" lengthAdjust="spacing" textLength="130" x="12" y="824.8232">Effectif &#224; recruter</text><text fill="#000000" font-family="sans-serif" font-size="14" lengthAdjust="spacing" textLength="199" x="152" y="824.8232">quantity : unsignedInt [0..1]</text><line style="stroke:#181818;stroke-width:1.0;" x1="147" x2="147" y1="809.8281" y2="830.125"/><line style="stroke:#181818;stroke-width:1.0;" x1="7" x2="446" y1="830.125" y2="830.125"/><text fill="#000000" font-family="sans-serif" font-size="14" lengthAdjust="spacing" textLength="58" x="46" y="845.1201">Crit&#232;res</text><text fill="#000000" font-family="sans-serif" font-size="14" lengthAdjust="spacing" textLength="28" x="50" y="861.417">Age</text><text fill="#000000" font-family="sans-serif" font-size="14" lengthAdjust="spacing" textLength="44" x="50" y="877.7139">Genre</text><text fill="#000000" font-family="sans-serif" font-size="14" lengthAdjust="spacing" textLength="4" x="152" y="845.1201">&#160;</text><text fill="#000000" font-family="sans-serif" font-size="14" lengthAdjust="spacing" textLength="285" x="156" y="861.417">characteristic : BackboneElement [0..*]</text><line style="stroke:#181818;stroke-width:1.0;" x1="147" x2="147" y1="830.125" y2="883.0156"/></g><g id="elem_Characteristic"><rect fill="#C9FFC9" height="81.1875" style="stroke:#181818;stroke-width:0.5;" width="306" x="73.5" y="950.6406"/><rect fill="#90EE90" height="20.2969" style="stroke:#181818;stroke-width:0.5;" width="306" x="73.5" y="950.6406"/><text fill="#000000" font-family="sans-serif" font-size="14" lengthAdjust="spacing" textLength="101" x="176" y="965.6357">Characteristic</text><line style="stroke:#181818;stroke-width:1.0;" x1="73.5" x2="379.5" y1="970.9375" y2="970.9375"/><text fill="#000000" font-family="sans-serif" font-size="14" lengthAdjust="spacing" textLength="36" x="93.5" y="985.9326">Type</text><text fill="#000000" font-family="sans-serif" font-size="14" lengthAdjust="spacing" textLength="220" x="154.5" y="985.9326">code : CodeableConcept [1..1]</text><line style="stroke:#181818;stroke-width:1.0;" x1="149.5" x2="149.5" y1="970.9375" y2="991.2344"/><line style="stroke:#181818;stroke-width:1.0;" x1="73.5" x2="379.5" y1="991.2344" y2="991.2344"/><text fill="#000000" font-family="sans-serif" font-size="14" lengthAdjust="spacing" textLength="45" x="89" y="1006.2295">Valeur</text><text fill="#000000" font-family="sans-serif" font-size="14" lengthAdjust="spacing" textLength="106" x="154.5" y="1006.2295">value[x] : [1..1]</text><line style="stroke:#181818;stroke-width:1.0;" x1="149.5" x2="149.5" y1="991.2344" y2="1011.5313"/><line style="stroke:#181818;stroke-width:1.0;" x1="73.5" x2="379.5" y1="1011.5313" y2="1011.5313"/><text fill="#000000" font-family="sans-serif" font-size="14" lengthAdjust="spacing" textLength="66" x="78.5" y="1026.5264">Exclusion</text><text fill="#000000" font-family="sans-serif" font-size="14" lengthAdjust="spacing" textLength="168" x="154.5" y="1026.5264">exclude : boolean [1..1]</text><line style="stroke:#181818;stroke-width:1.0;" x1="149.5" x2="149.5" y1="1011.5313" y2="1031.8281"/></g><g id="elem_Organization"><rect fill="#FFFFCC" height="101.4844" style="stroke:#181818;stroke-width:0.5;" width="345" x="497" y="755.1406"/><rect fill="#FFD700" height="20.2969" style="stroke:#181818;stroke-width:0.5;" width="345" x="497" y="755.1406"/><text fill="#000000" font-family="sans-serif" font-size="14" lengthAdjust="spacing" textLength="92" x="623.5" y="770.1357">Organization</text><line style="stroke:#181818;stroke-width:1.0;" x1="497" x2="842" y1="775.4375" y2="775.4375"/><text fill="#000000" font-family="sans-serif" font-size="14" lengthAdjust="spacing" textLength="83" x="502" y="790.4326">Identifiant*</text><text fill="#000000" font-family="sans-serif" font-size="14" lengthAdjust="spacing" textLength="187" x="595" y="790.4326">identifier : Identifier [0..*]</text><line style="stroke:#181818;stroke-width:1.0;" x1="590" x2="590" y1="775.4375" y2="795.7344"/><line style="stroke:#181818;stroke-width:1.0;" x1="497" x2="842" y1="795.7344" y2="795.7344"/><text fill="#000000" font-family="sans-serif" font-size="14" lengthAdjust="spacing" textLength="33" x="527" y="810.7295">Nom</text><text fill="#000000" font-family="sans-serif" font-size="14" lengthAdjust="spacing" textLength="137" x="595" y="810.7295">name : string [0..1]</text><line style="stroke:#181818;stroke-width:1.0;" x1="590" x2="590" y1="795.7344" y2="816.0313"/><line style="stroke:#181818;stroke-width:1.0;" x1="497" x2="842" y1="816.0313" y2="816.0313"/><text fill="#000000" font-family="sans-serif" font-size="14" lengthAdjust="spacing" textLength="57" x="515" y="831.0264">Adresse</text><text fill="#000000" font-family="sans-serif" font-size="14" lengthAdjust="spacing" textLength="165" x="595" y="831.0264">address : Address [0..*]</text><line style="stroke:#181818;stroke-width:1.0;" x1="590" x2="590" y1="816.0313" y2="836.3281"/><line style="stroke:#181818;stroke-width:1.0;" x1="497" x2="842" y1="836.3281" y2="836.3281"/><text fill="#000000" font-family="sans-serif" font-size="14" lengthAdjust="spacing" textLength="58" x="514.5" y="851.3232">Contact</text><text fill="#000000" font-family="sans-serif" font-size="14" lengthAdjust="spacing" textLength="242" x="595" y="851.3232">contact : BackboneElement [0..*]</text><line style="stroke:#181818;stroke-width:1.0;" x1="590" x2="590" y1="836.3281" y2="856.625"/></g><g id="elem_Location"><rect fill="#FFE4E1" height="107.9375" style="stroke:#181818;stroke-width:0.5;" width="362" x="893.5" y="752.1406"/><rect fill="#EE82EE" height="20.2969" style="stroke:#181818;stroke-width:0.5;" width="362" x="893.5" y="752.1406"/><text fill="#000000" font-family="sans-serif" font-size="14" lengthAdjust="spacing" textLength="62" x="1043.5" y="767.1357">Location</text><line style="stroke:#181818;stroke-width:1.0;" x1="893.5" x2="1255.5" y1="772.4375" y2="772.4375"/><text fill="#000000" font-family="sans-serif" font-size="14" lengthAdjust="spacing" textLength="83" x="898.5" y="787.4326">Identifiant*</text><text fill="#000000" font-family="sans-serif" font-size="14" lengthAdjust="spacing" textLength="187" x="991.5" y="787.4326">identifier : Identifier [0..*]</text><line style="stroke:#181818;stroke-width:1.0;" x1="986.5" x2="986.5" y1="772.4375" y2="792.7344"/><line style="stroke:#181818;stroke-width:1.0;" x1="893.5" x2="1255.5" y1="792.7344" y2="792.7344"/><text fill="#000000" font-family="sans-serif" font-size="14" lengthAdjust="spacing" textLength="33" x="923.5" y="807.7295">Nom</text><text fill="#000000" font-family="sans-serif" font-size="14" lengthAdjust="spacing" textLength="137" x="991.5" y="807.7295">name : string [0..1]</text><line style="stroke:#181818;stroke-width:1.0;" x1="986.5" x2="986.5" y1="792.7344" y2="813.0313"/><line style="stroke:#181818;stroke-width:1.0;" x1="893.5" x2="1255.5" y1="813.0313" y2="813.0313"/><text fill="#000000" font-family="sans-serif" font-size="14" lengthAdjust="spacing" textLength="57" x="911.5" y="828.0264">Adresse</text><text fill="#000000" font-family="sans-serif" font-size="14" lengthAdjust="spacing" textLength="167" x="991.5" y="828.0264">address : Address [0..1]</text><line style="stroke:#181818;stroke-width:1.0;" x1="986.5" x2="986.5" y1="813.0313" y2="833.3281"/><line style="stroke:#181818;stroke-width:1.0;" x1="893.5" x2="1255.5" y1="833.3281" y2="833.3281"/><text fill="#000000" font-family="sans-serif" font-size="14" lengthAdjust="spacing" textLength="58" x="911" y="848.3232">Contact</text><path d="M993.0476,855.7448 C991.9731,855.7448 991.4994,854.9643 991.9941,854.0105 L1001.0993,836.4785 C1001.5946,835.5247 1002.4048,835.5247 1002.9001,836.4785 L1012.0053,854.0111 C1012.5012,854.9643 1012.0269,855.7448 1010.9524,855.7448 L993.0476,855.7448 " fill="#FFCC4D" style="stroke:;stroke-width:0.0;stroke-dasharray:;"/><path d="M1000.5901,852.2174 C1000.5901,851.4398 1001.223,850.8069 1002.0012,850.8069 C1002.7788,850.8069 1003.4117,851.4398 1003.4117,852.2174 C1003.4117,852.9955 1002.7782,853.6285 1002.0012,853.6285 C1001.223,853.6285 1000.5901,852.9955 1000.5901,852.2174 M1000.6986,841.5465 C1000.6986,840.787 1001.2592,840.3168 1002.0006,840.3168 C1002.7245,840.3168 1003.3032,840.805 1003.3032,841.5465 L1003.3032,848.5103 C1003.3032,849.2517 1002.7245,849.74 1002.0006,849.74 C1001.2592,849.74 1000.6986,849.2692 1000.6986,848.5103 L1000.6986,841.5465 " fill="#231F20" style="stroke:;stroke-width:0.0;stroke-dasharray:;"/><text fill="#000000" font-family="sans-serif" font-size="14" lengthAdjust="spacing" textLength="209" x="1016.5" y="854.7764">telecom : ContactPoint [0..*]</text><path d="M1231.0476,855.7448 C1229.9731,855.7448 1229.4994,854.9643 1229.9941,854.0105 L1239.0993,836.4785 C1239.5946,835.5247 1240.4048,835.5247 1240.9001,836.4785 L1250.0053,854.0111 C1250.5012,854.9643 1250.0269,855.7448 1248.9524,855.7448 L1231.0476,855.7448 " fill="#FFCC4D" style="stroke:;stroke-width:0.0;stroke-dasharray:;"/><path d="M1238.5901,852.2174 C1238.5901,851.4398 1239.223,850.8069 1240.0012,850.8069 C1240.7788,850.8069 1241.4117,851.4398 1241.4117,852.2174 C1241.4117,852.9955 1240.7782,853.6285 1240.0012,853.6285 C1239.223,853.6285 1238.5901,852.9955 1238.5901,852.2174 M1238.6986,841.5465 C1238.6986,840.787 1239.2592,840.3168 1240.0006,840.3168 C1240.7245,840.3168 1241.3032,840.805 1241.3032,841.5465 L1241.3032,848.5103 C1241.3032,849.2517 1240.7245,849.74 1240.0006,849.74 C1239.2592,849.74 1238.6986,849.2692 1238.6986,848.5103 L1238.6986,841.5465 " fill="#231F20" style="stroke:;stroke-width:0.0;stroke-dasharray:;"/><line style="stroke:#181818;stroke-width:1.0;" x1="986.5" x2="986.5" y1="833.3281" y2="860.0781"/></g><g id="elem_Telecom"><rect fill="#FFE4E1" height="81.1875" style="stroke:#181818;stroke-width:0.5;" width="358.3333" x="895.5" y="950.6406"/><rect fill="#EE82EE" height="20.2969" style="stroke:#181818;stroke-width:0.5;" width="358.3333" x="895.5" y="950.6406"/><text fill="#000000" font-family="sans-serif" font-size="14" lengthAdjust="spacing" textLength="62" x="1043.6667" y="965.6357">Telecom</text><line style="stroke:#181818;stroke-width:1.0;" x1="895.5" x2="1253.8333" y1="970.9375" y2="970.9375"/><text fill="#000000" font-family="sans-serif" font-size="14" lengthAdjust="spacing" textLength="63" x="900.5" y="985.9326">Syst&#232;me</text><text fill="#000000" font-family="sans-serif" font-size="14" lengthAdjust="spacing" textLength="142" x="973.5" y="985.9326">system : code [0..1]</text><line style="stroke:#181818;stroke-width:1.0;" x1="968.5" x2="968.5" y1="970.9375" y2="991.2344"/><line style="stroke:#181818;stroke-width:1.0;" x1="895.5" x2="1253.8333" y1="991.2344" y2="991.2344"/><text fill="#000000" font-family="sans-serif" font-size="14" lengthAdjust="spacing" textLength="45" x="909.5" y="1006.2295">Valeur</text><text fill="#000000" font-family="sans-serif" font-size="14" lengthAdjust="spacing" textLength="134" x="973.5" y="1006.2295">value : string [0..1]</text><line style="stroke:#181818;stroke-width:1.0;" x1="968.5" x2="968.5" y1="991.2344" y2="1011.5313"/><line style="stroke:#181818;stroke-width:1.0;" x1="895.5" x2="1253.8333" y1="1011.5313" y2="1011.5313"/><text fill="#000000" font-family="sans-serif" font-size="14" lengthAdjust="spacing" textLength="33" x="915.5" y="1026.5264">Nom</text><path d="M978,1016.9948 L978,1020.4948 L974.5,1020.4948 L974.5,1022.8281 L978,1022.8281 L978,1026.3281 L980.3333,1026.3281 L980.3333,1022.8281 L983.8333,1022.8281 L983.8333,1020.4948 L980.3333,1020.4948 L980.3333,1016.9948 L978,1016.9948 " fill="#000000" style="stroke:;stroke-width:0.0;stroke-dasharray:;"/><text fill="#000000" font-family="sans-serif" font-size="14" lengthAdjust="spacing" textLength="260" x="988.8333" y="1026.5264">ECLAIRETelecomName : string [0..1]</text><line style="stroke:#181818;stroke-width:1.0;" x1="968.5" x2="968.5" y1="1011.5313" y2="1031.8281"/></g><g id="elem_RS"><rect fill="#F0F8FF" height="398.5469" style="stroke:#0000FF;stroke-width:0.5;" width="929.3333" x="205" y="262.6406"/><rect fill="#87CEFA" height="20.2969" style="stroke:#0000FF;stroke-width:0.5;" width="929.3333" x="205" y="262.6406"/><text fill="#000000" font-family="sans-serif" font-size="14" lengthAdjust="spacing" textLength="212" x="563.6667" y="277.6357">EssaiClinique : ResearchStudy</text><line style="stroke:#0000FF;stroke-width:1.0;" x1="205" x2="1134.3333" y1="282.9375" y2="282.9375"/><text fill="#000000" font-family="sans-serif" font-size="14" lengthAdjust="spacing" textLength="404" x="241" y="297.9326">Identifiant (Primary and Secondary Identifying Numbers)</text><path d="M687,288.401 L687,293.0677 L691.6667,293.0677 L691.6667,288.401 L687,288.401 M692.8333,290.7344 L692.8333,294.2344 L689.3333,294.2344 L689.3333,295.401 L694,295.401 L694,290.7344 L692.8333,290.7344 M695.1667,293.0677 L695.1667,296.5677 L691.6667,296.5677 L691.6667,297.7344 L696.3333,297.7344 L696.3333,293.0677 L695.1667,293.0677 " fill="#000000" style="stroke:;stroke-width:0.0;stroke-dasharray:;"/><text fill="#000000" font-family="sans-serif" font-size="14" lengthAdjust="spacing" textLength="187" x="701.3333" y="297.9326">identifier : Identifier [0..*]</text><line style="stroke:#0000FF;stroke-width:1.0;" x1="681" x2="681" y1="282.9375" y2="303.2344"/><line style="stroke:#0000FF;stroke-width:1.0;" x1="205" x2="1134.3333" y1="303.2344" y2="303.2344"/><text fill="#000000" font-family="sans-serif" font-size="14" lengthAdjust="spacing" textLength="193" x="346.5" y="318.2295">Date de r&#233;vision technique</text><text fill="#000000" font-family="sans-serif" font-size="14" lengthAdjust="spacing" textLength="236" x="686" y="318.2295">meta.lastUpdated : instant [0..1]</text><line style="stroke:#0000FF;stroke-width:1.0;" x1="681" x2="681" y1="303.2344" y2="323.5313"/><line style="stroke:#0000FF;stroke-width:1.0;" x1="205" x2="1134.3333" y1="323.5313" y2="323.5313"/><text fill="#000000" font-family="sans-serif" font-size="14" lengthAdjust="spacing" textLength="217" x="334.5" y="338.5264">Date de r&#233;vision fonctionnelle</text><path d="M690.5,328.9948 L690.5,332.4948 L687,332.4948 L687,334.8281 L690.5,334.8281 L690.5,338.3281 L692.8333,338.3281 L692.8333,334.8281 L696.3333,334.8281 L696.3333,332.4948 L692.8333,332.4948 L692.8333,328.9948 L690.5,328.9948 " fill="#000000" style="stroke:;stroke-width:0.0;stroke-dasharray:;"/><text fill="#000000" font-family="sans-serif" font-size="14" lengthAdjust="spacing" textLength="234" x="701.3333" y="338.5264">ECLAIREReviewDate : date [0..1]</text><line style="stroke:#0000FF;stroke-width:1.0;" x1="681" x2="681" y1="323.5313" y2="343.8281"/><line style="stroke:#0000FF;stroke-width:1.0;" x1="205" x2="1134.3333" y1="343.8281" y2="343.8281"/><text fill="#000000" font-family="sans-serif" font-size="14" lengthAdjust="spacing" textLength="237" x="324.5" y="358.8232">Nom de l'essai (Scientifique title)</text><path d="M687.5476,366.2448 C686.4731,366.2448 685.9994,365.4643 686.4941,364.5105 L695.5993,346.9785 C696.0946,346.0247 696.9048,346.0247 697.4001,346.9785 L706.5053,364.5111 C707.0012,365.4643 706.5269,366.2448 705.4524,366.2448 L687.5476,366.2448 " fill="#FFCC4D" style="stroke:;stroke-width:0.0;stroke-dasharray:;"/><path d="M695.0901,362.7174 C695.0901,361.9398 695.723,361.3069 696.5012,361.3069 C697.2788,361.3069 697.9117,361.9398 697.9117,362.7174 C697.9117,363.4955 697.2782,364.1285 696.5012,364.1285 C695.723,364.1285 695.0901,363.4955 695.0901,362.7174 M695.1986,352.0465 C695.1986,351.287 695.7592,350.8168 696.5006,350.8168 C697.2245,350.8168 697.8032,351.305 697.8032,352.0465 L697.8032,359.0103 C697.8032,359.7517 697.2245,360.24 696.5006,360.24 C695.7592,360.24 695.1986,359.7692 695.1986,359.0103 L695.1986,352.0465 " fill="#231F20" style="stroke:;stroke-width:0.0;stroke-dasharray:;"/><text fill="#000000" font-family="sans-serif" font-size="14" lengthAdjust="spacing" textLength="128" x="711" y="365.2764">title : string [0..1]</text><path d="M844.5476,366.2448 C843.4731,366.2448 842.9994,365.4643 843.4941,364.5105 L852.5993,346.9785 C853.0946,346.0247 853.9048,346.0247 854.4001,346.9785 L863.5053,364.5111 C864.0012,365.4643 863.5269,366.2448 862.4524,366.2448 L844.5476,366.2448 " fill="#FFCC4D" style="stroke:;stroke-width:0.0;stroke-dasharray:;"/><path d="M852.0901,362.7174 C852.0901,361.9398 852.723,361.3069 853.5012,361.3069 C854.2788,361.3069 854.9117,361.9398 854.9117,362.7174 C854.9117,363.4955 854.2782,364.1285 853.5012,364.1285 C852.723,364.1285 852.0901,363.4955 852.0901,362.7174 M852.1986,352.0465 C852.1986,351.287 852.7592,350.8168 853.5006,350.8168 C854.2245,350.8168 854.8032,351.305 854.8032,352.0465 L854.8032,359.0103 C854.8032,359.7517 854.2245,360.24 853.5006,360.24 C852.7592,360.24 852.1986,359.7692 852.1986,359.0103 L852.1986,352.0465 " fill="#231F20" style="stroke:;stroke-width:0.0;stroke-dasharray:;"/><line style="stroke:#0000FF;stroke-width:1.0;" x1="681" x2="681" y1="343.8281" y2="370.5781"/><line style="stroke:#0000FF;stroke-width:1.0;" x1="205" x2="1134.3333" y1="370.5781" y2="370.5781"/><text fill="#000000" font-family="sans-serif" font-size="14" lengthAdjust="spacing" textLength="115" x="385.5" y="385.5732">Statut de l'essai</text><text fill="#000000" font-family="sans-serif" font-size="14" lengthAdjust="spacing" textLength="134" x="686" y="385.5732">status : code [1..1]</text><line style="stroke:#0000FF;stroke-width:1.0;" x1="681" x2="681" y1="370.5781" y2="390.875"/><line style="stroke:#0000FF;stroke-width:1.0;" x1="205" x2="1134.3333" y1="390.875" y2="390.875"/><text fill="#000000" font-family="sans-serif" font-size="14" lengthAdjust="spacing" textLength="260" x="313" y="405.8701">Phase de l'essai (Study type : phase)</text><text fill="#000000" font-family="sans-serif" font-size="14" lengthAdjust="spacing" textLength="228" x="686" y="405.8701">phase : CodeableConcept [0..1]</text><line style="stroke:#0000FF;stroke-width:1.0;" x1="681" x2="681" y1="390.875" y2="411.1719"/><line style="stroke:#0000FF;stroke-width:1.0;" x1="205" x2="1134.3333" y1="411.1719" y2="411.1719"/><text fill="#000000" font-family="sans-serif" font-size="14" lengthAdjust="spacing" textLength="290" x="298" y="426.167">Type d'essai (Study type : type of study)</text><text fill="#000000" font-family="sans-serif" font-size="14" lengthAdjust="spacing" textLength="247" x="686" y="426.167">category : CodeableConcept [0..*]</text><line style="stroke:#0000FF;stroke-width:1.0;" x1="681" x2="681" y1="411.1719" y2="431.4688"/><line style="stroke:#0000FF;stroke-width:1.0;" x1="205" x2="1134.3333" y1="431.4688" y2="431.4688"/><text fill="#000000" font-family="sans-serif" font-size="14" lengthAdjust="spacing" textLength="420" x="233" y="446.4639">Sujet concern&#233; (Health Condition(s) or Problem(s) Studied)</text><text fill="#000000" font-family="sans-serif" font-size="14" lengthAdjust="spacing" textLength="317" x="686" y="446.4639">condition : CodeableConcept [0..*] (MeDRA)</text><line style="stroke:#0000FF;stroke-width:1.0;" x1="681" x2="681" y1="431.4688" y2="451.7656"/><line style="stroke:#0000FF;stroke-width:1.0;" x1="205" x2="1134.3333" y1="451.7656" y2="451.7656"/><text fill="#000000" font-family="sans-serif" font-size="14" lengthAdjust="spacing" textLength="466" x="210" y="466.7607">Pr&#233;cision sur le sujet (Health Condition(s)  or  Problem(s) Studied)</text><path d="M690.5,457.2292 L690.5,460.7292 L687,460.7292 L687,463.0625 L690.5,463.0625 L690.5,466.5625 L692.8333,466.5625 L692.8333,463.0625 L696.3333,463.0625 L696.3333,460.7292 L692.8333,460.7292 L692.8333,457.2292 L690.5,457.2292 " fill="#000000" style="stroke:;stroke-width:0.0;stroke-dasharray:;"/><text fill="#000000" font-family="sans-serif" font-size="14" lengthAdjust="spacing" textLength="277" x="701.3333" y="466.7607">ECLAIREConditionDetails : string [0..1]</text><line style="stroke:#0000FF;stroke-width:1.0;" x1="681" x2="681" y1="451.7656" y2="472.0625"/><line style="stroke:#0000FF;stroke-width:1.0;" x1="205" x2="1134.3333" y1="472.0625" y2="472.0625"/><text fill="#000000" font-family="sans-serif" font-size="14" lengthAdjust="spacing" textLength="178" x="354" y="487.0576">Domaine th&#233;rapeutique*</text><path d="M690.5,477.526 L690.5,481.026 L687,481.026 L687,483.3594 L690.5,483.3594 L690.5,486.8594 L692.8333,486.8594 L692.8333,483.3594 L696.3333,483.3594 L696.3333,481.026 L692.8333,481.026 L692.8333,477.526 L690.5,477.526 " fill="#000000" style="stroke:;stroke-width:0.0;stroke-dasharray:;"/><text fill="#000000" font-family="sans-serif" font-size="14" lengthAdjust="spacing" textLength="277" x="701.3333" y="487.0576">ECLAIRETherapeuticArea : string [0..1]</text><line style="stroke:#0000FF;stroke-width:1.0;" x1="681" x2="681" y1="472.0625" y2="492.3594"/><line style="stroke:#0000FF;stroke-width:1.0;" x1="205" x2="1134.3333" y1="492.3594" y2="492.3594"/><text fill="#000000" font-family="sans-serif" font-size="14" lengthAdjust="spacing" textLength="126" x="380" y="507.3545">R&#233;sum&#233; de l'essai</text><text fill="#000000" font-family="sans-serif" font-size="14" lengthAdjust="spacing" textLength="212" x="686" y="507.3545">description : markdown [0..1]</text><line style="stroke:#0000FF;stroke-width:1.0;" x1="681" x2="681" y1="492.3594" y2="512.6563"/><line style="stroke:#0000FF;stroke-width:1.0;" x1="205" x2="1134.3333" y1="512.6563" y2="512.6563"/><text fill="#000000" font-family="sans-serif" font-size="14" lengthAdjust="spacing" textLength="278" x="304" y="527.6514">P&#233;riode pr&#233;visionnelle de recrutement</text><path d="M690.5,518.1198 L690.5,521.6198 L687,521.6198 L687,523.9531 L690.5,523.9531 L690.5,527.4531 L692.8333,527.4531 L692.8333,523.9531 L696.3333,523.9531 L696.3333,521.6198 L692.8333,521.6198 L692.8333,518.1198 L690.5,518.1198 " fill="#000000" style="stroke:;stroke-width:0.0;stroke-dasharray:;"/><text fill="#000000" font-family="sans-serif" font-size="14" lengthAdjust="spacing" textLength="299" x="701.3333" y="527.6514">ECLAIRERecruitmentPeriod : period [0..1]</text><line style="stroke:#0000FF;stroke-width:1.0;" x1="681" x2="681" y1="512.6563" y2="532.9531"/><line style="stroke:#0000FF;stroke-width:1.0;" x1="205" x2="1134.3333" y1="532.9531" y2="532.9531"/><text fill="#000000" font-family="sans-serif" font-size="14" lengthAdjust="spacing" textLength="338" x="274" y="547.9482">Contact (Contact for public / scientific queries)</text><text fill="#000000" font-family="sans-serif" font-size="14" lengthAdjust="spacing" textLength="210" x="686" y="547.9482">contact : ContactDetail [0..*]</text><line style="stroke:#0000FF;stroke-width:1.0;" x1="681" x2="681" y1="532.9531" y2="553.25"/><line style="stroke:#0000FF;stroke-width:1.0;" x1="205" x2="1134.3333" y1="553.25" y2="553.25"/><text fill="#000000" font-family="sans-serif" font-size="14" lengthAdjust="spacing" textLength="446" x="220" y="568.2451">Participants (Key Inclusion and Exclusion Criteria, Sample size)</text><text fill="#000000" font-family="sans-serif" font-size="14" lengthAdjust="spacing" textLength="262" x="686" y="568.2451">enrollment : Reference(Group) [0..*]</text><line style="stroke:#0000FF;stroke-width:1.0;" x1="681" x2="681" y1="553.25" y2="573.5469"/><line style="stroke:#0000FF;stroke-width:1.0;" x1="205" x2="1134.3333" y1="573.5469" y2="573.5469"/><text fill="#000000" font-family="sans-serif" font-size="14" lengthAdjust="spacing" textLength="37" x="424.5" y="588.542">Lieux</text><text fill="#000000" font-family="sans-serif" font-size="14" lengthAdjust="spacing" textLength="227" x="686" y="588.542">site : Reference(Location) [0..*]</text><line style="stroke:#0000FF;stroke-width:1.0;" x1="681" x2="681" y1="573.5469" y2="593.8438"/><line style="stroke:#0000FF;stroke-width:1.0;" x1="205" x2="1134.3333" y1="593.8438" y2="593.8438"/><text fill="#000000" font-family="sans-serif" font-size="14" lengthAdjust="spacing" textLength="347" x="269.5" y="608.8389">Pays de recrutement (Countries of Recruitment)</text><path d="M687.5476,616.2604 C686.4731,616.2604 685.9994,615.4799 686.4941,614.5262 L695.5993,596.9941 C696.0946,596.0403 696.9048,596.0403 697.4001,596.9941 L706.5053,614.5268 C707.0012,615.4799 706.5269,616.2604 705.4524,616.2604 L687.5476,616.2604 " fill="#FFCC4D" style="stroke:;stroke-width:0.0;stroke-dasharray:;"/><path d="M695.0901,612.733 C695.0901,611.9554 695.723,611.3225 696.5012,611.3225 C697.2788,611.3225 697.9117,611.9554 697.9117,612.733 C697.9117,613.5112 697.2782,614.1441 696.5012,614.1441 C695.723,614.1441 695.0901,613.5112 695.0901,612.733 M695.1986,602.0621 C695.1986,601.3026 695.7592,600.8324 696.5006,600.8324 C697.2245,600.8324 697.8032,601.3207 697.8032,602.0621 L697.8032,609.0259 C697.8032,609.7673 697.2245,610.2556 696.5006,610.2556 C695.7592,610.2556 695.1986,609.7848 695.1986,609.0259 L695.1986,602.0621 " fill="#231F20" style="stroke:;stroke-width:0.0;stroke-dasharray:;"/><text fill="#000000" font-family="sans-serif" font-size="14" lengthAdjust="spacing" textLength="4" x="707" y="615.292">&#160;</text><path d="M715.5,605.7604 L715.5,609.2604 L712,609.2604 L712,611.5938 L715.5,611.5938 L715.5,615.0938 L717.8333,615.0938 L717.8333,611.5938 L721.3333,611.5938 L721.3333,609.2604 L717.8333,609.2604 L717.8333,605.7604 L715.5,605.7604 " fill="#000000" style="stroke:;stroke-width:0.0;stroke-dasharray:;"/><text fill="#000000" font-family="sans-serif" font-size="14" lengthAdjust="spacing" textLength="293" x="726.3333" y="615.292">ECLAIRERegion : CodeableConcept [0..*]</text><path d="M1024.8809,616.2604 C1023.8064,616.2604 1023.3327,615.4799 1023.8274,614.5262 L1032.9327,596.9941 C1033.4279,596.0403 1034.2382,596.0403 1034.7334,596.9941 L1043.8387,614.5268 C1044.3345,615.4799 1043.8603,616.2604 1042.7858,616.2604 L1024.8809,616.2604 " fill="#FFCC4D" style="stroke:;stroke-width:0.0;stroke-dasharray:;"/><path d="M1032.4234,612.733 C1032.4234,611.9554 1033.0563,611.3225 1033.8345,611.3225 C1034.6121,611.3225 1035.245,611.9554 1035.245,612.733 C1035.245,613.5112 1034.6115,614.1441 1033.8345,614.1441 C1033.0563,614.1441 1032.4234,613.5112 1032.4234,612.733 M1032.5319,602.0621 C1032.5319,601.3026 1033.0925,600.8324 1033.8339,600.8324 C1034.5578,600.8324 1035.1365,601.3207 1035.1365,602.0621 L1035.1365,609.0259 C1035.1365,609.7673 1034.5578,610.2556 1033.8339,610.2556 C1033.0925,610.2556 1032.5319,609.7848 1032.5319,609.0259 L1032.5319,602.0621 " fill="#231F20" style="stroke:;stroke-width:0.0;stroke-dasharray:;"/><line style="stroke:#0000FF;stroke-width:1.0;" x1="681" x2="681" y1="593.8438" y2="620.5938"/><line style="stroke:#0000FF;stroke-width:1.0;" x1="205" x2="1134.3333" y1="620.5938" y2="620.5938"/><text fill="#000000" font-family="sans-serif" font-size="14" lengthAdjust="spacing" textLength="274" x="306" y="635.5889">Promoteur principal (Primary sponsor)</text><text fill="#000000" font-family="sans-serif" font-size="14" lengthAdjust="spacing" textLength="289" x="686" y="635.5889">sponsor : Reference(Organization) [0..1]</text><line style="stroke:#0000FF;stroke-width:1.0;" x1="681" x2="681" y1="620.5938" y2="640.8906"/><line style="stroke:#0000FF;stroke-width:1.0;" x1="205" x2="1134.3333" y1="640.8906" y2="640.8906"/><text fill="#000000" font-family="sans-serif" font-size="14" lengthAdjust="spacing" textLength="328" x="279" y="655.8857">Promoteur secondaire (Secondary Sponsor(s))</text><path d="M690.5,646.3542 L690.5,649.8542 L687,649.8542 L687,652.1875 L690.5,652.1875 L690.5,655.6875 L692.8333,655.6875 L692.8333,652.1875 L696.3333,652.1875 L696.3333,649.8542 L692.8333,649.8542 L692.8333,646.3542 L690.5,646.3542 " fill="#000000" style="stroke:;stroke-width:0.0;stroke-dasharray:;"/><text fill="#000000" font-family="sans-serif" font-size="14" lengthAdjust="spacing" textLength="428" x="701.3333" y="655.8857">ECLAIRESecondarySponsor  : Reference(Organization) [0..*]</text><line style="stroke:#0000FF;stroke-width:1.0;" x1="681" x2="681" y1="640.8906" y2="661.1875"/></g><!--link RS to Location--><g id="link_RS_Location"><path codeLine="68" d="M918.997,673.3276 C947.213,697.1536 974.139,719.8916 997.418,739.5496 " fill="none" id="RS-Location" style="stroke:#EE82EE;stroke-width:4.0;stroke-dasharray:7.0,7.0;"/><polygon fill="#EE82EE" points="908.895,664.7966,910.8982,671.7239,918.0631,672.5391,916.0599,665.6118,908.895,664.7966" style="stroke:#EE82EE;stroke-width:4.0;"/><polygon fill="#EE82EE" points="1007.51,748.0676,1003.2149,739.2047,1003.69,744.8415,998.0531,745.3167,1007.51,748.0676" style="stroke:#EE82EE;stroke-width:4.0;"/><line style="stroke:#EE82EE;stroke-width:4.0;" x1="1003.69" x2="997.574" y1="744.8415" y2="739.6801"/></g><!--link RS to Group--><g id="link_RS_Group"><path codeLine="69" d="M397.199,672.8596 C377.624,687.9716 358.609,702.6516 340.81,716.3926 " fill="none" id="RS-Group" style="stroke:#90EE90;stroke-width:4.0;stroke-dasharray:7.0,7.0;"/><polygon fill="#90EE90" points="407.644,664.7966,400.4503,665.2971,398.1454,672.1299,405.3391,671.6295,407.644,664.7966" style="stroke:#90EE90;stroke-width:4.0;"/><polygon fill="#90EE90" points="330.476,724.3706,340.0444,722.0369,334.4337,721.3151,335.1555,715.7045,330.476,724.3706" style="stroke:#90EE90;stroke-width:4.0;"/><line style="stroke:#90EE90;stroke-width:4.0;" x1="334.4337" x2="340.7665" y1="721.3151" y2="716.4261"/></g><!--link RS to Organization--><g id="link_RS_Organization"><path codeLine="70" d="M669.5,678.2676 C669.5,699.5516 669.5,719.8446 669.5,737.6956 " fill="none" id="RS-Organization" style="stroke:#FFD700;stroke-width:4.0;stroke-dasharray:7.0,7.0;"/><polygon fill="#FFD700" points="669.5,665.0426,665.5,671.0426,669.5,677.0426,673.5,671.0426,669.5,665.0426" style="stroke:#FFD700;stroke-width:4.0;"/><polygon fill="#FFD700" points="669.5,750.8466,673.5,741.8466,669.5,745.8466,665.5,741.8466,669.5,750.8466" style="stroke:#FFD700;stroke-width:4.0;"/><line style="stroke:#FFD700;stroke-width:4.0;" x1="669.5" x2="669.5" y1="745.8466" y2="737.8466"/></g><!--link slice_identifier to RS--><g id="link_slice_identifier_RS"><path codeLine="72" d="M910.091,188.4156 C893.759,206.8966 871.944,231.5796 848.095,258.5636 " fill="none" id="slice_identifier-RS" style="stroke:#ADD8E6;stroke-width:2.0;"/></g><!--link Contact to RS--><g id="link_Contact_RS"><path codeLine="73" d="M438.184,198.9116 C453.13,215.8226 471.363,236.4526 490.967,258.6336 " fill="none" id="Contact-RS" style="stroke:#ADD8E6;stroke-width:6.0;stroke-dasharray:1.0,3.0;"/></g><!--link Group to Organization--><!--link Group to Characteristic--><g id="link_Group_Characteristic"><path codeLine="77" d="M226.5,886.8596 C226.5,905.4756 226.5,924.7346 226.5,941.5061 " fill="none" id="Group-to-Characteristic" style="stroke:#90EE90;stroke-width:2.0;"/><polygon fill="#90EE90" points="226.5,946.6278,230.5,937.6278,226.5,941.6278,222.5,937.6278,226.5,946.6278" style="stroke:#90EE90;stroke-width:2.0;"/></g><!--link Location to Telecom--><g id="link_Location_Telecom"><path codeLine="78" d="M1074.5,860.6406 C1074.5,887.2976 1074.5,917.0406 1074.5,941.2936 " fill="none" id="Location-to-Telecom" style="stroke:#EE82EE;stroke-width:2.0;"/><polygon fill="#EE82EE" points="1074.5,946.3825,1078.5,937.3825,1074.5,941.3825,1070.5,937.3825,1074.5,946.3825" style="stroke:#EE82EE;stroke-width:2.0;"/></g><!--SRC=[nLVRJXj76BxtKumSAR4Ha51LlTWcI0OiWaB0yf9K5RMgyUvlUyhkp38p2pXL-oozh9_3BzP_3dkoroLgBieDCxF_yVkFJcb6kgU2QnhfCz2K9Lr25V4lvCMKHdV1864Hd2Gv_BW06eCCBjbyeSExfNrB68TWYYVoUuVWtvL8oRjZmcaA9214QSdudDo-EJmycX1BSRDU9UjL9D8qvooYcWbkE3GaW8-6oUiV2SQrPTsR4C-xpC0GltsP9Raw9iFJoy75UEWOx4VB7WET9e2l4MIwKDxhZl8f-j9ztGqZ1bop6LxwAFcFJYSrIBnzcT0bI9GR6fy9YnqLI0kBCe-_Le__2PyBpqxHjGonYLX64-CIYqUIfLGklRrRr0hXuJ5b4XnvwEwUOMzIkd4kHPvPY-t9ctapF7r_TNrvVVvpmyvp2S2tRTjpEafNW_8ZNdn8geZ4GEP65LWsxU8GOHZ8xP75_XtfZX1OmRkEone618FCPfO7JpdY492f40bGNcEyaJbqBTTmDWF3GTP_4GcHp3KQWyptELhCz1BPSwxOd4DymNKZwKubq-k_9IZo2oU3EPX_vy0TbdYE5bIY3I2PqYn2GIU8sLHm62QGGfM69SYd3GPNDaqPNmsxXT3OOH4BjlFtgFBZCqqWjqu_K4ogswS9CjG9XayHLeQlAJ0NAtC3rjADQpcdd7snLMYTg3zu5qu-XHTNmp0i73WNIVmD6TFi42qDOX1Zd9ID38tj6Ua6_bINLFGf2vqxFX-uIn5LtXONx-b7ZDnoB5HPofyPmgR_LsUFjfrz6pnIoL5IK6-RRLspHba2SECuhF_-_5NkXqk59PIwL5LuWRIiyZSxCxJTQm_BHXltrborW5LQFrIAibFigkpU2X-30YgZHQZpU6bz6eVVt9XxHIkcF2PLd_KaIsFMLPvEiQFrdHl5t7Wc9PppPrJRbYdNgmTcIrL3j70EeRGK1_5XGfN-bCL86QCanfMcLKVR9MQ63SDaCuSaQHkJOtXWy6Zv0c9aRyK4nIMlm41CUkMGD7PXUqsWlvLyvdKhmlMaiucZgSvrNRP98FEeccF2KeyML47J41FQOgfavhCrn9xQscLzrx3JgLMG_ITcQ0W-Me7O2c0kv7A7pAAam_mth8d8V95ylIAzzq0JlJ3r5pC3Vm-pGaWoaW8bfEPc53E8-xvJERBTQdeVuMmyw3jr8unlvEAhiAuGRsKDQ5LhzEvIlBqpEJwt-AdsGZqJASL28NgnNacQGQvDEkor5Uy2F44qa43RnOtNAvMd25ep6M9GaMIPHmKhxouMZxp1EKBzpAHALkQxItDJ0MuNiEs-BUlnAzFcA-uWACDaaJiqwgbeiBtYC4CmCxioajT4bIiZhXl83QhVd3kDDRgHC2Cg4HJSyxXMfFS1i97mOaYR1bEDRBEbe6owJqAQPYRKx8jBTbnLH99O3qtFcu44J9cUtQFw3MsN3F8dMs5CGuEu67Rz3UkMQXD4X23dsZXfAgG6u5O7sC9w_g-PlTaQC5LJeSsyg7RXilcgJ70bfDNfpmr_wgjAlndBIcvjQ-vLdJnquh14sagZfFDav1crjhFZWEhWwDaxk7tXnkP-JDK2udszOD4Tnrn_z_tauBXSEGhYQXtSmU2M-8BSB5yx2Ek6TJfRlrOEa3inoipug_5-Dy6H6GH-Mc6ITee2Q7B4Gkk6qXySewVkT9oX1xSB5gEioOOzzYjIbuluGTFvka776xjqfm2jr6QvFSvDJhz4O3GIc0EMbnOPTisPniIe1dNWVitPDnVx0BTb3TpK8Rx-kMUw16uJyQlrwZvdkCkOu6DTShrU7SuauOpyzFxQ2AYL0mhX96OgofKLXFgT5Vy0]--></g></svg>