<?xml version="1.0" encoding="us-ascii" standalone="no"?><svg xmlns="http://www.w3.org/2000/svg" xmlns:xlink="http://www.w3.org/1999/xlink" contentStyleType="text/css" height="1077px" preserveAspectRatio="none" style="width:1307px;height:1077px;background:#FFFFFF;" version="1.1" viewBox="0 0 1307 1077" width="1307px" zoomAndPan="magnify"><defs/><g><rect fill="#DDDDDD" height="81.6406" id="_legend" rx="7.5" ry="7.5" style="stroke:#000000;stroke-width:1.0;" width="276" x="12" y="12"/><path d="M18,20.4635 L18,25.1302 L22.6667,25.1302 L22.6667,20.4635 L18,20.4635 M23.8333,22.7969 L23.8333,26.2969 L20.3333,26.2969 L20.3333,27.4635 L25,27.4635 L25,22.7969 L23.8333,22.7969 M26.1667,25.1302 L26.1667,28.6302 L22.6667,28.6302 L22.6667,29.7969 L27.3333,29.7969 L27.3333,25.1302 L26.1667,25.1302 " fill="#000000" style="stroke:;stroke-width:0.0;stroke-dasharray:;"/><text fill="#000000" font-family="sans-serif" font-size="14" lengthAdjust="spacing" textLength="41" x="32.3333" y="29.9951">: slice</text><path d="M21.5,36.7604 L21.5,40.2604 L18,40.2604 L18,42.5938 L21.5,42.5938 L21.5,46.0938 L23.8333,46.0938 L23.8333,42.5938 L27.3333,42.5938 L27.3333,40.2604 L23.8333,40.2604 L23.8333,36.7604 L21.5,36.7604 " fill="#000000" style="stroke:;stroke-width:0.0;stroke-dasharray:;"/><text fill="#000000" font-family="sans-serif" font-size="14" lengthAdjust="spacing" textLength="80" x="32.3333" y="46.292">: extension</text><text fill="#000000" font-family="sans-serif" font-size="14" lengthAdjust="spacing" textLength="266" x="17" y="62.5889">* : pas d'&#233;quivalence Sant&#233;.fr ni WHO</text><path d="M18.5476,86.3073 C17.4731,86.3073 16.9994,85.5268 17.4941,84.573 L26.5993,67.041 C27.0946,66.0872 27.9048,66.0872 28.4001,67.041 L37.5053,84.5736 C38.0012,85.5268 37.5269,86.3073 36.4524,86.3073 L18.5476,86.3073 " fill="#FFCC4D" style="stroke:;stroke-width:0.0;stroke-dasharray:;"/><path d="M26.0901,82.7799 C26.0901,82.0023 26.723,81.3694 27.5012,81.3694 C28.2788,81.3694 28.9117,82.0023 28.9117,82.7799 C28.9117,83.558 28.2782,84.191 27.5012,84.191 C26.723,84.191 26.0901,83.558 26.0901,82.7799 M26.1986,72.109 C26.1986,71.3495 26.7592,70.8793 27.5006,70.8793 C28.2245,70.8793 28.8032,71.3675 28.8032,72.109 L28.8032,79.0728 C28.8032,79.8142 28.2245,80.3025 27.5006,80.3025 C26.7592,80.3025 26.1986,79.8317 26.1986,79.0728 L26.1986,72.109 " fill="#231F20" style="stroke:;stroke-width:0.0;stroke-dasharray:;"/><text fill="#000000" font-family="sans-serif" font-size="14" lengthAdjust="spacing" textLength="103" x="42" y="85.3389">: en discussion</text><g id="elem_Contact"><rect fill="#F0F8FF" height="97.4844" style="stroke:#0000FF;stroke-width:0.5;" width="517.3333" x="7" y="113.6406"/><rect fill="#87CEFA" height="20.2969" style="stroke:#0000FF;stroke-width:0.5;" width="517.3333" x="7" y="113.6406"/><text fill="#000000" font-family="sans-serif" font-size="14" lengthAdjust="spacing" textLength="101" x="215.1667" y="128.6357">ContactDetail</text><line style="stroke:#0000FF;stroke-width:1.0;" x1="7" x2="524.3333" y1="133.9375" y2="133.9375"/><text fill="#000000" font-family="sans-serif" font-size="14" lengthAdjust="spacing" textLength="33" x="66.5" y="148.9326">Nom</text><text fill="#000000" font-family="sans-serif" font-size="14" lengthAdjust="spacing" textLength="141" x="164" y="148.9326">name :  string [0..1]</text><line style="stroke:#0000FF;stroke-width:1.0;" x1="159" x2="159" y1="133.9375" y2="154.2344"/><line style="stroke:#0000FF;stroke-width:1.0;" x1="7" x2="524.3333" y1="154.2344" y2="154.2344"/><text fill="#000000" font-family="sans-serif" font-size="14" lengthAdjust="spacing" textLength="142" x="12" y="169.2295">T&#233;l&#233;communication</text><text fill="#000000" font-family="sans-serif" font-size="14" lengthAdjust="spacing" textLength="213" x="164" y="169.2295">telecom :  ContactPoint [0..*]</text><line style="stroke:#0000FF;stroke-width:1.0;" x1="159" x2="159" y1="154.2344" y2="174.5313"/><line style="stroke:#0000FF;stroke-width:1.0;" x1="7" x2="524.3333" y1="174.5313" y2="174.5313"/><text fill="#000000" font-family="sans-serif" font-size="14" lengthAdjust="spacing" textLength="36" x="65" y="189.5264">Type</text><path d="M168.5,179.9948 L168.5,183.4948 L165,183.4948 L165,185.8281 L168.5,185.8281 L168.5,189.3281 L170.8333,189.3281 L170.8333,185.8281 L174.3333,185.8281 L174.3333,183.4948 L170.8333,183.4948 L170.8333,179.9948 L168.5,179.9948 " fill="#000000" style="stroke:;stroke-width:0.0;stroke-dasharray:;"/><text fill="#000000" font-family="sans-serif" font-size="14" lengthAdjust="spacing" textLength="336" x="179.3333" y="189.5264">ECLAIREContacType :  CodeableConcept [0..1]</text><text fill="#000000" font-family="sans-serif" font-size="14" lengthAdjust="spacing" textLength="154" x="168" y="205.8232">("Public"/"Scientific")</text><line style="stroke:#0000FF;stroke-width:1.0;" x1="159" x2="159" y1="174.5313" y2="211.125"/></g><g id="elem_slice_identifier"><rect fill="#F0F8FF" height="60.8906" style="stroke:#0000FF;stroke-width:0.5;" width="306" x="575.5" y="132.1406"/><rect fill="#87CEFA" height="20.2969" style="stroke:#0000FF;stroke-width:0.5;" width="306" x="575.5" y="132.1406"/><path d="M669.3333,137.6042 L669.3333,142.2708 L674,142.2708 L674,137.6042 L669.3333,137.6042 M675.1667,139.9375 L675.1667,143.4375 L671.6667,143.4375 L671.6667,144.6042 L676.3333,144.6042 L676.3333,139.9375 L675.1667,139.9375 M677.5,142.2708 L677.5,145.7708 L674,145.7708 L674,146.9375 L678.6667,146.9375 L678.6667,142.2708 L677.5,142.2708 " fill="#000000" style="stroke:;stroke-width:0.0;stroke-dasharray:;"/><text fill="#000000" font-family="sans-serif" font-size="14" lengthAdjust="spacing" textLength="105" x="683.6667" y="147.1357">Slice identifier</text><line style="stroke:#0000FF;stroke-width:1.0;" x1="575.5" x2="881.5" y1="152.4375" y2="152.4375"/><text fill="#000000" font-family="sans-serif" font-size="14" lengthAdjust="spacing" textLength="143" x="588" y="167.4326">Identifiant principal</text><text fill="#000000" font-family="sans-serif" font-size="14" lengthAdjust="spacing" textLength="110" x="748.5" y="167.4326">idPrimary [0..1]</text><line style="stroke:#0000FF;stroke-width:1.0;" x1="743.5" x2="743.5" y1="152.4375" y2="172.7344"/><line style="stroke:#0000FF;stroke-width:1.0;" x1="575.5" x2="881.5" y1="172.7344" y2="172.7344"/><text fill="#000000" font-family="sans-serif" font-size="14" lengthAdjust="spacing" textLength="158" x="580.5" y="187.7295">Identifiant secondaire</text><text fill="#000000" font-family="sans-serif" font-size="14" lengthAdjust="spacing" textLength="128" x="748.5" y="187.7295">idSecondary [0..*]</text><line style="stroke:#0000FF;stroke-width:1.0;" x1="743.5" x2="743.5" y1="172.7344" y2="193.0313"/></g><g id="elem_label"><rect fill="#F0F8FF" height="60.8906" style="stroke:#0000FF;stroke-width:0.5;" width="321" x="933" y="132.1406"/><rect fill="#87CEFA" height="20.2969" style="stroke:#0000FF;stroke-width:0.5;" width="321" x="933" y="132.1406"/><path d="M1040.8333,137.6042 L1040.8333,141.1042 L1037.3333,141.1042 L1037.3333,143.4375 L1040.8333,143.4375 L1040.8333,146.9375 L1043.1667,146.9375 L1043.1667,143.4375 L1046.6667,143.4375 L1046.6667,141.1042 L1043.1667,141.1042 L1043.1667,137.6042 L1040.8333,137.6042 " fill="#000000" style="stroke:;stroke-width:0.0;stroke-dasharray:;"/><text fill="#000000" font-family="sans-serif" font-size="14" lengthAdjust="spacing" textLength="99" x="1051.6667" y="147.1357">ECLAIRELabel</text><line style="stroke:#0000FF;stroke-width:1.0;" x1="933" x2="1254" y1="152.4375" y2="152.4375"/><text fill="#000000" font-family="sans-serif" font-size="14" lengthAdjust="spacing" textLength="36" x="942.5" y="167.4326">Type</text><text fill="#000000" font-family="sans-serif" font-size="14" lengthAdjust="spacing" textLength="256" x="993" y="167.4326">labelType : CodeableConcept [0..1]</text><line style="stroke:#0000FF;stroke-width:1.0;" x1="988" x2="988" y1="152.4375" y2="172.7344"/><line style="stroke:#0000FF;stroke-width:1.0;" x1="933" x2="1254" y1="172.7344" y2="172.7344"/><text fill="#000000" font-family="sans-serif" font-size="14" lengthAdjust="spacing" textLength="45" x="938" y="187.7295">Valeur</text><text fill="#000000" font-family="sans-serif" font-size="14" lengthAdjust="spacing" textLength="171" x="993" y="187.7295">labelValue : string [0..1]</text><line style="stroke:#0000FF;stroke-width:1.0;" x1="988" x2="988" y1="172.7344" y2="193.0313"/></g><g id="elem_Group"><rect fill="#C9FFC9" height="170.6719" style="stroke:#181818;stroke-width:0.5;" width="439" x="66" y="751.6406"/><rect fill="#90EE90" height="20.2969" style="stroke:#181818;stroke-width:0.5;" width="439" x="66" y="751.6406"/><text fill="#000000" font-family="sans-serif" font-size="14" lengthAdjust="spacing" textLength="44" x="263.5" y="766.6357">Group</text><line style="stroke:#181818;stroke-width:1.0;" x1="66" x2="505" y1="771.9375" y2="771.9375"/><text fill="#000000" font-family="sans-serif" font-size="14" lengthAdjust="spacing" textLength="83" x="94.5" y="786.9326">Identifiant*</text><text fill="#000000" font-family="sans-serif" font-size="14" lengthAdjust="spacing" textLength="187" x="211" y="786.9326">identifier : Identifier [0..*]</text><line style="stroke:#181818;stroke-width:1.0;" x1="206" x2="206" y1="771.9375" y2="792.2344"/><line style="stroke:#181818;stroke-width:1.0;" x1="66" x2="505" y1="792.2344" y2="792.2344"/><text fill="#000000" font-family="sans-serif" font-size="14" lengthAdjust="spacing" textLength="120" x="76" y="807.2295">Type de groupe*</text><text fill="#000000" font-family="sans-serif" font-size="14" lengthAdjust="spacing" textLength="206" x="211" y="807.2295">type : code [1..1] = "Person"</text><line style="stroke:#181818;stroke-width:1.0;" x1="206" x2="206" y1="792.2344" y2="812.5313"/><line style="stroke:#181818;stroke-width:1.0;" x1="66" x2="505" y1="812.5313" y2="812.5313"/><text fill="#000000" font-family="sans-serif" font-size="14" lengthAdjust="spacing" textLength="97" x="87.5" y="827.5264">Groupe actif*</text><text fill="#000000" font-family="sans-serif" font-size="14" lengthAdjust="spacing" textLength="221" x="211" y="827.5264">actual : boolean [1..1] = "True"</text><line style="stroke:#181818;stroke-width:1.0;" x1="206" x2="206" y1="812.5313" y2="832.8281"/><line style="stroke:#181818;stroke-width:1.0;" x1="66" x2="505" y1="832.8281" y2="832.8281"/><text fill="#000000" font-family="sans-serif" font-size="14" lengthAdjust="spacing" textLength="130" x="71" y="847.8232">Effectif &#224; recruter</text><text fill="#000000" font-family="sans-serif" font-size="14" lengthAdjust="spacing" textLength="199" x="211" y="847.8232">quantity : unsignedInt [0..1]</text><line style="stroke:#181818;stroke-width:1.0;" x1="206" x2="206" y1="832.8281" y2="853.125"/><line style="stroke:#181818;stroke-width:1.0;" x1="66" x2="505" y1="853.125" y2="853.125"/><text fill="#000000" font-family="sans-serif" font-size="14" lengthAdjust="spacing" textLength="58" x="77" y="868.1201">Crit&#232;res</text><text fill="#000000" font-family="sans-serif" font-size="14" lengthAdjust="spacing" textLength="28" x="81" y="884.417">Age</text><text fill="#000000" font-family="sans-serif" font-size="14" lengthAdjust="spacing" textLength="44" x="81" y="900.7139">Genre</text><text fill="#000000" font-family="sans-serif" font-size="14" lengthAdjust="spacing" textLength="114" x="81" y="917.0107">Groupe de sujet</text><text fill="#000000" font-family="sans-serif" font-size="14" lengthAdjust="spacing" textLength="4" x="211" y="868.1201">&#160;</text><text fill="#000000" font-family="sans-serif" font-size="14" lengthAdjust="spacing" textLength="285" x="215" y="884.417">characteristic : BackboneElement [0..*]</text><line style="stroke:#181818;stroke-width:1.0;" x1="206" x2="206" y1="853.125" y2="922.3125"/></g><g id="elem_Characteristic"><rect fill="#C9FFC9" height="81.1875" style="stroke:#181818;stroke-width:0.5;" width="306" x="132.5" y="989.6406"/><rect fill="#90EE90" height="20.2969" style="stroke:#181818;stroke-width:0.5;" width="306" x="132.5" y="989.6406"/><text fill="#000000" font-family="sans-serif" font-size="14" lengthAdjust="spacing" textLength="101" x="235" y="1004.6357">Characteristic</text><line style="stroke:#181818;stroke-width:1.0;" x1="132.5" x2="438.5" y1="1009.9375" y2="1009.9375"/><text fill="#000000" font-family="sans-serif" font-size="14" lengthAdjust="spacing" textLength="36" x="152.5" y="1024.9326">Type</text><text fill="#000000" font-family="sans-serif" font-size="14" lengthAdjust="spacing" textLength="220" x="213.5" y="1024.9326">code : CodeableConcept [1..1]</text><line style="stroke:#181818;stroke-width:1.0;" x1="208.5" x2="208.5" y1="1009.9375" y2="1030.2344"/><line style="stroke:#181818;stroke-width:1.0;" x1="132.5" x2="438.5" y1="1030.2344" y2="1030.2344"/><text fill="#000000" font-family="sans-serif" font-size="14" lengthAdjust="spacing" textLength="45" x="148" y="1045.2295">Valeur</text><text fill="#000000" font-family="sans-serif" font-size="14" lengthAdjust="spacing" textLength="106" x="213.5" y="1045.2295">value[x] : [1..1]</text><line style="stroke:#181818;stroke-width:1.0;" x1="208.5" x2="208.5" y1="1030.2344" y2="1050.5313"/><line style="stroke:#181818;stroke-width:1.0;" x1="132.5" x2="438.5" y1="1050.5313" y2="1050.5313"/><text fill="#000000" font-family="sans-serif" font-size="14" lengthAdjust="spacing" textLength="66" x="137.5" y="1065.5264">Exclusion</text><text fill="#000000" font-family="sans-serif" font-size="14" lengthAdjust="spacing" textLength="168" x="213.5" y="1065.5264">exclude : boolean [1..1]</text><line style="stroke:#181818;stroke-width:1.0;" x1="208.5" x2="208.5" y1="1050.5313" y2="1070.8281"/></g><g id="elem_Organization"><rect fill="#FFFFCC" height="101.4844" style="stroke:#181818;stroke-width:0.5;" width="345" x="556" y="786.1406"/><rect fill="#FFD700" height="20.2969" style="stroke:#181818;stroke-width:0.5;" width="345" x="556" y="786.1406"/><text fill="#000000" font-family="sans-serif" font-size="14" lengthAdjust="spacing" textLength="92" x="682.5" y="801.1357">Organization</text><line style="stroke:#181818;stroke-width:1.0;" x1="556" x2="901" y1="806.4375" y2="806.4375"/><text fill="#000000" font-family="sans-serif" font-size="14" lengthAdjust="spacing" textLength="83" x="561" y="821.4326">Identifiant*</text><text fill="#000000" font-family="sans-serif" font-size="14" lengthAdjust="spacing" textLength="187" x="654" y="821.4326">identifier : Identifier [0..*]</text><line style="stroke:#181818;stroke-width:1.0;" x1="649" x2="649" y1="806.4375" y2="826.7344"/><line style="stroke:#181818;stroke-width:1.0;" x1="556" x2="901" y1="826.7344" y2="826.7344"/><text fill="#000000" font-family="sans-serif" font-size="14" lengthAdjust="spacing" textLength="33" x="586" y="841.7295">Nom</text><text fill="#000000" font-family="sans-serif" font-size="14" lengthAdjust="spacing" textLength="137" x="654" y="841.7295">name : string [0..1]</text><line style="stroke:#181818;stroke-width:1.0;" x1="649" x2="649" y1="826.7344" y2="847.0313"/><line style="stroke:#181818;stroke-width:1.0;" x1="556" x2="901" y1="847.0313" y2="847.0313"/><text fill="#000000" font-family="sans-serif" font-size="14" lengthAdjust="spacing" textLength="57" x="574" y="862.0264">Adresse</text><text fill="#000000" font-family="sans-serif" font-size="14" lengthAdjust="spacing" textLength="165" x="654" y="862.0264">address : Address [0..*]</text><line style="stroke:#181818;stroke-width:1.0;" x1="649" x2="649" y1="847.0313" y2="867.3281"/><line style="stroke:#181818;stroke-width:1.0;" x1="556" x2="901" y1="867.3281" y2="867.3281"/><text fill="#000000" font-family="sans-serif" font-size="14" lengthAdjust="spacing" textLength="58" x="573.5" y="882.3232">Contact</text><text fill="#000000" font-family="sans-serif" font-size="14" lengthAdjust="spacing" textLength="242" x="654" y="882.3232">contact : BackboneElement [0..*]</text><line style="stroke:#181818;stroke-width:1.0;" x1="649" x2="649" y1="867.3281" y2="887.625"/></g><g id="elem_Location"><rect fill="#FFE4E1" height="101.4844" style="stroke:#181818;stroke-width:0.5;" width="312" x="952.5" y="786.1406"/><rect fill="#EE82EE" height="20.2969" style="stroke:#181818;stroke-width:0.5;" width="312" x="952.5" y="786.1406"/><text fill="#000000" font-family="sans-serif" font-size="14" lengthAdjust="spacing" textLength="62" x="1077.5" y="801.1357">Location</text><line style="stroke:#181818;stroke-width:1.0;" x1="952.5" x2="1264.5" y1="806.4375" y2="806.4375"/><text fill="#000000" font-family="sans-serif" font-size="14" lengthAdjust="spacing" textLength="83" x="957.5" y="821.4326">Identifiant*</text><text fill="#000000" font-family="sans-serif" font-size="14" lengthAdjust="spacing" textLength="187" x="1050.5" y="821.4326">identifier : Identifier [0..*]</text><line style="stroke:#181818;stroke-width:1.0;" x1="1045.5" x2="1045.5" y1="806.4375" y2="826.7344"/><line style="stroke:#181818;stroke-width:1.0;" x1="952.5" x2="1264.5" y1="826.7344" y2="826.7344"/><text fill="#000000" font-family="sans-serif" font-size="14" lengthAdjust="spacing" textLength="33" x="982.5" y="841.7295">Nom</text><text fill="#000000" font-family="sans-serif" font-size="14" lengthAdjust="spacing" textLength="137" x="1050.5" y="841.7295">name : string [0..1]</text><line style="stroke:#181818;stroke-width:1.0;" x1="1045.5" x2="1045.5" y1="826.7344" y2="847.0313"/><line style="stroke:#181818;stroke-width:1.0;" x1="952.5" x2="1264.5" y1="847.0313" y2="847.0313"/><text fill="#000000" font-family="sans-serif" font-size="14" lengthAdjust="spacing" textLength="57" x="970.5" y="862.0264">Adresse</text><text fill="#000000" font-family="sans-serif" font-size="14" lengthAdjust="spacing" textLength="167" x="1050.5" y="862.0264">address : Address [0..1]</text><line style="stroke:#181818;stroke-width:1.0;" x1="1045.5" x2="1045.5" y1="847.0313" y2="867.3281"/><line style="stroke:#181818;stroke-width:1.0;" x1="952.5" x2="1264.5" y1="867.3281" y2="867.3281"/><text fill="#000000" font-family="sans-serif" font-size="14" lengthAdjust="spacing" textLength="58" x="970" y="882.3232">Contact</text><text fill="#000000" font-family="sans-serif" font-size="14" lengthAdjust="spacing" textLength="209" x="1050.5" y="882.3232">telecom : ContactPoint [0..*]</text><line style="stroke:#181818;stroke-width:1.0;" x1="1045.5" x2="1045.5" y1="867.3281" y2="887.625"/></g><g id="elem_Telecom"><rect fill="#FFE4E1" height="81.1875" style="stroke:#181818;stroke-width:0.5;" width="383.3333" x="917" y="989.6406"/><rect fill="#EE82EE" height="20.2969" style="stroke:#181818;stroke-width:0.5;" width="383.3333" x="917" y="989.6406"/><text fill="#000000" font-family="sans-serif" font-size="14" lengthAdjust="spacing" textLength="62" x="1077.6667" y="1004.6357">Telecom</text><line style="stroke:#181818;stroke-width:1.0;" x1="917" x2="1300.3333" y1="1009.9375" y2="1009.9375"/><text fill="#000000" font-family="sans-serif" font-size="14" lengthAdjust="spacing" textLength="63" x="922" y="1024.9326">Syst&#232;me</text><text fill="#000000" font-family="sans-serif" font-size="14" lengthAdjust="spacing" textLength="142" x="995" y="1024.9326">system : code [0..1]</text><line style="stroke:#181818;stroke-width:1.0;" x1="990" x2="990" y1="1009.9375" y2="1030.2344"/><line style="stroke:#181818;stroke-width:1.0;" x1="917" x2="1300.3333" y1="1030.2344" y2="1030.2344"/><text fill="#000000" font-family="sans-serif" font-size="14" lengthAdjust="spacing" textLength="45" x="931" y="1045.2295">Valeur</text><text fill="#000000" font-family="sans-serif" font-size="14" lengthAdjust="spacing" textLength="134" x="995" y="1045.2295">value : string [0..1]</text><line style="stroke:#181818;stroke-width:1.0;" x1="990" x2="990" y1="1030.2344" y2="1050.5313"/><line style="stroke:#181818;stroke-width:1.0;" x1="917" x2="1300.3333" y1="1050.5313" y2="1050.5313"/><text fill="#000000" font-family="sans-serif" font-size="14" lengthAdjust="spacing" textLength="33" x="937" y="1065.5264">Nom</text><path d="M999.5,1055.9948 L999.5,1059.4948 L996,1059.4948 L996,1061.8281 L999.5,1061.8281 L999.5,1065.3281 L1001.8333,1065.3281 L1001.8333,1061.8281 L1005.3333,1061.8281 L1005.3333,1059.4948 L1001.8333,1059.4948 L1001.8333,1055.9948 L999.5,1055.9948 " fill="#000000" style="stroke:;stroke-width:0.0;stroke-dasharray:;"/><text fill="#000000" font-family="sans-serif" font-size="14" lengthAdjust="spacing" textLength="285" x="1010.3333" y="1065.5264">ECLAIRESiteContactName : string [0..1]</text><line style="stroke:#181818;stroke-width:1.0;" x1="990" x2="990" y1="1050.5313" y2="1070.8281"/></g><g id="elem_RS"><rect fill="#F0F8FF" height="405.9375" style="stroke:#0000FF;stroke-width:0.5;" width="929.3333" x="264" y="278.6406"/><rect fill="#87CEFA" height="20.2969" style="stroke:#0000FF;stroke-width:0.5;" width="929.3333" x="264" y="278.6406"/><text fill="#000000" font-family="sans-serif" font-size="14" lengthAdjust="spacing" textLength="212" x="622.6667" y="293.6357">EssaiClinique : ResearchStudy</text><line style="stroke:#0000FF;stroke-width:1.0;" x1="264" x2="1193.3333" y1="298.9375" y2="298.9375"/><text fill="#000000" font-family="sans-serif" font-size="14" lengthAdjust="spacing" textLength="404" x="300" y="313.9326">Identifiant (Primary and Secondary Identifying Numbers)</text><path d="M746,304.401 L746,309.0677 L750.6667,309.0677 L750.6667,304.401 L746,304.401 M751.8333,306.7344 L751.8333,310.2344 L748.3333,310.2344 L748.3333,311.401 L753,311.401 L753,306.7344 L751.8333,306.7344 M754.1667,309.0677 L754.1667,312.5677 L750.6667,312.5677 L750.6667,313.7344 L755.3333,313.7344 L755.3333,309.0677 L754.1667,309.0677 " fill="#000000" style="stroke:;stroke-width:0.0;stroke-dasharray:;"/><text fill="#000000" font-family="sans-serif" font-size="14" lengthAdjust="spacing" textLength="187" x="760.3333" y="313.9326">identifier : Identifier [0..*]</text><line style="stroke:#0000FF;stroke-width:1.0;" x1="740" x2="740" y1="298.9375" y2="319.2344"/><line style="stroke:#0000FF;stroke-width:1.0;" x1="264" x2="1193.3333" y1="319.2344" y2="319.2344"/><text fill="#000000" font-family="sans-serif" font-size="14" lengthAdjust="spacing" textLength="193" x="405.5" y="334.2295">Date de r&#233;vision technique</text><text fill="#000000" font-family="sans-serif" font-size="14" lengthAdjust="spacing" textLength="236" x="745" y="334.2295">meta.lastUpdated : instant [0..1]</text><line style="stroke:#0000FF;stroke-width:1.0;" x1="740" x2="740" y1="319.2344" y2="339.5313"/><line style="stroke:#0000FF;stroke-width:1.0;" x1="264" x2="1193.3333" y1="339.5313" y2="339.5313"/><text fill="#000000" font-family="sans-serif" font-size="14" lengthAdjust="spacing" textLength="217" x="393.5" y="354.5264">Date de r&#233;vision fonctionnelle</text><path d="M749.5,344.9948 L749.5,348.4948 L746,348.4948 L746,350.8281 L749.5,350.8281 L749.5,354.3281 L751.8333,354.3281 L751.8333,350.8281 L755.3333,350.8281 L755.3333,348.4948 L751.8333,348.4948 L751.8333,344.9948 L749.5,344.9948 " fill="#000000" style="stroke:;stroke-width:0.0;stroke-dasharray:;"/><text fill="#000000" font-family="sans-serif" font-size="14" lengthAdjust="spacing" textLength="234" x="760.3333" y="354.5264">ECLAIREReviewDate : date [0..1]</text><line style="stroke:#0000FF;stroke-width:1.0;" x1="740" x2="740" y1="339.5313" y2="359.8281"/><line style="stroke:#0000FF;stroke-width:1.0;" x1="264" x2="1193.3333" y1="359.8281" y2="359.8281"/><text fill="#000000" font-family="sans-serif" font-size="14" lengthAdjust="spacing" textLength="237" x="383.5" y="374.8232">Nom de l'essai (Scientifique title)</text><text fill="#000000" font-family="sans-serif" font-size="14" lengthAdjust="spacing" textLength="128" x="745" y="374.8232">title : string [0..1]</text><line style="stroke:#0000FF;stroke-width:1.0;" x1="740" x2="740" y1="359.8281" y2="380.125"/><line style="stroke:#0000FF;stroke-width:1.0;" x1="264" x2="1193.3333" y1="380.125" y2="380.125"/><text fill="#000000" font-family="sans-serif" font-size="14" lengthAdjust="spacing" textLength="251" x="376.5" y="395.1201">Autres noms de l'essai (Public title)</text><path d="M749.5,385.5885 L749.5,389.0885 L746,389.0885 L746,391.4219 L749.5,391.4219 L749.5,394.9219 L751.8333,394.9219 L751.8333,391.4219 L755.3333,391.4219 L755.3333,389.0885 L751.8333,389.0885 L751.8333,385.5885 L749.5,385.5885 " fill="#000000" style="stroke:;stroke-width:0.0;stroke-dasharray:;"/><text fill="#000000" font-family="sans-serif" font-size="14" lengthAdjust="spacing" textLength="216" x="760.3333" y="395.1201">ECLAIRELabel : Complex [0..*]</text><line style="stroke:#0000FF;stroke-width:1.0;" x1="740" x2="740" y1="380.125" y2="400.4219"/><line style="stroke:#0000FF;stroke-width:1.0;" x1="264" x2="1193.3333" y1="400.4219" y2="400.4219"/><text fill="#000000" font-family="sans-serif" font-size="14" lengthAdjust="spacing" textLength="115" x="444.5" y="415.417">Statut de l'essai</text><text fill="#000000" font-family="sans-serif" font-size="14" lengthAdjust="spacing" textLength="134" x="745" y="415.417">status : code [1..1]</text><line style="stroke:#0000FF;stroke-width:1.0;" x1="740" x2="740" y1="400.4219" y2="420.7188"/><line style="stroke:#0000FF;stroke-width:1.0;" x1="264" x2="1193.3333" y1="420.7188" y2="420.7188"/><text fill="#000000" font-family="sans-serif" font-size="14" lengthAdjust="spacing" textLength="260" x="372" y="435.7139">Phase de l'essai (Study type : phase)</text><text fill="#000000" font-family="sans-serif" font-size="14" lengthAdjust="spacing" textLength="228" x="745" y="435.7139">phase : CodeableConcept [0..1]</text><line style="stroke:#0000FF;stroke-width:1.0;" x1="740" x2="740" y1="420.7188" y2="441.0156"/><line style="stroke:#0000FF;stroke-width:1.0;" x1="264" x2="1193.3333" y1="441.0156" y2="441.0156"/><text fill="#000000" font-family="sans-serif" font-size="14" lengthAdjust="spacing" textLength="290" x="357" y="456.0107">Type d'essai (Study type : type of study)</text><text fill="#000000" font-family="sans-serif" font-size="14" lengthAdjust="spacing" textLength="247" x="745" y="456.0107">category : CodeableConcept [0..*]</text><line style="stroke:#0000FF;stroke-width:1.0;" x1="740" x2="740" y1="441.0156" y2="461.3125"/><line style="stroke:#0000FF;stroke-width:1.0;" x1="264" x2="1193.3333" y1="461.3125" y2="461.3125"/><text fill="#000000" font-family="sans-serif" font-size="14" lengthAdjust="spacing" textLength="420" x="292" y="476.3076">Sujet concern&#233; (Health Condition(s) or Problem(s) Studied)</text><text fill="#000000" font-family="sans-serif" font-size="14" lengthAdjust="spacing" textLength="317" x="745" y="476.3076">condition : CodeableConcept [0..*] (MeDRA)</text><line style="stroke:#0000FF;stroke-width:1.0;" x1="740" x2="740" y1="461.3125" y2="481.6094"/><line style="stroke:#0000FF;stroke-width:1.0;" x1="264" x2="1193.3333" y1="481.6094" y2="481.6094"/><text fill="#000000" font-family="sans-serif" font-size="14" lengthAdjust="spacing" textLength="466" x="269" y="496.6045">Pr&#233;cision sur le sujet (Health Condition(s)  or  Problem(s) Studied)</text><path d="M749.5,487.0729 L749.5,490.5729 L746,490.5729 L746,492.9062 L749.5,492.9062 L749.5,496.4062 L751.8333,496.4062 L751.8333,492.9062 L755.3333,492.9062 L755.3333,490.5729 L751.8333,490.5729 L751.8333,487.0729 L749.5,487.0729 " fill="#000000" style="stroke:;stroke-width:0.0;stroke-dasharray:;"/><text fill="#000000" font-family="sans-serif" font-size="14" lengthAdjust="spacing" textLength="277" x="760.3333" y="496.6045">ECLAIREConditionDetails : string [0..1]</text><line style="stroke:#0000FF;stroke-width:1.0;" x1="740" x2="740" y1="481.6094" y2="501.9063"/><line style="stroke:#0000FF;stroke-width:1.0;" x1="264" x2="1193.3333" y1="501.9063" y2="501.9063"/><text fill="#000000" font-family="sans-serif" font-size="14" lengthAdjust="spacing" textLength="178" x="413" y="516.9014">Domaine th&#233;rapeutique*</text><path d="M749.5,507.3698 L749.5,510.8698 L746,510.8698 L746,513.2031 L749.5,513.2031 L749.5,516.7031 L751.8333,516.7031 L751.8333,513.2031 L755.3333,513.2031 L755.3333,510.8698 L751.8333,510.8698 L751.8333,507.3698 L749.5,507.3698 " fill="#000000" style="stroke:;stroke-width:0.0;stroke-dasharray:;"/><text fill="#000000" font-family="sans-serif" font-size="14" lengthAdjust="spacing" textLength="277" x="760.3333" y="516.9014">ECLAIRETherapeuticArea : string [0..1]</text><line style="stroke:#0000FF;stroke-width:1.0;" x1="740" x2="740" y1="501.9063" y2="522.2031"/><line style="stroke:#0000FF;stroke-width:1.0;" x1="264" x2="1193.3333" y1="522.2031" y2="522.2031"/><text fill="#000000" font-family="sans-serif" font-size="14" lengthAdjust="spacing" textLength="126" x="439" y="537.1982">R&#233;sum&#233; de l'essai</text><text fill="#000000" font-family="sans-serif" font-size="14" lengthAdjust="spacing" textLength="212" x="745" y="537.1982">description : markdown [0..1]</text><line style="stroke:#0000FF;stroke-width:1.0;" x1="740" x2="740" y1="522.2031" y2="542.5"/><line style="stroke:#0000FF;stroke-width:1.0;" x1="264" x2="1193.3333" y1="542.5" y2="542.5"/><text fill="#000000" font-family="sans-serif" font-size="14" lengthAdjust="spacing" textLength="278" x="363" y="557.4951">P&#233;riode pr&#233;visionnelle de recrutement</text><path d="M749.5,547.9635 L749.5,551.4635 L746,551.4635 L746,553.7969 L749.5,553.7969 L749.5,557.2969 L751.8333,557.2969 L751.8333,553.7969 L755.3333,553.7969 L755.3333,551.4635 L751.8333,551.4635 L751.8333,547.9635 L749.5,547.9635 " fill="#000000" style="stroke:;stroke-width:0.0;stroke-dasharray:;"/><text fill="#000000" font-family="sans-serif" font-size="14" lengthAdjust="spacing" textLength="299" x="760.3333" y="557.4951">ECLAIRERecruitmentPeriod : period [0..1]</text><line style="stroke:#0000FF;stroke-width:1.0;" x1="740" x2="740" y1="542.5" y2="562.7969"/><line style="stroke:#0000FF;stroke-width:1.0;" x1="264" x2="1193.3333" y1="562.7969" y2="562.7969"/><text fill="#000000" font-family="sans-serif" font-size="14" lengthAdjust="spacing" textLength="338" x="333" y="577.792">Contact (Contact for public / scientific queries)</text><text fill="#000000" font-family="sans-serif" font-size="14" lengthAdjust="spacing" textLength="210" x="745" y="577.792">contact : ContactDetail [0..*]</text><line style="stroke:#0000FF;stroke-width:1.0;" x1="740" x2="740" y1="562.7969" y2="583.0938"/><line style="stroke:#0000FF;stroke-width:1.0;" x1="264" x2="1193.3333" y1="583.0938" y2="583.0938"/><text fill="#000000" font-family="sans-serif" font-size="14" lengthAdjust="spacing" textLength="446" x="279" y="598.0889">Participants (Key Inclusion and Exclusion Criteria, Sample size)</text><text fill="#000000" font-family="sans-serif" font-size="14" lengthAdjust="spacing" textLength="262" x="745" y="598.0889">enrollment : Reference(Group) [0..*]</text><line style="stroke:#0000FF;stroke-width:1.0;" x1="740" x2="740" y1="583.0938" y2="603.3906"/><line style="stroke:#0000FF;stroke-width:1.0;" x1="264" x2="1193.3333" y1="603.3906" y2="603.3906"/><text fill="#000000" font-family="sans-serif" font-size="14" lengthAdjust="spacing" textLength="37" x="483.5" y="618.3857">Lieux</text><text fill="#000000" font-family="sans-serif" font-size="14" lengthAdjust="spacing" textLength="227" x="745" y="618.3857">site : Reference(Location) [0..*]</text><line style="stroke:#0000FF;stroke-width:1.0;" x1="740" x2="740" y1="603.3906" y2="623.6875"/><line style="stroke:#0000FF;stroke-width:1.0;" x1="264" x2="1193.3333" y1="623.6875" y2="623.6875"/><text fill="#000000" font-family="sans-serif" font-size="14" lengthAdjust="spacing" textLength="347" x="328.5" y="638.6826">Pays de recrutement (Countries of Recruitment)</text><text fill="#000000" font-family="sans-serif" font-size="14" lengthAdjust="spacing" textLength="241" x="745" y="638.6826">location : CodeableConcept [0..*]</text><line style="stroke:#0000FF;stroke-width:1.0;" x1="740" x2="740" y1="623.6875" y2="643.9844"/><line style="stroke:#0000FF;stroke-width:1.0;" x1="264" x2="1193.3333" y1="643.9844" y2="643.9844"/><text fill="#000000" font-family="sans-serif" font-size="14" lengthAdjust="spacing" textLength="274" x="365" y="658.9795">Promoteur principal (Primary sponsor)</text><text fill="#000000" font-family="sans-serif" font-size="14" lengthAdjust="spacing" textLength="289" x="745" y="658.9795">sponsor : Reference(Organization) [0..1]</text><line style="stroke:#0000FF;stroke-width:1.0;" x1="740" x2="740" y1="643.9844" y2="664.2813"/><line style="stroke:#0000FF;stroke-width:1.0;" x1="264" x2="1193.3333" y1="664.2813" y2="664.2813"/><text fill="#000000" font-family="sans-serif" font-size="14" lengthAdjust="spacing" textLength="328" x="338" y="679.2764">Promoteur secondaire (Secondary Sponsor(s))</text><path d="M749.5,669.7448 L749.5,673.2448 L746,673.2448 L746,675.5781 L749.5,675.5781 L749.5,679.0781 L751.8333,679.0781 L751.8333,675.5781 L755.3333,675.5781 L755.3333,673.2448 L751.8333,673.2448 L751.8333,669.7448 L749.5,669.7448 " fill="#000000" style="stroke:;stroke-width:0.0;stroke-dasharray:;"/><text fill="#000000" font-family="sans-serif" font-size="14" lengthAdjust="spacing" textLength="428" x="760.3333" y="679.2764">ECLAIRESecondarySponsor  : Reference(Organization) [0..*]</text><line style="stroke:#0000FF;stroke-width:1.0;" x1="740" x2="740" y1="664.2813" y2="684.5781"/></g><!--link RS to Location--><g id="link_RS_Location"><path codeLine="74" d="M958.3341,695.9461 C995.7241,730.7291 1018.2868,751.7181 1046.3768,777.8471 " fill="none" id="RS-Location" style="stroke:#EE82EE;stroke-width:4.0;stroke-dasharray:7.0,7.0;"/><polygon fill="#EE82EE" points="949.548,687.7726,951.2165,694.788,958.3341,695.9461,956.6655,688.9307,949.548,687.7726" style="stroke:#EE82EE;stroke-width:4.0;"/><polygon fill="#EE82EE" points="1050.77,781.9336,1046.9045,772.875,1047.109,778.5282,1041.4558,778.7327,1050.77,781.9336" style="stroke:#EE82EE;stroke-width:4.0;"/></g><!--link RS to Group--><g id="link_RS_Group"><path codeLine="75" d="M461.4254,695.2575 C435.2534,716.1425 423.8428,725.2472 400.5718,743.8172 " fill="none" id="RS-Group" style="stroke:#90EE90;stroke-width:4.0;stroke-dasharray:7.0,7.0;"/><polygon fill="#90EE90" points="470.805,687.7726,463.6202,688.3885,461.4254,695.2575,468.6101,694.6416,470.805,687.7726" style="stroke:#90EE90;stroke-width:4.0;"/><polygon fill="#90EE90" points="395.882,747.5596,405.4117,745.0725,399.7902,744.4409,400.4218,738.8195,395.882,747.5596" style="stroke:#90EE90;stroke-width:4.0;"/></g><!--link RS to Organization--><g id="link_RS_Organization"><path codeLine="76" d="M728.5,699.7726 C728.5,734.5556 728.5,749.8046 728.5,775.9336 " fill="none" id="RS-Organization" style="stroke:#FFD700;stroke-width:4.0;stroke-dasharray:7.0,7.0;"/><polygon fill="#FFD700" points="728.5,687.7726,724.5,693.7726,728.5,699.7726,732.5,693.7726,728.5,687.7726" style="stroke:#FFD700;stroke-width:4.0;"/><polygon fill="#FFD700" points="728.5,781.9336,732.5,772.9336,728.5,776.9336,724.5,772.9336,728.5,781.9336" style="stroke:#FFD700;stroke-width:4.0;"/></g><!--link slice_identifier to RS--><g id="link_slice_identifier_RS"><path codeLine="78" d="M728.5,196.1676 C728.5,216.3866 728.5,244.1456 728.5,274.4346 " fill="none" id="slice_identifier-RS" style="stroke:#ADD8E6;stroke-width:2.0;"/></g><!--link Contact to RS--><g id="link_Contact_RS"><path codeLine="79" d="M340.919,214.7776 C366.287,232.1466 396.336,252.7196 428.307,274.6086 " fill="none" id="Contact-RS" style="stroke:#ADD8E6;stroke-width:2.0;"/></g><!--link label to RS--><g id="link_label_RS"><path codeLine="80" d="M1055.47,196.1676 C1032.19,216.3866 1000.23,244.1456 965.353,274.4346 " fill="none" id="label-RS" style="stroke:#ADD8E6;stroke-width:2.0;"/></g><!--link Group to Organization--><!--link Group to Characteristic--><g id="link_Group_Characteristic"><path codeLine="84" d="M285.5,925.8236 C285.5,946.5356 285.5,961.7236 285.5,979.4771 " fill="none" id="Group-to-Characteristic" style="stroke:#90EE90;stroke-width:2.0;"/><polygon fill="#90EE90" points="285.5,985.4771,289.5,976.4771,285.5,980.4771,281.5,976.4771,285.5,985.4771" style="stroke:#90EE90;stroke-width:2.0;"/></g><!--link Location to Telecom--><g id="link_Location_Telecom"><path codeLine="85" d="M1108.5,888.6406 C1108.5,921.0826 1108.5,951.7376 1108.5,979.4723 " fill="none" id="Location-to-Telecom" style="stroke:#EE82EE;stroke-width:2.0;"/><polygon fill="#EE82EE" points="1108.5,985.4723,1112.5,976.4723,1108.5,980.4723,1104.5,976.4723,1108.5,985.4723" style="stroke:#EE82EE;stroke-width:2.0;"/></g><!--SRC=[nLVDRXit4BxhAGW5I2J3TkAYfsrYGBO5nwXZ2redHU4A1RKxabXpkHkIcrWfscVfiNeElLXdoFsrLqcG7EgBIUxCSERZDpzAUCRwfwcoFB9dOBcGVSODAqxOapcFxeAH516So1n-MW6FGGUNOhcouTtQdKcX89ZZYltPO_XtbIRirJ5JF04MC6Qi5ch9RbyS7XxDc9EusMxaTXEbIP8h4N4hKaKQ5YJW8IaLzqzIeQnJtPknGdUT0Gc_V9h9t1opyUdbw68wzWhkerEFWSybu6a4cIql_qsnGN-Ipp6S_lD-60bGLYnmCqJZV_Lw2O7nygdaQz1eEgImcOYz56Y7ZA73t-l3RuBeeb3d65s6y4GYuvAY4l54YuJhTU7o8sc32AcO2mrUFFJxGc5lrWYZXSybduD_MachR_AwXDvPAA3kHjg9l-CISbqfu3OdZHOVAdVFTPfdpZ-tAlox6P- -lhg-l3x_jUNWkGPGZw7Syv1KBnDK7t5JaAWE90QsfAl0gLaVJeJXiDiZnvPNh3z17gIgxxMSOy2GbcBXT72LuxC5R9wc4hXgADxe7FfEQxnO06cmxJzCGwHp2mwJzpbwBEmQrNDbn591VA5iAqrEjR3RVpKO8kve2VJl79Js2-yDkcloFy2IIJoDLboZMw25iI92soS8upnLC9QGG9rB5UwdBGMV-sqRN_qI3bNomu7OGOsZEhIQ6n-85hVtCrHe2epl8wHlKHY0Dixc0wIhCAxraYlnoPKI5qJpe0ZXv6ruSJKEmpA0yrJ6tq6YTfdhg7AZ69_Ek8pXiLkZtAXODIsLnTP1vvTVVhZBDAgZBJT5f6_mvTRJr5Hf_KuWRFP_3VReSR1rlUyezrMWDrxAnLcilohCS6qmUn9FIOCRIAe4Vx6JYTtH5U4_gAcXi51uVjK9J1d2s1WkJh6SYlVkXYaOu3fQXJQFrowmQVZTVMHGTWwkObQtXK9aJNvTvSaSAzhGnrAskI-ylqVWZ5jNRFHsyq6ulBGGhNn0Q2t1qU5GScFVPZ5AncX9A6DvNT5scLbWTI3gAf2ogx5FuOE0ZqulO6JxqSEWEVaC268sg7ew-ONbLO8Brgrs43UtL65LcfYM9JycD6nqDLH7tIIJSD_Abj1oczkcEQ8W7PfsZt7IanKtq8w2U56sf8m-Em_SQcVFRRQsJaFkNxf0H_3G6SIY0SjKhtVOhC9n3IQYBrfjDspm6hYqAyhQMD3R3P1IgMOJdQA5X7PqiO1uMDGqBxRxci4RE9kEXlww2P8ZykGmc9cox72TrzAzkov-F29wFJ_dccu-dAK9nonZThNTQ9v1RebBUntsRbPG24GZ3RpRt7IxCNc2eBN948E9jCWAL31jx-BqesffJl1-GLJ9gcJnEKBfumS9rnYwKWQ_2ajVSO116yGYlsWbOrcA1-LYWM1cdlVFcQd6OvnLK1lCiDsXMhyQMeIPS8sWu4ohh663dm6ha2hRELMdkhdJY8Es-JuBEUKHC-AJ9plEEQcKBa8gc0lGW9GPkB5dsBhjKa1-xp9CM6W9bsrn-C2xjNa88aAGAqj1KeOq07I-oBAzxY9mmTiqIIqratgahugooL9bKktC5UkMgyrvPTX-fjfkO_WVr1K-zEQG_Lsih-GACVQ5Qrt5nyRLmvQqTt3xnFVK_PYR5SJxTYMYEuKqVlNZxE2ucZjAuNectA7WX_jId2Qm7O9DntgzHp-w3b1RqcNK5XkwFyombVPAFdzUolyG-hnCppjySBiICTu-U-2N-ne4zQ1-q0QXQUxumM3TAy53_OQ_1TvjpMBkmLUHi0JC89jcM1WN5WbID_B0_pXrPvu30OxE5XIb6fx-lKU50AUD-DbsypuNEF0G2J3rbDrk3XUQAS5-UNrD1eAFN2iiPe4pebWiJ9GRPmZlzrxy1m00]--></g></svg>