<?xml version="1.0" encoding="UTF-8" standalone="no"?><svg xmlns="http://www.w3.org/2000/svg" xmlns:xlink="http://www.w3.org/1999/xlink" contentStyleType="text/css" height="485px" preserveAspectRatio="none" style="width:850px;height:485px;background:#FFFFFF;" version="1.1" viewBox="0 0 850 485" width="850px" zoomAndPan="magnify"><defs/><g><g id="elem_contact"><rect fill="#F0F8FF" height="64.8281" style="stroke:#0000FF;stroke-width:0.5;" width="186" x="657.5" y="91"/><rect fill="#87CEFA" height="21.6094" style="stroke:#0000FF;stroke-width:0.5;" width="186" x="657.5" y="91"/><text fill="#000000" font-family="sans-serif" font-size="14" lengthAdjust="spacing" textLength="81" x="710" y="107.5332">ContactPoint</text><line style="stroke:#0000FF;stroke-width:1.0;" x1="657.5" x2="843.5" y1="112.6094" y2="112.6094"/><text fill="#000000" font-family="sans-serif" font-size="14" lengthAdjust="spacing" textLength="27" x="707.5" y="129.1426">nom</text><text fill="#000000" font-family="sans-serif" font-size="14" lengthAdjust="spacing" textLength="35" x="789.5" y="129.1426">name</text><line style="stroke:#0000FF;stroke-width:1.0;" x1="784.5" x2="784.5" y1="112.6094" y2="134.2188"/><line style="stroke:#0000FF;stroke-width:1.0;" x1="657.5" x2="843.5" y1="134.2188" y2="134.2188"/><text fill="#000000" font-family="sans-serif" font-size="14" lengthAdjust="spacing" textLength="117" x="662.5" y="150.752">telecommunication</text><text fill="#000000" font-family="sans-serif" font-size="14" lengthAdjust="spacing" textLength="49" x="789.5" y="150.752">telecom</text><line style="stroke:#0000FF;stroke-width:1.0;" x1="784.5" x2="784.5" y1="134.2188" y2="155.8281"/></g><g id="elem_Group"><rect fill="#C9FFC9" height="172.875" style="stroke:#181818;stroke-width:0.5;" width="213" x="159" y="306"/><rect fill="#90EE90" height="21.6094" style="stroke:#181818;stroke-width:0.5;" width="213" x="159" y="306"/><text fill="#000000" font-family="sans-serif" font-size="14" lengthAdjust="spacing" textLength="40" x="245.5" y="322.5332">Group</text><line style="stroke:#181818;stroke-width:1.0;" x1="159" x2="372" y1="327.6094" y2="327.6094"/><text fill="#000000" font-family="sans-serif" font-size="14" lengthAdjust="spacing" textLength="61" x="188" y="344.1426">identifiant</text><text fill="#000000" font-family="sans-serif" font-size="14" lengthAdjust="spacing" textLength="8" x="283" y="344.1426">?</text><line style="stroke:#181818;stroke-width:1.0;" x1="278" x2="278" y1="327.6094" y2="349.2188"/><line style="stroke:#181818;stroke-width:1.0;" x1="159" x2="372" y1="349.2188" y2="349.2188"/><text fill="#000000" font-family="sans-serif" font-size="14" lengthAdjust="spacing" textLength="27" x="205" y="365.752">type</text><text fill="#000000" font-family="sans-serif" font-size="14" lengthAdjust="spacing" textLength="55" x="283" y="365.752">"Person"</text><line style="stroke:#181818;stroke-width:1.0;" x1="278" x2="278" y1="349.2188" y2="370.8281"/><line style="stroke:#181818;stroke-width:1.0;" x1="159" x2="372" y1="370.8281" y2="370.8281"/><text fill="#000000" font-family="sans-serif" font-size="14" lengthAdjust="spacing" textLength="38" x="199.5" y="387.3613">actual</text><text fill="#000000" font-family="sans-serif" font-size="14" lengthAdjust="spacing" textLength="40" x="283" y="387.3613">"True"</text><line style="stroke:#181818;stroke-width:1.0;" x1="278" x2="278" y1="370.8281" y2="392.4375"/><line style="stroke:#181818;stroke-width:1.0;" x1="159" x2="372" y1="392.4375" y2="392.4375"/><text fill="#000000" font-family="sans-serif" font-size="14" lengthAdjust="spacing" textLength="109" x="164" y="408.9707">Effectif à recruter</text><text fill="#000000" font-family="sans-serif" font-size="14" lengthAdjust="spacing" textLength="50" x="283" y="408.9707">quantity</text><line style="stroke:#181818;stroke-width:1.0;" x1="278" x2="278" y1="392.4375" y2="414.0469"/><line style="stroke:#181818;stroke-width:1.0;" x1="159" x2="372" y1="414.0469" y2="414.0469"/><text fill="#000000" font-family="sans-serif" font-size="14" lengthAdjust="spacing" textLength="50" x="193.5" y="430.5801">Critères</text><text fill="#000000" font-family="sans-serif" font-size="14" lengthAdjust="spacing" textLength="84" x="283" y="430.5801">characteristic</text><line style="stroke:#181818;stroke-width:1.0;" x1="278" x2="278" y1="414.0469" y2="435.6563"/><line style="stroke:#181818;stroke-width:1.0;" x1="159" x2="372" y1="435.6563" y2="435.6563"/><text fill="#000000" font-family="sans-serif" font-size="14" lengthAdjust="spacing" textLength="25" x="206" y="452.1895">Age</text><text fill="#000000" font-family="sans-serif" font-size="14" lengthAdjust="spacing" textLength="84" x="283" y="452.1895">characteristic</text><line style="stroke:#181818;stroke-width:1.0;" x1="278" x2="278" y1="435.6563" y2="457.2656"/><line style="stroke:#181818;stroke-width:1.0;" x1="159" x2="372" y1="457.2656" y2="457.2656"/><text fill="#000000" font-family="sans-serif" font-size="14" lengthAdjust="spacing" textLength="40" x="198.5" y="473.7988">Genre</text><text fill="#000000" font-family="sans-serif" font-size="14" lengthAdjust="spacing" textLength="84" x="283" y="473.7988">characteristic</text><line style="stroke:#181818;stroke-width:1.0;" x1="278" x2="278" y1="457.2656" y2="478.875"/></g><g id="elem_characteristic"><rect fill="#C9FFC9" height="86.4375" style="stroke:#181818;stroke-width:0.5;" width="101" x="7" y="348"/><rect fill="#90EE90" height="21.6094" style="stroke:#181818;stroke-width:0.5;" width="101" x="7" y="348"/><text fill="#000000" font-family="sans-serif" font-size="14" lengthAdjust="spacing" textLength="87" x="14" y="364.5332">Characteristic</text><line style="stroke:#181818;stroke-width:1.0;" x1="7" x2="108" y1="369.6094" y2="369.6094"/><text fill="#000000" font-family="sans-serif" font-size="14" lengthAdjust="spacing" textLength="12" x="22.5" y="386.1426">xx</text><text fill="#000000" font-family="sans-serif" font-size="14" lengthAdjust="spacing" textLength="31" x="55" y="386.1426">code</text><line style="stroke:#181818;stroke-width:1.0;" x1="50" x2="50" y1="369.6094" y2="391.2188"/><line style="stroke:#181818;stroke-width:1.0;" x1="7" x2="108" y1="391.2188" y2="391.2188"/><text fill="#000000" font-family="sans-serif" font-size="14" lengthAdjust="spacing" textLength="26" x="15.5" y="407.752">erer</text><text fill="#000000" font-family="sans-serif" font-size="14" lengthAdjust="spacing" textLength="34" x="55" y="407.752">value</text><line style="stroke:#181818;stroke-width:1.0;" x1="50" x2="50" y1="391.2188" y2="412.8281"/><line style="stroke:#181818;stroke-width:1.0;" x1="7" x2="108" y1="412.8281" y2="412.8281"/><text fill="#000000" font-family="sans-serif" font-size="14" lengthAdjust="spacing" textLength="33" x="12" y="429.3613">khkjh</text><text fill="#000000" font-family="sans-serif" font-size="14" lengthAdjust="spacing" textLength="41" x="55" y="429.3613">exlude</text><line style="stroke:#181818;stroke-width:1.0;" x1="50" x2="50" y1="412.8281" y2="434.4375"/></g><g id="elem_Organization"><rect fill="#FFFFCC" height="86.4375" style="stroke:#181818;stroke-width:0.5;" width="133" x="423" y="348"/><rect fill="#FFD700" height="21.6094" style="stroke:#181818;stroke-width:0.5;" width="133" x="423" y="348"/><text fill="#000000" font-family="sans-serif" font-size="14" lengthAdjust="spacing" textLength="80" x="449.5" y="364.5332">Organization</text><line style="stroke:#181818;stroke-width:1.0;" x1="423" x2="556" y1="369.6094" y2="369.6094"/><text fill="#000000" font-family="sans-serif" font-size="14" lengthAdjust="spacing" textLength="61" x="428" y="386.1426">identifiant</text><text fill="#000000" font-family="sans-serif" font-size="14" lengthAdjust="spacing" textLength="4" x="499" y="386.1426"> </text><line style="stroke:#181818;stroke-width:1.0;" x1="494" x2="494" y1="369.6094" y2="391.2188"/><line style="stroke:#181818;stroke-width:1.0;" x1="423" x2="556" y1="391.2188" y2="391.2188"/><text fill="#000000" font-family="sans-serif" font-size="14" lengthAdjust="spacing" textLength="27" x="445" y="407.752">nom</text><text fill="#000000" font-family="sans-serif" font-size="14" lengthAdjust="spacing" textLength="35" x="499" y="407.752">name</text><line style="stroke:#181818;stroke-width:1.0;" x1="494" x2="494" y1="391.2188" y2="412.8281"/><line style="stroke:#181818;stroke-width:1.0;" x1="423" x2="556" y1="412.8281" y2="412.8281"/><text fill="#000000" font-family="sans-serif" font-size="14" lengthAdjust="spacing" textLength="51" x="433" y="429.3613">adresse</text><text fill="#000000" font-family="sans-serif" font-size="14" lengthAdjust="spacing" textLength="52" x="499" y="429.3613">Adresse</text><line style="stroke:#181818;stroke-width:1.0;" x1="494" x2="494" y1="412.8281" y2="434.4375"/></g><g id="elem_Location"><rect fill="#FFE4E1" height="86.4375" style="stroke:#181818;stroke-width:0.5;" width="136" x="607.5" y="348"/><rect fill="#EE82EE" height="21.6094" style="stroke:#181818;stroke-width:0.5;" width="136" x="607.5" y="348"/><text fill="#000000" font-family="sans-serif" font-size="14" lengthAdjust="spacing" textLength="54" x="648.5" y="364.5332">Location</text><line style="stroke:#181818;stroke-width:1.0;" x1="607.5" x2="743.5" y1="369.6094" y2="369.6094"/><text fill="#000000" font-family="sans-serif" font-size="14" lengthAdjust="spacing" textLength="61" x="612.5" y="386.1426">identifiant</text><text fill="#000000" font-family="sans-serif" font-size="14" lengthAdjust="spacing" textLength="4" x="683.5" y="386.1426"> </text><line style="stroke:#181818;stroke-width:1.0;" x1="678.5" x2="678.5" y1="369.6094" y2="391.2188"/><line style="stroke:#181818;stroke-width:1.0;" x1="607.5" x2="743.5" y1="391.2188" y2="391.2188"/><text fill="#000000" font-family="sans-serif" font-size="14" lengthAdjust="spacing" textLength="27" x="629.5" y="407.752">type</text><text fill="#000000" font-family="sans-serif" font-size="14" lengthAdjust="spacing" textLength="55" x="683.5" y="407.752">"Person"</text><line style="stroke:#181818;stroke-width:1.0;" x1="678.5" x2="678.5" y1="391.2188" y2="412.8281"/><line style="stroke:#181818;stroke-width:1.0;" x1="607.5" x2="743.5" y1="412.8281" y2="412.8281"/><text fill="#000000" font-family="sans-serif" font-size="14" lengthAdjust="spacing" textLength="38" x="624" y="429.3613">actual</text><text fill="#000000" font-family="sans-serif" font-size="14" lengthAdjust="spacing" textLength="40" x="683.5" y="429.3613">"True"</text><line style="stroke:#181818;stroke-width:1.0;" x1="678.5" x2="678.5" y1="412.8281" y2="434.4375"/></g><g id="elem_RS"><rect fill="#F0F8FF" height="237.7031" style="stroke:#0000FF;stroke-width:0.5;" width="234" x="372.5" y="7"/><rect fill="#87CEFA" height="21.6094" style="stroke:#0000FF;stroke-width:0.5;" width="234" x="372.5" y="7"/><text fill="#000000" font-family="sans-serif" font-size="14" lengthAdjust="spacing" textLength="220" x="379.5" y="23.5332">EssaisCliniques =&gt; ResearchStudy</text><line style="stroke:#0000FF;stroke-width:1.0;" x1="372.5" x2="606.5" y1="28.6094" y2="28.6094"/><text fill="#000000" font-family="sans-serif" font-size="14" lengthAdjust="spacing" textLength="61" x="413.5" y="45.1426">Identifiant</text><text fill="#000000" font-family="sans-serif" font-size="14" lengthAdjust="spacing" textLength="54" x="520.5" y="45.1426">identifier</text><line style="stroke:#0000FF;stroke-width:1.0;" x1="515.5" x2="515.5" y1="28.6094" y2="50.2188"/><line style="stroke:#0000FF;stroke-width:1.0;" x1="372.5" x2="606.5" y1="50.2188" y2="50.2188"/><text fill="#000000" font-family="sans-serif" font-size="14" lengthAdjust="spacing" textLength="91" x="398.5" y="66.752">Nom de l'essai</text><text fill="#000000" font-family="sans-serif" font-size="14" lengthAdjust="spacing" textLength="22" x="520.5" y="66.752">title</text><line style="stroke:#0000FF;stroke-width:1.0;" x1="515.5" x2="515.5" y1="50.2188" y2="71.8281"/><line style="stroke:#0000FF;stroke-width:1.0;" x1="372.5" x2="606.5" y1="71.8281" y2="71.8281"/><text fill="#000000" font-family="sans-serif" font-size="14" lengthAdjust="spacing" textLength="100" x="394" y="88.3613">Statut de l'essai</text><text fill="#000000" font-family="sans-serif" font-size="14" lengthAdjust="spacing" textLength="38" x="520.5" y="88.3613">status</text><line style="stroke:#0000FF;stroke-width:1.0;" x1="515.5" x2="515.5" y1="71.8281" y2="93.4375"/><line style="stroke:#0000FF;stroke-width:1.0;" x1="372.5" x2="606.5" y1="93.4375" y2="93.4375"/><text fill="#000000" font-family="sans-serif" font-size="14" lengthAdjust="spacing" textLength="95" x="396.5" y="109.9707">Sujet concerné</text><text fill="#000000" font-family="sans-serif" font-size="14" lengthAdjust="spacing" textLength="57" x="520.5" y="109.9707">condition</text><line style="stroke:#0000FF;stroke-width:1.0;" x1="515.5" x2="515.5" y1="93.4375" y2="115.0469"/><line style="stroke:#0000FF;stroke-width:1.0;" x1="372.5" x2="606.5" y1="115.0469" y2="115.0469"/><text fill="#000000" font-family="sans-serif" font-size="14" lengthAdjust="spacing" textLength="49" x="419.5" y="131.5801">Contact</text><text fill="#000000" font-family="sans-serif" font-size="14" lengthAdjust="spacing" textLength="46" x="520.5" y="131.5801">contact</text><line style="stroke:#0000FF;stroke-width:1.0;" x1="515.5" x2="515.5" y1="115.0469" y2="136.6563"/><line style="stroke:#0000FF;stroke-width:1.0;" x1="372.5" x2="606.5" y1="136.6563" y2="136.6563"/><text fill="#000000" font-family="sans-serif" font-size="14" lengthAdjust="spacing" textLength="115" x="386.5" y="153.1895">Résumé de l'essai</text><text fill="#000000" font-family="sans-serif" font-size="14" lengthAdjust="spacing" textLength="69" x="520.5" y="153.1895">description</text><line style="stroke:#0000FF;stroke-width:1.0;" x1="515.5" x2="515.5" y1="136.6563" y2="158.2656"/><line style="stroke:#0000FF;stroke-width:1.0;" x1="372.5" x2="606.5" y1="158.2656" y2="158.2656"/><text fill="#000000" font-family="sans-serif" font-size="14" lengthAdjust="spacing" textLength="133" x="377.5" y="174.7988">Date début de l'essai</text><text fill="#000000" font-family="sans-serif" font-size="14" lengthAdjust="spacing" textLength="72" x="520.5" y="174.7988">period.start</text><line style="stroke:#0000FF;stroke-width:1.0;" x1="515.5" x2="515.5" y1="158.2656" y2="179.875"/><line style="stroke:#0000FF;stroke-width:1.0;" x1="372.5" x2="606.5" y1="179.875" y2="179.875"/><text fill="#000000" font-family="sans-serif" font-size="14" lengthAdjust="spacing" textLength="33" x="427.5" y="196.4082">Lieux</text><text fill="#000000" font-family="sans-serif" font-size="14" lengthAdjust="spacing" textLength="22" x="520.5" y="196.4082">site</text><line style="stroke:#0000FF;stroke-width:1.0;" x1="515.5" x2="515.5" y1="179.875" y2="201.4844"/><line style="stroke:#0000FF;stroke-width:1.0;" x1="372.5" x2="606.5" y1="201.4844" y2="201.4844"/><text fill="#000000" font-family="sans-serif" font-size="14" lengthAdjust="spacing" textLength="74" x="407" y="218.0176">Participants</text><text fill="#000000" font-family="sans-serif" font-size="14" lengthAdjust="spacing" textLength="66" x="520.5" y="218.0176">enrollment</text><line style="stroke:#0000FF;stroke-width:1.0;" x1="515.5" x2="515.5" y1="201.4844" y2="223.0938"/><line style="stroke:#0000FF;stroke-width:1.0;" x1="372.5" x2="606.5" y1="223.0938" y2="223.0938"/><text fill="#000000" font-family="sans-serif" font-size="14" lengthAdjust="spacing" textLength="66" x="411" y="239.627">Promoteur</text><text fill="#000000" font-family="sans-serif" font-size="14" lengthAdjust="spacing" textLength="51" x="520.5" y="239.627">sponsor</text><line style="stroke:#0000FF;stroke-width:1.0;" x1="515.5" x2="515.5" y1="223.0938" y2="244.7031"/></g><!--MD5=[01e2f89011af1b4e9b4ba6bbdcb428ab]
link RS to Location--><g id="link_RS_Location"><path codeLine="51" d="M614.1989,196.4561 C614.1989,196.4561 645.19,284.26 658.91,331.06 " fill="none" id="RS-Location" style="stroke:#EE82EE;stroke-width:4.0;stroke-dasharray:7.0,7.0;"/><polygon fill="#EE82EE" points="662.63,343.81,663.9461,334.0495,661.2281,339.0106,656.267,336.2925,662.63,343.81" style="stroke:#EE82EE;stroke-width:4.0;"/><line style="stroke:#EE82EE;stroke-width:4.0;" x1="661.2281" x2="658.995" y1="339.0106" y2="331.325"/><polygon fill="#EE82EE" points="607.5,186.5,607.5308,193.711,614.1989,196.4561,614.1682,189.2451,607.5,186.5" style="stroke:#EE82EE;stroke-width:4.0;"/></g><!--MD5=[6aad2efb8f17f65501f139b4e70ec746]
link RS to Group--><g id="link_RS_Group"><path codeLine="52" d="M359.5562,208.6601 C359.5562,208.6601 300.13,251.75 286.43,289.63 " fill="none" id="RS-Group" style="stroke:#90EE90;stroke-width:4.0;stroke-dasharray:7.0,7.0;"/><polygon fill="#90EE90" points="282.28,301.97,288.9384,294.7129,283.8727,297.2304,281.3552,292.1647,282.28,301.97" style="stroke:#90EE90;stroke-width:4.0;"/><line style="stroke:#90EE90;stroke-width:4.0;" x1="283.8727" x2="286.425" y1="297.2304" y2="289.65"/><polygon fill="#90EE90" points="371.5,207.5,365.1414,204.0988,359.5562,208.6601,365.9148,212.0613,371.5,207.5" style="stroke:#90EE90;stroke-width:4.0;"/></g><!--MD5=[8dbf9e413a381e2f72ceeebcaab02b0b]
link RS to Organization--><g id="link_RS_Organization"><path codeLine="53" d="M489.5,251.5 C489.5,251.5 489.5,307.2 489.5,330.84 " fill="none" id="RS-Organization" style="stroke:#FFD700;stroke-width:4.0;stroke-dasharray:7.0,7.0;"/><polygon fill="#FFD700" points="489.5,343.86,493.5,334.86,489.5,338.86,485.5,334.86,489.5,343.86" style="stroke:#FFD700;stroke-width:4.0;"/><line style="stroke:#FFD700;stroke-width:4.0;" x1="489.5" x2="489.5" y1="338.86" y2="330.86"/><polygon fill="#FFD700" points="489.5,239.5,485.5,245.5,489.5,251.5,493.5,245.5,489.5,239.5" style="stroke:#FFD700;stroke-width:4.0;"/></g><!--MD5=[e956374f93210e87bba232831bf48166]
link RS to contact--><g id="link_RS_contact"><path codeLine="54" d="M607.5,123.5 C617.88,126.3 628.69,128.61 639.5,130.44 " fill="none" id="RS-to-contact" style="stroke:#ADD8E6;stroke-width:2.0;"/><polygon fill="#ADD8E6" points="649.42,131.98,641.1445,126.64,644.4798,131.209,639.9108,134.5443,649.42,131.98" style="stroke:#ADD8E6;stroke-width:2.0;"/></g><!--MD5=[4edaaa819f82681036cb617b8c0af2b3]
reverse link characteristic to Group--><g id="link_characteristic_Group"><path codeLine="56" d="M116.21,415.06 C129.82,419.1 144.46,422 158.5,422 " fill="none" id="characteristic-backto-Group" style="stroke:#90EE90;stroke-width:2.0;"/><polygon fill="#90EE90" points="116.21,415.06,123.6996,421.4557,121.0033,416.4828,125.9762,413.7865,116.21,415.06" style="stroke:#90EE90;stroke-width:2.0;"/></g><!--MD5=[4edaaa819f82681036cb617b8c0af2b3]
reverse link characteristic to Group--><g id="link_characteristic_Group"><path codeLine="57" d="M116.22,432.27 C129.47,438.57 143.96,443 158.5,443 " fill="none" id="characteristic-backto-Group-1" style="stroke:#90EE90;stroke-width:2.0;"/><polygon fill="#90EE90" points="116.22,432.27,122.6304,439.7471,120.7356,434.417,126.0656,432.5222,116.22,432.27" style="stroke:#90EE90;stroke-width:2.0;"/></g><!--MD5=[4edaaa819f82681036cb617b8c0af2b3]
reverse link characteristic to Group--><g id="link_characteristic_Group"><path codeLine="58" d="M97.21,436.02 C114.13,451.07 135.39,464 158.5,464 " fill="none" id="characteristic-backto-Group-2" style="stroke:#90EE90;stroke-width:2.0;"/><polygon fill="#90EE90" points="97.21,436.02,101.2763,444.9903,100.9459,439.3431,106.5932,439.0127,97.21,436.02" style="stroke:#90EE90;stroke-width:2.0;"/></g><!--MD5=[d315e77f5b15d46963de25604ae2a5ed]
@startuml mappingResearchStudy


map "ContactPoint" as contact #back:AliceBlue;header:LightSkyBlue;line:blue {
    nom => name
    telecommunication => telecom
}

map "Group" as Group #back:TECHNOLOGY;header:LightGreen {
    identifiant => ?
    type => "Person"
    actual => "True"
    Effectif à recruter => quantity
    Critères => characteristic
    Age => characteristic
    Genre => characteristic
}

map "Characteristic" as characteristic #back:TECHNOLOGY;header:LightGreen {
    xx => code
    erer => value
    khkjh => exlude
}

map "Organization" as Organization #back:BUSINESS;header:Gold {
    identifiant =>
    nom => name
    adresse => Adresse
    
}

map "Location" as Location #back:MistyRose;header:Violet {
    identifiant =>
    type => "Person"
    actual => "True"
}

map "EssaisCliniques => ResearchStudy" as RS #back:AliceBlue;header:LightSkyBlue;line:blue {
    Identifiant => identifier
    Nom de l'essai => title 
    Statut de l'essai => status 
    Sujet concerné => condition
    Contact => contact
    Résumé de l'essai => description
    Date début de l'essai => period.start
    Lieux => site
    Participants => enrollment
    Promoteur => sponsor
}


RS::Lieux *-[#Violet,dashed,thickness=4]-> Location
RS::Participants *-[#LightGreen,dashed,thickness=4]-> Group 
RS::Promoteur *-[#Gold,dashed,thickness=4]-> Organization
RS::Contact -[#lightBlue,thickness=2]> contact

Group::Critères -left[#LightGreen,thickness=2]> characteristic
Group::Age -left[#LightGreen,thickness=2]> characteristic
Group::Genre -left[#LightGreen,thickness=2]> characteristic

@enduml

PlantUML version 1.2022.7(Mon Aug 22 19:01:30 CEST 2022)
(GPL source distribution)
Java Runtime: Java(TM) SE Runtime Environment
JVM: Java HotSpot(TM) 64-Bit Server VM
Default Encoding: UTF-8
Language: fr
Country: FR
--></g></svg>