<?xml version="1.0" encoding="us-ascii" standalone="no"?><svg xmlns="http://www.w3.org/2000/svg" xmlns:xlink="http://www.w3.org/1999/xlink" contentStyleType="text/css" height="1263px" preserveAspectRatio="none" style="width:1812px;height:1263px;background:#FFFFFF;" version="1.1" viewBox="0 0 1812 1263" width="1812px" zoomAndPan="magnify"><defs/><g><rect fill="#DDDDDD" height="81.6406" id="_legend" rx="7.5" ry="7.5" style="stroke:#000000;stroke-width:1.0;" width="276" x="12" y="12"/><path d="M18,20.4635 L18,25.1302 L22.6667,25.1302 L22.6667,20.4635 L18,20.4635 M23.8333,22.7969 L23.8333,26.2969 L20.3333,26.2969 L20.3333,27.4635 L25,27.4635 L25,22.7969 L23.8333,22.7969 M26.1667,25.1302 L26.1667,28.6302 L22.6667,28.6302 L22.6667,29.7969 L27.3333,29.7969 L27.3333,25.1302 L26.1667,25.1302 " fill="#000000" style="stroke:;stroke-width:0.0;stroke-dasharray:;"/><text fill="#000000" font-family="sans-serif" font-size="14" lengthAdjust="spacing" textLength="41" x="32.3333" y="29.9951">: slice</text><path d="M21.5,36.7604 L21.5,40.2604 L18,40.2604 L18,42.5938 L21.5,42.5938 L21.5,46.0938 L23.8333,46.0938 L23.8333,42.5938 L27.3333,42.5938 L27.3333,40.2604 L23.8333,40.2604 L23.8333,36.7604 L21.5,36.7604 " fill="#000000" style="stroke:;stroke-width:0.0;stroke-dasharray:;"/><text fill="#000000" font-family="sans-serif" font-size="14" lengthAdjust="spacing" textLength="80" x="32.3333" y="46.292">: extension</text><text fill="#000000" font-family="sans-serif" font-size="14" lengthAdjust="spacing" textLength="266" x="17" y="62.5889">* : pas d'&#233;quivalence Sant&#233;.fr ni WHO</text><path d="M18.5476,86.3073 C17.4731,86.3073 16.9994,85.5268 17.4941,84.573 L26.5993,67.041 C27.0946,66.0872 27.9048,66.0872 28.4001,67.041 L37.5053,84.5736 C38.0012,85.5268 37.5269,86.3073 36.4524,86.3073 L18.5476,86.3073 " fill="#FFCC4D" style="stroke:;stroke-width:0.0;stroke-dasharray:;"/><path d="M26.0901,82.7799 C26.0901,82.0023 26.723,81.3694 27.5012,81.3694 C28.2788,81.3694 28.9117,82.0023 28.9117,82.7799 C28.9117,83.558 28.2782,84.191 27.5012,84.191 C26.723,84.191 26.0901,83.558 26.0901,82.7799 M26.1986,72.109 C26.1986,71.3495 26.7592,70.8793 27.5006,70.8793 C28.2245,70.8793 28.8032,71.3675 28.8032,72.109 L28.8032,79.0728 C28.8032,79.8142 28.2245,80.3025 27.5006,80.3025 C26.7592,80.3025 26.1986,79.8317 26.1986,79.0728 L26.1986,72.109 " fill="#231F20" style="stroke:;stroke-width:0.0;stroke-dasharray:;"/><text fill="#000000" font-family="sans-serif" font-size="14" lengthAdjust="spacing" textLength="103" x="42" y="85.3389">: en discussion</text><g id="elem_Contact"><rect fill="#F0F8FF" height="138.0781" style="stroke:#0000FF;stroke-width:0.5;" width="517.3333" x="418.5" y="258.6406"/><rect fill="#87CEFA" height="20.2969" style="stroke:#0000FF;stroke-width:0.5;" width="517.3333" x="418.5" y="258.6406"/><text fill="#000000" font-family="sans-serif" font-size="14" lengthAdjust="spacing" textLength="101" x="626.6667" y="273.6357">ContactDetail</text><line style="stroke:#0000FF;stroke-width:1.0;" x1="418.5" x2="935.8333" y1="278.9375" y2="278.9375"/><text fill="#000000" font-family="sans-serif" font-size="14" lengthAdjust="spacing" textLength="33" x="478" y="293.9326">Nom</text><path d="M580,284.401 L580,287.901 L576.5,287.901 L576.5,290.2344 L580,290.2344 L580,293.7344 L582.3333,293.7344 L582.3333,290.2344 L585.8333,290.2344 L585.8333,287.901 L582.3333,287.901 L582.3333,284.401 L580,284.401 " fill="#000000" style="stroke:;stroke-width:0.0;stroke-dasharray:;"/><text fill="#000000" font-family="sans-serif" font-size="14" lengthAdjust="spacing" textLength="304" x="590.8333" y="293.9326">ECLAIREContactName : HumanName [0..1]</text><line style="stroke:#0000FF;stroke-width:1.0;" x1="570.5" x2="570.5" y1="278.9375" y2="299.2344"/><line style="stroke:#0000FF;stroke-width:1.0;" x1="418.5" x2="935.8333" y1="299.2344" y2="299.2344"/><text fill="#000000" font-family="sans-serif" font-size="14" lengthAdjust="spacing" textLength="142" x="423.5" y="314.2295">T&#233;l&#233;communication</text><text fill="#000000" font-family="sans-serif" font-size="14" lengthAdjust="spacing" textLength="213" x="575.5" y="314.2295">telecom :  ContactPoint [0..*]</text><line style="stroke:#0000FF;stroke-width:1.0;" x1="570.5" x2="570.5" y1="299.2344" y2="319.5313"/><line style="stroke:#0000FF;stroke-width:1.0;" x1="418.5" x2="935.8333" y1="319.5313" y2="319.5313"/><text fill="#000000" font-family="sans-serif" font-size="14" lengthAdjust="spacing" textLength="36" x="476.5" y="334.5264">Type</text><path d="M580,324.9948 L580,328.4948 L576.5,328.4948 L576.5,330.8281 L580,330.8281 L580,334.3281 L582.3333,334.3281 L582.3333,330.8281 L585.8333,330.8281 L585.8333,328.4948 L582.3333,328.4948 L582.3333,324.9948 L580,324.9948 " fill="#000000" style="stroke:;stroke-width:0.0;stroke-dasharray:;"/><text fill="#000000" font-family="sans-serif" font-size="14" lengthAdjust="spacing" textLength="336" x="590.8333" y="334.5264">ECLAIREContacType :  CodeableConcept [0..1]</text><text fill="#000000" font-family="sans-serif" font-size="14" lengthAdjust="spacing" textLength="154" x="579.5" y="350.8232">("Public"/"Scientific")</text><line style="stroke:#0000FF;stroke-width:1.0;" x1="570.5" x2="570.5" y1="319.5313" y2="356.125"/><line style="stroke:#0000FF;stroke-width:1.0;" x1="418.5" x2="935.8333" y1="356.125" y2="356.125"/><text fill="#000000" font-family="sans-serif" font-size="14" lengthAdjust="spacing" textLength="57" x="466" y="371.1201">Adresse</text><path d="M580,361.5885 L580,365.0885 L576.5,365.0885 L576.5,367.4219 L580,367.4219 L580,370.9219 L582.3333,370.9219 L582.3333,367.4219 L585.8333,367.4219 L585.8333,365.0885 L582.3333,365.0885 L582.3333,361.5885 L580,361.5885 " fill="#000000" style="stroke:;stroke-width:0.0;stroke-dasharray:;"/><text fill="#000000" font-family="sans-serif" font-size="14" lengthAdjust="spacing" textLength="287" x="590.8333" y="371.1201">ECLAIREContactAddress : Address [0..1]</text><line style="stroke:#0000FF;stroke-width:1.0;" x1="570.5" x2="570.5" y1="356.125" y2="376.4219"/><line style="stroke:#0000FF;stroke-width:1.0;" x1="418.5" x2="935.8333" y1="376.4219" y2="376.4219"/><text fill="#000000" font-family="sans-serif" font-size="14" lengthAdjust="spacing" textLength="71" x="459" y="391.417">Affiliation</text><path d="M580,381.8854 L580,385.3854 L576.5,385.3854 L576.5,387.7188 L580,387.7188 L580,391.2188 L582.3333,391.2188 L582.3333,387.7188 L585.8333,387.7188 L585.8333,385.3854 L582.3333,385.3854 L582.3333,381.8854 L580,381.8854 " fill="#000000" style="stroke:;stroke-width:0.0;stroke-dasharray:;"/><text fill="#000000" font-family="sans-serif" font-size="14" lengthAdjust="spacing" textLength="286" x="590.8333" y="391.417">ECLAIREContactAffiliation : string [0..1]</text><line style="stroke:#0000FF;stroke-width:1.0;" x1="570.5" x2="570.5" y1="376.4219" y2="396.7188"/></g><g id="elem_slice_name"><rect fill="#F0F8FF" height="77.1875" style="stroke:#0000FF;stroke-width:0.5;" width="403" x="475.5" y="113.6406"/><rect fill="#87CEFA" height="20.2969" style="stroke:#0000FF;stroke-width:0.5;" width="403" x="475.5" y="113.6406"/><text fill="#000000" font-family="sans-serif" font-size="14" lengthAdjust="spacing" textLength="90" x="632" y="128.6357">HumanName</text><line style="stroke:#0000FF;stroke-width:1.0;" x1="475.5" x2="878.5" y1="133.9375" y2="133.9375"/><text fill="#000000" font-family="sans-serif" font-size="14" lengthAdjust="spacing" textLength="196" x="503.5" y="148.9326">Nom de famille (Last name)</text><text fill="#000000" font-family="sans-serif" font-size="14" lengthAdjust="spacing" textLength="141" x="732.5" y="148.9326">family : string [0..1]</text><line style="stroke:#0000FF;stroke-width:1.0;" x1="727.5" x2="727.5" y1="133.9375" y2="154.2344"/><line style="stroke:#0000FF;stroke-width:1.0;" x1="475.5" x2="878.5" y1="154.2344" y2="154.2344"/><text fill="#000000" font-family="sans-serif" font-size="14" lengthAdjust="spacing" textLength="146" x="480.5" y="169.2295">Pr&#233;nom (First name)</text><text fill="#000000" font-family="sans-serif" font-size="14" lengthAdjust="spacing" textLength="238" x="484.5" y="185.5264">Deuxi&#232;me pr&#233;nom (Middle name)</text><text fill="#000000" font-family="sans-serif" font-size="14" lengthAdjust="spacing" textLength="134" x="732.5" y="169.2295">given : string [0..*]</text><line style="stroke:#0000FF;stroke-width:1.0;" x1="727.5" x2="727.5" y1="154.2344" y2="190.8281"/></g><g id="elem_slice_identifier"><rect fill="#F0F8FF" height="60.8906" style="stroke:#0000FF;stroke-width:0.5;" width="306" x="7" y="637.1406"/><rect fill="#87CEFA" height="20.2969" style="stroke:#0000FF;stroke-width:0.5;" width="306" x="7" y="637.1406"/><path d="M100.8333,642.6042 L100.8333,647.2708 L105.5,647.2708 L105.5,642.6042 L100.8333,642.6042 M106.6667,644.9375 L106.6667,648.4375 L103.1667,648.4375 L103.1667,649.6042 L107.8333,649.6042 L107.8333,644.9375 L106.6667,644.9375 M109,647.2708 L109,650.7708 L105.5,650.7708 L105.5,651.9375 L110.1667,651.9375 L110.1667,647.2708 L109,647.2708 " fill="#000000" style="stroke:;stroke-width:0.0;stroke-dasharray:;"/><text fill="#000000" font-family="sans-serif" font-size="14" lengthAdjust="spacing" textLength="105" x="115.1667" y="652.1357">Slice identifier</text><line style="stroke:#0000FF;stroke-width:1.0;" x1="7" x2="313" y1="657.4375" y2="657.4375"/><text fill="#000000" font-family="sans-serif" font-size="14" lengthAdjust="spacing" textLength="143" x="19.5" y="672.4326">Identifiant principal</text><text fill="#000000" font-family="sans-serif" font-size="14" lengthAdjust="spacing" textLength="110" x="180" y="672.4326">idPrimary [0..1]</text><line style="stroke:#0000FF;stroke-width:1.0;" x1="175" x2="175" y1="657.4375" y2="677.7344"/><line style="stroke:#0000FF;stroke-width:1.0;" x1="7" x2="313" y1="677.7344" y2="677.7344"/><text fill="#000000" font-family="sans-serif" font-size="14" lengthAdjust="spacing" textLength="158" x="12" y="692.7295">Identifiant secondaire</text><text fill="#000000" font-family="sans-serif" font-size="14" lengthAdjust="spacing" textLength="128" x="180" y="692.7295">idSecondary [0..*]</text><line style="stroke:#0000FF;stroke-width:1.0;" x1="175" x2="175" y1="677.7344" y2="698.0313"/></g><g id="elem_slice_condition"><rect fill="#F0F8FF" height="60.8906" style="stroke:#0000FF;stroke-width:0.5;" width="295" x="1510.5" y="637.1406"/><rect fill="#87CEFA" height="20.2969" style="stroke:#0000FF;stroke-width:0.5;" width="295" x="1510.5" y="637.1406"/><path d="M1598.3333,642.6042 L1598.3333,647.2708 L1603,647.2708 L1603,642.6042 L1598.3333,642.6042 M1604.1667,644.9375 L1604.1667,648.4375 L1600.6667,648.4375 L1600.6667,649.6042 L1605.3333,649.6042 L1605.3333,644.9375 L1604.1667,644.9375 M1606.5,647.2708 L1606.5,650.7708 L1603,650.7708 L1603,651.9375 L1607.6667,651.9375 L1607.6667,647.2708 L1606.5,647.2708 " fill="#000000" style="stroke:;stroke-width:0.0;stroke-dasharray:;"/><text fill="#000000" font-family="sans-serif" font-size="14" lengthAdjust="spacing" textLength="106" x="1612.6667" y="652.1357">Slice condition</text><line style="stroke:#0000FF;stroke-width:1.0;" x1="1510.5" x2="1805.5" y1="657.4375" y2="657.4375"/><text fill="#000000" font-family="sans-serif" font-size="14" lengthAdjust="spacing" textLength="102" x="1515.5" y="672.4326">Code MedDRA</text><text fill="#000000" font-family="sans-serif" font-size="14" lengthAdjust="spacing" textLength="173" x="1627.5" y="672.4326">medDRACondition [0..*]</text><line style="stroke:#0000FF;stroke-width:1.0;" x1="1622.5" x2="1622.5" y1="657.4375" y2="677.7344"/><line style="stroke:#0000FF;stroke-width:1.0;" x1="1510.5" x2="1805.5" y1="677.7344" y2="677.7344"/><text fill="#000000" font-family="sans-serif" font-size="14" lengthAdjust="spacing" textLength="77" x="1528" y="692.7295">Pathologie</text><text fill="#000000" font-family="sans-serif" font-size="14" lengthAdjust="spacing" textLength="163" x="1627.5" y="692.7295">diseaseCondition [0..*]</text><line style="stroke:#0000FF;stroke-width:1.0;" x1="1622.5" x2="1622.5" y1="677.7344" y2="698.0313"/></g><g id="elem_label"><rect fill="#F0F8FF" height="60.8906" style="stroke:#0000FF;stroke-width:0.5;" width="321" x="986.5" y="297.6406"/><rect fill="#87CEFA" height="20.2969" style="stroke:#0000FF;stroke-width:0.5;" width="321" x="986.5" y="297.6406"/><path d="M1094.3333,303.1042 L1094.3333,306.6042 L1090.8333,306.6042 L1090.8333,308.9375 L1094.3333,308.9375 L1094.3333,312.4375 L1096.6667,312.4375 L1096.6667,308.9375 L1100.1667,308.9375 L1100.1667,306.6042 L1096.6667,306.6042 L1096.6667,303.1042 L1094.3333,303.1042 " fill="#000000" style="stroke:;stroke-width:0.0;stroke-dasharray:;"/><text fill="#000000" font-family="sans-serif" font-size="14" lengthAdjust="spacing" textLength="99" x="1105.1667" y="312.6357">ECLAIRELabel</text><line style="stroke:#0000FF;stroke-width:1.0;" x1="986.5" x2="1307.5" y1="317.9375" y2="317.9375"/><text fill="#000000" font-family="sans-serif" font-size="14" lengthAdjust="spacing" textLength="36" x="996" y="332.9326">Type</text><text fill="#000000" font-family="sans-serif" font-size="14" lengthAdjust="spacing" textLength="256" x="1046.5" y="332.9326">labelType : CodeableConcept [0..1]</text><line style="stroke:#0000FF;stroke-width:1.0;" x1="1041.5" x2="1041.5" y1="317.9375" y2="338.2344"/><line style="stroke:#0000FF;stroke-width:1.0;" x1="986.5" x2="1307.5" y1="338.2344" y2="338.2344"/><text fill="#000000" font-family="sans-serif" font-size="14" lengthAdjust="spacing" textLength="45" x="991.5" y="353.2295">Valeur</text><text fill="#000000" font-family="sans-serif" font-size="14" lengthAdjust="spacing" textLength="171" x="1046.5" y="353.2295">labelValue : string [0..1]</text><line style="stroke:#0000FF;stroke-width:1.0;" x1="1041.5" x2="1041.5" y1="338.2344" y2="358.5313"/></g><g id="elem_Group"><rect fill="#C9FFC9" height="170.6719" style="stroke:#181818;stroke-width:0.5;" width="439" x="249.5" y="937.6406"/><rect fill="#90EE90" height="20.2969" style="stroke:#181818;stroke-width:0.5;" width="439" x="249.5" y="937.6406"/><text fill="#000000" font-family="sans-serif" font-size="14" lengthAdjust="spacing" textLength="44" x="447" y="952.6357">Group</text><line style="stroke:#181818;stroke-width:1.0;" x1="249.5" x2="688.5" y1="957.9375" y2="957.9375"/><text fill="#000000" font-family="sans-serif" font-size="14" lengthAdjust="spacing" textLength="83" x="278" y="972.9326">Identifiant*</text><text fill="#000000" font-family="sans-serif" font-size="14" lengthAdjust="spacing" textLength="187" x="394.5" y="972.9326">identifier : Identifier [0..*]</text><line style="stroke:#181818;stroke-width:1.0;" x1="389.5" x2="389.5" y1="957.9375" y2="978.2344"/><line style="stroke:#181818;stroke-width:1.0;" x1="249.5" x2="688.5" y1="978.2344" y2="978.2344"/><text fill="#000000" font-family="sans-serif" font-size="14" lengthAdjust="spacing" textLength="120" x="259.5" y="993.2295">Type de groupe*</text><text fill="#000000" font-family="sans-serif" font-size="14" lengthAdjust="spacing" textLength="206" x="394.5" y="993.2295">type : code [1..1] = "Person"</text><line style="stroke:#181818;stroke-width:1.0;" x1="389.5" x2="389.5" y1="978.2344" y2="998.5313"/><line style="stroke:#181818;stroke-width:1.0;" x1="249.5" x2="688.5" y1="998.5313" y2="998.5313"/><text fill="#000000" font-family="sans-serif" font-size="14" lengthAdjust="spacing" textLength="97" x="271" y="1013.5264">Groupe actif*</text><text fill="#000000" font-family="sans-serif" font-size="14" lengthAdjust="spacing" textLength="221" x="394.5" y="1013.5264">actual : boolean [1..1] = "True"</text><line style="stroke:#181818;stroke-width:1.0;" x1="389.5" x2="389.5" y1="998.5313" y2="1018.8281"/><line style="stroke:#181818;stroke-width:1.0;" x1="249.5" x2="688.5" y1="1018.8281" y2="1018.8281"/><text fill="#000000" font-family="sans-serif" font-size="14" lengthAdjust="spacing" textLength="130" x="254.5" y="1033.8232">Effectif &#224; recruter</text><text fill="#000000" font-family="sans-serif" font-size="14" lengthAdjust="spacing" textLength="199" x="394.5" y="1033.8232">quantity : unsignedInt [0..1]</text><line style="stroke:#181818;stroke-width:1.0;" x1="389.5" x2="389.5" y1="1018.8281" y2="1039.125"/><line style="stroke:#181818;stroke-width:1.0;" x1="249.5" x2="688.5" y1="1039.125" y2="1039.125"/><text fill="#000000" font-family="sans-serif" font-size="14" lengthAdjust="spacing" textLength="58" x="260.5" y="1054.1201">Crit&#232;res</text><text fill="#000000" font-family="sans-serif" font-size="14" lengthAdjust="spacing" textLength="28" x="264.5" y="1070.417">Age</text><text fill="#000000" font-family="sans-serif" font-size="14" lengthAdjust="spacing" textLength="44" x="264.5" y="1086.7139">Genre</text><text fill="#000000" font-family="sans-serif" font-size="14" lengthAdjust="spacing" textLength="114" x="264.5" y="1103.0107">Groupe de sujet</text><text fill="#000000" font-family="sans-serif" font-size="14" lengthAdjust="spacing" textLength="4" x="394.5" y="1054.1201">&#160;</text><text fill="#000000" font-family="sans-serif" font-size="14" lengthAdjust="spacing" textLength="285" x="398.5" y="1070.417">characteristic : BackboneElement [0..*]</text><line style="stroke:#181818;stroke-width:1.0;" x1="389.5" x2="389.5" y1="1039.125" y2="1108.3125"/></g><g id="elem_Characteristic"><rect fill="#C9FFC9" height="81.1875" style="stroke:#181818;stroke-width:0.5;" width="306" x="316" y="1175.6406"/><rect fill="#90EE90" height="20.2969" style="stroke:#181818;stroke-width:0.5;" width="306" x="316" y="1175.6406"/><text fill="#000000" font-family="sans-serif" font-size="14" lengthAdjust="spacing" textLength="101" x="418.5" y="1190.6357">Characteristic</text><line style="stroke:#181818;stroke-width:1.0;" x1="316" x2="622" y1="1195.9375" y2="1195.9375"/><text fill="#000000" font-family="sans-serif" font-size="14" lengthAdjust="spacing" textLength="36" x="336" y="1210.9326">Type</text><text fill="#000000" font-family="sans-serif" font-size="14" lengthAdjust="spacing" textLength="220" x="397" y="1210.9326">code : CodeableConcept [1..1]</text><line style="stroke:#181818;stroke-width:1.0;" x1="392" x2="392" y1="1195.9375" y2="1216.2344"/><line style="stroke:#181818;stroke-width:1.0;" x1="316" x2="622" y1="1216.2344" y2="1216.2344"/><text fill="#000000" font-family="sans-serif" font-size="14" lengthAdjust="spacing" textLength="45" x="331.5" y="1231.2295">Valeur</text><text fill="#000000" font-family="sans-serif" font-size="14" lengthAdjust="spacing" textLength="106" x="397" y="1231.2295">value[x] : [1..1]</text><line style="stroke:#181818;stroke-width:1.0;" x1="392" x2="392" y1="1216.2344" y2="1236.5313"/><line style="stroke:#181818;stroke-width:1.0;" x1="316" x2="622" y1="1236.5313" y2="1236.5313"/><text fill="#000000" font-family="sans-serif" font-size="14" lengthAdjust="spacing" textLength="66" x="321" y="1251.5264">Exclusion</text><text fill="#000000" font-family="sans-serif" font-size="14" lengthAdjust="spacing" textLength="168" x="397" y="1251.5264">exclude : boolean [1..1]</text><line style="stroke:#181818;stroke-width:1.0;" x1="392" x2="392" y1="1236.5313" y2="1256.8281"/></g><g id="elem_Organization"><rect fill="#FFFFCC" height="101.4844" style="stroke:#181818;stroke-width:0.5;" width="345" x="739.5" y="972.1406"/><rect fill="#FFD700" height="20.2969" style="stroke:#181818;stroke-width:0.5;" width="345" x="739.5" y="972.1406"/><text fill="#000000" font-family="sans-serif" font-size="14" lengthAdjust="spacing" textLength="92" x="866" y="987.1357">Organization</text><line style="stroke:#181818;stroke-width:1.0;" x1="739.5" x2="1084.5" y1="992.4375" y2="992.4375"/><text fill="#000000" font-family="sans-serif" font-size="14" lengthAdjust="spacing" textLength="83" x="744.5" y="1007.4326">Identifiant*</text><text fill="#000000" font-family="sans-serif" font-size="14" lengthAdjust="spacing" textLength="187" x="837.5" y="1007.4326">identifier : Identifier [0..*]</text><line style="stroke:#181818;stroke-width:1.0;" x1="832.5" x2="832.5" y1="992.4375" y2="1012.7344"/><line style="stroke:#181818;stroke-width:1.0;" x1="739.5" x2="1084.5" y1="1012.7344" y2="1012.7344"/><text fill="#000000" font-family="sans-serif" font-size="14" lengthAdjust="spacing" textLength="33" x="769.5" y="1027.7295">Nom</text><text fill="#000000" font-family="sans-serif" font-size="14" lengthAdjust="spacing" textLength="137" x="837.5" y="1027.7295">name : string [0..1]</text><line style="stroke:#181818;stroke-width:1.0;" x1="832.5" x2="832.5" y1="1012.7344" y2="1033.0313"/><line style="stroke:#181818;stroke-width:1.0;" x1="739.5" x2="1084.5" y1="1033.0313" y2="1033.0313"/><text fill="#000000" font-family="sans-serif" font-size="14" lengthAdjust="spacing" textLength="57" x="757.5" y="1048.0264">Adresse</text><text fill="#000000" font-family="sans-serif" font-size="14" lengthAdjust="spacing" textLength="165" x="837.5" y="1048.0264">address : Address [0..*]</text><line style="stroke:#181818;stroke-width:1.0;" x1="832.5" x2="832.5" y1="1033.0313" y2="1053.3281"/><line style="stroke:#181818;stroke-width:1.0;" x1="739.5" x2="1084.5" y1="1053.3281" y2="1053.3281"/><text fill="#000000" font-family="sans-serif" font-size="14" lengthAdjust="spacing" textLength="58" x="757" y="1068.3232">Contact</text><text fill="#000000" font-family="sans-serif" font-size="14" lengthAdjust="spacing" textLength="242" x="837.5" y="1068.3232">contact : BackboneElement [0..*]</text><line style="stroke:#181818;stroke-width:1.0;" x1="832.5" x2="832.5" y1="1053.3281" y2="1073.625"/></g><g id="elem_Location"><rect fill="#FFE4E1" height="101.4844" style="stroke:#181818;stroke-width:0.5;" width="312" x="1136" y="972.1406"/><rect fill="#EE82EE" height="20.2969" style="stroke:#181818;stroke-width:0.5;" width="312" x="1136" y="972.1406"/><text fill="#000000" font-family="sans-serif" font-size="14" lengthAdjust="spacing" textLength="62" x="1261" y="987.1357">Location</text><line style="stroke:#181818;stroke-width:1.0;" x1="1136" x2="1448" y1="992.4375" y2="992.4375"/><text fill="#000000" font-family="sans-serif" font-size="14" lengthAdjust="spacing" textLength="83" x="1141" y="1007.4326">Identifiant*</text><text fill="#000000" font-family="sans-serif" font-size="14" lengthAdjust="spacing" textLength="187" x="1234" y="1007.4326">identifier : Identifier [0..*]</text><line style="stroke:#181818;stroke-width:1.0;" x1="1229" x2="1229" y1="992.4375" y2="1012.7344"/><line style="stroke:#181818;stroke-width:1.0;" x1="1136" x2="1448" y1="1012.7344" y2="1012.7344"/><text fill="#000000" font-family="sans-serif" font-size="14" lengthAdjust="spacing" textLength="33" x="1166" y="1027.7295">Nom</text><text fill="#000000" font-family="sans-serif" font-size="14" lengthAdjust="spacing" textLength="137" x="1234" y="1027.7295">name : string [0..1]</text><line style="stroke:#181818;stroke-width:1.0;" x1="1229" x2="1229" y1="1012.7344" y2="1033.0313"/><line style="stroke:#181818;stroke-width:1.0;" x1="1136" x2="1448" y1="1033.0313" y2="1033.0313"/><text fill="#000000" font-family="sans-serif" font-size="14" lengthAdjust="spacing" textLength="57" x="1154" y="1048.0264">Adresse</text><text fill="#000000" font-family="sans-serif" font-size="14" lengthAdjust="spacing" textLength="167" x="1234" y="1048.0264">address : Address [0..1]</text><line style="stroke:#181818;stroke-width:1.0;" x1="1229" x2="1229" y1="1033.0313" y2="1053.3281"/><line style="stroke:#181818;stroke-width:1.0;" x1="1136" x2="1448" y1="1053.3281" y2="1053.3281"/><text fill="#000000" font-family="sans-serif" font-size="14" lengthAdjust="spacing" textLength="58" x="1153.5" y="1068.3232">Contact</text><text fill="#000000" font-family="sans-serif" font-size="14" lengthAdjust="spacing" textLength="209" x="1234" y="1068.3232">telecom : ContactPoint [0..*]</text><line style="stroke:#181818;stroke-width:1.0;" x1="1229" x2="1229" y1="1053.3281" y2="1073.625"/></g><g id="elem_Telecom"><rect fill="#FFE4E1" height="81.1875" style="stroke:#181818;stroke-width:0.5;" width="431.3333" x="1076.5" y="1175.6406"/><rect fill="#EE82EE" height="20.2969" style="stroke:#181818;stroke-width:0.5;" width="431.3333" x="1076.5" y="1175.6406"/><text fill="#000000" font-family="sans-serif" font-size="14" lengthAdjust="spacing" textLength="62" x="1261.1667" y="1190.6357">Telecom</text><line style="stroke:#181818;stroke-width:1.0;" x1="1076.5" x2="1507.8333" y1="1195.9375" y2="1195.9375"/><text fill="#000000" font-family="sans-serif" font-size="14" lengthAdjust="spacing" textLength="63" x="1081.5" y="1210.9326">Syst&#232;me</text><text fill="#000000" font-family="sans-serif" font-size="14" lengthAdjust="spacing" textLength="142" x="1154.5" y="1210.9326">system : code [0..1]</text><line style="stroke:#181818;stroke-width:1.0;" x1="1149.5" x2="1149.5" y1="1195.9375" y2="1216.2344"/><line style="stroke:#181818;stroke-width:1.0;" x1="1076.5" x2="1507.8333" y1="1216.2344" y2="1216.2344"/><text fill="#000000" font-family="sans-serif" font-size="14" lengthAdjust="spacing" textLength="45" x="1090.5" y="1231.2295">Valeur</text><text fill="#000000" font-family="sans-serif" font-size="14" lengthAdjust="spacing" textLength="134" x="1154.5" y="1231.2295">value : string [0..1]</text><line style="stroke:#181818;stroke-width:1.0;" x1="1149.5" x2="1149.5" y1="1216.2344" y2="1236.5313"/><line style="stroke:#181818;stroke-width:1.0;" x1="1076.5" x2="1507.8333" y1="1236.5313" y2="1236.5313"/><text fill="#000000" font-family="sans-serif" font-size="14" lengthAdjust="spacing" textLength="33" x="1096.5" y="1251.5264">Nom</text><path d="M1159,1241.9948 L1159,1245.4948 L1155.5,1245.4948 L1155.5,1247.8281 L1159,1247.8281 L1159,1251.3281 L1161.3333,1251.3281 L1161.3333,1247.8281 L1164.8333,1247.8281 L1164.8333,1245.4948 L1161.3333,1245.4948 L1161.3333,1241.9948 L1159,1241.9948 " fill="#000000" style="stroke:;stroke-width:0.0;stroke-dasharray:;"/><text fill="#000000" font-family="sans-serif" font-size="14" lengthAdjust="spacing" textLength="333" x="1169.8333" y="1251.5264">ECLAIRESiteContactName : HumanName [0..1]</text><line style="stroke:#181818;stroke-width:1.0;" x1="1149.5" x2="1149.5" y1="1236.5313" y2="1256.8281"/></g><g id="elem_RS"><rect fill="#F0F8FF" height="405.9375" style="stroke:#0000FF;stroke-width:0.5;" width="1095.3333" x="364.5" y="464.6406"/><rect fill="#87CEFA" height="20.2969" style="stroke:#0000FF;stroke-width:0.5;" width="1095.3333" x="364.5" y="464.6406"/><text fill="#000000" font-family="sans-serif" font-size="14" lengthAdjust="spacing" textLength="212" x="806.1667" y="479.6357">EssaiClinique : ResearchStudy</text><line style="stroke:#0000FF;stroke-width:1.0;" x1="364.5" x2="1459.8333" y1="484.9375" y2="484.9375"/><text fill="#000000" font-family="sans-serif" font-size="14" lengthAdjust="spacing" textLength="404" x="483.5" y="499.9326">Identifiant (Primary and Secondary Identifying Numbers)</text><path d="M1012.5,490.401 L1012.5,495.0677 L1017.1667,495.0677 L1017.1667,490.401 L1012.5,490.401 M1018.3333,492.7344 L1018.3333,496.2344 L1014.8333,496.2344 L1014.8333,497.401 L1019.5,497.401 L1019.5,492.7344 L1018.3333,492.7344 M1020.6667,495.0677 L1020.6667,498.5677 L1017.1667,498.5677 L1017.1667,499.7344 L1021.8333,499.7344 L1021.8333,495.0677 L1020.6667,495.0677 " fill="#000000" style="stroke:;stroke-width:0.0;stroke-dasharray:;"/><text fill="#000000" font-family="sans-serif" font-size="14" lengthAdjust="spacing" textLength="187" x="1026.8333" y="499.9326">identifier : Identifier [0..*]</text><line style="stroke:#0000FF;stroke-width:1.0;" x1="1006.5" x2="1006.5" y1="484.9375" y2="505.2344"/><line style="stroke:#0000FF;stroke-width:1.0;" x1="364.5" x2="1459.8333" y1="505.2344" y2="505.2344"/><text fill="#000000" font-family="sans-serif" font-size="14" lengthAdjust="spacing" textLength="193" x="589" y="520.2295">Date de r&#233;vision technique</text><text fill="#000000" font-family="sans-serif" font-size="14" lengthAdjust="spacing" textLength="236" x="1011.5" y="520.2295">meta.lastUpdated : instant [0..1]</text><line style="stroke:#0000FF;stroke-width:1.0;" x1="1006.5" x2="1006.5" y1="505.2344" y2="525.5313"/><line style="stroke:#0000FF;stroke-width:1.0;" x1="364.5" x2="1459.8333" y1="525.5313" y2="525.5313"/><text fill="#000000" font-family="sans-serif" font-size="14" lengthAdjust="spacing" textLength="217" x="577" y="540.5264">Date de r&#233;vision fonctionnelle</text><path d="M1016,530.9948 L1016,534.4948 L1012.5,534.4948 L1012.5,536.8281 L1016,536.8281 L1016,540.3281 L1018.3333,540.3281 L1018.3333,536.8281 L1021.8333,536.8281 L1021.8333,534.4948 L1018.3333,534.4948 L1018.3333,530.9948 L1016,530.9948 " fill="#000000" style="stroke:;stroke-width:0.0;stroke-dasharray:;"/><text fill="#000000" font-family="sans-serif" font-size="14" lengthAdjust="spacing" textLength="252" x="1026.8333" y="540.5264">ECLAIREReviewDate : instant [0..1]</text><line style="stroke:#0000FF;stroke-width:1.0;" x1="1006.5" x2="1006.5" y1="525.5313" y2="545.8281"/><line style="stroke:#0000FF;stroke-width:1.0;" x1="364.5" x2="1459.8333" y1="545.8281" y2="545.8281"/><text fill="#000000" font-family="sans-serif" font-size="14" lengthAdjust="spacing" textLength="237" x="567" y="560.8232">Nom de l'essai (Scientifique title)</text><text fill="#000000" font-family="sans-serif" font-size="14" lengthAdjust="spacing" textLength="128" x="1011.5" y="560.8232">title : string [0..1]</text><line style="stroke:#0000FF;stroke-width:1.0;" x1="1006.5" x2="1006.5" y1="545.8281" y2="566.125"/><line style="stroke:#0000FF;stroke-width:1.0;" x1="364.5" x2="1459.8333" y1="566.125" y2="566.125"/><text fill="#000000" font-family="sans-serif" font-size="14" lengthAdjust="spacing" textLength="251" x="560" y="581.1201">Autres noms de l'essai (Public title)</text><path d="M1016,571.5885 L1016,575.0885 L1012.5,575.0885 L1012.5,577.4219 L1016,577.4219 L1016,580.9219 L1018.3333,580.9219 L1018.3333,577.4219 L1021.8333,577.4219 L1021.8333,575.0885 L1018.3333,575.0885 L1018.3333,571.5885 L1016,571.5885 " fill="#000000" style="stroke:;stroke-width:0.0;stroke-dasharray:;"/><text fill="#000000" font-family="sans-serif" font-size="14" lengthAdjust="spacing" textLength="420" x="1026.8333" y="581.1201">R5 ECLAIRELabel : Extension R5 ResearchStudy.label [0..*]</text><line style="stroke:#0000FF;stroke-width:1.0;" x1="1006.5" x2="1006.5" y1="566.125" y2="586.4219"/><line style="stroke:#0000FF;stroke-width:1.0;" x1="364.5" x2="1459.8333" y1="586.4219" y2="586.4219"/><text fill="#000000" font-family="sans-serif" font-size="14" lengthAdjust="spacing" textLength="115" x="628" y="601.417">Statut de l'essai</text><text fill="#000000" font-family="sans-serif" font-size="14" lengthAdjust="spacing" textLength="134" x="1011.5" y="601.417">status : code [1..1]</text><line style="stroke:#0000FF;stroke-width:1.0;" x1="1006.5" x2="1006.5" y1="586.4219" y2="606.7188"/><line style="stroke:#0000FF;stroke-width:1.0;" x1="364.5" x2="1459.8333" y1="606.7188" y2="606.7188"/><text fill="#000000" font-family="sans-serif" font-size="14" lengthAdjust="spacing" textLength="260" x="555.5" y="621.7139">Phase de l'essai (Study type : phase)</text><text fill="#000000" font-family="sans-serif" font-size="14" lengthAdjust="spacing" textLength="228" x="1011.5" y="621.7139">phase : CodeableConcept [0..1]</text><line style="stroke:#0000FF;stroke-width:1.0;" x1="1006.5" x2="1006.5" y1="606.7188" y2="627.0156"/><line style="stroke:#0000FF;stroke-width:1.0;" x1="364.5" x2="1459.8333" y1="627.0156" y2="627.0156"/><text fill="#000000" font-family="sans-serif" font-size="14" lengthAdjust="spacing" textLength="290" x="540.5" y="642.0107">Type d'essai (Study type : type of study)</text><text fill="#000000" font-family="sans-serif" font-size="14" lengthAdjust="spacing" textLength="247" x="1011.5" y="642.0107">category : CodeableConcept [0..*]</text><line style="stroke:#0000FF;stroke-width:1.0;" x1="1006.5" x2="1006.5" y1="627.0156" y2="647.3125"/><line style="stroke:#0000FF;stroke-width:1.0;" x1="364.5" x2="1459.8333" y1="647.3125" y2="647.3125"/><text fill="#000000" font-family="sans-serif" font-size="14" lengthAdjust="spacing" textLength="420" x="475.5" y="662.3076">Sujet concern&#233; (Health Condition(s) or Problem(s) Studied)</text><path d="M1012.5,652.776 L1012.5,657.4427 L1017.1667,657.4427 L1017.1667,652.776 L1012.5,652.776 M1018.3333,655.1094 L1018.3333,658.6094 L1014.8333,658.6094 L1014.8333,659.776 L1019.5,659.776 L1019.5,655.1094 L1018.3333,655.1094 M1020.6667,657.4427 L1020.6667,660.9427 L1017.1667,660.9427 L1017.1667,662.1094 L1021.8333,662.1094 L1021.8333,657.4427 L1020.6667,657.4427 " fill="#000000" style="stroke:;stroke-width:0.0;stroke-dasharray:;"/><text fill="#000000" font-family="sans-serif" font-size="14" lengthAdjust="spacing" textLength="317" x="1026.8333" y="662.3076">condition : CodeableConcept [0..*] (MeDRA)</text><line style="stroke:#0000FF;stroke-width:1.0;" x1="1006.5" x2="1006.5" y1="647.3125" y2="667.6094"/><line style="stroke:#0000FF;stroke-width:1.0;" x1="364.5" x2="1459.8333" y1="667.6094" y2="667.6094"/><text fill="#000000" font-family="sans-serif" font-size="14" lengthAdjust="spacing" textLength="178" x="596.5" y="682.6045">Domaine th&#233;rapeutique*</text><path d="M1016,673.0729 L1016,676.5729 L1012.5,676.5729 L1012.5,678.9063 L1016,678.9063 L1016,682.4063 L1018.3333,682.4063 L1018.3333,678.9063 L1021.8333,678.9063 L1021.8333,676.5729 L1018.3333,676.5729 L1018.3333,673.0729 L1016,673.0729 " fill="#000000" style="stroke:;stroke-width:0.0;stroke-dasharray:;"/><text fill="#000000" font-family="sans-serif" font-size="14" lengthAdjust="spacing" textLength="277" x="1026.8333" y="682.6045">ECLAIRETherapeuticArea : string [0..1]</text><line style="stroke:#0000FF;stroke-width:1.0;" x1="1006.5" x2="1006.5" y1="667.6094" y2="687.9063"/><line style="stroke:#0000FF;stroke-width:1.0;" x1="364.5" x2="1459.8333" y1="687.9063" y2="687.9063"/><text fill="#000000" font-family="sans-serif" font-size="14" lengthAdjust="spacing" textLength="126" x="622.5" y="702.9014">R&#233;sum&#233; de l'essai</text><text fill="#000000" font-family="sans-serif" font-size="14" lengthAdjust="spacing" textLength="212" x="1011.5" y="702.9014">description : markdown [0..1]</text><line style="stroke:#0000FF;stroke-width:1.0;" x1="1006.5" x2="1006.5" y1="687.9063" y2="708.2031"/><line style="stroke:#0000FF;stroke-width:1.0;" x1="364.5" x2="1459.8333" y1="708.2031" y2="708.2031"/><text fill="#000000" font-family="sans-serif" font-size="14" lengthAdjust="spacing" textLength="278" x="546.5" y="723.1982">P&#233;riode pr&#233;visionnelle de recrutement</text><path d="M1016,713.6667 L1016,717.1667 L1012.5,717.1667 L1012.5,719.5 L1016,719.5 L1016,723 L1018.3333,723 L1018.3333,719.5 L1021.8333,719.5 L1021.8333,717.1667 L1018.3333,717.1667 L1018.3333,713.6667 L1016,713.6667 " fill="#000000" style="stroke:;stroke-width:0.0;stroke-dasharray:;"/><text fill="#000000" font-family="sans-serif" font-size="14" lengthAdjust="spacing" textLength="299" x="1026.8333" y="723.1982">ECLAIRERecruitmentPeriod : period [0..1]</text><line style="stroke:#0000FF;stroke-width:1.0;" x1="1006.5" x2="1006.5" y1="708.2031" y2="728.5"/><line style="stroke:#0000FF;stroke-width:1.0;" x1="364.5" x2="1459.8333" y1="728.5" y2="728.5"/><text fill="#000000" font-family="sans-serif" font-size="14" lengthAdjust="spacing" textLength="338" x="516.5" y="743.4951">Contact (Contact for public / scientific queries)</text><text fill="#000000" font-family="sans-serif" font-size="14" lengthAdjust="spacing" textLength="210" x="1011.5" y="743.4951">contact : ContactDetail [0..*]</text><line style="stroke:#0000FF;stroke-width:1.0;" x1="1006.5" x2="1006.5" y1="728.5" y2="748.7969"/><line style="stroke:#0000FF;stroke-width:1.0;" x1="364.5" x2="1459.8333" y1="748.7969" y2="748.7969"/><text fill="#000000" font-family="sans-serif" font-size="14" lengthAdjust="spacing" textLength="446" x="462.5" y="763.792">Participants (Key Inclusion and Exclusion Criteria, Sample size)</text><text fill="#000000" font-family="sans-serif" font-size="14" lengthAdjust="spacing" textLength="262" x="1011.5" y="763.792">enrollment : Reference(Group) [0..*]</text><line style="stroke:#0000FF;stroke-width:1.0;" x1="1006.5" x2="1006.5" y1="748.7969" y2="769.0938"/><line style="stroke:#0000FF;stroke-width:1.0;" x1="364.5" x2="1459.8333" y1="769.0938" y2="769.0938"/><text fill="#000000" font-family="sans-serif" font-size="14" lengthAdjust="spacing" textLength="37" x="667" y="784.0889">Lieux</text><text fill="#000000" font-family="sans-serif" font-size="14" lengthAdjust="spacing" textLength="227" x="1011.5" y="784.0889">site : Reference(Location) [0..*]</text><line style="stroke:#0000FF;stroke-width:1.0;" x1="1006.5" x2="1006.5" y1="769.0938" y2="789.3906"/><line style="stroke:#0000FF;stroke-width:1.0;" x1="364.5" x2="1459.8333" y1="789.3906" y2="789.3906"/><text fill="#000000" font-family="sans-serif" font-size="14" lengthAdjust="spacing" textLength="347" x="512" y="804.3857">Pays de recrutement (Countries of Recruitment)</text><text fill="#000000" font-family="sans-serif" font-size="14" lengthAdjust="spacing" textLength="241" x="1011.5" y="804.3857">location : CodeableConcept [0..*]</text><line style="stroke:#0000FF;stroke-width:1.0;" x1="1006.5" x2="1006.5" y1="789.3906" y2="809.6875"/><line style="stroke:#0000FF;stroke-width:1.0;" x1="364.5" x2="1459.8333" y1="809.6875" y2="809.6875"/><text fill="#000000" font-family="sans-serif" font-size="14" lengthAdjust="spacing" textLength="274" x="548.5" y="824.6826">Promoteur principal (Primary sponsor)</text><text fill="#000000" font-family="sans-serif" font-size="14" lengthAdjust="spacing" textLength="289" x="1011.5" y="824.6826">sponsor : Reference(Organization) [0..1]</text><line style="stroke:#0000FF;stroke-width:1.0;" x1="1006.5" x2="1006.5" y1="809.6875" y2="829.9844"/><line style="stroke:#0000FF;stroke-width:1.0;" x1="364.5" x2="1459.8333" y1="829.9844" y2="829.9844"/><text fill="#000000" font-family="sans-serif" font-size="14" lengthAdjust="spacing" textLength="328" x="521.5" y="844.9795">Promoteur secondaire (Secondary Sponsor(s))</text><path d="M1016,835.4479 L1016,838.9479 L1012.5,838.9479 L1012.5,841.2813 L1016,841.2813 L1016,844.7813 L1018.3333,844.7813 L1018.3333,841.2813 L1021.8333,841.2813 L1021.8333,838.9479 L1018.3333,838.9479 L1018.3333,835.4479 L1016,835.4479 " fill="#000000" style="stroke:;stroke-width:0.0;stroke-dasharray:;"/><text fill="#000000" font-family="sans-serif" font-size="14" lengthAdjust="spacing" textLength="428" x="1026.8333" y="844.9795">ECLAIRESecondarySponsor  : Reference(Organization) [0..*]</text><line style="stroke:#0000FF;stroke-width:1.0;" x1="1006.5" x2="1006.5" y1="829.9844" y2="850.2813"/><line style="stroke:#0000FF;stroke-width:1.0;" x1="364.5" x2="1459.8333" y1="850.2813" y2="850.2813"/><text fill="#000000" font-family="sans-serif" font-size="14" lengthAdjust="spacing" textLength="632" x="369.5" y="865.2764">Publications et r&#233;sum&#233; des r&#233;sultats (Publications about the study and Summary results)</text><text fill="#000000" font-family="sans-serif" font-size="14" lengthAdjust="spacing" textLength="273" x="1011.5" y="865.2764">relatedArtifact : RelatedArtifact [0..*]</text><line style="stroke:#0000FF;stroke-width:1.0;" x1="1006.5" x2="1006.5" y1="850.2813" y2="870.5781"/></g><!--link RS to Location--><g id="link_RS_Location"><path codeLine="87" d="M1141.8361,881.9461 C1179.2261,916.7291 1201.7868,937.7181 1229.8768,963.8471 " fill="none" id="RS-Location" style="stroke:#EE82EE;stroke-width:4.0;stroke-dasharray:7.0,7.0;"/><polygon fill="#EE82EE" points="1133.05,873.7726,1134.7185,880.788,1141.8361,881.9461,1140.1675,874.9307,1133.05,873.7726" style="stroke:#EE82EE;stroke-width:4.0;"/><polygon fill="#EE82EE" points="1234.27,967.9336,1230.4045,958.875,1230.609,964.5282,1224.9558,964.7327,1234.27,967.9336" style="stroke:#EE82EE;stroke-width:4.0;"/></g><!--link RS to Group--><g id="link_RS_Group"><path codeLine="88" d="M644.9254,881.2575 C618.7534,902.1425 607.3428,911.2472 584.0718,929.8172 " fill="none" id="RS-Group" style="stroke:#90EE90;stroke-width:4.0;stroke-dasharray:7.0,7.0;"/><polygon fill="#90EE90" points="654.305,873.7726,647.1202,874.3885,644.9254,881.2575,652.1101,880.6416,654.305,873.7726" style="stroke:#90EE90;stroke-width:4.0;"/><polygon fill="#90EE90" points="579.382,933.5596,588.9117,931.0725,583.2902,930.4409,583.9218,924.8195,579.382,933.5596" style="stroke:#90EE90;stroke-width:4.0;"/></g><!--link RS to Organization--><g id="link_RS_Organization"><path codeLine="89" d="M912,885.7726 C912,920.5556 912,935.8046 912,961.9336 " fill="none" id="RS-Organization" style="stroke:#FFD700;stroke-width:4.0;stroke-dasharray:7.0,7.0;"/><polygon fill="#FFD700" points="912,873.7726,908,879.7726,912,885.7726,916,879.7726,912,873.7726" style="stroke:#FFD700;stroke-width:4.0;"/><polygon fill="#FFD700" points="912,967.9336,916,958.9336,912,962.9336,908,958.9336,912,967.9336" style="stroke:#FFD700;stroke-width:4.0;"/></g><!--link slice_identifier to RS--><g id="link_slice_identifier_RS"><path codeLine="91" d="M321.195,667.1406 C332.927,667.1406 344.658,667.1406 356.39,667.1406 " fill="none" id="slice_identifier-RS" style="stroke:#ADD8E6;stroke-width:2.0;"/></g><!--link RS to slice_condition--><g id="link_RS_slice_condition"><path codeLine="92" d="M1467.86,667.1406 C1479.37,667.1406 1490.88,667.1406 1502.4,667.1406 " fill="none" id="RS-slice_condition" style="stroke:#ADD8E6;stroke-width:2.0;"/></g><!--link Contact to RS--><g id="link_Contact_RS"><path codeLine="93" d="M727.413,401.0426 C740.023,419.1526 754.183,439.4886 768.907,460.6346 " fill="none" id="Contact-RS" style="stroke:#ADD8E6;stroke-width:2.0;"/></g><!--link label to RS--><g id="link_label_RS"><path codeLine="94" d="M1123.82,361.9246 C1106.74,386.4546 1081.93,422.0986 1055.24,460.4176 " fill="none" id="label-RS" style="stroke:#ADD8E6;stroke-width:2.0;"/></g><!--link slice_name to Contact--><g id="link_slice_name_Contact"><path codeLine="95" d="M677,194.7006 C677,212.6406 677,234.1706 677,254.5706 " fill="none" id="slice_name-Contact" style="stroke:#ADD8E6;stroke-width:2.0;"/></g><!--link Group to Organization--><!--link Group to Characteristic--><g id="link_Group_Characteristic"><path codeLine="99" d="M469,1111.8236 C469,1132.5356 469,1147.7236 469,1165.4771 " fill="none" id="Group-to-Characteristic" style="stroke:#90EE90;stroke-width:2.0;"/><polygon fill="#90EE90" points="469,1171.4771,473,1162.4771,469,1166.4771,465,1162.4771,469,1171.4771" style="stroke:#90EE90;stroke-width:2.0;"/></g><!--link Location to Telecom--><g id="link_Location_Telecom"><path codeLine="100" d="M1292,1074.6406 C1292,1107.0826 1292,1137.7376 1292,1165.4723 " fill="none" id="Location-to-Telecom" style="stroke:#EE82EE;stroke-width:2.0;"/><polygon fill="#EE82EE" points="1292,1171.4723,1296,1162.4723,1292,1166.4723,1288,1162.4723,1292,1171.4723" style="stroke:#EE82EE;stroke-width:2.0;"/></g><!--SRC=[nLVDRXit4BxhAGW7I2GZTkgYlQY90KLMRQEoBKXEYi8r2cft9B7cSZSarx5IjC_IO_GSUh7EaFihhPp0ELGNSScPuVnyyyE89sol7olB0ti2bWkvnxXXsGvxDkN1NRSdHG1lPGe_BO27eBj3CL_OoTtIxKcXe3l55VkhnV1t6KVipJ5JF0BMPSnOBTIStNntU7Xqonp5zNebrwiWZg9KYO1R4IlYi201DuafktyK2sKTw_ujotYN2H3nw-U9JCqn6_I7lVFnm3EuGySU0fzAmDq04fjV_hjYxRrHEaLpzbxjJG81oeePVdISw5wemPZTqcqlT1HuGxxoWZttR2QaA8pP8Q52rAsxfkgxPkPBxz6pDEBAhJF6lrkjYC9O7BWG6WhQ7ouAJurY26p68o4biFQG6-jYsY45tVQoqOIHNgyKChT_5hfWGS-VGFeWrfzHdIIdk11XYB8BgNDn3nj-sI_DU_rSyYLeTCk4B64YzE43NR6tt7oIrUSPEqVO9QX4818kIJKHZhI8k5vMJQrI6uIk2hdGuCad_ZjZUCGC8XC4Y8eLnTwJZ23qimi8JyOzqYLogtuXCjF7nOhRHIpZkN1AXy80Dx15MMfUG-MGJy5N2qch9wcQPxEJa6LlS_8wylTSGgeB1lnCOGk4kRgdEauJfvzRPVfT3_fdbrV3gzFVQWgUQa3eRO5WtmUpm5ItECIFh2wLXg3RvtGLE3RhpGae6ZT7hW2zONiZ33t5sd4vnO1XRekPuy5LYe3hicaSI-2gmdYjKzXpN8FP38Y3hVzb6WATMd0- -P2Yni9IMgRAYBc2y5pPMkNjQs7Ndx5qKKRsva1_fw2qNtXjK5sJ_WcMHE9kiE0QrG8jZ1K1odwBRfp62WOI8YZBS-7tVet1jvEwZA-EXFCgwU6Ss02DezAq4Xlt18kRXrjag18C7WA4RrQUWJwSp0rF5sPSwJbNuXClKhEwaPdmzjta_78mcUG6dCOo_0OGrJjdG-EiT2ZUs8joINd_Tgxpooy7RXW7fRNvHsRf1KPkEOvDaTRl1RhD_g_67cqRMuuG3HD4OUYrft9sPkklCdEoDDPrCBhAu0T4HO9_jnE9pTOrT_g9iF1ujo_3DJ26YpvMLF71NJ86BDywM4ni6YwTRUF9DpV1Tjxsk0fPsTCoaYLPTPb6Kong7MzEtjo-007lX1DkNRt1WU1UkDIq42oyGQvpMNueSV1ubuH86Q8aeOpbPL7R9MQ61OBGgu26bsq_Z-5Um4V7joMpElx85q1UPkrYM2JLiCXAFx6urGxuffRgB0uwfYR9pvyL6RbgunzhdHMb3XuiA6SFdjN2U-XRRZMV9fRRr5Ql8f3Ifgbt8T_v5zZfwnQItBnf9NJij7EhdLsvslmQ1Rc_U8QAuAOJY6K5vh5Uxf1PcEDQK40dMgrNh7q6NDe5AwQJDY8krZXknYWXeY-wM42u0SHobjfvOVi2S4BgP62A8uu9mUnYlT8yWTHIpFSRG7IzW8mWw6dWpJ0OhrScZT20Uc12C84MIQONPjXT67zKDSuHtYyeR4c1QmzdGhfl-wwCDw4RJuMbKnmtK0P5r2zgUPCNpdQ-cA534u_FLymKxoESB90RV8gN_QJsRAm5RyGrEWLdPsKDQ_y2M31Ktdofa9Ijc0OIbCrViWcF4ZJEY4yUU3YLn58w2wcspK031gtjXfHExRQXmAU5GxkmK2FEcrXdGxkbsNGYkY1Lbemaj5OSw7IHUJFS1Q7ivHD7iQNINpuTYlffabYPM3jnsRgcQdMwwDJ3LCgjF3BQPJ6UU76O0fscbfBJPMJi2zSMnTaNAdTY6EQYBf5i_8V4wcBoYfOHyccCLSWkmAUyxnjfv7o0zH1vF8mqI2hfFGJApCDflB5JDkqMDhBzWvjdlXc_3BbPGFZIBaHmfp2ZtlnmUt1S32mvSJbCxc3mhuASd4Qt7OHL7xLQM-zCP9Pq5_NI2kltjzX_IVhkyut7NYjFmuD7HVhI_pXDvV7_265sNwlbNN5miy07EQZR3OlTQRTRlXqEwkwjoZpUcFLRULYGls9T5iawPpQAORmbp05nO-E4IPXPX6DPpxlURMxF0xsBqtpMA77tdtsgTZZzX2_Mgm-fm1cCa8xrHTdrwd2ccHBirxCh4j3zoBN2YjrrGXIzW8FKE45ulzVYFm00]--></g></svg>