<?xml version="1.0" encoding="us-ascii" standalone="no"?><svg xmlns="http://www.w3.org/2000/svg" xmlns:xlink="http://www.w3.org/1999/xlink" contentStyleType="text/css" height="1263px" preserveAspectRatio="none" style="width:1292px;height:1263px;background:#FFFFFF;" version="1.1" viewBox="0 0 1292 1263" width="1292px" zoomAndPan="magnify"><defs/><g><rect fill="#DDDDDD" height="81.6406" id="_legend" rx="7.5" ry="7.5" style="stroke:#000000;stroke-width:1.0;" width="276" x="12" y="12"/><path d="M18,20.4635 L18,25.1302 L22.6667,25.1302 L22.6667,20.4635 L18,20.4635 M23.8333,22.7969 L23.8333,26.2969 L20.3333,26.2969 L20.3333,27.4635 L25,27.4635 L25,22.7969 L23.8333,22.7969 M26.1667,25.1302 L26.1667,28.6302 L22.6667,28.6302 L22.6667,29.7969 L27.3333,29.7969 L27.3333,25.1302 L26.1667,25.1302 " fill="#000000" style="stroke:;stroke-width:0.0;stroke-dasharray:;"/><text fill="#000000" font-family="sans-serif" font-size="14" lengthAdjust="spacing" textLength="41" x="32.3333" y="29.9951">: slice</text><path d="M21.5,36.7604 L21.5,40.2604 L18,40.2604 L18,42.5938 L21.5,42.5938 L21.5,46.0938 L23.8333,46.0938 L23.8333,42.5938 L27.3333,42.5938 L27.3333,40.2604 L23.8333,40.2604 L23.8333,36.7604 L21.5,36.7604 " fill="#000000" style="stroke:;stroke-width:0.0;stroke-dasharray:;"/><text fill="#000000" font-family="sans-serif" font-size="14" lengthAdjust="spacing" textLength="80" x="32.3333" y="46.292">: extension</text><text fill="#000000" font-family="sans-serif" font-size="14" lengthAdjust="spacing" textLength="266" x="17" y="62.5889">* : pas d'&#233;quivalence Sant&#233;.fr ni WHO</text><path d="M18.5476,86.3073 C17.4731,86.3073 16.9994,85.5268 17.4941,84.573 L26.5993,67.041 C27.0946,66.0872 27.9048,66.0872 28.4001,67.041 L37.5053,84.5736 C38.0012,85.5268 37.5269,86.3073 36.4524,86.3073 L18.5476,86.3073 " fill="#FFCC4D" style="stroke:;stroke-width:0.0;stroke-dasharray:;"/><path d="M26.0901,82.7799 C26.0901,82.0023 26.723,81.3694 27.5012,81.3694 C28.2788,81.3694 28.9117,82.0023 28.9117,82.7799 C28.9117,83.558 28.2782,84.191 27.5012,84.191 C26.723,84.191 26.0901,83.558 26.0901,82.7799 M26.1986,72.109 C26.1986,71.3495 26.7592,70.8793 27.5006,70.8793 C28.2245,70.8793 28.8032,71.3675 28.8032,72.109 L28.8032,79.0728 C28.8032,79.8142 28.2245,80.3025 27.5006,80.3025 C26.7592,80.3025 26.1986,79.8317 26.1986,79.0728 L26.1986,72.109 " fill="#231F20" style="stroke:;stroke-width:0.0;stroke-dasharray:;"/><text fill="#000000" font-family="sans-serif" font-size="14" lengthAdjust="spacing" textLength="103" x="42" y="85.3389">: en discussion</text><g id="elem_Contact"><rect fill="#F0F8FF" height="138.0781" style="stroke:#0000FF;stroke-width:0.5;" width="517.3333" x="411" y="258.6406"/><rect fill="#87CEFA" height="20.2969" style="stroke:#0000FF;stroke-width:0.5;" width="517.3333" x="411" y="258.6406"/><text fill="#000000" font-family="sans-serif" font-size="14" lengthAdjust="spacing" textLength="101" x="619.1667" y="273.6357">ContactDetail</text><line style="stroke:#0000FF;stroke-width:1.0;" x1="411" x2="928.3333" y1="278.9375" y2="278.9375"/><text fill="#000000" font-family="sans-serif" font-size="14" lengthAdjust="spacing" textLength="33" x="470.5" y="293.9326">Nom</text><path d="M572.5,284.401 L572.5,287.901 L569,287.901 L569,290.2344 L572.5,290.2344 L572.5,293.7344 L574.8333,293.7344 L574.8333,290.2344 L578.3333,290.2344 L578.3333,287.901 L574.8333,287.901 L574.8333,284.401 L572.5,284.401 " fill="#000000" style="stroke:;stroke-width:0.0;stroke-dasharray:;"/><text fill="#000000" font-family="sans-serif" font-size="14" lengthAdjust="spacing" textLength="304" x="583.3333" y="293.9326">ECLAIREContactName : HumanName [0..1]</text><line style="stroke:#0000FF;stroke-width:1.0;" x1="563" x2="563" y1="278.9375" y2="299.2344"/><line style="stroke:#0000FF;stroke-width:1.0;" x1="411" x2="928.3333" y1="299.2344" y2="299.2344"/><text fill="#000000" font-family="sans-serif" font-size="14" lengthAdjust="spacing" textLength="142" x="416" y="314.2295">T&#233;l&#233;communication</text><text fill="#000000" font-family="sans-serif" font-size="14" lengthAdjust="spacing" textLength="213" x="568" y="314.2295">telecom :  ContactPoint [0..*]</text><line style="stroke:#0000FF;stroke-width:1.0;" x1="563" x2="563" y1="299.2344" y2="319.5313"/><line style="stroke:#0000FF;stroke-width:1.0;" x1="411" x2="928.3333" y1="319.5313" y2="319.5313"/><text fill="#000000" font-family="sans-serif" font-size="14" lengthAdjust="spacing" textLength="36" x="469" y="334.5264">Type</text><path d="M572.5,324.9948 L572.5,328.4948 L569,328.4948 L569,330.8281 L572.5,330.8281 L572.5,334.3281 L574.8333,334.3281 L574.8333,330.8281 L578.3333,330.8281 L578.3333,328.4948 L574.8333,328.4948 L574.8333,324.9948 L572.5,324.9948 " fill="#000000" style="stroke:;stroke-width:0.0;stroke-dasharray:;"/><text fill="#000000" font-family="sans-serif" font-size="14" lengthAdjust="spacing" textLength="336" x="583.3333" y="334.5264">ECLAIREContacType :  CodeableConcept [0..1]</text><text fill="#000000" font-family="sans-serif" font-size="14" lengthAdjust="spacing" textLength="154" x="572" y="350.8232">("Public"/"Scientific")</text><line style="stroke:#0000FF;stroke-width:1.0;" x1="563" x2="563" y1="319.5313" y2="356.125"/><line style="stroke:#0000FF;stroke-width:1.0;" x1="411" x2="928.3333" y1="356.125" y2="356.125"/><text fill="#000000" font-family="sans-serif" font-size="14" lengthAdjust="spacing" textLength="57" x="458.5" y="371.1201">Adresse</text><path d="M572.5,361.5885 L572.5,365.0885 L569,365.0885 L569,367.4219 L572.5,367.4219 L572.5,370.9219 L574.8333,370.9219 L574.8333,367.4219 L578.3333,367.4219 L578.3333,365.0885 L574.8333,365.0885 L574.8333,361.5885 L572.5,361.5885 " fill="#000000" style="stroke:;stroke-width:0.0;stroke-dasharray:;"/><text fill="#000000" font-family="sans-serif" font-size="14" lengthAdjust="spacing" textLength="287" x="583.3333" y="371.1201">ECLAIREContactAddress : Address [0..1]</text><line style="stroke:#0000FF;stroke-width:1.0;" x1="563" x2="563" y1="356.125" y2="376.4219"/><line style="stroke:#0000FF;stroke-width:1.0;" x1="411" x2="928.3333" y1="376.4219" y2="376.4219"/><text fill="#000000" font-family="sans-serif" font-size="14" lengthAdjust="spacing" textLength="71" x="451.5" y="391.417">Affiliation</text><path d="M572.5,381.8854 L572.5,385.3854 L569,385.3854 L569,387.7188 L572.5,387.7188 L572.5,391.2188 L574.8333,391.2188 L574.8333,387.7188 L578.3333,387.7188 L578.3333,385.3854 L574.8333,385.3854 L574.8333,381.8854 L572.5,381.8854 " fill="#000000" style="stroke:;stroke-width:0.0;stroke-dasharray:;"/><text fill="#000000" font-family="sans-serif" font-size="14" lengthAdjust="spacing" textLength="286" x="583.3333" y="391.417">ECLAIREContactAffiliation : string [0..1]</text><line style="stroke:#0000FF;stroke-width:1.0;" x1="563" x2="563" y1="376.4219" y2="396.7188"/></g><g id="elem_slice_name"><rect fill="#F0F8FF" height="77.1875" style="stroke:#0000FF;stroke-width:0.5;" width="403" x="468" y="113.6406"/><rect fill="#87CEFA" height="20.2969" style="stroke:#0000FF;stroke-width:0.5;" width="403" x="468" y="113.6406"/><text fill="#000000" font-family="sans-serif" font-size="14" lengthAdjust="spacing" textLength="90" x="624.5" y="128.6357">HumanName</text><line style="stroke:#0000FF;stroke-width:1.0;" x1="468" x2="871" y1="133.9375" y2="133.9375"/><text fill="#000000" font-family="sans-serif" font-size="14" lengthAdjust="spacing" textLength="196" x="496" y="148.9326">Nom de famille (Last name)</text><text fill="#000000" font-family="sans-serif" font-size="14" lengthAdjust="spacing" textLength="141" x="725" y="148.9326">family : string [0..1]</text><line style="stroke:#0000FF;stroke-width:1.0;" x1="720" x2="720" y1="133.9375" y2="154.2344"/><line style="stroke:#0000FF;stroke-width:1.0;" x1="468" x2="871" y1="154.2344" y2="154.2344"/><text fill="#000000" font-family="sans-serif" font-size="14" lengthAdjust="spacing" textLength="146" x="473" y="169.2295">Pr&#233;nom (First name)</text><text fill="#000000" font-family="sans-serif" font-size="14" lengthAdjust="spacing" textLength="238" x="477" y="185.5264">Deuxi&#232;me pr&#233;nom (Middle name)</text><text fill="#000000" font-family="sans-serif" font-size="14" lengthAdjust="spacing" textLength="134" x="725" y="169.2295">given : string [0..*]</text><line style="stroke:#0000FF;stroke-width:1.0;" x1="720" x2="720" y1="154.2344" y2="190.8281"/></g><g id="elem_slice_identifier"><rect fill="#F0F8FF" height="60.8906" style="stroke:#0000FF;stroke-width:0.5;" width="306" x="979.5" y="297.6406"/><rect fill="#87CEFA" height="20.2969" style="stroke:#0000FF;stroke-width:0.5;" width="306" x="979.5" y="297.6406"/><path d="M1073.3333,303.1042 L1073.3333,307.7708 L1078,307.7708 L1078,303.1042 L1073.3333,303.1042 M1079.1667,305.4375 L1079.1667,308.9375 L1075.6667,308.9375 L1075.6667,310.1042 L1080.3333,310.1042 L1080.3333,305.4375 L1079.1667,305.4375 M1081.5,307.7708 L1081.5,311.2708 L1078,311.2708 L1078,312.4375 L1082.6667,312.4375 L1082.6667,307.7708 L1081.5,307.7708 " fill="#000000" style="stroke:;stroke-width:0.0;stroke-dasharray:;"/><text fill="#000000" font-family="sans-serif" font-size="14" lengthAdjust="spacing" textLength="105" x="1087.6667" y="312.6357">Slice identifier</text><line style="stroke:#0000FF;stroke-width:1.0;" x1="979.5" x2="1285.5" y1="317.9375" y2="317.9375"/><text fill="#000000" font-family="sans-serif" font-size="14" lengthAdjust="spacing" textLength="143" x="992" y="332.9326">Identifiant principal</text><text fill="#000000" font-family="sans-serif" font-size="14" lengthAdjust="spacing" textLength="110" x="1152.5" y="332.9326">idPrimary [0..1]</text><line style="stroke:#0000FF;stroke-width:1.0;" x1="1147.5" x2="1147.5" y1="317.9375" y2="338.2344"/><line style="stroke:#0000FF;stroke-width:1.0;" x1="979.5" x2="1285.5" y1="338.2344" y2="338.2344"/><text fill="#000000" font-family="sans-serif" font-size="14" lengthAdjust="spacing" textLength="158" x="984.5" y="353.2295">Identifiant secondaire</text><text fill="#000000" font-family="sans-serif" font-size="14" lengthAdjust="spacing" textLength="128" x="1152.5" y="353.2295">idSecondary [0..*]</text><line style="stroke:#0000FF;stroke-width:1.0;" x1="1147.5" x2="1147.5" y1="338.2344" y2="358.5313"/></g><g id="elem_label"><rect fill="#F0F8FF" height="60.8906" style="stroke:#0000FF;stroke-width:0.5;" width="321" x="39" y="297.6406"/><rect fill="#87CEFA" height="20.2969" style="stroke:#0000FF;stroke-width:0.5;" width="321" x="39" y="297.6406"/><path d="M146.8333,303.1042 L146.8333,306.6042 L143.3333,306.6042 L143.3333,308.9375 L146.8333,308.9375 L146.8333,312.4375 L149.1667,312.4375 L149.1667,308.9375 L152.6667,308.9375 L152.6667,306.6042 L149.1667,306.6042 L149.1667,303.1042 L146.8333,303.1042 " fill="#000000" style="stroke:;stroke-width:0.0;stroke-dasharray:;"/><text fill="#000000" font-family="sans-serif" font-size="14" lengthAdjust="spacing" textLength="99" x="157.6667" y="312.6357">ECLAIRELabel</text><line style="stroke:#0000FF;stroke-width:1.0;" x1="39" x2="360" y1="317.9375" y2="317.9375"/><text fill="#000000" font-family="sans-serif" font-size="14" lengthAdjust="spacing" textLength="36" x="48.5" y="332.9326">Type</text><text fill="#000000" font-family="sans-serif" font-size="14" lengthAdjust="spacing" textLength="256" x="99" y="332.9326">labelType : CodeableConcept [0..1]</text><line style="stroke:#0000FF;stroke-width:1.0;" x1="94" x2="94" y1="317.9375" y2="338.2344"/><line style="stroke:#0000FF;stroke-width:1.0;" x1="39" x2="360" y1="338.2344" y2="338.2344"/><text fill="#000000" font-family="sans-serif" font-size="14" lengthAdjust="spacing" textLength="45" x="44" y="353.2295">Valeur</text><text fill="#000000" font-family="sans-serif" font-size="14" lengthAdjust="spacing" textLength="171" x="99" y="353.2295">labelValue : string [0..1]</text><line style="stroke:#0000FF;stroke-width:1.0;" x1="94" x2="94" y1="338.2344" y2="358.5313"/></g><g id="elem_Group"><rect fill="#C9FFC9" height="170.6719" style="stroke:#181818;stroke-width:0.5;" width="439" x="7" y="937.6406"/><rect fill="#90EE90" height="20.2969" style="stroke:#181818;stroke-width:0.5;" width="439" x="7" y="937.6406"/><text fill="#000000" font-family="sans-serif" font-size="14" lengthAdjust="spacing" textLength="44" x="204.5" y="952.6357">Group</text><line style="stroke:#181818;stroke-width:1.0;" x1="7" x2="446" y1="957.9375" y2="957.9375"/><text fill="#000000" font-family="sans-serif" font-size="14" lengthAdjust="spacing" textLength="83" x="35.5" y="972.9326">Identifiant*</text><text fill="#000000" font-family="sans-serif" font-size="14" lengthAdjust="spacing" textLength="187" x="152" y="972.9326">identifier : Identifier [0..*]</text><line style="stroke:#181818;stroke-width:1.0;" x1="147" x2="147" y1="957.9375" y2="978.2344"/><line style="stroke:#181818;stroke-width:1.0;" x1="7" x2="446" y1="978.2344" y2="978.2344"/><text fill="#000000" font-family="sans-serif" font-size="14" lengthAdjust="spacing" textLength="120" x="17" y="993.2295">Type de groupe*</text><text fill="#000000" font-family="sans-serif" font-size="14" lengthAdjust="spacing" textLength="206" x="152" y="993.2295">type : code [1..1] = "Person"</text><line style="stroke:#181818;stroke-width:1.0;" x1="147" x2="147" y1="978.2344" y2="998.5313"/><line style="stroke:#181818;stroke-width:1.0;" x1="7" x2="446" y1="998.5313" y2="998.5313"/><text fill="#000000" font-family="sans-serif" font-size="14" lengthAdjust="spacing" textLength="97" x="28.5" y="1013.5264">Groupe actif*</text><text fill="#000000" font-family="sans-serif" font-size="14" lengthAdjust="spacing" textLength="221" x="152" y="1013.5264">actual : boolean [1..1] = "True"</text><line style="stroke:#181818;stroke-width:1.0;" x1="147" x2="147" y1="998.5313" y2="1018.8281"/><line style="stroke:#181818;stroke-width:1.0;" x1="7" x2="446" y1="1018.8281" y2="1018.8281"/><text fill="#000000" font-family="sans-serif" font-size="14" lengthAdjust="spacing" textLength="130" x="12" y="1033.8232">Effectif &#224; recruter</text><text fill="#000000" font-family="sans-serif" font-size="14" lengthAdjust="spacing" textLength="199" x="152" y="1033.8232">quantity : unsignedInt [0..1]</text><line style="stroke:#181818;stroke-width:1.0;" x1="147" x2="147" y1="1018.8281" y2="1039.125"/><line style="stroke:#181818;stroke-width:1.0;" x1="7" x2="446" y1="1039.125" y2="1039.125"/><text fill="#000000" font-family="sans-serif" font-size="14" lengthAdjust="spacing" textLength="58" x="18" y="1054.1201">Crit&#232;res</text><text fill="#000000" font-family="sans-serif" font-size="14" lengthAdjust="spacing" textLength="28" x="22" y="1070.417">Age</text><text fill="#000000" font-family="sans-serif" font-size="14" lengthAdjust="spacing" textLength="44" x="22" y="1086.7139">Genre</text><text fill="#000000" font-family="sans-serif" font-size="14" lengthAdjust="spacing" textLength="114" x="22" y="1103.0107">Groupe de sujet</text><text fill="#000000" font-family="sans-serif" font-size="14" lengthAdjust="spacing" textLength="4" x="152" y="1054.1201">&#160;</text><text fill="#000000" font-family="sans-serif" font-size="14" lengthAdjust="spacing" textLength="285" x="156" y="1070.417">characteristic : BackboneElement [0..*]</text><line style="stroke:#181818;stroke-width:1.0;" x1="147" x2="147" y1="1039.125" y2="1108.3125"/></g><g id="elem_Characteristic"><rect fill="#C9FFC9" height="81.1875" style="stroke:#181818;stroke-width:0.5;" width="306" x="73.5" y="1175.6406"/><rect fill="#90EE90" height="20.2969" style="stroke:#181818;stroke-width:0.5;" width="306" x="73.5" y="1175.6406"/><text fill="#000000" font-family="sans-serif" font-size="14" lengthAdjust="spacing" textLength="101" x="176" y="1190.6357">Characteristic</text><line style="stroke:#181818;stroke-width:1.0;" x1="73.5" x2="379.5" y1="1195.9375" y2="1195.9375"/><text fill="#000000" font-family="sans-serif" font-size="14" lengthAdjust="spacing" textLength="36" x="93.5" y="1210.9326">Type</text><text fill="#000000" font-family="sans-serif" font-size="14" lengthAdjust="spacing" textLength="220" x="154.5" y="1210.9326">code : CodeableConcept [1..1]</text><line style="stroke:#181818;stroke-width:1.0;" x1="149.5" x2="149.5" y1="1195.9375" y2="1216.2344"/><line style="stroke:#181818;stroke-width:1.0;" x1="73.5" x2="379.5" y1="1216.2344" y2="1216.2344"/><text fill="#000000" font-family="sans-serif" font-size="14" lengthAdjust="spacing" textLength="45" x="89" y="1231.2295">Valeur</text><text fill="#000000" font-family="sans-serif" font-size="14" lengthAdjust="spacing" textLength="106" x="154.5" y="1231.2295">value[x] : [1..1]</text><line style="stroke:#181818;stroke-width:1.0;" x1="149.5" x2="149.5" y1="1216.2344" y2="1236.5313"/><line style="stroke:#181818;stroke-width:1.0;" x1="73.5" x2="379.5" y1="1236.5313" y2="1236.5313"/><text fill="#000000" font-family="sans-serif" font-size="14" lengthAdjust="spacing" textLength="66" x="78.5" y="1251.5264">Exclusion</text><text fill="#000000" font-family="sans-serif" font-size="14" lengthAdjust="spacing" textLength="168" x="154.5" y="1251.5264">exclude : boolean [1..1]</text><line style="stroke:#181818;stroke-width:1.0;" x1="149.5" x2="149.5" y1="1236.5313" y2="1256.8281"/></g><g id="elem_Organization"><rect fill="#FFFFCC" height="101.4844" style="stroke:#181818;stroke-width:0.5;" width="345" x="497" y="972.1406"/><rect fill="#FFD700" height="20.2969" style="stroke:#181818;stroke-width:0.5;" width="345" x="497" y="972.1406"/><text fill="#000000" font-family="sans-serif" font-size="14" lengthAdjust="spacing" textLength="92" x="623.5" y="987.1357">Organization</text><line style="stroke:#181818;stroke-width:1.0;" x1="497" x2="842" y1="992.4375" y2="992.4375"/><text fill="#000000" font-family="sans-serif" font-size="14" lengthAdjust="spacing" textLength="83" x="502" y="1007.4326">Identifiant*</text><text fill="#000000" font-family="sans-serif" font-size="14" lengthAdjust="spacing" textLength="187" x="595" y="1007.4326">identifier : Identifier [0..*]</text><line style="stroke:#181818;stroke-width:1.0;" x1="590" x2="590" y1="992.4375" y2="1012.7344"/><line style="stroke:#181818;stroke-width:1.0;" x1="497" x2="842" y1="1012.7344" y2="1012.7344"/><text fill="#000000" font-family="sans-serif" font-size="14" lengthAdjust="spacing" textLength="33" x="527" y="1027.7295">Nom</text><text fill="#000000" font-family="sans-serif" font-size="14" lengthAdjust="spacing" textLength="137" x="595" y="1027.7295">name : string [0..1]</text><line style="stroke:#181818;stroke-width:1.0;" x1="590" x2="590" y1="1012.7344" y2="1033.0313"/><line style="stroke:#181818;stroke-width:1.0;" x1="497" x2="842" y1="1033.0313" y2="1033.0313"/><text fill="#000000" font-family="sans-serif" font-size="14" lengthAdjust="spacing" textLength="57" x="515" y="1048.0264">Adresse</text><text fill="#000000" font-family="sans-serif" font-size="14" lengthAdjust="spacing" textLength="165" x="595" y="1048.0264">address : Address [0..*]</text><line style="stroke:#181818;stroke-width:1.0;" x1="590" x2="590" y1="1033.0313" y2="1053.3281"/><line style="stroke:#181818;stroke-width:1.0;" x1="497" x2="842" y1="1053.3281" y2="1053.3281"/><text fill="#000000" font-family="sans-serif" font-size="14" lengthAdjust="spacing" textLength="58" x="514.5" y="1068.3232">Contact</text><text fill="#000000" font-family="sans-serif" font-size="14" lengthAdjust="spacing" textLength="242" x="595" y="1068.3232">contact : BackboneElement [0..*]</text><line style="stroke:#181818;stroke-width:1.0;" x1="590" x2="590" y1="1053.3281" y2="1073.625"/></g><g id="elem_Location"><rect fill="#FFE4E1" height="101.4844" style="stroke:#181818;stroke-width:0.5;" width="312" x="893.5" y="972.1406"/><rect fill="#EE82EE" height="20.2969" style="stroke:#181818;stroke-width:0.5;" width="312" x="893.5" y="972.1406"/><text fill="#000000" font-family="sans-serif" font-size="14" lengthAdjust="spacing" textLength="62" x="1018.5" y="987.1357">Location</text><line style="stroke:#181818;stroke-width:1.0;" x1="893.5" x2="1205.5" y1="992.4375" y2="992.4375"/><text fill="#000000" font-family="sans-serif" font-size="14" lengthAdjust="spacing" textLength="83" x="898.5" y="1007.4326">Identifiant*</text><text fill="#000000" font-family="sans-serif" font-size="14" lengthAdjust="spacing" textLength="187" x="991.5" y="1007.4326">identifier : Identifier [0..*]</text><line style="stroke:#181818;stroke-width:1.0;" x1="986.5" x2="986.5" y1="992.4375" y2="1012.7344"/><line style="stroke:#181818;stroke-width:1.0;" x1="893.5" x2="1205.5" y1="1012.7344" y2="1012.7344"/><text fill="#000000" font-family="sans-serif" font-size="14" lengthAdjust="spacing" textLength="33" x="923.5" y="1027.7295">Nom</text><text fill="#000000" font-family="sans-serif" font-size="14" lengthAdjust="spacing" textLength="137" x="991.5" y="1027.7295">name : string [0..1]</text><line style="stroke:#181818;stroke-width:1.0;" x1="986.5" x2="986.5" y1="1012.7344" y2="1033.0313"/><line style="stroke:#181818;stroke-width:1.0;" x1="893.5" x2="1205.5" y1="1033.0313" y2="1033.0313"/><text fill="#000000" font-family="sans-serif" font-size="14" lengthAdjust="spacing" textLength="57" x="911.5" y="1048.0264">Adresse</text><text fill="#000000" font-family="sans-serif" font-size="14" lengthAdjust="spacing" textLength="167" x="991.5" y="1048.0264">address : Address [0..1]</text><line style="stroke:#181818;stroke-width:1.0;" x1="986.5" x2="986.5" y1="1033.0313" y2="1053.3281"/><line style="stroke:#181818;stroke-width:1.0;" x1="893.5" x2="1205.5" y1="1053.3281" y2="1053.3281"/><text fill="#000000" font-family="sans-serif" font-size="14" lengthAdjust="spacing" textLength="58" x="911" y="1068.3232">Contact</text><text fill="#000000" font-family="sans-serif" font-size="14" lengthAdjust="spacing" textLength="209" x="991.5" y="1068.3232">telecom : ContactPoint [0..*]</text><line style="stroke:#181818;stroke-width:1.0;" x1="986.5" x2="986.5" y1="1053.3281" y2="1073.625"/></g><g id="elem_Telecom"><rect fill="#FFE4E1" height="81.1875" style="stroke:#181818;stroke-width:0.5;" width="431.3333" x="834" y="1175.6406"/><rect fill="#EE82EE" height="20.2969" style="stroke:#181818;stroke-width:0.5;" width="431.3333" x="834" y="1175.6406"/><text fill="#000000" font-family="sans-serif" font-size="14" lengthAdjust="spacing" textLength="62" x="1018.6667" y="1190.6357">Telecom</text><line style="stroke:#181818;stroke-width:1.0;" x1="834" x2="1265.3333" y1="1195.9375" y2="1195.9375"/><text fill="#000000" font-family="sans-serif" font-size="14" lengthAdjust="spacing" textLength="63" x="839" y="1210.9326">Syst&#232;me</text><text fill="#000000" font-family="sans-serif" font-size="14" lengthAdjust="spacing" textLength="142" x="912" y="1210.9326">system : code [0..1]</text><line style="stroke:#181818;stroke-width:1.0;" x1="907" x2="907" y1="1195.9375" y2="1216.2344"/><line style="stroke:#181818;stroke-width:1.0;" x1="834" x2="1265.3333" y1="1216.2344" y2="1216.2344"/><text fill="#000000" font-family="sans-serif" font-size="14" lengthAdjust="spacing" textLength="45" x="848" y="1231.2295">Valeur</text><text fill="#000000" font-family="sans-serif" font-size="14" lengthAdjust="spacing" textLength="134" x="912" y="1231.2295">value : string [0..1]</text><line style="stroke:#181818;stroke-width:1.0;" x1="907" x2="907" y1="1216.2344" y2="1236.5313"/><line style="stroke:#181818;stroke-width:1.0;" x1="834" x2="1265.3333" y1="1236.5313" y2="1236.5313"/><text fill="#000000" font-family="sans-serif" font-size="14" lengthAdjust="spacing" textLength="33" x="854" y="1251.5264">Nom</text><path d="M916.5,1241.9948 L916.5,1245.4948 L913,1245.4948 L913,1247.8281 L916.5,1247.8281 L916.5,1251.3281 L918.8333,1251.3281 L918.8333,1247.8281 L922.3333,1247.8281 L922.3333,1245.4948 L918.8333,1245.4948 L918.8333,1241.9948 L916.5,1241.9948 " fill="#000000" style="stroke:;stroke-width:0.0;stroke-dasharray:;"/><text fill="#000000" font-family="sans-serif" font-size="14" lengthAdjust="spacing" textLength="333" x="927.3333" y="1251.5264">ECLAIRESiteContactName : HumanName [0..1]</text><line style="stroke:#181818;stroke-width:1.0;" x1="907" x2="907" y1="1236.5313" y2="1256.8281"/></g><g id="elem_RS"><rect fill="#F0F8FF" height="405.9375" style="stroke:#0000FF;stroke-width:0.5;" width="929.3333" x="205" y="464.6406"/><rect fill="#87CEFA" height="20.2969" style="stroke:#0000FF;stroke-width:0.5;" width="929.3333" x="205" y="464.6406"/><text fill="#000000" font-family="sans-serif" font-size="14" lengthAdjust="spacing" textLength="212" x="563.6667" y="479.6357">EssaiClinique : ResearchStudy</text><line style="stroke:#0000FF;stroke-width:1.0;" x1="205" x2="1134.3333" y1="484.9375" y2="484.9375"/><text fill="#000000" font-family="sans-serif" font-size="14" lengthAdjust="spacing" textLength="404" x="241" y="499.9326">Identifiant (Primary and Secondary Identifying Numbers)</text><path d="M687,490.401 L687,495.0677 L691.6667,495.0677 L691.6667,490.401 L687,490.401 M692.8333,492.7344 L692.8333,496.2344 L689.3333,496.2344 L689.3333,497.401 L694,497.401 L694,492.7344 L692.8333,492.7344 M695.1667,495.0677 L695.1667,498.5677 L691.6667,498.5677 L691.6667,499.7344 L696.3333,499.7344 L696.3333,495.0677 L695.1667,495.0677 " fill="#000000" style="stroke:;stroke-width:0.0;stroke-dasharray:;"/><text fill="#000000" font-family="sans-serif" font-size="14" lengthAdjust="spacing" textLength="187" x="701.3333" y="499.9326">identifier : Identifier [0..*]</text><line style="stroke:#0000FF;stroke-width:1.0;" x1="681" x2="681" y1="484.9375" y2="505.2344"/><line style="stroke:#0000FF;stroke-width:1.0;" x1="205" x2="1134.3333" y1="505.2344" y2="505.2344"/><text fill="#000000" font-family="sans-serif" font-size="14" lengthAdjust="spacing" textLength="193" x="346.5" y="520.2295">Date de r&#233;vision technique</text><text fill="#000000" font-family="sans-serif" font-size="14" lengthAdjust="spacing" textLength="236" x="686" y="520.2295">meta.lastUpdated : instant [0..1]</text><line style="stroke:#0000FF;stroke-width:1.0;" x1="681" x2="681" y1="505.2344" y2="525.5313"/><line style="stroke:#0000FF;stroke-width:1.0;" x1="205" x2="1134.3333" y1="525.5313" y2="525.5313"/><text fill="#000000" font-family="sans-serif" font-size="14" lengthAdjust="spacing" textLength="217" x="334.5" y="540.5264">Date de r&#233;vision fonctionnelle</text><path d="M690.5,530.9948 L690.5,534.4948 L687,534.4948 L687,536.8281 L690.5,536.8281 L690.5,540.3281 L692.8333,540.3281 L692.8333,536.8281 L696.3333,536.8281 L696.3333,534.4948 L692.8333,534.4948 L692.8333,530.9948 L690.5,530.9948 " fill="#000000" style="stroke:;stroke-width:0.0;stroke-dasharray:;"/><text fill="#000000" font-family="sans-serif" font-size="14" lengthAdjust="spacing" textLength="252" x="701.3333" y="540.5264">ECLAIREReviewDate : instant [0..1]</text><line style="stroke:#0000FF;stroke-width:1.0;" x1="681" x2="681" y1="525.5313" y2="545.8281"/><line style="stroke:#0000FF;stroke-width:1.0;" x1="205" x2="1134.3333" y1="545.8281" y2="545.8281"/><text fill="#000000" font-family="sans-serif" font-size="14" lengthAdjust="spacing" textLength="237" x="324.5" y="560.8232">Nom de l'essai (Scientifique title)</text><text fill="#000000" font-family="sans-serif" font-size="14" lengthAdjust="spacing" textLength="128" x="686" y="560.8232">title : string [0..1]</text><line style="stroke:#0000FF;stroke-width:1.0;" x1="681" x2="681" y1="545.8281" y2="566.125"/><line style="stroke:#0000FF;stroke-width:1.0;" x1="205" x2="1134.3333" y1="566.125" y2="566.125"/><text fill="#000000" font-family="sans-serif" font-size="14" lengthAdjust="spacing" textLength="251" x="317.5" y="581.1201">Autres noms de l'essai (Public title)</text><path d="M690.5,571.5885 L690.5,575.0885 L687,575.0885 L687,577.4219 L690.5,577.4219 L690.5,580.9219 L692.8333,580.9219 L692.8333,577.4219 L696.3333,577.4219 L696.3333,575.0885 L692.8333,575.0885 L692.8333,571.5885 L690.5,571.5885 " fill="#000000" style="stroke:;stroke-width:0.0;stroke-dasharray:;"/><text fill="#000000" font-family="sans-serif" font-size="14" lengthAdjust="spacing" textLength="291" x="701.3333" y="581.1201">ECLAIRELabel : Complex extension [0..*]</text><line style="stroke:#0000FF;stroke-width:1.0;" x1="681" x2="681" y1="566.125" y2="586.4219"/><line style="stroke:#0000FF;stroke-width:1.0;" x1="205" x2="1134.3333" y1="586.4219" y2="586.4219"/><text fill="#000000" font-family="sans-serif" font-size="14" lengthAdjust="spacing" textLength="115" x="385.5" y="601.417">Statut de l'essai</text><text fill="#000000" font-family="sans-serif" font-size="14" lengthAdjust="spacing" textLength="134" x="686" y="601.417">status : code [1..1]</text><line style="stroke:#0000FF;stroke-width:1.0;" x1="681" x2="681" y1="586.4219" y2="606.7188"/><line style="stroke:#0000FF;stroke-width:1.0;" x1="205" x2="1134.3333" y1="606.7188" y2="606.7188"/><text fill="#000000" font-family="sans-serif" font-size="14" lengthAdjust="spacing" textLength="260" x="313" y="621.7139">Phase de l'essai (Study type : phase)</text><text fill="#000000" font-family="sans-serif" font-size="14" lengthAdjust="spacing" textLength="228" x="686" y="621.7139">phase : CodeableConcept [0..1]</text><line style="stroke:#0000FF;stroke-width:1.0;" x1="681" x2="681" y1="606.7188" y2="627.0156"/><line style="stroke:#0000FF;stroke-width:1.0;" x1="205" x2="1134.3333" y1="627.0156" y2="627.0156"/><text fill="#000000" font-family="sans-serif" font-size="14" lengthAdjust="spacing" textLength="290" x="298" y="642.0107">Type d'essai (Study type : type of study)</text><text fill="#000000" font-family="sans-serif" font-size="14" lengthAdjust="spacing" textLength="247" x="686" y="642.0107">category : CodeableConcept [0..*]</text><line style="stroke:#0000FF;stroke-width:1.0;" x1="681" x2="681" y1="627.0156" y2="647.3125"/><line style="stroke:#0000FF;stroke-width:1.0;" x1="205" x2="1134.3333" y1="647.3125" y2="647.3125"/><text fill="#000000" font-family="sans-serif" font-size="14" lengthAdjust="spacing" textLength="420" x="233" y="662.3076">Sujet concern&#233; (Health Condition(s) or Problem(s) Studied)</text><text fill="#000000" font-family="sans-serif" font-size="14" lengthAdjust="spacing" textLength="317" x="686" y="662.3076">condition : CodeableConcept [0..*] (MeDRA)</text><line style="stroke:#0000FF;stroke-width:1.0;" x1="681" x2="681" y1="647.3125" y2="667.6094"/><line style="stroke:#0000FF;stroke-width:1.0;" x1="205" x2="1134.3333" y1="667.6094" y2="667.6094"/><text fill="#000000" font-family="sans-serif" font-size="14" lengthAdjust="spacing" textLength="466" x="210" y="682.6045">Pr&#233;cision sur le sujet (Health Condition(s)  or  Problem(s) Studied)</text><path d="M690.5,673.0729 L690.5,676.5729 L687,676.5729 L687,678.9063 L690.5,678.9063 L690.5,682.4063 L692.8333,682.4063 L692.8333,678.9063 L696.3333,678.9063 L696.3333,676.5729 L692.8333,676.5729 L692.8333,673.0729 L690.5,673.0729 " fill="#000000" style="stroke:;stroke-width:0.0;stroke-dasharray:;"/><text fill="#000000" font-family="sans-serif" font-size="14" lengthAdjust="spacing" textLength="277" x="701.3333" y="682.6045">ECLAIREConditionDetails : string [0..1]</text><line style="stroke:#0000FF;stroke-width:1.0;" x1="681" x2="681" y1="667.6094" y2="687.9063"/><line style="stroke:#0000FF;stroke-width:1.0;" x1="205" x2="1134.3333" y1="687.9063" y2="687.9063"/><text fill="#000000" font-family="sans-serif" font-size="14" lengthAdjust="spacing" textLength="178" x="354" y="702.9014">Domaine th&#233;rapeutique*</text><path d="M690.5,693.3698 L690.5,696.8698 L687,696.8698 L687,699.2031 L690.5,699.2031 L690.5,702.7031 L692.8333,702.7031 L692.8333,699.2031 L696.3333,699.2031 L696.3333,696.8698 L692.8333,696.8698 L692.8333,693.3698 L690.5,693.3698 " fill="#000000" style="stroke:;stroke-width:0.0;stroke-dasharray:;"/><text fill="#000000" font-family="sans-serif" font-size="14" lengthAdjust="spacing" textLength="277" x="701.3333" y="702.9014">ECLAIRETherapeuticArea : string [0..1]</text><line style="stroke:#0000FF;stroke-width:1.0;" x1="681" x2="681" y1="687.9063" y2="708.2031"/><line style="stroke:#0000FF;stroke-width:1.0;" x1="205" x2="1134.3333" y1="708.2031" y2="708.2031"/><text fill="#000000" font-family="sans-serif" font-size="14" lengthAdjust="spacing" textLength="126" x="380" y="723.1982">R&#233;sum&#233; de l'essai</text><text fill="#000000" font-family="sans-serif" font-size="14" lengthAdjust="spacing" textLength="212" x="686" y="723.1982">description : markdown [0..1]</text><line style="stroke:#0000FF;stroke-width:1.0;" x1="681" x2="681" y1="708.2031" y2="728.5"/><line style="stroke:#0000FF;stroke-width:1.0;" x1="205" x2="1134.3333" y1="728.5" y2="728.5"/><text fill="#000000" font-family="sans-serif" font-size="14" lengthAdjust="spacing" textLength="278" x="304" y="743.4951">P&#233;riode pr&#233;visionnelle de recrutement</text><path d="M690.5,733.9635 L690.5,737.4635 L687,737.4635 L687,739.7969 L690.5,739.7969 L690.5,743.2969 L692.8333,743.2969 L692.8333,739.7969 L696.3333,739.7969 L696.3333,737.4635 L692.8333,737.4635 L692.8333,733.9635 L690.5,733.9635 " fill="#000000" style="stroke:;stroke-width:0.0;stroke-dasharray:;"/><text fill="#000000" font-family="sans-serif" font-size="14" lengthAdjust="spacing" textLength="299" x="701.3333" y="743.4951">ECLAIRERecruitmentPeriod : period [0..1]</text><line style="stroke:#0000FF;stroke-width:1.0;" x1="681" x2="681" y1="728.5" y2="748.7969"/><line style="stroke:#0000FF;stroke-width:1.0;" x1="205" x2="1134.3333" y1="748.7969" y2="748.7969"/><text fill="#000000" font-family="sans-serif" font-size="14" lengthAdjust="spacing" textLength="338" x="274" y="763.792">Contact (Contact for public / scientific queries)</text><text fill="#000000" font-family="sans-serif" font-size="14" lengthAdjust="spacing" textLength="210" x="686" y="763.792">contact : ContactDetail [0..*]</text><line style="stroke:#0000FF;stroke-width:1.0;" x1="681" x2="681" y1="748.7969" y2="769.0938"/><line style="stroke:#0000FF;stroke-width:1.0;" x1="205" x2="1134.3333" y1="769.0938" y2="769.0938"/><text fill="#000000" font-family="sans-serif" font-size="14" lengthAdjust="spacing" textLength="446" x="220" y="784.0889">Participants (Key Inclusion and Exclusion Criteria, Sample size)</text><text fill="#000000" font-family="sans-serif" font-size="14" lengthAdjust="spacing" textLength="262" x="686" y="784.0889">enrollment : Reference(Group) [0..*]</text><line style="stroke:#0000FF;stroke-width:1.0;" x1="681" x2="681" y1="769.0938" y2="789.3906"/><line style="stroke:#0000FF;stroke-width:1.0;" x1="205" x2="1134.3333" y1="789.3906" y2="789.3906"/><text fill="#000000" font-family="sans-serif" font-size="14" lengthAdjust="spacing" textLength="37" x="424.5" y="804.3857">Lieux</text><text fill="#000000" font-family="sans-serif" font-size="14" lengthAdjust="spacing" textLength="227" x="686" y="804.3857">site : Reference(Location) [0..*]</text><line style="stroke:#0000FF;stroke-width:1.0;" x1="681" x2="681" y1="789.3906" y2="809.6875"/><line style="stroke:#0000FF;stroke-width:1.0;" x1="205" x2="1134.3333" y1="809.6875" y2="809.6875"/><text fill="#000000" font-family="sans-serif" font-size="14" lengthAdjust="spacing" textLength="347" x="269.5" y="824.6826">Pays de recrutement (Countries of Recruitment)</text><text fill="#000000" font-family="sans-serif" font-size="14" lengthAdjust="spacing" textLength="241" x="686" y="824.6826">location : CodeableConcept [0..*]</text><line style="stroke:#0000FF;stroke-width:1.0;" x1="681" x2="681" y1="809.6875" y2="829.9844"/><line style="stroke:#0000FF;stroke-width:1.0;" x1="205" x2="1134.3333" y1="829.9844" y2="829.9844"/><text fill="#000000" font-family="sans-serif" font-size="14" lengthAdjust="spacing" textLength="274" x="306" y="844.9795">Promoteur principal (Primary sponsor)</text><text fill="#000000" font-family="sans-serif" font-size="14" lengthAdjust="spacing" textLength="289" x="686" y="844.9795">sponsor : Reference(Organization) [0..1]</text><line style="stroke:#0000FF;stroke-width:1.0;" x1="681" x2="681" y1="829.9844" y2="850.2813"/><line style="stroke:#0000FF;stroke-width:1.0;" x1="205" x2="1134.3333" y1="850.2813" y2="850.2813"/><text fill="#000000" font-family="sans-serif" font-size="14" lengthAdjust="spacing" textLength="328" x="279" y="865.2764">Promoteur secondaire (Secondary Sponsor(s))</text><path d="M690.5,855.7448 L690.5,859.2448 L687,859.2448 L687,861.5781 L690.5,861.5781 L690.5,865.0781 L692.8333,865.0781 L692.8333,861.5781 L696.3333,861.5781 L696.3333,859.2448 L692.8333,859.2448 L692.8333,855.7448 L690.5,855.7448 " fill="#000000" style="stroke:;stroke-width:0.0;stroke-dasharray:;"/><text fill="#000000" font-family="sans-serif" font-size="14" lengthAdjust="spacing" textLength="428" x="701.3333" y="865.2764">ECLAIRESecondarySponsor  : Reference(Organization) [0..*]</text><line style="stroke:#0000FF;stroke-width:1.0;" x1="681" x2="681" y1="850.2813" y2="870.5781"/></g><!--link RS to Location--><g id="link_RS_Location"><path codeLine="82" d="M899.3341,881.9461 C936.7241,916.7291 959.2859,937.7179 987.3739,963.8469 " fill="none" id="RS-Location" style="stroke:#EE82EE;stroke-width:4.0;stroke-dasharray:7.0,7.0;"/><polygon fill="#EE82EE" points="890.548,873.7726,892.2165,880.788,899.3341,881.9461,897.6655,874.9307,890.548,873.7726" style="stroke:#EE82EE;stroke-width:4.0;"/><polygon fill="#EE82EE" points="991.767,967.9336,987.9018,958.8749,988.1061,964.5281,982.4529,964.7323,991.767,967.9336" style="stroke:#EE82EE;stroke-width:4.0;"/></g><!--link RS to Group--><g id="link_RS_Group"><path codeLine="83" d="M402.4254,881.2575 C376.2534,902.1425 364.8428,911.2472 341.5718,929.8172 " fill="none" id="RS-Group" style="stroke:#90EE90;stroke-width:4.0;stroke-dasharray:7.0,7.0;"/><polygon fill="#90EE90" points="411.805,873.7726,404.6202,874.3885,402.4254,881.2575,409.6101,880.6416,411.805,873.7726" style="stroke:#90EE90;stroke-width:4.0;"/><polygon fill="#90EE90" points="336.882,933.5596,346.4117,931.0725,340.7902,930.4409,341.4218,924.8195,336.882,933.5596" style="stroke:#90EE90;stroke-width:4.0;"/></g><!--link RS to Organization--><g id="link_RS_Organization"><path codeLine="84" d="M669.5,885.7726 C669.5,920.5556 669.5,935.8046 669.5,961.9336 " fill="none" id="RS-Organization" style="stroke:#FFD700;stroke-width:4.0;stroke-dasharray:7.0,7.0;"/><polygon fill="#FFD700" points="669.5,873.7726,665.5,879.7726,669.5,885.7726,673.5,879.7726,669.5,873.7726" style="stroke:#FFD700;stroke-width:4.0;"/><polygon fill="#FFD700" points="669.5,967.9336,673.5,958.9336,669.5,962.9336,665.5,958.9336,669.5,967.9336" style="stroke:#FFD700;stroke-width:4.0;"/></g><!--link slice_identifier to RS--><g id="link_slice_identifier_RS"><path codeLine="86" d="M1086.84,361.9246 C1053.13,386.4956 1004.12,422.2196 951.454,460.6126 " fill="none" id="slice_identifier-RS" style="stroke:#ADD8E6;stroke-width:2.0;"/></g><!--link Contact to RS--><g id="link_Contact_RS"><path codeLine="87" d="M669.5,401.0426 C669.5,419.1526 669.5,439.4886 669.5,460.6346 " fill="none" id="Contact-RS" style="stroke:#ADD8E6;stroke-width:2.0;"/></g><!--link label to RS--><g id="link_label_RS"><path codeLine="88" d="M245.852,361.9246 C280.069,386.4956 329.817,422.2196 383.283,460.6126 " fill="none" id="label-RS" style="stroke:#ADD8E6;stroke-width:2.0;"/></g><!--link slice_name to Contact--><g id="link_slice_name_Contact"><path codeLine="89" d="M669.5,194.7006 C669.5,212.6406 669.5,234.1706 669.5,254.5706 " fill="none" id="slice_name-Contact" style="stroke:#ADD8E6;stroke-width:2.0;"/></g><!--link Contact to slice_identifier--><!--link Group to Organization--><!--link Group to Characteristic--><g id="link_Group_Characteristic"><path codeLine="94" d="M226.5,1111.8236 C226.5,1132.5356 226.5,1147.7236 226.5,1165.4771 " fill="none" id="Group-to-Characteristic" style="stroke:#90EE90;stroke-width:2.0;"/><polygon fill="#90EE90" points="226.5,1171.4771,230.5,1162.4771,226.5,1166.4771,222.5,1162.4771,226.5,1171.4771" style="stroke:#90EE90;stroke-width:2.0;"/></g><!--link Location to Telecom--><g id="link_Location_Telecom"><path codeLine="95" d="M1049.5,1074.6406 C1049.5,1107.0826 1049.5,1137.7376 1049.5,1165.4723 " fill="none" id="Location-to-Telecom" style="stroke:#EE82EE;stroke-width:2.0;"/><polygon fill="#EE82EE" points="1049.5,1171.4723,1053.5,1162.4723,1049.5,1166.4723,1045.5,1162.4723,1049.5,1171.4723" style="stroke:#EE82EE;stroke-width:2.0;"/></g><!--SRC=[nLVDRXit4BxhAGW5I2GZTkAY9pKneDYgRLIn1QsJed2DWjeTIQovt0t9TQmKxRFq63s7Ngp3uVvQAoT83jL597TcE3_V_33cAUiU9yhoq9w0vK9s6JSiFs5FPZoy7Gob2E6DpE2d9V08z60i5aiRtAxeJ0e5Wncks5yTXh-B96QlZvZYCR01OyPgeHRi-kN1mU4D8ughpLfkrc4InvaI8RSYKOx3WWGyT4pv_PD4A4kiUpSivrsbu8XVFKrbPexOw7WyF9-EF0Dz9FO8-4m2deQGskBotnNhTIVP3CtflkW6eG1bnHmtVH8zZ3GOirkw7KP4WJSKAo_OSy_dGehIc1qIQaI3fclglcjdll0UFSjYhcYTC_xTwSGkZEK72g5nGVk3el2jKOo0pNaif0JM6tDZAQPzfo0ThrfDcEZDMY5pxsUXInRq_0bazsBp6TL92ugt8efGTYbr8UxWWL_sAlDUFPLy1HhT4ZXBc8Xy-43NxAqElydgyvoT8-nIL28KAPTEDH5Dj8YvNjLDhLCRXAwAkD3WoGE_pnaQPZHYE-Opy3adtUgRj2voWYJaET2U0aJ-dal8TCc0smosGbceUwgJB2NzQ9NhTpKwFhku75-U_jPGy5G31d3BbNlU9MLa1kL7tEJPNHc2g5kugu3Oh3SdH7FOzI6byMlMdI0E4jNrNAGOCCmGCISUN6KOjW6R9Oa4hcgCLpg3Bd6DvdDm76ppBzCGwim2-UH3XXeBwy2TAICM2g9pPHlrwrWBk_cC1S3XUhW0ztSAIlk5rmRLDTcVO9r8F0sNNADQe8Mn8aJPRz2DiqJ1I48CLP4h_NxSOF15kIdZgoD1NdLwa1DRe75OcLPXuyx1ulh-1Xdg1AFx4E6R5pbm6vBvmDEb6PTwmPNuH1MFZAWVv2QyUHUSNuo2e33WD97HTu2esNzQsa-jplFMYbv8AheWkSullnouSH9MrXQRtDAt6BdLD35bMhyNw3Rxlnfxk6rirOXR-d1fw9Md8ZlpzLUP6QoCfJxWhZAuWRXCy9SxaTXkNNk_38I5ntjc5QwHCLmSOqKL7-YIAHZWEbm6DejMPDiq-EvMqYkQ1rSHgpf3Jh9oLbrayGoBMj-RKtIwBq30E-64Mwets5Rl1AMcXN3f3K9fCOvr1nBRzxiqGie89GbbBA-AsYunSomG3hqAt0YmxUSft0duI7nRCkj3X7m6pikiLuvSJZKiijBtVLhjW6zcNPt5SS4q9FafhYQZhQqIWEDKmZrMAWkAZAfdJs2vpMnTi8EaEpJDdkCdcoKtqBJ7WQHeKQdxJBhGQcSFhhUwLa7qbynH4JmaWLX4O97erGwPfJdKS4BtHQlDclNEW4kxT5aS2HV87k8hqJYY9IWXTZjtiO2edzSuJxRxcjvRE9aE-woSz4AF58EPAekErtgjktVNnTlZhkVp3nBJZeoJ9EQOSimkDslDKyYiGzLUYxoh9UG4uL03RnSttQnD5gFJcc28m8HQfBbNC8Tle-IZQd1Ey7xXe9AMcUCJnkMI7ooeKRJb3tuLrdt5WGPbE1JvHICpYzBSAnPpT6RgC-05C-Kx1cSNv0RJRtQinlEk0PW9r-WKd76LDQpt2s19KaLxTwMgQlPkv47P_3aBkCiePiGd3tQSUn8foK9NFUUW0I7Jep6etxXjBF09G1acB3I8YpRPVw3ToZnq8heWKzOPwJAava3IHHRjTXU0SzmcSM9TSwb6_B92cpHH9j4aBbytLAtFB_rcc2gvjST0hohtWHU7w6z3VKcNax4lN4lb7xjO1_lJtlxr4zzZdqVSB25wRfSYl5K8uzS_tkmVbND8GLpDY3iO_B1VaBk9R0TXNR5EP-iHje_SqbtcUcIDzuSRxAkT0i-FK_c7qUCqjTVk8uJvVTMzrqjyWeAwsNezTZhU0nL5qr3wEXXKBu7zfbVhrnuzcDmxHJIGl-Q0F81DpdommZ1BM02cf4rIhBHpYuYhneI1rv_EFAW6LSV3qt_sN6N1MIPwjbb_o0HEL0vLcClARjO7SysKOB-UNJe1WuzSAwoE0nAYM2HCc1aIXFTxBVu3]--></g></svg>