<?xml version="1.0" encoding="us-ascii" standalone="no"?><svg xmlns="http://www.w3.org/2000/svg" xmlns:xlink="http://www.w3.org/1999/xlink" contentStyleType="text/css" height="693px" preserveAspectRatio="none" style="width:2184px;height:693px;background:#FFFFFF;" version="1.1" viewBox="0 0 2184 693" width="2184px" zoomAndPan="magnify"><defs/><g><rect fill="#DDDDDD" height="58.8906" id="_legend" rx="7.5" ry="7.5" style="stroke:#000000;stroke-width:1.0;" width="277" x="12" y="12"/><path d="M18,20.4635 L18,25.1302 L22.6667,25.1302 L22.6667,20.4635 L18,20.4635 M23.8333,22.7969 L23.8333,26.2969 L20.3333,26.2969 L20.3333,27.4635 L25,27.4635 L25,22.7969 L23.8333,22.7969 M26.1667,25.1302 L26.1667,28.6302 L22.6667,28.6302 L22.6667,29.7969 L27.3333,29.7969 L27.3333,25.1302 L26.1667,25.1302 " fill="#000000" style="stroke:;stroke-width:0.0;stroke-dasharray:;"/><text fill="#000000" font-family="sans-serif" font-size="14" lengthAdjust="spacing" textLength="41" x="32.3333" y="29.9951">: slice</text><path d="M21.5,36.7604 L21.5,40.2604 L18,40.2604 L18,42.5938 L21.5,42.5938 L21.5,46.0938 L23.8333,46.0938 L23.8333,42.5938 L27.3333,42.5938 L27.3333,40.2604 L23.8333,40.2604 L23.8333,36.7604 L21.5,36.7604 " fill="#000000" style="stroke:;stroke-width:0.0;stroke-dasharray:;"/><text fill="#000000" font-family="sans-serif" font-size="14" lengthAdjust="spacing" textLength="80" x="32.3333" y="46.292">: extension</text><ellipse cx="22.5" cy="58.3906" fill="#000000" rx="2.5" ry="2.5" style="stroke:#000000;stroke-width:0.0;"/><text fill="#000000" font-family="sans-serif" font-size="14" lengthAdjust="spacing" textLength="255" x="29" y="62.5889">: pas d'&#233;quivalence Sant&#233;.fr ni WHO</text><g id="elem_Contact"><rect fill="#F0F8FF" height="81.1875" style="stroke:#0000FF;stroke-width:0.5;" width="662.3333" x="1515.5" y="232.8906"/><rect fill="#87CEFA" height="20.2969" style="stroke:#0000FF;stroke-width:0.5;" width="662.3333" x="1515.5" y="232.8906"/><text fill="#000000" font-family="sans-serif" font-size="14" lengthAdjust="spacing" textLength="101" x="1796.1667" y="247.8857">ContactDetail</text><line style="stroke:#0000FF;stroke-width:1.0;" x1="1515.5" x2="2177.8333" y1="253.1875" y2="253.1875"/><text fill="#000000" font-family="sans-serif" font-size="14" lengthAdjust="spacing" textLength="33" x="1575" y="268.1826">Nom</text><text fill="#000000" font-family="sans-serif" font-size="14" lengthAdjust="spacing" textLength="49" x="1672.5" y="268.1826">name :</text><text fill="#000000" font-family="sans-serif" font-size="14" font-style="italic" lengthAdjust="spacing" textLength="80" x="1729.5" y="268.1826">string [0..1]</text><line style="stroke:#0000FF;stroke-width:1.0;" x1="1667.5" x2="1667.5" y1="253.1875" y2="273.4844"/><line style="stroke:#0000FF;stroke-width:1.0;" x1="1515.5" x2="2177.8333" y1="273.4844" y2="273.4844"/><text fill="#000000" font-family="sans-serif" font-size="14" lengthAdjust="spacing" textLength="142" x="1520.5" y="288.4795">T&#233;l&#233;communication</text><text fill="#000000" font-family="sans-serif" font-size="14" lengthAdjust="spacing" textLength="69" x="1672.5" y="288.4795">telecom :</text><text fill="#000000" font-family="sans-serif" font-size="14" font-style="italic" lengthAdjust="spacing" textLength="128" x="1749.5" y="288.4795">ContactPoint [0..*]</text><line style="stroke:#0000FF;stroke-width:1.0;" x1="1667.5" x2="1667.5" y1="273.4844" y2="293.7813"/><line style="stroke:#0000FF;stroke-width:1.0;" x1="1515.5" x2="2177.8333" y1="293.7813" y2="293.7813"/><text fill="#000000" font-family="sans-serif" font-size="14" lengthAdjust="spacing" textLength="36" x="1573.5" y="308.7764">Type</text><text fill="#000000" font-family="sans-serif" font-size="14" lengthAdjust="spacing" textLength="147" x="1672.5" y="308.7764">ECLAIREContacType</text><path d="M1828,299.2448 L1828,302.7448 L1824.5,302.7448 L1824.5,305.0781 L1828,305.0781 L1828,308.5781 L1830.3333,308.5781 L1830.3333,305.0781 L1833.8333,305.0781 L1833.8333,302.7448 L1830.3333,302.7448 L1830.3333,299.2448 L1828,299.2448 " fill="#000000" style="stroke:;stroke-width:0.0;stroke-dasharray:;"/><text fill="#000000" font-family="sans-serif" font-size="14" lengthAdjust="spacing" textLength="5" x="1838.8333" y="308.7764">:</text><text fill="#000000" font-family="sans-serif" font-size="14" font-style="italic" lengthAdjust="spacing" textLength="317" x="1851.8333" y="308.7764">CodeableConcept [0..1] ("Public"/"Scientific")</text><line style="stroke:#0000FF;stroke-width:1.0;" x1="1667.5" x2="1667.5" y1="293.7813" y2="314.0781"/></g><g id="elem_slice_identifier"><rect fill="#F0F8FF" height="60.8906" style="stroke:#0000FF;stroke-width:0.5;" width="306" x="177.5" y="243.3906"/><rect fill="#87CEFA" height="20.2969" style="stroke:#0000FF;stroke-width:0.5;" width="306" x="177.5" y="243.3906"/><text fill="#000000" font-family="sans-serif" font-size="14" lengthAdjust="spacing" textLength="105" x="270.3333" y="258.3857">Slice identifier</text><path d="M380.3333,248.8542 L380.3333,253.5208 L385,253.5208 L385,248.8542 L380.3333,248.8542 M386.1667,251.1875 L386.1667,254.6875 L382.6667,254.6875 L382.6667,255.8542 L387.3333,255.8542 L387.3333,251.1875 L386.1667,251.1875 M388.5,253.5208 L388.5,257.0208 L385,257.0208 L385,258.1875 L389.6667,258.1875 L389.6667,253.5208 L388.5,253.5208 " fill="#000000" style="stroke:;stroke-width:0.0;stroke-dasharray:;"/><line style="stroke:#0000FF;stroke-width:1.0;" x1="177.5" x2="483.5" y1="263.6875" y2="263.6875"/><text fill="#000000" font-family="sans-serif" font-size="14" lengthAdjust="spacing" textLength="143" x="190" y="278.6826">Identifiant principal</text><text fill="#000000" font-family="sans-serif" font-size="14" lengthAdjust="spacing" textLength="110" x="350.5" y="278.6826">idPrimary [0..1]</text><line style="stroke:#0000FF;stroke-width:1.0;" x1="345.5" x2="345.5" y1="263.6875" y2="283.9844"/><line style="stroke:#0000FF;stroke-width:1.0;" x1="177.5" x2="483.5" y1="283.9844" y2="283.9844"/><text fill="#000000" font-family="sans-serif" font-size="14" lengthAdjust="spacing" textLength="158" x="182.5" y="298.9795">Identifiant secondaire</text><text fill="#000000" font-family="sans-serif" font-size="14" lengthAdjust="spacing" textLength="128" x="350.5" y="298.9795">idSecondary [0..*]</text><line style="stroke:#0000FF;stroke-width:1.0;" x1="345.5" x2="345.5" y1="283.9844" y2="304.2813"/></g><g id="elem_Group"><rect fill="#C9FFC9" height="162.375" style="stroke:#181818;stroke-width:0.5;" width="438" x="367.5" y="523.8906"/><rect fill="#90EE90" height="20.2969" style="stroke:#181818;stroke-width:0.5;" width="438" x="367.5" y="523.8906"/><text fill="#000000" font-family="sans-serif" font-size="14" lengthAdjust="spacing" textLength="44" x="564.5" y="538.8857">Group</text><line style="stroke:#181818;stroke-width:1.0;" x1="367.5" x2="805.5" y1="544.1875" y2="544.1875"/><text fill="#000000" font-family="sans-serif" font-size="14" lengthAdjust="spacing" textLength="76" x="399.5" y="559.1826">Identifiant</text><text fill="#000000" font-family="sans-serif" font-size="14" lengthAdjust="spacing" textLength="76" x="512.5" y="559.1826">identifier :</text><text fill="#000000" font-family="sans-serif" font-size="14" font-style="italic" lengthAdjust="spacing" textLength="102" x="596.5" y="559.1826">Identifier [0..*]</text><line style="stroke:#181818;stroke-width:1.0;" x1="507.5" x2="507.5" y1="544.1875" y2="564.4844"/><line style="stroke:#181818;stroke-width:1.0;" x1="367.5" x2="805.5" y1="564.4844" y2="564.4844"/><text fill="#000000" font-family="sans-serif" font-size="14" lengthAdjust="spacing" textLength="113" x="381" y="579.4795">Type de groupe</text><text fill="#000000" font-family="sans-serif" font-size="14" lengthAdjust="spacing" textLength="43" x="512.5" y="579.4795">type :</text><text fill="#000000" font-family="sans-serif" font-size="14" font-style="italic" lengthAdjust="spacing" textLength="155" x="563.5" y="579.4795">code [1..1] = "Person"</text><line style="stroke:#181818;stroke-width:1.0;" x1="507.5" x2="507.5" y1="564.4844" y2="584.7813"/><line style="stroke:#181818;stroke-width:1.0;" x1="367.5" x2="805.5" y1="584.7813" y2="584.7813"/><text fill="#000000" font-family="sans-serif" font-size="14" lengthAdjust="spacing" textLength="90" x="392.5" y="599.7764">Groupe actif</text><text fill="#000000" font-family="sans-serif" font-size="14" lengthAdjust="spacing" textLength="52" x="512.5" y="599.7764">actual :</text><text fill="#000000" font-family="sans-serif" font-size="14" font-style="italic" lengthAdjust="spacing" textLength="163" x="572.5" y="599.7764">boolean [1..1] = "True"</text><line style="stroke:#181818;stroke-width:1.0;" x1="507.5" x2="507.5" y1="584.7813" y2="605.0781"/><line style="stroke:#181818;stroke-width:1.0;" x1="367.5" x2="805.5" y1="605.0781" y2="605.0781"/><text fill="#000000" font-family="sans-serif" font-size="14" lengthAdjust="spacing" textLength="130" x="372.5" y="620.0732">Effectif &#224; recruter</text><text fill="#000000" font-family="sans-serif" font-size="14" lengthAdjust="spacing" textLength="69" x="512.5" y="620.0732">quantity :</text><text fill="#000000" font-family="sans-serif" font-size="14" font-style="italic" lengthAdjust="spacing" textLength="123" x="589.5" y="620.0732">unsignedInt [0..1]</text><line style="stroke:#181818;stroke-width:1.0;" x1="507.5" x2="507.5" y1="605.0781" y2="625.375"/><line style="stroke:#181818;stroke-width:1.0;" x1="367.5" x2="805.5" y1="625.375" y2="625.375"/><text fill="#000000" font-family="sans-serif" font-size="14" lengthAdjust="spacing" textLength="58" x="408.5" y="640.3701">Crit&#232;res</text><text fill="#000000" font-family="sans-serif" font-size="14" lengthAdjust="spacing" textLength="108" x="512.5" y="640.3701">characteristic :</text><text fill="#000000" font-family="sans-serif" font-size="14" font-style="italic" lengthAdjust="spacing" textLength="168" x="628.5" y="640.3701">BackboneElement [0..*]</text><line style="stroke:#181818;stroke-width:1.0;" x1="507.5" x2="507.5" y1="625.375" y2="645.6719"/><line style="stroke:#181818;stroke-width:1.0;" x1="367.5" x2="805.5" y1="645.6719" y2="645.6719"/><text fill="#000000" font-family="sans-serif" font-size="14" lengthAdjust="spacing" textLength="28" x="423.5" y="660.667">Age</text><text fill="#000000" font-family="sans-serif" font-size="14" lengthAdjust="spacing" textLength="108" x="512.5" y="660.667">characteristic :</text><text fill="#000000" font-family="sans-serif" font-size="14" font-style="italic" lengthAdjust="spacing" textLength="168" x="628.5" y="660.667">BackboneElement [0..*]</text><line style="stroke:#181818;stroke-width:1.0;" x1="507.5" x2="507.5" y1="645.6719" y2="665.9688"/><line style="stroke:#181818;stroke-width:1.0;" x1="367.5" x2="805.5" y1="665.9688" y2="665.9688"/><text fill="#000000" font-family="sans-serif" font-size="14" lengthAdjust="spacing" textLength="44" x="415.5" y="680.9639">Genre</text><text fill="#000000" font-family="sans-serif" font-size="14" lengthAdjust="spacing" textLength="108" x="512.5" y="680.9639">characteristic :</text><text fill="#000000" font-family="sans-serif" font-size="14" font-style="italic" lengthAdjust="spacing" textLength="168" x="628.5" y="680.9639">BackboneElement [0..*]</text><line style="stroke:#181818;stroke-width:1.0;" x1="507.5" x2="507.5" y1="665.9688" y2="686.2656"/></g><g id="elem_Characteristic"><rect fill="#C9FFC9" height="81.1875" style="stroke:#181818;stroke-width:0.5;" width="309" x="7" y="564.3906"/><rect fill="#90EE90" height="20.2969" style="stroke:#181818;stroke-width:0.5;" width="309" x="7" y="564.3906"/><text fill="#000000" font-family="sans-serif" font-size="14" lengthAdjust="spacing" textLength="101" x="111" y="579.3857">Characteristic</text><line style="stroke:#181818;stroke-width:1.0;" x1="7" x2="316" y1="584.6875" y2="584.6875"/><text fill="#000000" font-family="sans-serif" font-size="14" lengthAdjust="spacing" textLength="34" x="28" y="599.6826">type</text><text fill="#000000" font-family="sans-serif" font-size="14" lengthAdjust="spacing" textLength="44" x="88" y="599.6826">code :</text><text fill="#000000" font-family="sans-serif" font-size="14" font-style="italic" lengthAdjust="spacing" textLength="167" x="140" y="599.6826">CodeableConcept [1..1]</text><line style="stroke:#181818;stroke-width:1.0;" x1="83" x2="83" y1="584.6875" y2="604.9844"/><line style="stroke:#181818;stroke-width:1.0;" x1="7" x2="316" y1="604.9844" y2="604.9844"/><text fill="#000000" font-family="sans-serif" font-size="14" lengthAdjust="spacing" textLength="43" x="23.5" y="619.9795">valeur</text><text fill="#000000" font-family="sans-serif" font-size="14" lengthAdjust="spacing" textLength="64" x="88" y="619.9795">value[x] :</text><text fill="#000000" font-family="sans-serif" font-size="14" font-style="italic" lengthAdjust="spacing" textLength="36" x="160" y="619.9795">[1..1]</text><line style="stroke:#181818;stroke-width:1.0;" x1="83" x2="83" y1="604.9844" y2="625.2813"/><line style="stroke:#181818;stroke-width:1.0;" x1="7" x2="316" y1="625.2813" y2="625.2813"/><text fill="#000000" font-family="sans-serif" font-size="14" lengthAdjust="spacing" textLength="66" x="12" y="640.2764">exclusion</text><text fill="#000000" font-family="sans-serif" font-size="14" lengthAdjust="spacing" textLength="64" x="88" y="640.2764">exclude :</text><text fill="#000000" font-family="sans-serif" font-size="14" font-style="italic" lengthAdjust="spacing" textLength="98" x="160" y="640.2764">boolean [1..1]</text><line style="stroke:#181818;stroke-width:1.0;" x1="83" x2="83" y1="625.2813" y2="645.5781"/></g><g id="elem_Organization"><rect fill="#FFFFCC" height="81.1875" style="stroke:#181818;stroke-width:0.5;" width="286" x="856.5" y="564.3906"/><rect fill="#FFD700" height="20.2969" style="stroke:#181818;stroke-width:0.5;" width="286" x="856.5" y="564.3906"/><text fill="#000000" font-family="sans-serif" font-size="14" lengthAdjust="spacing" textLength="92" x="953.5" y="579.3857">Organization</text><line style="stroke:#181818;stroke-width:1.0;" x1="856.5" x2="1142.5" y1="584.6875" y2="584.6875"/><text fill="#000000" font-family="sans-serif" font-size="14" lengthAdjust="spacing" textLength="76" x="861.5" y="599.6826">Identifiant</text><text fill="#000000" font-family="sans-serif" font-size="14" lengthAdjust="spacing" textLength="76" x="947.5" y="599.6826">identifier :</text><text fill="#000000" font-family="sans-serif" font-size="14" font-style="italic" lengthAdjust="spacing" textLength="102" x="1031.5" y="599.6826">Identifier [0..*]</text><line style="stroke:#181818;stroke-width:1.0;" x1="942.5" x2="942.5" y1="584.6875" y2="604.9844"/><line style="stroke:#181818;stroke-width:1.0;" x1="856.5" x2="1142.5" y1="604.9844" y2="604.9844"/><text fill="#000000" font-family="sans-serif" font-size="14" lengthAdjust="spacing" textLength="33" x="883" y="619.9795">Nom</text><text fill="#000000" font-family="sans-serif" font-size="14" lengthAdjust="spacing" textLength="49" x="947.5" y="619.9795">name :</text><text fill="#000000" font-family="sans-serif" font-size="14" font-style="italic" lengthAdjust="spacing" textLength="80" x="1004.5" y="619.9795">string [0..1]</text><line style="stroke:#181818;stroke-width:1.0;" x1="942.5" x2="942.5" y1="604.9844" y2="625.2813"/><line style="stroke:#181818;stroke-width:1.0;" x1="856.5" x2="1142.5" y1="625.2813" y2="625.2813"/><text fill="#000000" font-family="sans-serif" font-size="14" lengthAdjust="spacing" textLength="57" x="871" y="640.2764">Adresse</text><text fill="#000000" font-family="sans-serif" font-size="14" lengthAdjust="spacing" textLength="64" x="947.5" y="640.2764">address :</text><text fill="#000000" font-family="sans-serif" font-size="14" font-style="italic" lengthAdjust="spacing" textLength="95" x="1019.5" y="640.2764">Address [0..*]</text><line style="stroke:#181818;stroke-width:1.0;" x1="942.5" x2="942.5" y1="625.2813" y2="645.5781"/></g><g id="elem_Location"><rect fill="#FFE4E1" height="101.4844" style="stroke:#181818;stroke-width:0.5;" width="325.3333" x="1194" y="554.3906"/><rect fill="#EE82EE" height="20.2969" style="stroke:#181818;stroke-width:0.5;" width="325.3333" x="1194" y="554.3906"/><text fill="#000000" font-family="sans-serif" font-size="14" lengthAdjust="spacing" textLength="62" x="1325.6667" y="569.3857">Location</text><line style="stroke:#181818;stroke-width:1.0;" x1="1194" x2="1519.3333" y1="574.6875" y2="574.6875"/><text fill="#000000" font-family="sans-serif" font-size="14" lengthAdjust="spacing" textLength="76" x="1199" y="589.6826">Identifiant</text><text fill="#000000" font-family="sans-serif" font-size="14" lengthAdjust="spacing" textLength="76" x="1285" y="589.6826">identifier :</text><text fill="#000000" font-family="sans-serif" font-size="14" font-style="italic" lengthAdjust="spacing" textLength="102" x="1369" y="589.6826">Identifier [0..*]</text><line style="stroke:#181818;stroke-width:1.0;" x1="1280" x2="1280" y1="574.6875" y2="594.9844"/><line style="stroke:#181818;stroke-width:1.0;" x1="1194" x2="1519.3333" y1="594.9844" y2="594.9844"/><text fill="#000000" font-family="sans-serif" font-size="14" lengthAdjust="spacing" textLength="33" x="1220.5" y="609.9795">Nom</text><text fill="#000000" font-family="sans-serif" font-size="14" lengthAdjust="spacing" textLength="49" x="1285" y="609.9795">name :</text><text fill="#000000" font-family="sans-serif" font-size="14" font-style="italic" lengthAdjust="spacing" textLength="80" x="1342" y="609.9795">string [0..1]</text><line style="stroke:#181818;stroke-width:1.0;" x1="1280" x2="1280" y1="594.9844" y2="615.2813"/><line style="stroke:#181818;stroke-width:1.0;" x1="1194" x2="1519.3333" y1="615.2813" y2="615.2813"/><text fill="#000000" font-family="sans-serif" font-size="14" lengthAdjust="spacing" textLength="57" x="1208.5" y="630.2764">Adresse</text><text fill="#000000" font-family="sans-serif" font-size="14" lengthAdjust="spacing" textLength="64" x="1285" y="630.2764">address :</text><text fill="#000000" font-family="sans-serif" font-size="14" font-style="italic" lengthAdjust="spacing" textLength="97" x="1357" y="630.2764">Address [0..1]</text><line style="stroke:#181818;stroke-width:1.0;" x1="1280" x2="1280" y1="615.2813" y2="635.5781"/><line style="stroke:#181818;stroke-width:1.0;" x1="1194" x2="1519.3333" y1="635.5781" y2="635.5781"/><text fill="#000000" font-family="sans-serif" font-size="14" lengthAdjust="spacing" textLength="58" x="1208" y="650.5732">Contact</text><text fill="#000000" font-family="sans-serif" font-size="14" lengthAdjust="spacing" textLength="56" x="1285" y="650.5732">contact</text><path d="M1349.5,641.0417 L1349.5,644.5417 L1346,644.5417 L1346,646.875 L1349.5,646.875 L1349.5,650.375 L1351.8333,650.375 L1351.8333,646.875 L1355.3333,646.875 L1355.3333,644.5417 L1351.8333,644.5417 L1351.8333,641.0417 L1349.5,641.0417 " fill="#000000" style="stroke:;stroke-width:0.0;stroke-dasharray:;"/><text fill="#000000" font-family="sans-serif" font-size="14" lengthAdjust="spacing" textLength="5" x="1360.3333" y="650.5732">:</text><text fill="#000000" font-family="sans-serif" font-size="14" font-style="italic" lengthAdjust="spacing" textLength="137" x="1373.3333" y="650.5732">ContactDetail [0..1]</text><line style="stroke:#181818;stroke-width:1.0;" x1="1280" x2="1280" y1="635.5781" y2="655.875"/></g><g id="elem_RS"><rect fill="#F0F8FF" height="365.3438" style="stroke:#0000FF;stroke-width:0.5;" width="929.3333" x="535" y="90.8906"/><rect fill="#87CEFA" height="20.2969" style="stroke:#0000FF;stroke-width:0.5;" width="929.3333" x="535" y="90.8906"/><text fill="#000000" font-family="sans-serif" font-size="14" lengthAdjust="spacing" textLength="212" x="893.6667" y="105.8857">EssaiClinique : ResearchStudy</text><line style="stroke:#0000FF;stroke-width:1.0;" x1="535" x2="1464.3333" y1="111.1875" y2="111.1875"/><text fill="#000000" font-family="sans-serif" font-size="14" lengthAdjust="spacing" textLength="404" x="571" y="126.1826">Identifiant (Primary and Secondary Identifying Numbers)</text><text fill="#000000" font-family="sans-serif" font-size="14" lengthAdjust="spacing" textLength="67" x="1016" y="126.1826">identifier</text><path d="M1088,116.651 L1088,121.3177 L1092.6667,121.3177 L1092.6667,116.651 L1088,116.651 M1093.8333,118.9844 L1093.8333,122.4844 L1090.3333,122.4844 L1090.3333,123.651 L1095,123.651 L1095,118.9844 L1093.8333,118.9844 M1096.1667,121.3177 L1096.1667,124.8177 L1092.6667,124.8177 L1092.6667,125.9844 L1097.3333,125.9844 L1097.3333,121.3177 L1096.1667,121.3177 " fill="#000000" style="stroke:;stroke-width:0.0;stroke-dasharray:;"/><text fill="#000000" font-family="sans-serif" font-size="14" lengthAdjust="spacing" textLength="5" x="1102.3333" y="126.1826">:</text><text fill="#000000" font-family="sans-serif" font-size="14" font-style="italic" lengthAdjust="spacing" textLength="102" x="1115.3333" y="126.1826">Identifier [0..*]</text><line style="stroke:#0000FF;stroke-width:1.0;" x1="1011" x2="1011" y1="111.1875" y2="131.4844"/><line style="stroke:#0000FF;stroke-width:1.0;" x1="535" x2="1464.3333" y1="131.4844" y2="131.4844"/><text fill="#000000" font-family="sans-serif" font-size="14" lengthAdjust="spacing" textLength="193" x="676.5" y="146.4795">Date de r&#233;vision technique</text><text fill="#000000" font-family="sans-serif" font-size="14" lengthAdjust="spacing" textLength="139" x="1016" y="146.4795">meta.lastUpdated :</text><text fill="#000000" font-family="sans-serif" font-size="14" font-style="italic" lengthAdjust="spacing" textLength="88" x="1163" y="146.4795">instant [0..1]</text><line style="stroke:#0000FF;stroke-width:1.0;" x1="1011" x2="1011" y1="131.4844" y2="151.7813"/><line style="stroke:#0000FF;stroke-width:1.0;" x1="535" x2="1464.3333" y1="151.7813" y2="151.7813"/><text fill="#000000" font-family="sans-serif" font-size="14" lengthAdjust="spacing" textLength="217" x="664.5" y="166.7764">Date de r&#233;vision fonctionnelle</text><text fill="#000000" font-family="sans-serif" font-size="14" lengthAdjust="spacing" textLength="146" x="1016" y="166.7764">ECLAIREReviewDate</text><path d="M1170.5,157.2448 L1170.5,160.7448 L1167,160.7448 L1167,163.0781 L1170.5,163.0781 L1170.5,166.5781 L1172.8333,166.5781 L1172.8333,163.0781 L1176.3333,163.0781 L1176.3333,160.7448 L1172.8333,160.7448 L1172.8333,157.2448 L1170.5,157.2448 " fill="#000000" style="stroke:;stroke-width:0.0;stroke-dasharray:;"/><text fill="#000000" font-family="sans-serif" font-size="14" lengthAdjust="spacing" textLength="5" x="1181.3333" y="166.7764">:</text><text fill="#000000" font-family="sans-serif" font-size="14" font-style="italic" lengthAdjust="spacing" textLength="72" x="1194.3333" y="166.7764">date [0..1]</text><line style="stroke:#0000FF;stroke-width:1.0;" x1="1011" x2="1011" y1="151.7813" y2="172.0781"/><line style="stroke:#0000FF;stroke-width:1.0;" x1="535" x2="1464.3333" y1="172.0781" y2="172.0781"/><text fill="#000000" font-family="sans-serif" font-size="14" lengthAdjust="spacing" textLength="194" x="676" y="187.0732">Nom de l'essai (Public title)</text><text fill="#000000" font-family="sans-serif" font-size="14" lengthAdjust="spacing" textLength="40" x="1016" y="187.0732">title :</text><text fill="#000000" font-family="sans-serif" font-size="14" font-style="italic" lengthAdjust="spacing" textLength="80" x="1064" y="187.0732">string [0..1]</text><line style="stroke:#0000FF;stroke-width:1.0;" x1="1011" x2="1011" y1="172.0781" y2="192.375"/><line style="stroke:#0000FF;stroke-width:1.0;" x1="535" x2="1464.3333" y1="192.375" y2="192.375"/><text fill="#000000" font-family="sans-serif" font-size="14" lengthAdjust="spacing" textLength="115" x="715.5" y="207.3701">Statut de l'essai</text><text fill="#000000" font-family="sans-serif" font-size="14" lengthAdjust="spacing" textLength="53" x="1016" y="207.3701">status :</text><text fill="#000000" font-family="sans-serif" font-size="14" font-style="italic" lengthAdjust="spacing" textLength="75" x="1073" y="207.3701">code [1..1]</text><line style="stroke:#0000FF;stroke-width:1.0;" x1="1011" x2="1011" y1="192.375" y2="212.6719"/><line style="stroke:#0000FF;stroke-width:1.0;" x1="535" x2="1464.3333" y1="212.6719" y2="212.6719"/><text fill="#000000" font-family="sans-serif" font-size="14" lengthAdjust="spacing" textLength="260" x="643" y="227.667">Phase de l'essai (Study type : phase)</text><text fill="#000000" font-family="sans-serif" font-size="14" lengthAdjust="spacing" textLength="52" x="1016" y="227.667">phase :</text><text fill="#000000" font-family="sans-serif" font-size="14" font-style="italic" lengthAdjust="spacing" textLength="167" x="1076" y="227.667">CodeableConcept [0..1]</text><line style="stroke:#0000FF;stroke-width:1.0;" x1="1011" x2="1011" y1="212.6719" y2="232.9688"/><line style="stroke:#0000FF;stroke-width:1.0;" x1="535" x2="1464.3333" y1="232.9688" y2="232.9688"/><text fill="#000000" font-family="sans-serif" font-size="14" lengthAdjust="spacing" textLength="290" x="628" y="247.9639">Type d'essai (Study type : type of study)</text><text fill="#000000" font-family="sans-serif" font-size="14" lengthAdjust="spacing" textLength="73" x="1016" y="247.9639">category :</text><text fill="#000000" font-family="sans-serif" font-size="14" font-style="italic" lengthAdjust="spacing" textLength="165" x="1097" y="247.9639">CodeableConcept [0..*]</text><line style="stroke:#0000FF;stroke-width:1.0;" x1="1011" x2="1011" y1="232.9688" y2="253.2656"/><line style="stroke:#0000FF;stroke-width:1.0;" x1="535" x2="1464.3333" y1="253.2656" y2="253.2656"/><text fill="#000000" font-family="sans-serif" font-size="14" lengthAdjust="spacing" textLength="420" x="563" y="268.2607">Sujet concern&#233; (Health Condition(s) or Problem(s) Studied)</text><text fill="#000000" font-family="sans-serif" font-size="14" lengthAdjust="spacing" textLength="77" x="1016" y="268.2607">condition :</text><text fill="#000000" font-family="sans-serif" font-size="14" font-style="italic" lengthAdjust="spacing" textLength="231" x="1101" y="268.2607">CodeableConcept [0..*] (MeDRA)</text><line style="stroke:#0000FF;stroke-width:1.0;" x1="1011" x2="1011" y1="253.2656" y2="273.5625"/><line style="stroke:#0000FF;stroke-width:1.0;" x1="535" x2="1464.3333" y1="273.5625" y2="273.5625"/><text fill="#000000" font-family="sans-serif" font-size="14" lengthAdjust="spacing" textLength="466" x="540" y="288.5576">Pr&#233;cision sur le sujet (Health Condition(s)  or  Problem(s) Studied)</text><text fill="#000000" font-family="sans-serif" font-size="14" lengthAdjust="spacing" textLength="180" x="1016" y="288.5576">ECLAIREConditionDetails</text><path d="M1204.5,279.026 L1204.5,282.526 L1201,282.526 L1201,284.8594 L1204.5,284.8594 L1204.5,288.3594 L1206.8333,288.3594 L1206.8333,284.8594 L1210.3333,284.8594 L1210.3333,282.526 L1206.8333,282.526 L1206.8333,279.026 L1204.5,279.026 " fill="#000000" style="stroke:;stroke-width:0.0;stroke-dasharray:;"/><text fill="#000000" font-family="sans-serif" font-size="14" lengthAdjust="spacing" textLength="5" x="1215.3333" y="288.5576">:</text><text fill="#000000" font-family="sans-serif" font-size="14" font-style="italic" lengthAdjust="spacing" textLength="80" x="1228.3333" y="288.5576">string [0..1]</text><line style="stroke:#0000FF;stroke-width:1.0;" x1="1011" x2="1011" y1="273.5625" y2="293.8594"/><line style="stroke:#0000FF;stroke-width:1.0;" x1="535" x2="1464.3333" y1="293.8594" y2="293.8594"/><text fill="#000000" font-family="sans-serif" font-size="14" lengthAdjust="spacing" textLength="178" x="684" y="308.8545">Domaine th&#233;rapeutique*</text><text fill="#000000" font-family="sans-serif" font-size="14" lengthAdjust="spacing" textLength="180" x="1016" y="308.8545">ECLAIRETherapeuticArea</text><path d="M1204.5,299.3229 L1204.5,302.8229 L1201,302.8229 L1201,305.1562 L1204.5,305.1562 L1204.5,308.6562 L1206.8333,308.6562 L1206.8333,305.1562 L1210.3333,305.1562 L1210.3333,302.8229 L1206.8333,302.8229 L1206.8333,299.3229 L1204.5,299.3229 " fill="#000000" style="stroke:;stroke-width:0.0;stroke-dasharray:;"/><text fill="#000000" font-family="sans-serif" font-size="14" lengthAdjust="spacing" textLength="5" x="1215.3333" y="308.8545">:</text><text fill="#000000" font-family="sans-serif" font-size="14" font-style="italic" lengthAdjust="spacing" textLength="80" x="1228.3333" y="308.8545">string [0..1]</text><line style="stroke:#0000FF;stroke-width:1.0;" x1="1011" x2="1011" y1="293.8594" y2="314.1563"/><line style="stroke:#0000FF;stroke-width:1.0;" x1="535" x2="1464.3333" y1="314.1563" y2="314.1563"/><text fill="#000000" font-family="sans-serif" font-size="14" lengthAdjust="spacing" textLength="126" x="710" y="329.1514">R&#233;sum&#233; de l'essai</text><text fill="#000000" font-family="sans-serif" font-size="14" lengthAdjust="spacing" textLength="91" x="1016" y="329.1514">description :</text><text fill="#000000" font-family="sans-serif" font-size="14" font-style="italic" lengthAdjust="spacing" textLength="115" x="1115" y="329.1514">markdown [0..1]</text><line style="stroke:#0000FF;stroke-width:1.0;" x1="1011" x2="1011" y1="314.1563" y2="334.4531"/><line style="stroke:#0000FF;stroke-width:1.0;" x1="535" x2="1464.3333" y1="334.4531" y2="334.4531"/><text fill="#000000" font-family="sans-serif" font-size="14" lengthAdjust="spacing" textLength="278" x="634" y="349.4482">P&#233;riode pr&#233;visionnelle de recrutement</text><text fill="#000000" font-family="sans-serif" font-size="14" lengthAdjust="spacing" textLength="197" x="1016" y="349.4482">ECLAIRERecruitmentPeriod</text><path d="M1221.5,339.9167 L1221.5,343.4167 L1218,343.4167 L1218,345.75 L1221.5,345.75 L1221.5,349.25 L1223.8333,349.25 L1223.8333,345.75 L1227.3333,345.75 L1227.3333,343.4167 L1223.8333,343.4167 L1223.8333,339.9167 L1221.5,339.9167 " fill="#000000" style="stroke:;stroke-width:0.0;stroke-dasharray:;"/><text fill="#000000" font-family="sans-serif" font-size="14" lengthAdjust="spacing" textLength="5" x="1232.3333" y="349.4482">:</text><text fill="#000000" font-family="sans-serif" font-size="14" font-style="italic" lengthAdjust="spacing" textLength="86" x="1245.3333" y="349.4482">period [0..1]</text><line style="stroke:#0000FF;stroke-width:1.0;" x1="1011" x2="1011" y1="334.4531" y2="354.75"/><line style="stroke:#0000FF;stroke-width:1.0;" x1="535" x2="1464.3333" y1="354.75" y2="354.75"/><text fill="#000000" font-family="sans-serif" font-size="14" lengthAdjust="spacing" textLength="338" x="604" y="369.7451">Contact (Contact for public / scientific queries)</text><text fill="#000000" font-family="sans-serif" font-size="14" lengthAdjust="spacing" textLength="65" x="1016" y="369.7451">contact :</text><text fill="#000000" font-family="sans-serif" font-size="14" font-style="italic" lengthAdjust="spacing" textLength="135" x="1089" y="369.7451">ContactDetail [0..*]</text><line style="stroke:#0000FF;stroke-width:1.0;" x1="1011" x2="1011" y1="354.75" y2="375.0469"/><line style="stroke:#0000FF;stroke-width:1.0;" x1="535" x2="1464.3333" y1="375.0469" y2="375.0469"/><text fill="#000000" font-family="sans-serif" font-size="14" lengthAdjust="spacing" textLength="446" x="550" y="390.042">Participants (Key Inclusion and Exclusion Criteria, Sample size)</text><text fill="#000000" font-family="sans-serif" font-size="14" lengthAdjust="spacing" textLength="89" x="1016" y="390.042">enrollment :</text><text fill="#000000" font-family="sans-serif" font-size="14" font-style="italic" lengthAdjust="spacing" textLength="166" x="1113" y="390.042">Reference(Group) [0..*]</text><line style="stroke:#0000FF;stroke-width:1.0;" x1="1011" x2="1011" y1="375.0469" y2="395.3438"/><line style="stroke:#0000FF;stroke-width:1.0;" x1="535" x2="1464.3333" y1="395.3438" y2="395.3438"/><text fill="#000000" font-family="sans-serif" font-size="14" lengthAdjust="spacing" textLength="234" x="656" y="410.3389">Lieux (Countries of Recruitment)</text><text fill="#000000" font-family="sans-serif" font-size="14" lengthAdjust="spacing" textLength="36" x="1016" y="410.3389">site :</text><text fill="#000000" font-family="sans-serif" font-size="14" font-style="italic" lengthAdjust="spacing" textLength="185" x="1060" y="410.3389">Reference(Location) [0..1]</text><line style="stroke:#0000FF;stroke-width:1.0;" x1="1011" x2="1011" y1="395.3438" y2="415.6406"/><line style="stroke:#0000FF;stroke-width:1.0;" x1="535" x2="1464.3333" y1="415.6406" y2="415.6406"/><text fill="#000000" font-family="sans-serif" font-size="14" lengthAdjust="spacing" textLength="274" x="636" y="430.6357">Promoteur principal (Primary sponsor)</text><text fill="#000000" font-family="sans-serif" font-size="14" lengthAdjust="spacing" textLength="57" x="1016" y="430.6357">sponsor</text><text fill="#000000" font-family="sans-serif" font-size="14" font-style="italic" lengthAdjust="spacing" textLength="215" x="1081" y="430.6357">Reference(Organization) [0..1]</text><line style="stroke:#0000FF;stroke-width:1.0;" x1="1011" x2="1011" y1="415.6406" y2="435.9375"/><line style="stroke:#0000FF;stroke-width:1.0;" x1="535" x2="1464.3333" y1="435.9375" y2="435.9375"/><text fill="#000000" font-family="sans-serif" font-size="14" lengthAdjust="spacing" textLength="328" x="609" y="450.9326">Promoteur secondaire (Secondary Sponsor(s))</text><text fill="#000000" font-family="sans-serif" font-size="14" lengthAdjust="spacing" textLength="194" x="1016" y="450.9326">ECLAIRESecondarySponsor</text><path d="M1218.5,441.401 L1218.5,444.901 L1215,444.901 L1215,447.2344 L1218.5,447.2344 L1218.5,450.7344 L1220.8333,450.7344 L1220.8333,447.2344 L1224.3333,447.2344 L1224.3333,444.901 L1220.8333,444.901 L1220.8333,441.401 L1218.5,441.401 " fill="#000000" style="stroke:;stroke-width:0.0;stroke-dasharray:;"/><text fill="#000000" font-family="sans-serif" font-size="14" lengthAdjust="spacing" textLength="5" x="1229.3333" y="450.9326">:</text><text fill="#000000" font-family="sans-serif" font-size="14" font-style="italic" lengthAdjust="spacing" textLength="213" x="1242.3333" y="450.9326">Reference(Organization) [0..*]</text><line style="stroke:#0000FF;stroke-width:1.0;" x1="1011" x2="1011" y1="435.9375" y2="456.2344"/></g><!--link RS to Location--><g id="link_RS_Location"><path codeLine="62" d="M1210.31,468.9576 C1238.59,495.0646 1265.76,520.1386 1288.84,541.4386 " fill="none" id="RS-Location" style="stroke:#EE82EE;stroke-width:4.0;stroke-dasharray:7.0,7.0;"/><polygon fill="#EE82EE" points="1200.69,460.0856,1202.3872,467.0942,1209.5094,468.2231,1207.8122,461.2146,1200.69,460.0856" style="stroke:#EE82EE;stroke-width:4.0;"/><polygon fill="#EE82EE" points="1298.47,550.3276,1294.568,541.2847,1294.7953,546.937,1289.143,547.1643,1298.47,550.3276" style="stroke:#EE82EE;stroke-width:4.0;"/><line style="stroke:#EE82EE;stroke-width:4.0;" x1="1294.7953" x2="1288.915" y1="546.937" y2="541.5101"/></g><!--link RS to Group--><g id="link_RS_Group"><path codeLine="63" d="M756.416,468.3286 C737.863,483.1296 719.718,497.6066 702.605,511.2596 " fill="none" id="RS-Group" style="stroke:#90EE90;stroke-width:4.0;stroke-dasharray:7.0,7.0;"/><polygon fill="#90EE90" points="766.747,460.0856,759.5621,460.7003,757.3662,467.5689,764.551,466.9542,766.747,460.0856" style="stroke:#90EE90;stroke-width:4.0;"/><polygon fill="#90EE90" points="692.088,519.6506,701.6181,517.1651,695.9967,516.5326,696.6292,510.9112,692.088,519.6506" style="stroke:#90EE90;stroke-width:4.0;"/><line style="stroke:#90EE90;stroke-width:4.0;" x1="695.9967" x2="702.2505" y1="516.5326" y2="511.5426"/></g><!--link RS to Organization--><g id="link_RS_Organization"><path codeLine="64" d="M999.5,473.3896 C999.5,500.2506 999.5,525.8406 999.5,547.1306 " fill="none" id="RS-Organization" style="stroke:#FFD700;stroke-width:4.0;stroke-dasharray:7.0,7.0;"/><polygon fill="#FFD700" points="999.5,460.3256,995.5,466.3256,999.5,472.3256,1003.5,466.3256,999.5,460.3256" style="stroke:#FFD700;stroke-width:4.0;"/><polygon fill="#FFD700" points="999.5,560.1356,1003.5,551.1356,999.5,555.1356,995.5,551.1356,999.5,560.1356" style="stroke:#FFD700;stroke-width:4.0;"/><line style="stroke:#FFD700;stroke-width:4.0;" x1="999.5" x2="999.5" y1="555.1356" y2="547.1356"/></g><!--link slice_identifier to RS--><g id="link_slice_identifier_RS"><path codeLine="66" d="M491.543,273.3906 C503.283,273.3906 515.023,273.3906 526.763,273.3906 " fill="none" id="slice_identifier-RS" style="stroke:#ADD8E6;stroke-width:2.0;"/></g><!--link RS to Contact--><g id="link_RS_Contact"><path codeLine="67" d="M1472.22,273.3906 C1483.91,273.3906 1495.61,273.3906 1507.3,273.3906 " fill="none" id="RS-Contact" style="stroke:#ADD8E6;stroke-width:6.0;stroke-dasharray:1.0,3.0;"/></g><!--link Group to Organization--><!--reverse link Characteristic to Group--><g id="link_Characteristic_Group"><path codeLine="72" d="M324.201,633.0591 C338.467,634.2121 352.718,634.8906 366.5,634.8906 " fill="none" id="Characteristic-backto-Group" style="stroke:#90EE90;stroke-width:2.0;"/></g><!--reverse link Characteristic to Group--><g id="link_Characteristic_Group"><path codeLine="73" d="M307.71,649.3967 C327.295,652.7677 347.265,654.8906 366.5,654.8906 " fill="none" id="Characteristic-backto-Group-1" style="stroke:#90EE90;stroke-width:2.0;"/></g><!--link Group to Characteristic--><g id="link_Group_Characteristic"><path codeLine="74" d="M366.5,675.8906 C326.75,675.8906 284.942,663.7178 249.596,649.4528 " fill="none" id="Group-to-Characteristic" style="stroke:#90EE90;stroke-width:2.0;"/></g><!--SRC=[pLVTJYCt5BxFKrX1wYQ8dr9LlQ05AOG8qB8GPTXMLHHLpin9ukAn1zl3agtwBhridYClrcDxPk8P24BiJNE3vzZV-VyZfHbfzwKmD3RdO2ZZRK8rAIXaPqhZ- -CUPp6SyHn-NW1DG1rVi_d2HFTBH-DCmF4KJ-Il5i7VZKp9oIaHD0LoJ0uFYJQAYJaPVtzmS3H1WdjrjrxnzIgMQPeB5bF3fB0e0noGw8655aF9X77mNGid7h_Cm086_UlUrMZWdphYBzzbFDUd9Oi4w9G3tiUGcLA9JdkOJz6gzc4xYXa8msRuqNNS_swrKkkLo5fDME9lGI5ZJfUWzAbpaRRNVmJNx_7LLG6dQ626NefPHharYoL3nLAgbeN6prvhT9D8A5FWdqV-km3iJYepBfJCCwUnEnLgtWtwbpUtrxSNlzVql500uWNTd8ZAKkVPgyrt5PfDP18WSolEQMSinO5Y30SP7xaOd93s4BqfHRj4NdW4XfpDB0uFERh38QTISg0Y0D-f7De5SZ2RWKEj_o4AOfKRL0ivFEIeFJDBpoCNciq595V2DBAnhvXP_wj0Mr2ye0f5WsBQiDX3pz1fKobWm265C1iTl3U7zm4lGAXtGClOzcieNxbrHc-EjekHqyI6wENQEGfTzaWvvCx9UCfX_3JngFehU8gn68lYTXybzqP00wjkrPmAzjNr16TJI2WiEliSNTqCegYqvqBov1lpzcrzgvTWbcWNCvguit_SApwU1-bQnXjJoe_2Z4yOfUL8wgfR_ChGA-P_OqbG8SL4S1dYZur66yoG05jwOQ0rPNtiV-mXjrgDG0DLyI8oUR9qhXb5tzn2EsNJf28XcuvOF5bQ7zpawHIxJhVXqAgtRtUjdpldrBZkfjQhH-OIsq2yy5OXonJjF-1KcyzPWYyJpuu9RMZOTBRncc6fsVGGm7autaRmoE2BUr_pkfNH29GDFlBa7y1w75tY1Xt1BiZ1MUrEh-H5PAZ9JSW3GTeIVOA4FRo031TKGqsg2slP-3DxxMIxqwkJkJP4NkJc_iWPgeH4nnLB2kPIBRSptjH6bF-9zHNREoNMAzAv1ChDmkPlmgphEvWRKf6XaiWZjLzMEeEaM-I-V_QghCudE1_rkfLxCC2n3x36bedUrqwB5sLRuTkaRvOT_zvNcwxdn8j1FPSfnS8XPh5UAPf1Rcp6xWPCxnPGNCGz1VGDF4VhbSvJz64zLHBGiMBPnabOaVU9_28Qy25gmcmkPLN- -xIt5U5dk1jxOHKWbHbBnSq1iNKbCqzh55dPk3hbOOOEpdnHe67LzeUx0k91TyCMjwMrRT9fI1Kw3BSsOJJfV0HiDgASUBO93QhvPrSC543tI4JJpEO0- -gB0dS0oRcprSaRmGmKO49rt4BKROYyPf0_MNDoOQp2jXO2ppYM6cKrcPMZfzkCWvAfD7QMRpRGgf7gJ0ejbMVgptMkuMpkDds_OHsigvrDOuuyHqppCBsh- -Aw7kNNH1Tz6cTEQnGT7tjFxUwFT_nOtKkeNa2oPnOilXUOi2S_JlPFgvdiCBM0MkXcKze2zskr1rVsMgJTIRPWGjMzhiN4iLDYdyFCZ7Uu5Mn7NW3-OVBi_mw7BdDxFuGbqfYQw9ycPIwtMbxh_V629SXgqj38NoFVQYykb0gy4MfrsjWxIxnTZD-7z9ln_jjn-ECm1wmv8pDYPM8AXcFTESxHoco29mF25YTIT-sSmYqa-R1UFUJCRhUOOrYhmgnN1pD512E_NTwsK80Nyny0]--></g></svg>