<?xml version="1.0" encoding="us-ascii" standalone="no"?><svg xmlns="http://www.w3.org/2000/svg" xmlns:xlink="http://www.w3.org/1999/xlink" contentStyleType="text/css" height="722px" preserveAspectRatio="none" style="width:2212px;height:722px;background:#FFFFFF;" version="1.1" viewBox="0 0 2212 722" width="2212px" zoomAndPan="magnify"><defs/><g><rect fill="#DDDDDD" height="81.6406" id="_legend" rx="7.5" ry="7.5" style="stroke:#000000;stroke-width:1.0;" width="277" x="12" y="12"/><path d="M18,20.4635 L18,25.1302 L22.6667,25.1302 L22.6667,20.4635 L18,20.4635 M23.8333,22.7969 L23.8333,26.2969 L20.3333,26.2969 L20.3333,27.4635 L25,27.4635 L25,22.7969 L23.8333,22.7969 M26.1667,25.1302 L26.1667,28.6302 L22.6667,28.6302 L22.6667,29.7969 L27.3333,29.7969 L27.3333,25.1302 L26.1667,25.1302 " fill="#000000" style="stroke:;stroke-width:0.0;stroke-dasharray:;"/><text fill="#000000" font-family="sans-serif" font-size="14" lengthAdjust="spacing" textLength="41" x="32.3333" y="29.9951">: slice</text><path d="M21.5,36.7604 L21.5,40.2604 L18,40.2604 L18,42.5938 L21.5,42.5938 L21.5,46.0938 L23.8333,46.0938 L23.8333,42.5938 L27.3333,42.5938 L27.3333,40.2604 L23.8333,40.2604 L23.8333,36.7604 L21.5,36.7604 " fill="#000000" style="stroke:;stroke-width:0.0;stroke-dasharray:;"/><text fill="#000000" font-family="sans-serif" font-size="14" lengthAdjust="spacing" textLength="80" x="32.3333" y="46.292">: extension</text><ellipse cx="22.5" cy="58.3906" fill="#000000" rx="2.5" ry="2.5" style="stroke:#000000;stroke-width:0.0;"/><text fill="#000000" font-family="sans-serif" font-size="14" lengthAdjust="spacing" textLength="255" x="29" y="62.5889">: pas d'&#233;quivalence Sant&#233;.fr ni WHO</text><path d="M18.5476,86.3073 C17.4731,86.3073 16.9994,85.5268 17.4941,84.573 L26.5993,67.041 C27.0946,66.0872 27.9048,66.0872 28.4001,67.041 L37.5053,84.5736 C38.0012,85.5268 37.5269,86.3073 36.4524,86.3073 L18.5476,86.3073 " fill="#FFCC4D" style="stroke:;stroke-width:0.0;stroke-dasharray:;"/><path d="M26.0901,82.7799 C26.0901,82.0023 26.723,81.3694 27.5012,81.3694 C28.2788,81.3694 28.9117,82.0023 28.9117,82.7799 C28.9117,83.558 28.2782,84.191 27.5012,84.191 C26.723,84.191 26.0901,83.558 26.0901,82.7799 M26.1986,72.109 C26.1986,71.3495 26.7592,70.8793 27.5006,70.8793 C28.2245,70.8793 28.8032,71.3675 28.8032,72.109 L28.8032,79.0728 C28.8032,79.8142 28.2245,80.3025 27.5006,80.3025 C26.7592,80.3025 26.1986,79.8317 26.1986,79.0728 L26.1986,72.109 " fill="#231F20" style="stroke:;stroke-width:0.0;stroke-dasharray:;"/><text fill="#000000" font-family="sans-serif" font-size="14" lengthAdjust="spacing" textLength="103" x="42" y="85.3389">: en discussion</text><g id="elem_Contact"><rect fill="#F0F8FF" height="81.1875" style="stroke:#0000FF;stroke-width:0.5;" width="662.3333" x="1543.5" y="258.6406"/><rect fill="#87CEFA" height="20.2969" style="stroke:#0000FF;stroke-width:0.5;" width="662.3333" x="1543.5" y="258.6406"/><text fill="#000000" font-family="sans-serif" font-size="14" lengthAdjust="spacing" textLength="101" x="1824.1667" y="273.6357">ContactDetail</text><line style="stroke:#0000FF;stroke-width:1.0;" x1="1543.5" x2="2205.8333" y1="278.9375" y2="278.9375"/><text fill="#000000" font-family="sans-serif" font-size="14" lengthAdjust="spacing" textLength="33" x="1603" y="293.9326">Nom</text><text fill="#000000" font-family="sans-serif" font-size="14" lengthAdjust="spacing" textLength="49" x="1700.5" y="293.9326">name :</text><text fill="#000000" font-family="sans-serif" font-size="14" font-style="italic" lengthAdjust="spacing" textLength="80" x="1757.5" y="293.9326">string [0..1]</text><line style="stroke:#0000FF;stroke-width:1.0;" x1="1695.5" x2="1695.5" y1="278.9375" y2="299.2344"/><line style="stroke:#0000FF;stroke-width:1.0;" x1="1543.5" x2="2205.8333" y1="299.2344" y2="299.2344"/><text fill="#000000" font-family="sans-serif" font-size="14" lengthAdjust="spacing" textLength="142" x="1548.5" y="314.2295">T&#233;l&#233;communication</text><text fill="#000000" font-family="sans-serif" font-size="14" lengthAdjust="spacing" textLength="69" x="1700.5" y="314.2295">telecom :</text><text fill="#000000" font-family="sans-serif" font-size="14" font-style="italic" lengthAdjust="spacing" textLength="128" x="1777.5" y="314.2295">ContactPoint [0..*]</text><line style="stroke:#0000FF;stroke-width:1.0;" x1="1695.5" x2="1695.5" y1="299.2344" y2="319.5313"/><line style="stroke:#0000FF;stroke-width:1.0;" x1="1543.5" x2="2205.8333" y1="319.5313" y2="319.5313"/><text fill="#000000" font-family="sans-serif" font-size="14" lengthAdjust="spacing" textLength="36" x="1601.5" y="334.5264">Type</text><text fill="#000000" font-family="sans-serif" font-size="14" lengthAdjust="spacing" textLength="147" x="1700.5" y="334.5264">ECLAIREContacType</text><path d="M1856,324.9948 L1856,328.4948 L1852.5,328.4948 L1852.5,330.8281 L1856,330.8281 L1856,334.3281 L1858.3333,334.3281 L1858.3333,330.8281 L1861.8333,330.8281 L1861.8333,328.4948 L1858.3333,328.4948 L1858.3333,324.9948 L1856,324.9948 " fill="#000000" style="stroke:;stroke-width:0.0;stroke-dasharray:;"/><text fill="#000000" font-family="sans-serif" font-size="14" lengthAdjust="spacing" textLength="5" x="1866.8333" y="334.5264">:</text><text fill="#000000" font-family="sans-serif" font-size="14" font-style="italic" lengthAdjust="spacing" textLength="317" x="1879.8333" y="334.5264">CodeableConcept [0..1] ("Public"/"Scientific")</text><line style="stroke:#0000FF;stroke-width:1.0;" x1="1695.5" x2="1695.5" y1="319.5313" y2="339.8281"/></g><g id="elem_slice_identifier"><rect fill="#F0F8FF" height="60.8906" style="stroke:#0000FF;stroke-width:0.5;" width="306" x="205.5" y="269.1406"/><rect fill="#87CEFA" height="20.2969" style="stroke:#0000FF;stroke-width:0.5;" width="306" x="205.5" y="269.1406"/><text fill="#000000" font-family="sans-serif" font-size="14" lengthAdjust="spacing" textLength="105" x="298.3333" y="284.1357">Slice identifier</text><path d="M408.3333,274.6042 L408.3333,279.2708 L413,279.2708 L413,274.6042 L408.3333,274.6042 M414.1667,276.9375 L414.1667,280.4375 L410.6667,280.4375 L410.6667,281.6042 L415.3333,281.6042 L415.3333,276.9375 L414.1667,276.9375 M416.5,279.2708 L416.5,282.7708 L413,282.7708 L413,283.9375 L417.6667,283.9375 L417.6667,279.2708 L416.5,279.2708 " fill="#000000" style="stroke:;stroke-width:0.0;stroke-dasharray:;"/><line style="stroke:#0000FF;stroke-width:1.0;" x1="205.5" x2="511.5" y1="289.4375" y2="289.4375"/><text fill="#000000" font-family="sans-serif" font-size="14" lengthAdjust="spacing" textLength="143" x="218" y="304.4326">Identifiant principal</text><text fill="#000000" font-family="sans-serif" font-size="14" lengthAdjust="spacing" textLength="110" x="378.5" y="304.4326">idPrimary [0..1]</text><line style="stroke:#0000FF;stroke-width:1.0;" x1="373.5" x2="373.5" y1="289.4375" y2="309.7344"/><line style="stroke:#0000FF;stroke-width:1.0;" x1="205.5" x2="511.5" y1="309.7344" y2="309.7344"/><text fill="#000000" font-family="sans-serif" font-size="14" lengthAdjust="spacing" textLength="158" x="210.5" y="324.7295">Identifiant secondaire</text><text fill="#000000" font-family="sans-serif" font-size="14" lengthAdjust="spacing" textLength="128" x="378.5" y="324.7295">idSecondary [0..*]</text><line style="stroke:#0000FF;stroke-width:1.0;" x1="373.5" x2="373.5" y1="309.7344" y2="330.0313"/></g><g id="elem_Group"><rect fill="#C9FFC9" height="162.375" style="stroke:#181818;stroke-width:0.5;" width="438" x="367.5" y="552.6406"/><rect fill="#90EE90" height="20.2969" style="stroke:#181818;stroke-width:0.5;" width="438" x="367.5" y="552.6406"/><text fill="#000000" font-family="sans-serif" font-size="14" lengthAdjust="spacing" textLength="44" x="564.5" y="567.6357">Group</text><line style="stroke:#181818;stroke-width:1.0;" x1="367.5" x2="805.5" y1="572.9375" y2="572.9375"/><text fill="#000000" font-family="sans-serif" font-size="14" lengthAdjust="spacing" textLength="76" x="399.5" y="587.9326">Identifiant</text><text fill="#000000" font-family="sans-serif" font-size="14" lengthAdjust="spacing" textLength="76" x="512.5" y="587.9326">identifier :</text><text fill="#000000" font-family="sans-serif" font-size="14" font-style="italic" lengthAdjust="spacing" textLength="102" x="596.5" y="587.9326">Identifier [0..*]</text><line style="stroke:#181818;stroke-width:1.0;" x1="507.5" x2="507.5" y1="572.9375" y2="593.2344"/><line style="stroke:#181818;stroke-width:1.0;" x1="367.5" x2="805.5" y1="593.2344" y2="593.2344"/><text fill="#000000" font-family="sans-serif" font-size="14" lengthAdjust="spacing" textLength="113" x="381" y="608.2295">Type de groupe</text><text fill="#000000" font-family="sans-serif" font-size="14" lengthAdjust="spacing" textLength="43" x="512.5" y="608.2295">type :</text><text fill="#000000" font-family="sans-serif" font-size="14" font-style="italic" lengthAdjust="spacing" textLength="155" x="563.5" y="608.2295">code [1..1] = "Person"</text><line style="stroke:#181818;stroke-width:1.0;" x1="507.5" x2="507.5" y1="593.2344" y2="613.5313"/><line style="stroke:#181818;stroke-width:1.0;" x1="367.5" x2="805.5" y1="613.5313" y2="613.5313"/><text fill="#000000" font-family="sans-serif" font-size="14" lengthAdjust="spacing" textLength="90" x="392.5" y="628.5264">Groupe actif</text><text fill="#000000" font-family="sans-serif" font-size="14" lengthAdjust="spacing" textLength="52" x="512.5" y="628.5264">actual :</text><text fill="#000000" font-family="sans-serif" font-size="14" font-style="italic" lengthAdjust="spacing" textLength="163" x="572.5" y="628.5264">boolean [1..1] = "True"</text><line style="stroke:#181818;stroke-width:1.0;" x1="507.5" x2="507.5" y1="613.5313" y2="633.8281"/><line style="stroke:#181818;stroke-width:1.0;" x1="367.5" x2="805.5" y1="633.8281" y2="633.8281"/><text fill="#000000" font-family="sans-serif" font-size="14" lengthAdjust="spacing" textLength="130" x="372.5" y="648.8232">Effectif &#224; recruter</text><text fill="#000000" font-family="sans-serif" font-size="14" lengthAdjust="spacing" textLength="69" x="512.5" y="648.8232">quantity :</text><text fill="#000000" font-family="sans-serif" font-size="14" font-style="italic" lengthAdjust="spacing" textLength="123" x="589.5" y="648.8232">unsignedInt [0..1]</text><line style="stroke:#181818;stroke-width:1.0;" x1="507.5" x2="507.5" y1="633.8281" y2="654.125"/><line style="stroke:#181818;stroke-width:1.0;" x1="367.5" x2="805.5" y1="654.125" y2="654.125"/><text fill="#000000" font-family="sans-serif" font-size="14" lengthAdjust="spacing" textLength="58" x="408.5" y="669.1201">Crit&#232;res</text><text fill="#000000" font-family="sans-serif" font-size="14" lengthAdjust="spacing" textLength="108" x="512.5" y="669.1201">characteristic :</text><text fill="#000000" font-family="sans-serif" font-size="14" font-style="italic" lengthAdjust="spacing" textLength="168" x="628.5" y="669.1201">BackboneElement [0..*]</text><line style="stroke:#181818;stroke-width:1.0;" x1="507.5" x2="507.5" y1="654.125" y2="674.4219"/><line style="stroke:#181818;stroke-width:1.0;" x1="367.5" x2="805.5" y1="674.4219" y2="674.4219"/><text fill="#000000" font-family="sans-serif" font-size="14" lengthAdjust="spacing" textLength="28" x="423.5" y="689.417">Age</text><text fill="#000000" font-family="sans-serif" font-size="14" lengthAdjust="spacing" textLength="108" x="512.5" y="689.417">characteristic :</text><text fill="#000000" font-family="sans-serif" font-size="14" font-style="italic" lengthAdjust="spacing" textLength="168" x="628.5" y="689.417">BackboneElement [0..*]</text><line style="stroke:#181818;stroke-width:1.0;" x1="507.5" x2="507.5" y1="674.4219" y2="694.7188"/><line style="stroke:#181818;stroke-width:1.0;" x1="367.5" x2="805.5" y1="694.7188" y2="694.7188"/><text fill="#000000" font-family="sans-serif" font-size="14" lengthAdjust="spacing" textLength="44" x="415.5" y="709.7139">Genre</text><text fill="#000000" font-family="sans-serif" font-size="14" lengthAdjust="spacing" textLength="108" x="512.5" y="709.7139">characteristic :</text><text fill="#000000" font-family="sans-serif" font-size="14" font-style="italic" lengthAdjust="spacing" textLength="168" x="628.5" y="709.7139">BackboneElement [0..*]</text><line style="stroke:#181818;stroke-width:1.0;" x1="507.5" x2="507.5" y1="694.7188" y2="715.0156"/></g><g id="elem_Characteristic"><rect fill="#C9FFC9" height="81.1875" style="stroke:#181818;stroke-width:0.5;" width="309" x="7" y="593.1406"/><rect fill="#90EE90" height="20.2969" style="stroke:#181818;stroke-width:0.5;" width="309" x="7" y="593.1406"/><text fill="#000000" font-family="sans-serif" font-size="14" lengthAdjust="spacing" textLength="101" x="111" y="608.1357">Characteristic</text><line style="stroke:#181818;stroke-width:1.0;" x1="7" x2="316" y1="613.4375" y2="613.4375"/><text fill="#000000" font-family="sans-serif" font-size="14" lengthAdjust="spacing" textLength="34" x="28" y="628.4326">type</text><text fill="#000000" font-family="sans-serif" font-size="14" lengthAdjust="spacing" textLength="44" x="88" y="628.4326">code :</text><text fill="#000000" font-family="sans-serif" font-size="14" font-style="italic" lengthAdjust="spacing" textLength="167" x="140" y="628.4326">CodeableConcept [1..1]</text><line style="stroke:#181818;stroke-width:1.0;" x1="83" x2="83" y1="613.4375" y2="633.7344"/><line style="stroke:#181818;stroke-width:1.0;" x1="7" x2="316" y1="633.7344" y2="633.7344"/><text fill="#000000" font-family="sans-serif" font-size="14" lengthAdjust="spacing" textLength="43" x="23.5" y="648.7295">valeur</text><text fill="#000000" font-family="sans-serif" font-size="14" lengthAdjust="spacing" textLength="64" x="88" y="648.7295">value[x] :</text><text fill="#000000" font-family="sans-serif" font-size="14" font-style="italic" lengthAdjust="spacing" textLength="36" x="160" y="648.7295">[1..1]</text><line style="stroke:#181818;stroke-width:1.0;" x1="83" x2="83" y1="633.7344" y2="654.0313"/><line style="stroke:#181818;stroke-width:1.0;" x1="7" x2="316" y1="654.0313" y2="654.0313"/><text fill="#000000" font-family="sans-serif" font-size="14" lengthAdjust="spacing" textLength="66" x="12" y="669.0264">exclusion</text><text fill="#000000" font-family="sans-serif" font-size="14" lengthAdjust="spacing" textLength="64" x="88" y="669.0264">exclude :</text><text fill="#000000" font-family="sans-serif" font-size="14" font-style="italic" lengthAdjust="spacing" textLength="98" x="160" y="669.0264">boolean [1..1]</text><line style="stroke:#181818;stroke-width:1.0;" x1="83" x2="83" y1="654.0313" y2="674.3281"/></g><g id="elem_Organization"><rect fill="#FFFFCC" height="101.4844" style="stroke:#181818;stroke-width:0.5;" width="341" x="857" y="583.1406"/><rect fill="#FFD700" height="20.2969" style="stroke:#181818;stroke-width:0.5;" width="341" x="857" y="583.1406"/><text fill="#000000" font-family="sans-serif" font-size="14" lengthAdjust="spacing" textLength="92" x="981.5" y="598.1357">Organization</text><line style="stroke:#181818;stroke-width:1.0;" x1="857" x2="1198" y1="603.4375" y2="603.4375"/><text fill="#000000" font-family="sans-serif" font-size="14" lengthAdjust="spacing" textLength="76" x="862" y="618.4326">Identifiant</text><text fill="#000000" font-family="sans-serif" font-size="14" lengthAdjust="spacing" textLength="76" x="948" y="618.4326">identifier :</text><text fill="#000000" font-family="sans-serif" font-size="14" font-style="italic" lengthAdjust="spacing" textLength="102" x="1032" y="618.4326">Identifier [0..*]</text><line style="stroke:#181818;stroke-width:1.0;" x1="943" x2="943" y1="603.4375" y2="623.7344"/><line style="stroke:#181818;stroke-width:1.0;" x1="857" x2="1198" y1="623.7344" y2="623.7344"/><text fill="#000000" font-family="sans-serif" font-size="14" lengthAdjust="spacing" textLength="33" x="883.5" y="638.7295">Nom</text><text fill="#000000" font-family="sans-serif" font-size="14" lengthAdjust="spacing" textLength="49" x="948" y="638.7295">name :</text><text fill="#000000" font-family="sans-serif" font-size="14" font-style="italic" lengthAdjust="spacing" textLength="80" x="1005" y="638.7295">string [0..1]</text><line style="stroke:#181818;stroke-width:1.0;" x1="943" x2="943" y1="623.7344" y2="644.0313"/><line style="stroke:#181818;stroke-width:1.0;" x1="857" x2="1198" y1="644.0313" y2="644.0313"/><text fill="#000000" font-family="sans-serif" font-size="14" lengthAdjust="spacing" textLength="57" x="871.5" y="659.0264">Adresse</text><text fill="#000000" font-family="sans-serif" font-size="14" lengthAdjust="spacing" textLength="64" x="948" y="659.0264">address :</text><text fill="#000000" font-family="sans-serif" font-size="14" font-style="italic" lengthAdjust="spacing" textLength="95" x="1020" y="659.0264">Address [0..*]</text><line style="stroke:#181818;stroke-width:1.0;" x1="943" x2="943" y1="644.0313" y2="664.3281"/><line style="stroke:#181818;stroke-width:1.0;" x1="857" x2="1198" y1="664.3281" y2="664.3281"/><text fill="#000000" font-family="sans-serif" font-size="14" lengthAdjust="spacing" textLength="58" x="871" y="679.3232">Contact</text><text fill="#000000" font-family="sans-serif" font-size="14" lengthAdjust="spacing" textLength="65" x="948" y="679.3232">contact :</text><text fill="#000000" font-family="sans-serif" font-size="14" font-style="italic" lengthAdjust="spacing" textLength="168" x="1021" y="679.3232">BackboneElement [0..*]</text><line style="stroke:#181818;stroke-width:1.0;" x1="943" x2="943" y1="664.3281" y2="684.625"/></g><g id="elem_Location"><rect fill="#FFE4E1" height="107.9375" style="stroke:#181818;stroke-width:0.5;" width="375.3333" x="1249" y="580.1406"/><rect fill="#EE82EE" height="20.2969" style="stroke:#181818;stroke-width:0.5;" width="375.3333" x="1249" y="580.1406"/><text fill="#000000" font-family="sans-serif" font-size="14" lengthAdjust="spacing" textLength="62" x="1405.6667" y="595.1357">Location</text><line style="stroke:#181818;stroke-width:1.0;" x1="1249" x2="1624.3333" y1="600.4375" y2="600.4375"/><text fill="#000000" font-family="sans-serif" font-size="14" lengthAdjust="spacing" textLength="76" x="1254" y="615.4326">Identifiant</text><text fill="#000000" font-family="sans-serif" font-size="14" lengthAdjust="spacing" textLength="76" x="1340" y="615.4326">identifier :</text><text fill="#000000" font-family="sans-serif" font-size="14" font-style="italic" lengthAdjust="spacing" textLength="102" x="1424" y="615.4326">Identifier [0..*]</text><line style="stroke:#181818;stroke-width:1.0;" x1="1335" x2="1335" y1="600.4375" y2="620.7344"/><line style="stroke:#181818;stroke-width:1.0;" x1="1249" x2="1624.3333" y1="620.7344" y2="620.7344"/><text fill="#000000" font-family="sans-serif" font-size="14" lengthAdjust="spacing" textLength="33" x="1275.5" y="635.7295">Nom</text><text fill="#000000" font-family="sans-serif" font-size="14" lengthAdjust="spacing" textLength="49" x="1340" y="635.7295">name :</text><text fill="#000000" font-family="sans-serif" font-size="14" font-style="italic" lengthAdjust="spacing" textLength="80" x="1397" y="635.7295">string [0..1]</text><line style="stroke:#181818;stroke-width:1.0;" x1="1335" x2="1335" y1="620.7344" y2="641.0313"/><line style="stroke:#181818;stroke-width:1.0;" x1="1249" x2="1624.3333" y1="641.0313" y2="641.0313"/><text fill="#000000" font-family="sans-serif" font-size="14" lengthAdjust="spacing" textLength="57" x="1263.5" y="656.0264">Adresse</text><text fill="#000000" font-family="sans-serif" font-size="14" lengthAdjust="spacing" textLength="64" x="1340" y="656.0264">address :</text><text fill="#000000" font-family="sans-serif" font-size="14" font-style="italic" lengthAdjust="spacing" textLength="97" x="1412" y="656.0264">Address [0..1]</text><line style="stroke:#181818;stroke-width:1.0;" x1="1335" x2="1335" y1="641.0313" y2="661.3281"/><line style="stroke:#181818;stroke-width:1.0;" x1="1249" x2="1624.3333" y1="661.3281" y2="661.3281"/><text fill="#000000" font-family="sans-serif" font-size="14" lengthAdjust="spacing" textLength="58" x="1263" y="676.3232">Contact</text><path d="M1341.5476,683.7448 C1340.4731,683.7448 1339.9994,682.9643 1340.4941,682.0105 L1349.5993,664.4785 C1350.0946,663.5247 1350.9048,663.5247 1351.4001,664.4785 L1360.5053,682.0111 C1361.0012,682.9643 1360.5269,683.7448 1359.4524,683.7448 L1341.5476,683.7448 " fill="#FFCC4D" style="stroke:;stroke-width:0.0;stroke-dasharray:;"/><path d="M1349.0901,680.2174 C1349.0901,679.4398 1349.723,678.8069 1350.5012,678.8069 C1351.2788,678.8069 1351.9117,679.4398 1351.9117,680.2174 C1351.9117,680.9955 1351.2782,681.6285 1350.5012,681.6285 C1349.723,681.6285 1349.0901,680.9955 1349.0901,680.2174 M1349.1986,669.5465 C1349.1986,668.787 1349.7592,668.3168 1350.5006,668.3168 C1351.2245,668.3168 1351.8032,668.805 1351.8032,669.5465 L1351.8032,676.5103 C1351.8032,677.2517 1351.2245,677.74 1350.5006,677.74 C1349.7592,677.74 1349.1986,677.2692 1349.1986,676.5103 L1349.1986,669.5465 " fill="#231F20" style="stroke:;stroke-width:0.0;stroke-dasharray:;"/><text fill="#000000" font-family="sans-serif" font-size="14" lengthAdjust="spacing" textLength="56" x="1365" y="682.7764">contact</text><path d="M1429.5,673.2448 L1429.5,676.7448 L1426,676.7448 L1426,679.0781 L1429.5,679.0781 L1429.5,682.5781 L1431.8333,682.5781 L1431.8333,679.0781 L1435.3333,679.0781 L1435.3333,676.7448 L1431.8333,676.7448 L1431.8333,673.2448 L1429.5,673.2448 " fill="#000000" style="stroke:;stroke-width:0.0;stroke-dasharray:;"/><text fill="#000000" font-family="sans-serif" font-size="14" lengthAdjust="spacing" textLength="5" x="1440.3333" y="682.7764">:</text><text fill="#000000" font-family="sans-serif" font-size="14" font-style="italic" lengthAdjust="spacing" textLength="137" x="1453.3333" y="682.7764">ContactDetail [0..1]</text><text fill="#000000" font-family="sans-serif" font-size="14" lengthAdjust="spacing" textLength="4" x="1594.3333" y="682.7764">&#160;</text><path d="M1599.8809,683.7448 C1598.8064,683.7448 1598.3328,682.9643 1598.8274,682.0105 L1607.9327,664.4785 C1608.4279,663.5247 1609.2382,663.5247 1609.7334,664.4785 L1618.8387,682.0111 C1619.3345,682.9643 1618.8603,683.7448 1617.7858,683.7448 L1599.8809,683.7448 " fill="#FFCC4D" style="stroke:;stroke-width:0.0;stroke-dasharray:;"/><path d="M1607.4234,680.2174 C1607.4234,679.4398 1608.0563,678.8069 1608.8345,678.8069 C1609.6121,678.8069 1610.245,679.4398 1610.245,680.2174 C1610.245,680.9955 1609.6115,681.6285 1608.8345,681.6285 C1608.0563,681.6285 1607.4234,680.9955 1607.4234,680.2174 M1607.5319,669.5465 C1607.5319,668.787 1608.0925,668.3168 1608.8339,668.3168 C1609.5578,668.3168 1610.1365,668.805 1610.1365,669.5465 L1610.1365,676.5103 C1610.1365,677.2517 1609.5578,677.74 1608.8339,677.74 C1608.0925,677.74 1607.5319,677.2692 1607.5319,676.5103 L1607.5319,669.5465 " fill="#231F20" style="stroke:;stroke-width:0.0;stroke-dasharray:;"/><line style="stroke:#181818;stroke-width:1.0;" x1="1335" x2="1335" y1="661.3281" y2="688.0781"/></g><g id="elem_RS"><rect fill="#F0F8FF" height="371.7969" style="stroke:#0000FF;stroke-width:0.5;" width="929.3333" x="563" y="113.6406"/><rect fill="#87CEFA" height="20.2969" style="stroke:#0000FF;stroke-width:0.5;" width="929.3333" x="563" y="113.6406"/><text fill="#000000" font-family="sans-serif" font-size="14" lengthAdjust="spacing" textLength="212" x="921.6667" y="128.6357">EssaiClinique : ResearchStudy</text><line style="stroke:#0000FF;stroke-width:1.0;" x1="563" x2="1492.3333" y1="133.9375" y2="133.9375"/><text fill="#000000" font-family="sans-serif" font-size="14" lengthAdjust="spacing" textLength="404" x="599" y="148.9326">Identifiant (Primary and Secondary Identifying Numbers)</text><text fill="#000000" font-family="sans-serif" font-size="14" lengthAdjust="spacing" textLength="67" x="1044" y="148.9326">identifier</text><path d="M1116,139.401 L1116,144.0677 L1120.6667,144.0677 L1120.6667,139.401 L1116,139.401 M1121.8333,141.7344 L1121.8333,145.2344 L1118.3333,145.2344 L1118.3333,146.401 L1123,146.401 L1123,141.7344 L1121.8333,141.7344 M1124.1667,144.0677 L1124.1667,147.5677 L1120.6667,147.5677 L1120.6667,148.7344 L1125.3333,148.7344 L1125.3333,144.0677 L1124.1667,144.0677 " fill="#000000" style="stroke:;stroke-width:0.0;stroke-dasharray:;"/><text fill="#000000" font-family="sans-serif" font-size="14" lengthAdjust="spacing" textLength="5" x="1130.3333" y="148.9326">:</text><text fill="#000000" font-family="sans-serif" font-size="14" font-style="italic" lengthAdjust="spacing" textLength="102" x="1143.3333" y="148.9326">Identifier [0..*]</text><line style="stroke:#0000FF;stroke-width:1.0;" x1="1039" x2="1039" y1="133.9375" y2="154.2344"/><line style="stroke:#0000FF;stroke-width:1.0;" x1="563" x2="1492.3333" y1="154.2344" y2="154.2344"/><text fill="#000000" font-family="sans-serif" font-size="14" lengthAdjust="spacing" textLength="193" x="704.5" y="169.2295">Date de r&#233;vision technique</text><text fill="#000000" font-family="sans-serif" font-size="14" lengthAdjust="spacing" textLength="139" x="1044" y="169.2295">meta.lastUpdated :</text><text fill="#000000" font-family="sans-serif" font-size="14" font-style="italic" lengthAdjust="spacing" textLength="88" x="1191" y="169.2295">instant [0..1]</text><line style="stroke:#0000FF;stroke-width:1.0;" x1="1039" x2="1039" y1="154.2344" y2="174.5313"/><line style="stroke:#0000FF;stroke-width:1.0;" x1="563" x2="1492.3333" y1="174.5313" y2="174.5313"/><text fill="#000000" font-family="sans-serif" font-size="14" lengthAdjust="spacing" textLength="217" x="692.5" y="189.5264">Date de r&#233;vision fonctionnelle</text><text fill="#000000" font-family="sans-serif" font-size="14" lengthAdjust="spacing" textLength="146" x="1044" y="189.5264">ECLAIREReviewDate</text><path d="M1198.5,179.9948 L1198.5,183.4948 L1195,183.4948 L1195,185.8281 L1198.5,185.8281 L1198.5,189.3281 L1200.8333,189.3281 L1200.8333,185.8281 L1204.3333,185.8281 L1204.3333,183.4948 L1200.8333,183.4948 L1200.8333,179.9948 L1198.5,179.9948 " fill="#000000" style="stroke:;stroke-width:0.0;stroke-dasharray:;"/><text fill="#000000" font-family="sans-serif" font-size="14" lengthAdjust="spacing" textLength="5" x="1209.3333" y="189.5264">:</text><text fill="#000000" font-family="sans-serif" font-size="14" font-style="italic" lengthAdjust="spacing" textLength="72" x="1222.3333" y="189.5264">date [0..1]</text><line style="stroke:#0000FF;stroke-width:1.0;" x1="1039" x2="1039" y1="174.5313" y2="194.8281"/><line style="stroke:#0000FF;stroke-width:1.0;" x1="563" x2="1492.3333" y1="194.8281" y2="194.8281"/><text fill="#000000" font-family="sans-serif" font-size="14" lengthAdjust="spacing" textLength="194" x="704" y="209.8232">Nom de l'essai (Public title)</text><text fill="#000000" font-family="sans-serif" font-size="14" lengthAdjust="spacing" textLength="40" x="1044" y="209.8232">title :</text><text fill="#000000" font-family="sans-serif" font-size="14" font-style="italic" lengthAdjust="spacing" textLength="80" x="1092" y="209.8232">string [0..1]</text><line style="stroke:#0000FF;stroke-width:1.0;" x1="1039" x2="1039" y1="194.8281" y2="215.125"/><line style="stroke:#0000FF;stroke-width:1.0;" x1="563" x2="1492.3333" y1="215.125" y2="215.125"/><text fill="#000000" font-family="sans-serif" font-size="14" lengthAdjust="spacing" textLength="115" x="743.5" y="230.1201">Statut de l'essai</text><path d="M1045.5476,237.5417 C1044.4731,237.5417 1043.9994,236.7612 1044.4941,235.8074 L1053.5993,218.2753 C1054.0946,217.3216 1054.9048,217.3216 1055.4001,218.2753 L1064.5053,235.808 C1065.0012,236.7612 1064.5269,237.5417 1063.4524,237.5417 L1045.5476,237.5417 " fill="#FFCC4D" style="stroke:;stroke-width:0.0;stroke-dasharray:;"/><path d="M1053.0901,234.0143 C1053.0901,233.2367 1053.723,232.6038 1054.5012,232.6038 C1055.2788,232.6038 1055.9117,233.2367 1055.9117,234.0143 C1055.9117,234.7924 1055.2782,235.4253 1054.5012,235.4253 C1053.723,235.4253 1053.0901,234.7924 1053.0901,234.0143 M1053.1986,223.3433 C1053.1986,222.5838 1053.7592,222.1137 1054.5006,222.1137 C1055.2245,222.1137 1055.8032,222.6019 1055.8032,223.3433 L1055.8032,230.3072 C1055.8032,231.0486 1055.2245,231.5368 1054.5006,231.5368 C1053.7592,231.5368 1053.1986,231.0661 1053.1986,230.3072 L1053.1986,223.3433 " fill="#231F20" style="stroke:;stroke-width:0.0;stroke-dasharray:;"/><text fill="#000000" font-family="sans-serif" font-size="14" lengthAdjust="spacing" textLength="53" x="1069" y="236.5732">status :</text><text fill="#000000" font-family="sans-serif" font-size="14" font-style="italic" lengthAdjust="spacing" textLength="75" x="1126" y="236.5732">code [1..1]</text><text fill="#000000" font-family="sans-serif" font-size="14" lengthAdjust="spacing" textLength="4" x="1205" y="236.5732">&#160;</text><path d="M1210.5476,237.5417 C1209.4731,237.5417 1208.9994,236.7612 1209.4941,235.8074 L1218.5993,218.2753 C1219.0946,217.3216 1219.9048,217.3216 1220.4001,218.2753 L1229.5053,235.808 C1230.0012,236.7612 1229.5269,237.5417 1228.4524,237.5417 L1210.5476,237.5417 " fill="#FFCC4D" style="stroke:;stroke-width:0.0;stroke-dasharray:;"/><path d="M1218.0901,234.0143 C1218.0901,233.2367 1218.723,232.6038 1219.5012,232.6038 C1220.2788,232.6038 1220.9117,233.2367 1220.9117,234.0143 C1220.9117,234.7924 1220.2782,235.4253 1219.5012,235.4253 C1218.723,235.4253 1218.0901,234.7924 1218.0901,234.0143 M1218.1986,223.3433 C1218.1986,222.5838 1218.7592,222.1137 1219.5006,222.1137 C1220.2245,222.1137 1220.8032,222.6019 1220.8032,223.3433 L1220.8032,230.3072 C1220.8032,231.0486 1220.2245,231.5368 1219.5006,231.5368 C1218.7592,231.5368 1218.1986,231.0661 1218.1986,230.3072 L1218.1986,223.3433 " fill="#231F20" style="stroke:;stroke-width:0.0;stroke-dasharray:;"/><line style="stroke:#0000FF;stroke-width:1.0;" x1="1039" x2="1039" y1="215.125" y2="241.875"/><line style="stroke:#0000FF;stroke-width:1.0;" x1="563" x2="1492.3333" y1="241.875" y2="241.875"/><text fill="#000000" font-family="sans-serif" font-size="14" lengthAdjust="spacing" textLength="260" x="671" y="256.8701">Phase de l'essai (Study type : phase)</text><text fill="#000000" font-family="sans-serif" font-size="14" lengthAdjust="spacing" textLength="52" x="1044" y="256.8701">phase :</text><text fill="#000000" font-family="sans-serif" font-size="14" font-style="italic" lengthAdjust="spacing" textLength="167" x="1104" y="256.8701">CodeableConcept [0..1]</text><line style="stroke:#0000FF;stroke-width:1.0;" x1="1039" x2="1039" y1="241.875" y2="262.1719"/><line style="stroke:#0000FF;stroke-width:1.0;" x1="563" x2="1492.3333" y1="262.1719" y2="262.1719"/><text fill="#000000" font-family="sans-serif" font-size="14" lengthAdjust="spacing" textLength="290" x="656" y="277.167">Type d'essai (Study type : type of study)</text><text fill="#000000" font-family="sans-serif" font-size="14" lengthAdjust="spacing" textLength="73" x="1044" y="277.167">category :</text><text fill="#000000" font-family="sans-serif" font-size="14" font-style="italic" lengthAdjust="spacing" textLength="165" x="1125" y="277.167">CodeableConcept [0..*]</text><line style="stroke:#0000FF;stroke-width:1.0;" x1="1039" x2="1039" y1="262.1719" y2="282.4688"/><line style="stroke:#0000FF;stroke-width:1.0;" x1="563" x2="1492.3333" y1="282.4688" y2="282.4688"/><text fill="#000000" font-family="sans-serif" font-size="14" lengthAdjust="spacing" textLength="420" x="591" y="297.4639">Sujet concern&#233; (Health Condition(s) or Problem(s) Studied)</text><text fill="#000000" font-family="sans-serif" font-size="14" lengthAdjust="spacing" textLength="77" x="1044" y="297.4639">condition :</text><text fill="#000000" font-family="sans-serif" font-size="14" font-style="italic" lengthAdjust="spacing" textLength="231" x="1129" y="297.4639">CodeableConcept [0..*] (MeDRA)</text><line style="stroke:#0000FF;stroke-width:1.0;" x1="1039" x2="1039" y1="282.4688" y2="302.7656"/><line style="stroke:#0000FF;stroke-width:1.0;" x1="563" x2="1492.3333" y1="302.7656" y2="302.7656"/><text fill="#000000" font-family="sans-serif" font-size="14" lengthAdjust="spacing" textLength="466" x="568" y="317.7607">Pr&#233;cision sur le sujet (Health Condition(s)  or  Problem(s) Studied)</text><text fill="#000000" font-family="sans-serif" font-size="14" lengthAdjust="spacing" textLength="180" x="1044" y="317.7607">ECLAIREConditionDetails</text><path d="M1232.5,308.2292 L1232.5,311.7292 L1229,311.7292 L1229,314.0625 L1232.5,314.0625 L1232.5,317.5625 L1234.8333,317.5625 L1234.8333,314.0625 L1238.3333,314.0625 L1238.3333,311.7292 L1234.8333,311.7292 L1234.8333,308.2292 L1232.5,308.2292 " fill="#000000" style="stroke:;stroke-width:0.0;stroke-dasharray:;"/><text fill="#000000" font-family="sans-serif" font-size="14" lengthAdjust="spacing" textLength="5" x="1243.3333" y="317.7607">:</text><text fill="#000000" font-family="sans-serif" font-size="14" font-style="italic" lengthAdjust="spacing" textLength="80" x="1256.3333" y="317.7607">string [0..1]</text><line style="stroke:#0000FF;stroke-width:1.0;" x1="1039" x2="1039" y1="302.7656" y2="323.0625"/><line style="stroke:#0000FF;stroke-width:1.0;" x1="563" x2="1492.3333" y1="323.0625" y2="323.0625"/><text fill="#000000" font-family="sans-serif" font-size="14" lengthAdjust="spacing" textLength="178" x="712" y="338.0576">Domaine th&#233;rapeutique*</text><text fill="#000000" font-family="sans-serif" font-size="14" lengthAdjust="spacing" textLength="180" x="1044" y="338.0576">ECLAIRETherapeuticArea</text><path d="M1232.5,328.526 L1232.5,332.026 L1229,332.026 L1229,334.3594 L1232.5,334.3594 L1232.5,337.8594 L1234.8333,337.8594 L1234.8333,334.3594 L1238.3333,334.3594 L1238.3333,332.026 L1234.8333,332.026 L1234.8333,328.526 L1232.5,328.526 " fill="#000000" style="stroke:;stroke-width:0.0;stroke-dasharray:;"/><text fill="#000000" font-family="sans-serif" font-size="14" lengthAdjust="spacing" textLength="5" x="1243.3333" y="338.0576">:</text><text fill="#000000" font-family="sans-serif" font-size="14" font-style="italic" lengthAdjust="spacing" textLength="80" x="1256.3333" y="338.0576">string [0..1]</text><line style="stroke:#0000FF;stroke-width:1.0;" x1="1039" x2="1039" y1="323.0625" y2="343.3594"/><line style="stroke:#0000FF;stroke-width:1.0;" x1="563" x2="1492.3333" y1="343.3594" y2="343.3594"/><text fill="#000000" font-family="sans-serif" font-size="14" lengthAdjust="spacing" textLength="126" x="738" y="358.3545">R&#233;sum&#233; de l'essai</text><text fill="#000000" font-family="sans-serif" font-size="14" lengthAdjust="spacing" textLength="91" x="1044" y="358.3545">description :</text><text fill="#000000" font-family="sans-serif" font-size="14" font-style="italic" lengthAdjust="spacing" textLength="115" x="1143" y="358.3545">markdown [0..1]</text><line style="stroke:#0000FF;stroke-width:1.0;" x1="1039" x2="1039" y1="343.3594" y2="363.6563"/><line style="stroke:#0000FF;stroke-width:1.0;" x1="563" x2="1492.3333" y1="363.6563" y2="363.6563"/><text fill="#000000" font-family="sans-serif" font-size="14" lengthAdjust="spacing" textLength="278" x="662" y="378.6514">P&#233;riode pr&#233;visionnelle de recrutement</text><text fill="#000000" font-family="sans-serif" font-size="14" lengthAdjust="spacing" textLength="197" x="1044" y="378.6514">ECLAIRERecruitmentPeriod</text><path d="M1249.5,369.1198 L1249.5,372.6198 L1246,372.6198 L1246,374.9531 L1249.5,374.9531 L1249.5,378.4531 L1251.8333,378.4531 L1251.8333,374.9531 L1255.3333,374.9531 L1255.3333,372.6198 L1251.8333,372.6198 L1251.8333,369.1198 L1249.5,369.1198 " fill="#000000" style="stroke:;stroke-width:0.0;stroke-dasharray:;"/><text fill="#000000" font-family="sans-serif" font-size="14" lengthAdjust="spacing" textLength="5" x="1260.3333" y="378.6514">:</text><text fill="#000000" font-family="sans-serif" font-size="14" font-style="italic" lengthAdjust="spacing" textLength="86" x="1273.3333" y="378.6514">period [0..1]</text><line style="stroke:#0000FF;stroke-width:1.0;" x1="1039" x2="1039" y1="363.6563" y2="383.9531"/><line style="stroke:#0000FF;stroke-width:1.0;" x1="563" x2="1492.3333" y1="383.9531" y2="383.9531"/><text fill="#000000" font-family="sans-serif" font-size="14" lengthAdjust="spacing" textLength="338" x="632" y="398.9482">Contact (Contact for public / scientific queries)</text><text fill="#000000" font-family="sans-serif" font-size="14" lengthAdjust="spacing" textLength="65" x="1044" y="398.9482">contact :</text><text fill="#000000" font-family="sans-serif" font-size="14" font-style="italic" lengthAdjust="spacing" textLength="135" x="1117" y="398.9482">ContactDetail [0..*]</text><line style="stroke:#0000FF;stroke-width:1.0;" x1="1039" x2="1039" y1="383.9531" y2="404.25"/><line style="stroke:#0000FF;stroke-width:1.0;" x1="563" x2="1492.3333" y1="404.25" y2="404.25"/><text fill="#000000" font-family="sans-serif" font-size="14" lengthAdjust="spacing" textLength="446" x="578" y="419.2451">Participants (Key Inclusion and Exclusion Criteria, Sample size)</text><text fill="#000000" font-family="sans-serif" font-size="14" lengthAdjust="spacing" textLength="89" x="1044" y="419.2451">enrollment :</text><text fill="#000000" font-family="sans-serif" font-size="14" font-style="italic" lengthAdjust="spacing" textLength="166" x="1141" y="419.2451">Reference(Group) [0..*]</text><line style="stroke:#0000FF;stroke-width:1.0;" x1="1039" x2="1039" y1="404.25" y2="424.5469"/><line style="stroke:#0000FF;stroke-width:1.0;" x1="563" x2="1492.3333" y1="424.5469" y2="424.5469"/><text fill="#000000" font-family="sans-serif" font-size="14" lengthAdjust="spacing" textLength="234" x="684" y="439.542">Lieux (Countries of Recruitment)</text><text fill="#000000" font-family="sans-serif" font-size="14" lengthAdjust="spacing" textLength="36" x="1044" y="439.542">site :</text><text fill="#000000" font-family="sans-serif" font-size="14" font-style="italic" lengthAdjust="spacing" textLength="185" x="1088" y="439.542">Reference(Location) [0..1]</text><line style="stroke:#0000FF;stroke-width:1.0;" x1="1039" x2="1039" y1="424.5469" y2="444.8438"/><line style="stroke:#0000FF;stroke-width:1.0;" x1="563" x2="1492.3333" y1="444.8438" y2="444.8438"/><text fill="#000000" font-family="sans-serif" font-size="14" lengthAdjust="spacing" textLength="274" x="664" y="459.8389">Promoteur principal (Primary sponsor)</text><text fill="#000000" font-family="sans-serif" font-size="14" lengthAdjust="spacing" textLength="57" x="1044" y="459.8389">sponsor</text><text fill="#000000" font-family="sans-serif" font-size="14" font-style="italic" lengthAdjust="spacing" textLength="215" x="1109" y="459.8389">Reference(Organization) [0..1]</text><line style="stroke:#0000FF;stroke-width:1.0;" x1="1039" x2="1039" y1="444.8438" y2="465.1406"/><line style="stroke:#0000FF;stroke-width:1.0;" x1="563" x2="1492.3333" y1="465.1406" y2="465.1406"/><text fill="#000000" font-family="sans-serif" font-size="14" lengthAdjust="spacing" textLength="328" x="637" y="480.1357">Promoteur secondaire (Secondary Sponsor(s))</text><text fill="#000000" font-family="sans-serif" font-size="14" lengthAdjust="spacing" textLength="194" x="1044" y="480.1357">ECLAIRESecondarySponsor</text><path d="M1246.5,470.6042 L1246.5,474.1042 L1243,474.1042 L1243,476.4375 L1246.5,476.4375 L1246.5,479.9375 L1248.8333,479.9375 L1248.8333,476.4375 L1252.3333,476.4375 L1252.3333,474.1042 L1248.8333,474.1042 L1248.8333,470.6042 L1246.5,470.6042 " fill="#000000" style="stroke:;stroke-width:0.0;stroke-dasharray:;"/><text fill="#000000" font-family="sans-serif" font-size="14" lengthAdjust="spacing" textLength="5" x="1257.3333" y="480.1357">:</text><text fill="#000000" font-family="sans-serif" font-size="14" font-style="italic" lengthAdjust="spacing" textLength="213" x="1270.3333" y="480.1357">Reference(Organization) [0..*]</text><line style="stroke:#0000FF;stroke-width:1.0;" x1="1039" x2="1039" y1="465.1406" y2="485.4375"/></g><!--link RS to Location--><g id="link_RS_Location"><path codeLine="63" d="M1269.99,497.2776 C1301.06,522.5306 1330.91,546.7976 1356.54,567.6376 " fill="none" id="RS-Location" style="stroke:#EE82EE;stroke-width:4.0;stroke-dasharray:7.0,7.0;"/><polygon fill="#EE82EE" points="1259.49,488.7356,1261.6231,495.624,1268.802,496.3044,1266.6689,489.416,1259.49,488.7356" style="stroke:#EE82EE;stroke-width:4.0;"/><polygon fill="#EE82EE" points="1366.89,576.0496,1362.4295,567.2687,1363.0102,572.8957,1357.3832,573.4764,1366.89,576.0496" style="stroke:#EE82EE;stroke-width:4.0;"/><line style="stroke:#EE82EE;stroke-width:4.0;" x1="1363.0102" x2="1356.8" y1="572.8957" y2="567.8491"/></g><!--link RS to Group--><g id="link_RS_Group"><path codeLine="64" d="M766.687,496.7856 C746.562,511.9596 726.9,526.7836 708.405,540.7286 " fill="none" id="RS-Group" style="stroke:#90EE90;stroke-width:4.0;stroke-dasharray:7.0,7.0;"/><polygon fill="#90EE90" points="777.364,488.7356,770.165,489.1537,767.7821,495.9597,774.981,495.5416,777.364,488.7356" style="stroke:#90EE90;stroke-width:4.0;"/><polygon fill="#90EE90" points="697.955,548.6066,707.5493,546.3817,701.9472,545.5963,702.7327,539.9942,697.955,548.6066" style="stroke:#90EE90;stroke-width:4.0;"/><line style="stroke:#90EE90;stroke-width:4.0;" x1="701.9472" x2="708.3355" y1="545.5963" y2="540.7806"/></g><!--link RS to Organization--><g id="link_RS_Organization"><path codeLine="65" d="M1027.5,501.8576 C1027.5,524.7936 1027.5,546.7856 1027.5,565.9746 " fill="none" id="RS-Organization" style="stroke:#FFD700;stroke-width:4.0;stroke-dasharray:7.0,7.0;"/><polygon fill="#FFD700" points="1027.5,488.7356,1023.5,494.7356,1027.5,500.7356,1031.5,494.7356,1027.5,488.7356" style="stroke:#FFD700;stroke-width:4.0;"/><polygon fill="#FFD700" points="1027.5,579.1066,1031.5,570.1066,1027.5,574.1066,1023.5,570.1066,1027.5,579.1066" style="stroke:#FFD700;stroke-width:4.0;"/><line style="stroke:#FFD700;stroke-width:4.0;" x1="1027.5" x2="1027.5" y1="574.1066" y2="566.1066"/></g><!--link slice_identifier to RS--><g id="link_slice_identifier_RS"><path codeLine="67" d="M519.543,299.1406 C531.283,299.1406 543.023,299.1406 554.763,299.1406 " fill="none" id="slice_identifier-RS" style="stroke:#ADD8E6;stroke-width:2.0;"/></g><!--link RS to Contact--><g id="link_RS_Contact"><path codeLine="68" d="M1500.22,299.1406 C1511.91,299.1406 1523.61,299.1406 1535.3,299.1406 " fill="none" id="RS-Contact" style="stroke:#ADD8E6;stroke-width:6.0;stroke-dasharray:1.0,3.0;"/></g><!--link Group to Organization--><!--reverse link Characteristic to Group--><g id="link_Characteristic_Group"><path codeLine="73" d="M324.201,661.8091 C338.467,662.9621 352.718,663.6406 366.5,663.6406 " fill="none" id="Characteristic-backto-Group" style="stroke:#90EE90;stroke-width:2.0;"/></g><!--reverse link Characteristic to Group--><g id="link_Characteristic_Group"><path codeLine="74" d="M307.71,678.1467 C327.295,681.5177 347.265,683.6406 366.5,683.6406 " fill="none" id="Characteristic-backto-Group-1" style="stroke:#90EE90;stroke-width:2.0;"/></g><!--link Group to Characteristic--><g id="link_Group_Characteristic"><path codeLine="75" d="M366.5,704.6406 C326.75,704.6406 284.942,692.4678 249.596,678.2028 " fill="none" id="Group-to-Characteristic" style="stroke:#90EE90;stroke-width:2.0;"/></g><!--SRC=[pLTRRzis57xtho1SOBM39bs6OGzU6y1DZ3HOcXXMkc48Z86MZcqk4gcIL1jts7_Pu_mx_CTs3gaBfLmGf2_BIwX3VkT-SyPprZzMqlBOde3b8kqpRbX9OIyMFBuPZLCHmxkqW9_Nm1FGetEnMjlePkDegP0mMk29_TLZ-7UXClRsY4cU0Hknrw-PiLh85Rl-_k3WS8u4z-fgjqrtsrXbMI55pArGab0MKa2Y1vPQJ9MGri7t2CuyVfC30IR7v-EpsSG_TSGtt-LfOOug5WdmHGfu7qDkAoK6_McnGAlwh_jHB41QiSIFeUF-Tw-NaLSYifg9nD-2HiOftu0sHyv5Xgx_2AwVuwkp4ixHm1oz58kSfsIMIAPQP5nlIetll3Re9fbmeS4_Z_nt2TYRrsQSQbNaJcDtAjMycXo_lxWylppzlQNdgGQGz-ZcHDIMEi-UDTzrQ9h89C1M9CvfPudYG366WrqVkXYyPVqfUbF9VeKyzGWCkLWI3Wy5kiCX5qgbm6K0lj85z4laPBa4XzhzmpJ4kh2e5dBuLA3smcuyZq8QiPAGd4dRoSPZBUpkNms6GF6QQnGDMXWhOWzzXqvRA0cJ5388iz71noju7l0Kf7u6j8hjSGlbAxVDwCdHTZ5ocb28xg-Tmz1bdtaAXNCodWgulfrxLFiLtCPOZ6Lnku-AUoUWWLMNUiMb-EfwWhCf99GMlViOdLrCegYovrIboJVcxTFwrZZ1B34kPZnnP_zuN7wqULPzrFdL7vyOsdCLDmweFahZFs1iDpDbwXxpgq1Vsl-D_OVtsVzcz8LhYGn7ZIywhJgOGWsV45XxPs8C5yVOJSMdWhITWG6kutLaYsJZN3QBlhaX3weMp6N2clvQFjcGRowAR84zRDXnT3qf7dQvds8dtBfUgNVRpyALYOLuxQr2bXdwuY3bndxC4toPU7P26il35lOGhoKMBgMDX3GDX-KCFWluujwt8a0oEW6af42UwKiWZwDBtDXas5DJS5QxqoFv4bbk2nlowEI2eGS-YSBfq0ayiPgkkO6MDYxSrNZ9wThfv4wFpl_MgBgNc_kdbgWU4XrNB45OARrvc75JIr7n9zPZJ7TQxhPiy1vuQjUKuucWa0mmPvHcKwsGHqPV95r0CYnxXN_sgAp11pYPZOULp2a6FlQ1DzYOCIh6QN6lR1B-aFHcfVBlVKMQTgxS6-mJbN4iA6RNkwtcEHIMCdalO7grXl8Y7clWJ-0vssrDaQ4FsocKW8cro1idOQNU9EgBxC2dg8cWlChhkl3bG9NYDmNNWSFgGAgmHCNz1B5j9NDFwnHVrUW6rM693ivziQ1XzOw96mdYmGplZ8IxxQz9fodNw33S3QKrRF0BO1EIrLobvZIffomjCYY0ls8HptBA0V7L5mLk6YfDdQrEtWoMe04JQk3Mhc57vBc0ufRCAQGbXQaM0iyubWPbTPbLeshOZODMcRAqCJHxRjrWJQwaKTepzUSsrt0367Pztx0Ebk91qx0Zpn7JF4pl-hwyRaVvCT5b_yPPr9j5ev7trDx-zGi_XbybtAmXUMNN8hwHcB1lVvpl7zKpt65Q0ILeiuyz0FVBkmVNzXAIDfy7CA7gNjTo4j7qs4zXQQzVf2IOHc40_c5-vzUDGrUvlH_24cLjI_HFyogNUpslzVxrMYJ8QjxHo5yZtthxBfKAl15gTTJPRYiyhT_FG_hzU__fk5ulXHLWoLcLCnA96HXEU-StHwkI2MujIAfDfExHcCBb97cvstug1AtGc69OgjBkjWTBpQHWlxs_97mm8P67P8amSM4S7nJlbVWF]--></g></svg>