<?xml version="1.0" encoding="us-ascii" standalone="no"?><svg xmlns="http://www.w3.org/2000/svg" xmlns:xlink="http://www.w3.org/1999/xlink" contentStyleType="text/css" height="1279px" preserveAspectRatio="none" style="width:1292px;height:1279px;background:#FFFFFF;" version="1.1" viewBox="0 0 1292 1279" width="1292px" zoomAndPan="magnify"><defs/><g><rect fill="#DDDDDD" height="81.6406" id="_legend" rx="7.5" ry="7.5" style="stroke:#000000;stroke-width:1.0;" width="276" x="12" y="12"/><path d="M18,20.4635 L18,25.1302 L22.6667,25.1302 L22.6667,20.4635 L18,20.4635 M23.8333,22.7969 L23.8333,26.2969 L20.3333,26.2969 L20.3333,27.4635 L25,27.4635 L25,22.7969 L23.8333,22.7969 M26.1667,25.1302 L26.1667,28.6302 L22.6667,28.6302 L22.6667,29.7969 L27.3333,29.7969 L27.3333,25.1302 L26.1667,25.1302 " fill="#000000" style="stroke:;stroke-width:0.0;stroke-dasharray:;"/><text fill="#000000" font-family="sans-serif" font-size="14" lengthAdjust="spacing" textLength="41" x="32.3333" y="29.9951">: slice</text><path d="M21.5,36.7604 L21.5,40.2604 L18,40.2604 L18,42.5938 L21.5,42.5938 L21.5,46.0938 L23.8333,46.0938 L23.8333,42.5938 L27.3333,42.5938 L27.3333,40.2604 L23.8333,40.2604 L23.8333,36.7604 L21.5,36.7604 " fill="#000000" style="stroke:;stroke-width:0.0;stroke-dasharray:;"/><text fill="#000000" font-family="sans-serif" font-size="14" lengthAdjust="spacing" textLength="80" x="32.3333" y="46.292">: extension</text><text fill="#000000" font-family="sans-serif" font-size="14" lengthAdjust="spacing" textLength="266" x="17" y="62.5889">* : pas d'&#233;quivalence Sant&#233;.fr ni WHO</text><path d="M18.5476,86.3073 C17.4731,86.3073 16.9994,85.5268 17.4941,84.573 L26.5993,67.041 C27.0946,66.0872 27.9048,66.0872 28.4001,67.041 L37.5053,84.5736 C38.0012,85.5268 37.5269,86.3073 36.4524,86.3073 L18.5476,86.3073 " fill="#FFCC4D" style="stroke:;stroke-width:0.0;stroke-dasharray:;"/><path d="M26.0901,82.7799 C26.0901,82.0023 26.723,81.3694 27.5012,81.3694 C28.2788,81.3694 28.9117,82.0023 28.9117,82.7799 C28.9117,83.558 28.2782,84.191 27.5012,84.191 C26.723,84.191 26.0901,83.558 26.0901,82.7799 M26.1986,72.109 C26.1986,71.3495 26.7592,70.8793 27.5006,70.8793 C28.2245,70.8793 28.8032,71.3675 28.8032,72.109 L28.8032,79.0728 C28.8032,79.8142 28.2245,80.3025 27.5006,80.3025 C26.7592,80.3025 26.1986,79.8317 26.1986,79.0728 L26.1986,72.109 " fill="#231F20" style="stroke:;stroke-width:0.0;stroke-dasharray:;"/><text fill="#000000" font-family="sans-serif" font-size="14" lengthAdjust="spacing" textLength="103" x="42" y="85.3389">: en discussion</text><g id="elem_Contact"><rect fill="#F0F8FF" height="138.0781" style="stroke:#0000FF;stroke-width:0.5;" width="517.3333" x="411" y="274.6406"/><rect fill="#87CEFA" height="20.2969" style="stroke:#0000FF;stroke-width:0.5;" width="517.3333" x="411" y="274.6406"/><text fill="#000000" font-family="sans-serif" font-size="14" lengthAdjust="spacing" textLength="101" x="619.1667" y="289.6357">ContactDetail</text><line style="stroke:#0000FF;stroke-width:1.0;" x1="411" x2="928.3333" y1="294.9375" y2="294.9375"/><text fill="#000000" font-family="sans-serif" font-size="14" lengthAdjust="spacing" textLength="33" x="470.5" y="309.9326">Nom</text><path d="M572.5,300.401 L572.5,303.901 L569,303.901 L569,306.2344 L572.5,306.2344 L572.5,309.7344 L574.8333,309.7344 L574.8333,306.2344 L578.3333,306.2344 L578.3333,303.901 L574.8333,303.901 L574.8333,300.401 L572.5,300.401 " fill="#000000" style="stroke:;stroke-width:0.0;stroke-dasharray:;"/><text fill="#000000" font-family="sans-serif" font-size="14" lengthAdjust="spacing" textLength="304" x="583.3333" y="309.9326">ECLAIREContactName : HumanName [0..1]</text><line style="stroke:#0000FF;stroke-width:1.0;" x1="563" x2="563" y1="294.9375" y2="315.2344"/><line style="stroke:#0000FF;stroke-width:1.0;" x1="411" x2="928.3333" y1="315.2344" y2="315.2344"/><text fill="#000000" font-family="sans-serif" font-size="14" lengthAdjust="spacing" textLength="142" x="416" y="330.2295">T&#233;l&#233;communication</text><text fill="#000000" font-family="sans-serif" font-size="14" lengthAdjust="spacing" textLength="213" x="568" y="330.2295">telecom :  ContactPoint [0..*]</text><line style="stroke:#0000FF;stroke-width:1.0;" x1="563" x2="563" y1="315.2344" y2="335.5313"/><line style="stroke:#0000FF;stroke-width:1.0;" x1="411" x2="928.3333" y1="335.5313" y2="335.5313"/><text fill="#000000" font-family="sans-serif" font-size="14" lengthAdjust="spacing" textLength="36" x="469" y="350.5264">Type</text><path d="M572.5,340.9948 L572.5,344.4948 L569,344.4948 L569,346.8281 L572.5,346.8281 L572.5,350.3281 L574.8333,350.3281 L574.8333,346.8281 L578.3333,346.8281 L578.3333,344.4948 L574.8333,344.4948 L574.8333,340.9948 L572.5,340.9948 " fill="#000000" style="stroke:;stroke-width:0.0;stroke-dasharray:;"/><text fill="#000000" font-family="sans-serif" font-size="14" lengthAdjust="spacing" textLength="336" x="583.3333" y="350.5264">ECLAIREContacType :  CodeableConcept [0..1]</text><text fill="#000000" font-family="sans-serif" font-size="14" lengthAdjust="spacing" textLength="154" x="572" y="366.8232">("Public"/"Scientific")</text><line style="stroke:#0000FF;stroke-width:1.0;" x1="563" x2="563" y1="335.5313" y2="372.125"/><line style="stroke:#0000FF;stroke-width:1.0;" x1="411" x2="928.3333" y1="372.125" y2="372.125"/><text fill="#000000" font-family="sans-serif" font-size="14" lengthAdjust="spacing" textLength="57" x="458.5" y="387.1201">Adresse</text><path d="M572.5,377.5885 L572.5,381.0885 L569,381.0885 L569,383.4219 L572.5,383.4219 L572.5,386.9219 L574.8333,386.9219 L574.8333,383.4219 L578.3333,383.4219 L578.3333,381.0885 L574.8333,381.0885 L574.8333,377.5885 L572.5,377.5885 " fill="#000000" style="stroke:;stroke-width:0.0;stroke-dasharray:;"/><text fill="#000000" font-family="sans-serif" font-size="14" lengthAdjust="spacing" textLength="287" x="583.3333" y="387.1201">ECLAIREContactAddress : Address [0..1]</text><line style="stroke:#0000FF;stroke-width:1.0;" x1="563" x2="563" y1="372.125" y2="392.4219"/><line style="stroke:#0000FF;stroke-width:1.0;" x1="411" x2="928.3333" y1="392.4219" y2="392.4219"/><text fill="#000000" font-family="sans-serif" font-size="14" lengthAdjust="spacing" textLength="71" x="451.5" y="407.417">Affiliation</text><path d="M572.5,397.8854 L572.5,401.3854 L569,401.3854 L569,403.7188 L572.5,403.7188 L572.5,407.2188 L574.8333,407.2188 L574.8333,403.7188 L578.3333,403.7188 L578.3333,401.3854 L574.8333,401.3854 L574.8333,397.8854 L572.5,397.8854 " fill="#000000" style="stroke:;stroke-width:0.0;stroke-dasharray:;"/><text fill="#000000" font-family="sans-serif" font-size="14" lengthAdjust="spacing" textLength="286" x="583.3333" y="407.417">ECLAIREContactAffiliation : string [0..1]</text><line style="stroke:#0000FF;stroke-width:1.0;" x1="563" x2="563" y1="392.4219" y2="412.7188"/></g><g id="elem_slice_name"><rect fill="#F0F8FF" height="93.4844" style="stroke:#0000FF;stroke-width:0.5;" width="461.3333" x="439" y="113.6406"/><rect fill="#87CEFA" height="20.2969" style="stroke:#0000FF;stroke-width:0.5;" width="461.3333" x="439" y="113.6406"/><text fill="#000000" font-family="sans-serif" font-size="14" lengthAdjust="spacing" textLength="90" x="624.6667" y="128.6357">HumanName</text><line style="stroke:#0000FF;stroke-width:1.0;" x1="439" x2="900.3333" y1="133.9375" y2="133.9375"/><text fill="#000000" font-family="sans-serif" font-size="14" lengthAdjust="spacing" textLength="196" x="467" y="148.9326">Nom de famille (Last name)</text><text fill="#000000" font-family="sans-serif" font-size="14" lengthAdjust="spacing" textLength="141" x="696" y="148.9326">family : string [0..1]</text><line style="stroke:#0000FF;stroke-width:1.0;" x1="691" x2="691" y1="133.9375" y2="154.2344"/><line style="stroke:#0000FF;stroke-width:1.0;" x1="439" x2="900.3333" y1="154.2344" y2="154.2344"/><text fill="#000000" font-family="sans-serif" font-size="14" lengthAdjust="spacing" textLength="4" x="444" y="169.2295">&#160;</text><text fill="#000000" font-family="sans-serif" font-size="14" lengthAdjust="spacing" textLength="146" x="448" y="185.5264">Pr&#233;nom (First name)</text><text fill="#000000" font-family="sans-serif" font-size="14" lengthAdjust="spacing" textLength="238" x="448" y="201.8232">Deuxi&#232;me pr&#233;nom (Middle name)</text><text fill="#000000" font-family="sans-serif" font-size="14" lengthAdjust="spacing" textLength="134" x="696" y="169.2295">given : string [0..*]</text><text fill="#000000" font-family="sans-serif" font-size="14" lengthAdjust="spacing" textLength="16" x="696" y="185.5264">&#160;&#160;&#160;&#160;</text><path d="M713,175.9948 L713,180.6615 L717.6667,180.6615 L717.6667,175.9948 L713,175.9948 M718.8333,178.3281 L718.8333,181.8281 L715.3333,181.8281 L715.3333,182.9948 L720,182.9948 L720,178.3281 L718.8333,178.3281 M721.1667,180.6615 L721.1667,184.1615 L717.6667,184.1615 L717.6667,185.3281 L722.3333,185.3281 L722.3333,180.6615 L721.1667,180.6615 " fill="#000000" style="stroke:;stroke-width:0.0;stroke-dasharray:;"/><text fill="#000000" font-family="sans-serif" font-size="14" lengthAdjust="spacing" textLength="149" x="727.3333" y="185.5264">slice firstName [0..1]</text><text fill="#000000" font-family="sans-serif" font-size="14" lengthAdjust="spacing" textLength="16" x="696" y="201.8232">&#160;&#160;&#160;&#160;</text><path d="M713,192.2917 L713,196.9583 L717.6667,196.9583 L717.6667,192.2917 L713,192.2917 M718.8333,194.625 L718.8333,198.125 L715.3333,198.125 L715.3333,199.2917 L720,199.2917 L720,194.625 L718.8333,194.625 M721.1667,196.9583 L721.1667,200.4583 L717.6667,200.4583 L717.6667,201.625 L722.3333,201.625 L722.3333,196.9583 L721.1667,196.9583 " fill="#000000" style="stroke:;stroke-width:0.0;stroke-dasharray:;"/><text fill="#000000" font-family="sans-serif" font-size="14" lengthAdjust="spacing" textLength="168" x="727.3333" y="201.8232">slice middleName [0..1]</text><line style="stroke:#0000FF;stroke-width:1.0;" x1="691" x2="691" y1="154.2344" y2="207.125"/></g><g id="elem_slice_identifier"><rect fill="#F0F8FF" height="60.8906" style="stroke:#0000FF;stroke-width:0.5;" width="306" x="979.5" y="313.6406"/><rect fill="#87CEFA" height="20.2969" style="stroke:#0000FF;stroke-width:0.5;" width="306" x="979.5" y="313.6406"/><path d="M1073.3333,319.1042 L1073.3333,323.7708 L1078,323.7708 L1078,319.1042 L1073.3333,319.1042 M1079.1667,321.4375 L1079.1667,324.9375 L1075.6667,324.9375 L1075.6667,326.1042 L1080.3333,326.1042 L1080.3333,321.4375 L1079.1667,321.4375 M1081.5,323.7708 L1081.5,327.2708 L1078,327.2708 L1078,328.4375 L1082.6667,328.4375 L1082.6667,323.7708 L1081.5,323.7708 " fill="#000000" style="stroke:;stroke-width:0.0;stroke-dasharray:;"/><text fill="#000000" font-family="sans-serif" font-size="14" lengthAdjust="spacing" textLength="105" x="1087.6667" y="328.6357">Slice identifier</text><line style="stroke:#0000FF;stroke-width:1.0;" x1="979.5" x2="1285.5" y1="333.9375" y2="333.9375"/><text fill="#000000" font-family="sans-serif" font-size="14" lengthAdjust="spacing" textLength="143" x="992" y="348.9326">Identifiant principal</text><text fill="#000000" font-family="sans-serif" font-size="14" lengthAdjust="spacing" textLength="110" x="1152.5" y="348.9326">idPrimary [0..1]</text><line style="stroke:#0000FF;stroke-width:1.0;" x1="1147.5" x2="1147.5" y1="333.9375" y2="354.2344"/><line style="stroke:#0000FF;stroke-width:1.0;" x1="979.5" x2="1285.5" y1="354.2344" y2="354.2344"/><text fill="#000000" font-family="sans-serif" font-size="14" lengthAdjust="spacing" textLength="158" x="984.5" y="369.2295">Identifiant secondaire</text><text fill="#000000" font-family="sans-serif" font-size="14" lengthAdjust="spacing" textLength="128" x="1152.5" y="369.2295">idSecondary [0..*]</text><line style="stroke:#0000FF;stroke-width:1.0;" x1="1147.5" x2="1147.5" y1="354.2344" y2="374.5313"/></g><g id="elem_label"><rect fill="#F0F8FF" height="60.8906" style="stroke:#0000FF;stroke-width:0.5;" width="321" x="39" y="313.6406"/><rect fill="#87CEFA" height="20.2969" style="stroke:#0000FF;stroke-width:0.5;" width="321" x="39" y="313.6406"/><path d="M146.8333,319.1042 L146.8333,322.6042 L143.3333,322.6042 L143.3333,324.9375 L146.8333,324.9375 L146.8333,328.4375 L149.1667,328.4375 L149.1667,324.9375 L152.6667,324.9375 L152.6667,322.6042 L149.1667,322.6042 L149.1667,319.1042 L146.8333,319.1042 " fill="#000000" style="stroke:;stroke-width:0.0;stroke-dasharray:;"/><text fill="#000000" font-family="sans-serif" font-size="14" lengthAdjust="spacing" textLength="99" x="157.6667" y="328.6357">ECLAIRELabel</text><line style="stroke:#0000FF;stroke-width:1.0;" x1="39" x2="360" y1="333.9375" y2="333.9375"/><text fill="#000000" font-family="sans-serif" font-size="14" lengthAdjust="spacing" textLength="36" x="48.5" y="348.9326">Type</text><text fill="#000000" font-family="sans-serif" font-size="14" lengthAdjust="spacing" textLength="256" x="99" y="348.9326">labelType : CodeableConcept [0..1]</text><line style="stroke:#0000FF;stroke-width:1.0;" x1="94" x2="94" y1="333.9375" y2="354.2344"/><line style="stroke:#0000FF;stroke-width:1.0;" x1="39" x2="360" y1="354.2344" y2="354.2344"/><text fill="#000000" font-family="sans-serif" font-size="14" lengthAdjust="spacing" textLength="45" x="44" y="369.2295">Valeur</text><text fill="#000000" font-family="sans-serif" font-size="14" lengthAdjust="spacing" textLength="171" x="99" y="369.2295">labelValue : string [0..1]</text><line style="stroke:#0000FF;stroke-width:1.0;" x1="94" x2="94" y1="354.2344" y2="374.5313"/></g><g id="elem_Group"><rect fill="#C9FFC9" height="170.6719" style="stroke:#181818;stroke-width:0.5;" width="439" x="7" y="953.6406"/><rect fill="#90EE90" height="20.2969" style="stroke:#181818;stroke-width:0.5;" width="439" x="7" y="953.6406"/><text fill="#000000" font-family="sans-serif" font-size="14" lengthAdjust="spacing" textLength="44" x="204.5" y="968.6357">Group</text><line style="stroke:#181818;stroke-width:1.0;" x1="7" x2="446" y1="973.9375" y2="973.9375"/><text fill="#000000" font-family="sans-serif" font-size="14" lengthAdjust="spacing" textLength="83" x="35.5" y="988.9326">Identifiant*</text><text fill="#000000" font-family="sans-serif" font-size="14" lengthAdjust="spacing" textLength="187" x="152" y="988.9326">identifier : Identifier [0..*]</text><line style="stroke:#181818;stroke-width:1.0;" x1="147" x2="147" y1="973.9375" y2="994.2344"/><line style="stroke:#181818;stroke-width:1.0;" x1="7" x2="446" y1="994.2344" y2="994.2344"/><text fill="#000000" font-family="sans-serif" font-size="14" lengthAdjust="spacing" textLength="120" x="17" y="1009.2295">Type de groupe*</text><text fill="#000000" font-family="sans-serif" font-size="14" lengthAdjust="spacing" textLength="206" x="152" y="1009.2295">type : code [1..1] = "Person"</text><line style="stroke:#181818;stroke-width:1.0;" x1="147" x2="147" y1="994.2344" y2="1014.5313"/><line style="stroke:#181818;stroke-width:1.0;" x1="7" x2="446" y1="1014.5313" y2="1014.5313"/><text fill="#000000" font-family="sans-serif" font-size="14" lengthAdjust="spacing" textLength="97" x="28.5" y="1029.5264">Groupe actif*</text><text fill="#000000" font-family="sans-serif" font-size="14" lengthAdjust="spacing" textLength="221" x="152" y="1029.5264">actual : boolean [1..1] = "True"</text><line style="stroke:#181818;stroke-width:1.0;" x1="147" x2="147" y1="1014.5313" y2="1034.8281"/><line style="stroke:#181818;stroke-width:1.0;" x1="7" x2="446" y1="1034.8281" y2="1034.8281"/><text fill="#000000" font-family="sans-serif" font-size="14" lengthAdjust="spacing" textLength="130" x="12" y="1049.8232">Effectif &#224; recruter</text><text fill="#000000" font-family="sans-serif" font-size="14" lengthAdjust="spacing" textLength="199" x="152" y="1049.8232">quantity : unsignedInt [0..1]</text><line style="stroke:#181818;stroke-width:1.0;" x1="147" x2="147" y1="1034.8281" y2="1055.125"/><line style="stroke:#181818;stroke-width:1.0;" x1="7" x2="446" y1="1055.125" y2="1055.125"/><text fill="#000000" font-family="sans-serif" font-size="14" lengthAdjust="spacing" textLength="58" x="18" y="1070.1201">Crit&#232;res</text><text fill="#000000" font-family="sans-serif" font-size="14" lengthAdjust="spacing" textLength="28" x="22" y="1086.417">Age</text><text fill="#000000" font-family="sans-serif" font-size="14" lengthAdjust="spacing" textLength="44" x="22" y="1102.7139">Genre</text><text fill="#000000" font-family="sans-serif" font-size="14" lengthAdjust="spacing" textLength="114" x="22" y="1119.0107">Groupe de sujet</text><text fill="#000000" font-family="sans-serif" font-size="14" lengthAdjust="spacing" textLength="4" x="152" y="1070.1201">&#160;</text><text fill="#000000" font-family="sans-serif" font-size="14" lengthAdjust="spacing" textLength="285" x="156" y="1086.417">characteristic : BackboneElement [0..*]</text><line style="stroke:#181818;stroke-width:1.0;" x1="147" x2="147" y1="1055.125" y2="1124.3125"/></g><g id="elem_Characteristic"><rect fill="#C9FFC9" height="81.1875" style="stroke:#181818;stroke-width:0.5;" width="306" x="73.5" y="1191.6406"/><rect fill="#90EE90" height="20.2969" style="stroke:#181818;stroke-width:0.5;" width="306" x="73.5" y="1191.6406"/><text fill="#000000" font-family="sans-serif" font-size="14" lengthAdjust="spacing" textLength="101" x="176" y="1206.6357">Characteristic</text><line style="stroke:#181818;stroke-width:1.0;" x1="73.5" x2="379.5" y1="1211.9375" y2="1211.9375"/><text fill="#000000" font-family="sans-serif" font-size="14" lengthAdjust="spacing" textLength="36" x="93.5" y="1226.9326">Type</text><text fill="#000000" font-family="sans-serif" font-size="14" lengthAdjust="spacing" textLength="220" x="154.5" y="1226.9326">code : CodeableConcept [1..1]</text><line style="stroke:#181818;stroke-width:1.0;" x1="149.5" x2="149.5" y1="1211.9375" y2="1232.2344"/><line style="stroke:#181818;stroke-width:1.0;" x1="73.5" x2="379.5" y1="1232.2344" y2="1232.2344"/><text fill="#000000" font-family="sans-serif" font-size="14" lengthAdjust="spacing" textLength="45" x="89" y="1247.2295">Valeur</text><text fill="#000000" font-family="sans-serif" font-size="14" lengthAdjust="spacing" textLength="106" x="154.5" y="1247.2295">value[x] : [1..1]</text><line style="stroke:#181818;stroke-width:1.0;" x1="149.5" x2="149.5" y1="1232.2344" y2="1252.5313"/><line style="stroke:#181818;stroke-width:1.0;" x1="73.5" x2="379.5" y1="1252.5313" y2="1252.5313"/><text fill="#000000" font-family="sans-serif" font-size="14" lengthAdjust="spacing" textLength="66" x="78.5" y="1267.5264">Exclusion</text><text fill="#000000" font-family="sans-serif" font-size="14" lengthAdjust="spacing" textLength="168" x="154.5" y="1267.5264">exclude : boolean [1..1]</text><line style="stroke:#181818;stroke-width:1.0;" x1="149.5" x2="149.5" y1="1252.5313" y2="1272.8281"/></g><g id="elem_Organization"><rect fill="#FFFFCC" height="101.4844" style="stroke:#181818;stroke-width:0.5;" width="345" x="497" y="988.1406"/><rect fill="#FFD700" height="20.2969" style="stroke:#181818;stroke-width:0.5;" width="345" x="497" y="988.1406"/><text fill="#000000" font-family="sans-serif" font-size="14" lengthAdjust="spacing" textLength="92" x="623.5" y="1003.1357">Organization</text><line style="stroke:#181818;stroke-width:1.0;" x1="497" x2="842" y1="1008.4375" y2="1008.4375"/><text fill="#000000" font-family="sans-serif" font-size="14" lengthAdjust="spacing" textLength="83" x="502" y="1023.4326">Identifiant*</text><text fill="#000000" font-family="sans-serif" font-size="14" lengthAdjust="spacing" textLength="187" x="595" y="1023.4326">identifier : Identifier [0..*]</text><line style="stroke:#181818;stroke-width:1.0;" x1="590" x2="590" y1="1008.4375" y2="1028.7344"/><line style="stroke:#181818;stroke-width:1.0;" x1="497" x2="842" y1="1028.7344" y2="1028.7344"/><text fill="#000000" font-family="sans-serif" font-size="14" lengthAdjust="spacing" textLength="33" x="527" y="1043.7295">Nom</text><text fill="#000000" font-family="sans-serif" font-size="14" lengthAdjust="spacing" textLength="137" x="595" y="1043.7295">name : string [0..1]</text><line style="stroke:#181818;stroke-width:1.0;" x1="590" x2="590" y1="1028.7344" y2="1049.0313"/><line style="stroke:#181818;stroke-width:1.0;" x1="497" x2="842" y1="1049.0313" y2="1049.0313"/><text fill="#000000" font-family="sans-serif" font-size="14" lengthAdjust="spacing" textLength="57" x="515" y="1064.0264">Adresse</text><text fill="#000000" font-family="sans-serif" font-size="14" lengthAdjust="spacing" textLength="165" x="595" y="1064.0264">address : Address [0..*]</text><line style="stroke:#181818;stroke-width:1.0;" x1="590" x2="590" y1="1049.0313" y2="1069.3281"/><line style="stroke:#181818;stroke-width:1.0;" x1="497" x2="842" y1="1069.3281" y2="1069.3281"/><text fill="#000000" font-family="sans-serif" font-size="14" lengthAdjust="spacing" textLength="58" x="514.5" y="1084.3232">Contact</text><text fill="#000000" font-family="sans-serif" font-size="14" lengthAdjust="spacing" textLength="242" x="595" y="1084.3232">contact : BackboneElement [0..*]</text><line style="stroke:#181818;stroke-width:1.0;" x1="590" x2="590" y1="1069.3281" y2="1089.625"/></g><g id="elem_Location"><rect fill="#FFE4E1" height="101.4844" style="stroke:#181818;stroke-width:0.5;" width="312" x="893.5" y="988.1406"/><rect fill="#EE82EE" height="20.2969" style="stroke:#181818;stroke-width:0.5;" width="312" x="893.5" y="988.1406"/><text fill="#000000" font-family="sans-serif" font-size="14" lengthAdjust="spacing" textLength="62" x="1018.5" y="1003.1357">Location</text><line style="stroke:#181818;stroke-width:1.0;" x1="893.5" x2="1205.5" y1="1008.4375" y2="1008.4375"/><text fill="#000000" font-family="sans-serif" font-size="14" lengthAdjust="spacing" textLength="83" x="898.5" y="1023.4326">Identifiant*</text><text fill="#000000" font-family="sans-serif" font-size="14" lengthAdjust="spacing" textLength="187" x="991.5" y="1023.4326">identifier : Identifier [0..*]</text><line style="stroke:#181818;stroke-width:1.0;" x1="986.5" x2="986.5" y1="1008.4375" y2="1028.7344"/><line style="stroke:#181818;stroke-width:1.0;" x1="893.5" x2="1205.5" y1="1028.7344" y2="1028.7344"/><text fill="#000000" font-family="sans-serif" font-size="14" lengthAdjust="spacing" textLength="33" x="923.5" y="1043.7295">Nom</text><text fill="#000000" font-family="sans-serif" font-size="14" lengthAdjust="spacing" textLength="137" x="991.5" y="1043.7295">name : string [0..1]</text><line style="stroke:#181818;stroke-width:1.0;" x1="986.5" x2="986.5" y1="1028.7344" y2="1049.0313"/><line style="stroke:#181818;stroke-width:1.0;" x1="893.5" x2="1205.5" y1="1049.0313" y2="1049.0313"/><text fill="#000000" font-family="sans-serif" font-size="14" lengthAdjust="spacing" textLength="57" x="911.5" y="1064.0264">Adresse</text><text fill="#000000" font-family="sans-serif" font-size="14" lengthAdjust="spacing" textLength="167" x="991.5" y="1064.0264">address : Address [0..1]</text><line style="stroke:#181818;stroke-width:1.0;" x1="986.5" x2="986.5" y1="1049.0313" y2="1069.3281"/><line style="stroke:#181818;stroke-width:1.0;" x1="893.5" x2="1205.5" y1="1069.3281" y2="1069.3281"/><text fill="#000000" font-family="sans-serif" font-size="14" lengthAdjust="spacing" textLength="58" x="911" y="1084.3232">Contact</text><text fill="#000000" font-family="sans-serif" font-size="14" lengthAdjust="spacing" textLength="209" x="991.5" y="1084.3232">telecom : ContactPoint [0..*]</text><line style="stroke:#181818;stroke-width:1.0;" x1="986.5" x2="986.5" y1="1069.3281" y2="1089.625"/></g><g id="elem_Telecom"><rect fill="#FFE4E1" height="81.1875" style="stroke:#181818;stroke-width:0.5;" width="431.3333" x="834" y="1191.6406"/><rect fill="#EE82EE" height="20.2969" style="stroke:#181818;stroke-width:0.5;" width="431.3333" x="834" y="1191.6406"/><text fill="#000000" font-family="sans-serif" font-size="14" lengthAdjust="spacing" textLength="62" x="1018.6667" y="1206.6357">Telecom</text><line style="stroke:#181818;stroke-width:1.0;" x1="834" x2="1265.3333" y1="1211.9375" y2="1211.9375"/><text fill="#000000" font-family="sans-serif" font-size="14" lengthAdjust="spacing" textLength="63" x="839" y="1226.9326">Syst&#232;me</text><text fill="#000000" font-family="sans-serif" font-size="14" lengthAdjust="spacing" textLength="142" x="912" y="1226.9326">system : code [0..1]</text><line style="stroke:#181818;stroke-width:1.0;" x1="907" x2="907" y1="1211.9375" y2="1232.2344"/><line style="stroke:#181818;stroke-width:1.0;" x1="834" x2="1265.3333" y1="1232.2344" y2="1232.2344"/><text fill="#000000" font-family="sans-serif" font-size="14" lengthAdjust="spacing" textLength="45" x="848" y="1247.2295">Valeur</text><text fill="#000000" font-family="sans-serif" font-size="14" lengthAdjust="spacing" textLength="134" x="912" y="1247.2295">value : string [0..1]</text><line style="stroke:#181818;stroke-width:1.0;" x1="907" x2="907" y1="1232.2344" y2="1252.5313"/><line style="stroke:#181818;stroke-width:1.0;" x1="834" x2="1265.3333" y1="1252.5313" y2="1252.5313"/><text fill="#000000" font-family="sans-serif" font-size="14" lengthAdjust="spacing" textLength="33" x="854" y="1267.5264">Nom</text><path d="M916.5,1257.9948 L916.5,1261.4948 L913,1261.4948 L913,1263.8281 L916.5,1263.8281 L916.5,1267.3281 L918.8333,1267.3281 L918.8333,1263.8281 L922.3333,1263.8281 L922.3333,1261.4948 L918.8333,1261.4948 L918.8333,1257.9948 L916.5,1257.9948 " fill="#000000" style="stroke:;stroke-width:0.0;stroke-dasharray:;"/><text fill="#000000" font-family="sans-serif" font-size="14" lengthAdjust="spacing" textLength="333" x="927.3333" y="1267.5264">ECLAIRESiteContactName : HumanName [0..1]</text><line style="stroke:#181818;stroke-width:1.0;" x1="907" x2="907" y1="1252.5313" y2="1272.8281"/></g><g id="elem_RS"><rect fill="#F0F8FF" height="405.9375" style="stroke:#0000FF;stroke-width:0.5;" width="929.3333" x="205" y="480.6406"/><rect fill="#87CEFA" height="20.2969" style="stroke:#0000FF;stroke-width:0.5;" width="929.3333" x="205" y="480.6406"/><text fill="#000000" font-family="sans-serif" font-size="14" lengthAdjust="spacing" textLength="212" x="563.6667" y="495.6357">EssaiClinique : ResearchStudy</text><line style="stroke:#0000FF;stroke-width:1.0;" x1="205" x2="1134.3333" y1="500.9375" y2="500.9375"/><text fill="#000000" font-family="sans-serif" font-size="14" lengthAdjust="spacing" textLength="404" x="241" y="515.9326">Identifiant (Primary and Secondary Identifying Numbers)</text><path d="M687,506.401 L687,511.0677 L691.6667,511.0677 L691.6667,506.401 L687,506.401 M692.8333,508.7344 L692.8333,512.2344 L689.3333,512.2344 L689.3333,513.401 L694,513.401 L694,508.7344 L692.8333,508.7344 M695.1667,511.0677 L695.1667,514.5677 L691.6667,514.5677 L691.6667,515.7344 L696.3333,515.7344 L696.3333,511.0677 L695.1667,511.0677 " fill="#000000" style="stroke:;stroke-width:0.0;stroke-dasharray:;"/><text fill="#000000" font-family="sans-serif" font-size="14" lengthAdjust="spacing" textLength="187" x="701.3333" y="515.9326">identifier : Identifier [0..*]</text><line style="stroke:#0000FF;stroke-width:1.0;" x1="681" x2="681" y1="500.9375" y2="521.2344"/><line style="stroke:#0000FF;stroke-width:1.0;" x1="205" x2="1134.3333" y1="521.2344" y2="521.2344"/><text fill="#000000" font-family="sans-serif" font-size="14" lengthAdjust="spacing" textLength="193" x="346.5" y="536.2295">Date de r&#233;vision technique</text><text fill="#000000" font-family="sans-serif" font-size="14" lengthAdjust="spacing" textLength="236" x="686" y="536.2295">meta.lastUpdated : instant [0..1]</text><line style="stroke:#0000FF;stroke-width:1.0;" x1="681" x2="681" y1="521.2344" y2="541.5313"/><line style="stroke:#0000FF;stroke-width:1.0;" x1="205" x2="1134.3333" y1="541.5313" y2="541.5313"/><text fill="#000000" font-family="sans-serif" font-size="14" lengthAdjust="spacing" textLength="217" x="334.5" y="556.5264">Date de r&#233;vision fonctionnelle</text><path d="M690.5,546.9948 L690.5,550.4948 L687,550.4948 L687,552.8281 L690.5,552.8281 L690.5,556.3281 L692.8333,556.3281 L692.8333,552.8281 L696.3333,552.8281 L696.3333,550.4948 L692.8333,550.4948 L692.8333,546.9948 L690.5,546.9948 " fill="#000000" style="stroke:;stroke-width:0.0;stroke-dasharray:;"/><text fill="#000000" font-family="sans-serif" font-size="14" lengthAdjust="spacing" textLength="252" x="701.3333" y="556.5264">ECLAIREReviewDate : instant [0..1]</text><line style="stroke:#0000FF;stroke-width:1.0;" x1="681" x2="681" y1="541.5313" y2="561.8281"/><line style="stroke:#0000FF;stroke-width:1.0;" x1="205" x2="1134.3333" y1="561.8281" y2="561.8281"/><text fill="#000000" font-family="sans-serif" font-size="14" lengthAdjust="spacing" textLength="237" x="324.5" y="576.8232">Nom de l'essai (Scientifique title)</text><text fill="#000000" font-family="sans-serif" font-size="14" lengthAdjust="spacing" textLength="128" x="686" y="576.8232">title : string [0..1]</text><line style="stroke:#0000FF;stroke-width:1.0;" x1="681" x2="681" y1="561.8281" y2="582.125"/><line style="stroke:#0000FF;stroke-width:1.0;" x1="205" x2="1134.3333" y1="582.125" y2="582.125"/><text fill="#000000" font-family="sans-serif" font-size="14" lengthAdjust="spacing" textLength="251" x="317.5" y="597.1201">Autres noms de l'essai (Public title)</text><path d="M690.5,587.5885 L690.5,591.0885 L687,591.0885 L687,593.4219 L690.5,593.4219 L690.5,596.9219 L692.8333,596.9219 L692.8333,593.4219 L696.3333,593.4219 L696.3333,591.0885 L692.8333,591.0885 L692.8333,587.5885 L690.5,587.5885 " fill="#000000" style="stroke:;stroke-width:0.0;stroke-dasharray:;"/><text fill="#000000" font-family="sans-serif" font-size="14" lengthAdjust="spacing" textLength="291" x="701.3333" y="597.1201">ECLAIRELabel : Complex extension [0..*]</text><line style="stroke:#0000FF;stroke-width:1.0;" x1="681" x2="681" y1="582.125" y2="602.4219"/><line style="stroke:#0000FF;stroke-width:1.0;" x1="205" x2="1134.3333" y1="602.4219" y2="602.4219"/><text fill="#000000" font-family="sans-serif" font-size="14" lengthAdjust="spacing" textLength="115" x="385.5" y="617.417">Statut de l'essai</text><text fill="#000000" font-family="sans-serif" font-size="14" lengthAdjust="spacing" textLength="134" x="686" y="617.417">status : code [1..1]</text><line style="stroke:#0000FF;stroke-width:1.0;" x1="681" x2="681" y1="602.4219" y2="622.7188"/><line style="stroke:#0000FF;stroke-width:1.0;" x1="205" x2="1134.3333" y1="622.7188" y2="622.7188"/><text fill="#000000" font-family="sans-serif" font-size="14" lengthAdjust="spacing" textLength="260" x="313" y="637.7139">Phase de l'essai (Study type : phase)</text><text fill="#000000" font-family="sans-serif" font-size="14" lengthAdjust="spacing" textLength="228" x="686" y="637.7139">phase : CodeableConcept [0..1]</text><line style="stroke:#0000FF;stroke-width:1.0;" x1="681" x2="681" y1="622.7188" y2="643.0156"/><line style="stroke:#0000FF;stroke-width:1.0;" x1="205" x2="1134.3333" y1="643.0156" y2="643.0156"/><text fill="#000000" font-family="sans-serif" font-size="14" lengthAdjust="spacing" textLength="290" x="298" y="658.0107">Type d'essai (Study type : type of study)</text><text fill="#000000" font-family="sans-serif" font-size="14" lengthAdjust="spacing" textLength="247" x="686" y="658.0107">category : CodeableConcept [0..*]</text><line style="stroke:#0000FF;stroke-width:1.0;" x1="681" x2="681" y1="643.0156" y2="663.3125"/><line style="stroke:#0000FF;stroke-width:1.0;" x1="205" x2="1134.3333" y1="663.3125" y2="663.3125"/><text fill="#000000" font-family="sans-serif" font-size="14" lengthAdjust="spacing" textLength="420" x="233" y="678.3076">Sujet concern&#233; (Health Condition(s) or Problem(s) Studied)</text><text fill="#000000" font-family="sans-serif" font-size="14" lengthAdjust="spacing" textLength="317" x="686" y="678.3076">condition : CodeableConcept [0..*] (MeDRA)</text><line style="stroke:#0000FF;stroke-width:1.0;" x1="681" x2="681" y1="663.3125" y2="683.6094"/><line style="stroke:#0000FF;stroke-width:1.0;" x1="205" x2="1134.3333" y1="683.6094" y2="683.6094"/><text fill="#000000" font-family="sans-serif" font-size="14" lengthAdjust="spacing" textLength="466" x="210" y="698.6045">Pr&#233;cision sur le sujet (Health Condition(s)  or  Problem(s) Studied)</text><path d="M690.5,689.0729 L690.5,692.5729 L687,692.5729 L687,694.9063 L690.5,694.9063 L690.5,698.4063 L692.8333,698.4063 L692.8333,694.9063 L696.3333,694.9063 L696.3333,692.5729 L692.8333,692.5729 L692.8333,689.0729 L690.5,689.0729 " fill="#000000" style="stroke:;stroke-width:0.0;stroke-dasharray:;"/><text fill="#000000" font-family="sans-serif" font-size="14" lengthAdjust="spacing" textLength="277" x="701.3333" y="698.6045">ECLAIREConditionDetails : string [0..1]</text><line style="stroke:#0000FF;stroke-width:1.0;" x1="681" x2="681" y1="683.6094" y2="703.9063"/><line style="stroke:#0000FF;stroke-width:1.0;" x1="205" x2="1134.3333" y1="703.9063" y2="703.9063"/><text fill="#000000" font-family="sans-serif" font-size="14" lengthAdjust="spacing" textLength="178" x="354" y="718.9014">Domaine th&#233;rapeutique*</text><path d="M690.5,709.3698 L690.5,712.8698 L687,712.8698 L687,715.2031 L690.5,715.2031 L690.5,718.7031 L692.8333,718.7031 L692.8333,715.2031 L696.3333,715.2031 L696.3333,712.8698 L692.8333,712.8698 L692.8333,709.3698 L690.5,709.3698 " fill="#000000" style="stroke:;stroke-width:0.0;stroke-dasharray:;"/><text fill="#000000" font-family="sans-serif" font-size="14" lengthAdjust="spacing" textLength="277" x="701.3333" y="718.9014">ECLAIRETherapeuticArea : string [0..1]</text><line style="stroke:#0000FF;stroke-width:1.0;" x1="681" x2="681" y1="703.9063" y2="724.2031"/><line style="stroke:#0000FF;stroke-width:1.0;" x1="205" x2="1134.3333" y1="724.2031" y2="724.2031"/><text fill="#000000" font-family="sans-serif" font-size="14" lengthAdjust="spacing" textLength="126" x="380" y="739.1982">R&#233;sum&#233; de l'essai</text><text fill="#000000" font-family="sans-serif" font-size="14" lengthAdjust="spacing" textLength="212" x="686" y="739.1982">description : markdown [0..1]</text><line style="stroke:#0000FF;stroke-width:1.0;" x1="681" x2="681" y1="724.2031" y2="744.5"/><line style="stroke:#0000FF;stroke-width:1.0;" x1="205" x2="1134.3333" y1="744.5" y2="744.5"/><text fill="#000000" font-family="sans-serif" font-size="14" lengthAdjust="spacing" textLength="278" x="304" y="759.4951">P&#233;riode pr&#233;visionnelle de recrutement</text><path d="M690.5,749.9635 L690.5,753.4635 L687,753.4635 L687,755.7969 L690.5,755.7969 L690.5,759.2969 L692.8333,759.2969 L692.8333,755.7969 L696.3333,755.7969 L696.3333,753.4635 L692.8333,753.4635 L692.8333,749.9635 L690.5,749.9635 " fill="#000000" style="stroke:;stroke-width:0.0;stroke-dasharray:;"/><text fill="#000000" font-family="sans-serif" font-size="14" lengthAdjust="spacing" textLength="299" x="701.3333" y="759.4951">ECLAIRERecruitmentPeriod : period [0..1]</text><line style="stroke:#0000FF;stroke-width:1.0;" x1="681" x2="681" y1="744.5" y2="764.7969"/><line style="stroke:#0000FF;stroke-width:1.0;" x1="205" x2="1134.3333" y1="764.7969" y2="764.7969"/><text fill="#000000" font-family="sans-serif" font-size="14" lengthAdjust="spacing" textLength="338" x="274" y="779.792">Contact (Contact for public / scientific queries)</text><text fill="#000000" font-family="sans-serif" font-size="14" lengthAdjust="spacing" textLength="210" x="686" y="779.792">contact : ContactDetail [0..*]</text><line style="stroke:#0000FF;stroke-width:1.0;" x1="681" x2="681" y1="764.7969" y2="785.0938"/><line style="stroke:#0000FF;stroke-width:1.0;" x1="205" x2="1134.3333" y1="785.0938" y2="785.0938"/><text fill="#000000" font-family="sans-serif" font-size="14" lengthAdjust="spacing" textLength="446" x="220" y="800.0889">Participants (Key Inclusion and Exclusion Criteria, Sample size)</text><text fill="#000000" font-family="sans-serif" font-size="14" lengthAdjust="spacing" textLength="262" x="686" y="800.0889">enrollment : Reference(Group) [0..*]</text><line style="stroke:#0000FF;stroke-width:1.0;" x1="681" x2="681" y1="785.0938" y2="805.3906"/><line style="stroke:#0000FF;stroke-width:1.0;" x1="205" x2="1134.3333" y1="805.3906" y2="805.3906"/><text fill="#000000" font-family="sans-serif" font-size="14" lengthAdjust="spacing" textLength="37" x="424.5" y="820.3857">Lieux</text><text fill="#000000" font-family="sans-serif" font-size="14" lengthAdjust="spacing" textLength="227" x="686" y="820.3857">site : Reference(Location) [0..*]</text><line style="stroke:#0000FF;stroke-width:1.0;" x1="681" x2="681" y1="805.3906" y2="825.6875"/><line style="stroke:#0000FF;stroke-width:1.0;" x1="205" x2="1134.3333" y1="825.6875" y2="825.6875"/><text fill="#000000" font-family="sans-serif" font-size="14" lengthAdjust="spacing" textLength="347" x="269.5" y="840.6826">Pays de recrutement (Countries of Recruitment)</text><text fill="#000000" font-family="sans-serif" font-size="14" lengthAdjust="spacing" textLength="241" x="686" y="840.6826">location : CodeableConcept [0..*]</text><line style="stroke:#0000FF;stroke-width:1.0;" x1="681" x2="681" y1="825.6875" y2="845.9844"/><line style="stroke:#0000FF;stroke-width:1.0;" x1="205" x2="1134.3333" y1="845.9844" y2="845.9844"/><text fill="#000000" font-family="sans-serif" font-size="14" lengthAdjust="spacing" textLength="274" x="306" y="860.9795">Promoteur principal (Primary sponsor)</text><text fill="#000000" font-family="sans-serif" font-size="14" lengthAdjust="spacing" textLength="289" x="686" y="860.9795">sponsor : Reference(Organization) [0..1]</text><line style="stroke:#0000FF;stroke-width:1.0;" x1="681" x2="681" y1="845.9844" y2="866.2813"/><line style="stroke:#0000FF;stroke-width:1.0;" x1="205" x2="1134.3333" y1="866.2813" y2="866.2813"/><text fill="#000000" font-family="sans-serif" font-size="14" lengthAdjust="spacing" textLength="328" x="279" y="881.2764">Promoteur secondaire (Secondary Sponsor(s))</text><path d="M690.5,871.7448 L690.5,875.2448 L687,875.2448 L687,877.5781 L690.5,877.5781 L690.5,881.0781 L692.8333,881.0781 L692.8333,877.5781 L696.3333,877.5781 L696.3333,875.2448 L692.8333,875.2448 L692.8333,871.7448 L690.5,871.7448 " fill="#000000" style="stroke:;stroke-width:0.0;stroke-dasharray:;"/><text fill="#000000" font-family="sans-serif" font-size="14" lengthAdjust="spacing" textLength="428" x="701.3333" y="881.2764">ECLAIRESecondarySponsor  : Reference(Organization) [0..*]</text><line style="stroke:#0000FF;stroke-width:1.0;" x1="681" x2="681" y1="866.2813" y2="886.5781"/></g><!--link RS to Location--><g id="link_RS_Location"><path codeLine="82" d="M899.3341,897.9461 C936.7241,932.7291 959.2859,953.7179 987.3739,979.8469 " fill="none" id="RS-Location" style="stroke:#EE82EE;stroke-width:4.0;stroke-dasharray:7.0,7.0;"/><polygon fill="#EE82EE" points="890.548,889.7726,892.2165,896.788,899.3341,897.9461,897.6655,890.9307,890.548,889.7726" style="stroke:#EE82EE;stroke-width:4.0;"/><polygon fill="#EE82EE" points="991.767,983.9336,987.9018,974.8749,988.1061,980.5281,982.4529,980.7323,991.767,983.9336" style="stroke:#EE82EE;stroke-width:4.0;"/></g><!--link RS to Group--><g id="link_RS_Group"><path codeLine="83" d="M402.4254,897.2575 C376.2534,918.1425 364.8428,927.2472 341.5718,945.8172 " fill="none" id="RS-Group" style="stroke:#90EE90;stroke-width:4.0;stroke-dasharray:7.0,7.0;"/><polygon fill="#90EE90" points="411.805,889.7726,404.6202,890.3885,402.4254,897.2575,409.6101,896.6416,411.805,889.7726" style="stroke:#90EE90;stroke-width:4.0;"/><polygon fill="#90EE90" points="336.882,949.5596,346.4117,947.0725,340.7902,946.4409,341.4218,940.8195,336.882,949.5596" style="stroke:#90EE90;stroke-width:4.0;"/></g><!--link RS to Organization--><g id="link_RS_Organization"><path codeLine="84" d="M669.5,901.7726 C669.5,936.5556 669.5,951.8046 669.5,977.9336 " fill="none" id="RS-Organization" style="stroke:#FFD700;stroke-width:4.0;stroke-dasharray:7.0,7.0;"/><polygon fill="#FFD700" points="669.5,889.7726,665.5,895.7726,669.5,901.7726,673.5,895.7726,669.5,889.7726" style="stroke:#FFD700;stroke-width:4.0;"/><polygon fill="#FFD700" points="669.5,983.9336,673.5,974.9336,669.5,978.9336,665.5,974.9336,669.5,983.9336" style="stroke:#FFD700;stroke-width:4.0;"/></g><!--link slice_identifier to RS--><g id="link_slice_identifier_RS"><path codeLine="86" d="M1086.84,377.9246 C1053.13,402.4956 1004.12,438.2196 951.454,476.6126 " fill="none" id="slice_identifier-RS" style="stroke:#ADD8E6;stroke-width:2.0;"/></g><!--link Contact to RS--><g id="link_Contact_RS"><path codeLine="87" d="M669.5,417.0426 C669.5,435.1526 669.5,455.4886 669.5,476.6346 " fill="none" id="Contact-RS" style="stroke:#ADD8E6;stroke-width:2.0;"/></g><!--link label to RS--><g id="link_label_RS"><path codeLine="88" d="M245.852,377.9246 C280.069,402.4956 329.817,438.2196 383.283,476.6126 " fill="none" id="label-RS" style="stroke:#ADD8E6;stroke-width:2.0;"/></g><!--link slice_name to Contact--><g id="link_slice_name_Contact"><path codeLine="89" d="M669.5,210.7406 C669.5,229.1006 669.5,250.3206 669.5,270.3006 " fill="none" id="slice_name-Contact" style="stroke:#ADD8E6;stroke-width:2.0;"/></g><!--link Contact to slice_identifier--><!--link Group to Organization--><!--link Group to Characteristic--><g id="link_Group_Characteristic"><path codeLine="94" d="M226.5,1127.8236 C226.5,1148.5356 226.5,1163.7236 226.5,1181.4771 " fill="none" id="Group-to-Characteristic" style="stroke:#90EE90;stroke-width:2.0;"/><polygon fill="#90EE90" points="226.5,1187.4771,230.5,1178.4771,226.5,1182.4771,222.5,1178.4771,226.5,1187.4771" style="stroke:#90EE90;stroke-width:2.0;"/></g><!--link Location to Telecom--><g id="link_Location_Telecom"><path codeLine="95" d="M1049.5,1090.6406 C1049.5,1123.0826 1049.5,1153.7376 1049.5,1181.4723 " fill="none" id="Location-to-Telecom" style="stroke:#EE82EE;stroke-width:2.0;"/><polygon fill="#EE82EE" points="1049.5,1187.4723,1053.5,1178.4723,1049.5,1182.4723,1045.5,1178.4723,1049.5,1187.4723" style="stroke:#EE82EE;stroke-width:2.0;"/></g><!--SRC=[nLVDRXit4BxhAGW5I2GXTkAY9pKnuDYgRLIn1QsJed2DWjeTIQovt0t9TQmKxRFq63s7Ngp3uVvQAoT83jL597V- -SqFOvwoxd6YB0_j2LWkP9Tnm_8JzcJ6mzlXaHGXl94P_BG47e4UZiLYQOFR5Pr9eM0umnNxgyFmTv74xFKXKpm6DcJCM2tKWbs_tDy_k654SRLPoyqwJE8uKoBaLYJASLYGW8UEATS_IOIon3guOJdlAWL7_EffAZDpo4R7uwFpwSWpq4TYZu3F9E1f2AajbF-kMAyxoMReJlT5DmW5A2lckEcJwAD8Wp6xfTkZY2XGGx7oWZttV2waA9tP8Q56D6o6fXwxTkOB7z6pBEQArZdZtvrExAwn_41NQDob_K6tyAst606RyrX82QmtviRIdVQTWNIyQdK1WppHcxL2_jxFGfTSU7u2sRtOV4QBqeBYhOWY55yANeWxU12Q0LqS_buzbNm56kD2lh6varuBn0woc5Iq1QoY38XIH1uGe6iHh0w_AOxdEJj78AVeKoXIBfsd8ffe4NEzgWUlJcqm6LJ4XGPF7lXzpZ2ekz50ovZFm6UnTAjlihh8CfAGPrLxKX7vUouXqoK3RZFO0aTXxgbEifJierLktzNe-EpYSdnv-bl3m5CDY8UjK0vyICgR6POVSPE3fd84SRnmge3Oh7SdH7VOzG41vpNhJX07YUfwBZ8C6EQSc1CFhZAyjY6R9Oa4hcgCLpg3Bd6DvdDm76ppBzCGwim2nUH3XXOBwz8bKqOi54JdoZOguh4MTlCPIuh3yD42tDyfAEqNtXeqrsH_WdKYyJHSSercWHR6YX1bly4mpX858manL6MpZFjnWy6N-QQChxu9YggpWuBO0es3ohKA6tSE5jVtDyXG9nZTXmZVl6o2sv3C1v4ktRZK2wx49wgXv4Jz87VXpRlW_68K18K3fucClWD4pOxMqj1gdOEtzeX2Kj5NANH- -UMB6oTXvMsnoJrzYpUtcYQcJElt0iDc_rTd3xQThLfxIsSl7RtoLEHdllugDuELiTHMd2g36uZB17-v4udjthLtu41OUBmBLzSrCeQBOwoeuWCfcO81hiDbOBDeHRvDW-zk9RsYUN0LiQepv2GhvzL55i-mgFMzEqMd-m84V11EkALwWrtwJb1gMWYNtY6K5kEWk2zn87YNHaWPeIIXZELLKTibPeu5mg5NWHigjkCyXJi17ublIsPzB97Fm4MPzSeXpfc6HLRwCO9ME-2RMLTdSVem3Kb-Bgp9Q6kh1E0ubN2FbSg28gVgsHDORZDR5-mWwGvDi-SGzMJ93JJzSI0fMbJgFfCjjDhPW-kjhbKG_ILpD0GFII0M4LWaUhL3PkaEDPpGVT5gisQzC-3IBbqMHy9TP0_nbMYS-1AK4BkTKomWwkSrpfFjLjDx2oVJexvNvmR7q2F5OARAekErgdLwTodU7g0zdt_Yc7Pad2GnnvHZThbPQvv2PXsg1YtohfQG4uH76dYxkEbcRR8OWzO4GmGcr2BDeu8vV1ib7rM3SuBwXODAMcQEJnYNItwme4RHbZ_uLLZt5GSQbE5Gv1UDp2nASwzOp36OgS-05yoKBoESNP0RJB_PiHeFnWPW9bnZK736LTQmtY-09KaLxTsLgghPkv47PVFdBE0kevWHdppOSUv9f2GFNVMSWmQ4J8_6e7v3srZWYu8oJ5Xe41Tjil_0kfLv64GCGQQiSz9bI2s0P8iiskqk0EUuJUB4kkPIZVXbXJPfeaoYILo-RfXQdr_wpMkgvDOU0xsgt0TU7AA_3VKbNKx6lg2MoZzsiGxsfy7UzHFVOvz7t2mXUcwN8hnL2EFNFzxi7PPpI45SpOWx6FomNv2xYMm7OTsmJcVh4RQ7tD8fSpsonll33VRLJe7dnwdym-Xncjhx-H72N5-bztg9pqrGDrklnqx7Hw2YQ3fANuV3wYMmrungNUtXWyczKzm6yjS2a5zWapCVhF2Q9Im0Kz8cALRQkUtKdyv3Rp-TUL0Dguw7f_yCN6N1MIPwjbb_o0HEL0vLcClARjRxSysKOB-UNJe1muzSAwoEGnAYM2HCc1aIXFgz5Vy1]--></g></svg>