<?xml version="1.0" encoding="us-ascii" standalone="no"?><svg xmlns="http://www.w3.org/2000/svg" xmlns:xlink="http://www.w3.org/1999/xlink" contentStyleType="text/css" height="1263px" preserveAspectRatio="none" style="width:1846px;height:1263px;background:#FFFFFF;" version="1.1" viewBox="0 0 1846 1263" width="1846px" zoomAndPan="magnify"><defs/><g><rect fill="#DDDDDD" height="81.6406" id="_legend" rx="7.5" ry="7.5" style="stroke:#000000;stroke-width:1.0;" width="276" x="12" y="12"/><path d="M18,20.4635 L18,25.1302 L22.6667,25.1302 L22.6667,20.4635 L18,20.4635 M23.8333,22.7969 L23.8333,26.2969 L20.3333,26.2969 L20.3333,27.4635 L25,27.4635 L25,22.7969 L23.8333,22.7969 M26.1667,25.1302 L26.1667,28.6302 L22.6667,28.6302 L22.6667,29.7969 L27.3333,29.7969 L27.3333,25.1302 L26.1667,25.1302 " fill="#000000" style="stroke:;stroke-width:0.0;stroke-dasharray:;"/><text fill="#000000" font-family="sans-serif" font-size="14" lengthAdjust="spacing" textLength="41" x="32.3333" y="29.9951">: slice</text><path d="M21.5,36.7604 L21.5,40.2604 L18,40.2604 L18,42.5938 L21.5,42.5938 L21.5,46.0938 L23.8333,46.0938 L23.8333,42.5938 L27.3333,42.5938 L27.3333,40.2604 L23.8333,40.2604 L23.8333,36.7604 L21.5,36.7604 " fill="#000000" style="stroke:;stroke-width:0.0;stroke-dasharray:;"/><text fill="#000000" font-family="sans-serif" font-size="14" lengthAdjust="spacing" textLength="80" x="32.3333" y="46.292">: extension</text><text fill="#000000" font-family="sans-serif" font-size="14" lengthAdjust="spacing" textLength="266" x="17" y="62.5889">* : pas d'&#233;quivalence Sant&#233;.fr ni WHO</text><path d="M18.5476,86.3073 C17.4731,86.3073 16.9994,85.5268 17.4941,84.573 L26.5993,67.041 C27.0946,66.0872 27.9048,66.0872 28.4001,67.041 L37.5053,84.5736 C38.0012,85.5268 37.5269,86.3073 36.4524,86.3073 L18.5476,86.3073 " fill="#FFCC4D" style="stroke:;stroke-width:0.0;stroke-dasharray:;"/><path d="M26.0901,82.7799 C26.0901,82.0023 26.723,81.3694 27.5012,81.3694 C28.2788,81.3694 28.9117,82.0023 28.9117,82.7799 C28.9117,83.558 28.2782,84.191 27.5012,84.191 C26.723,84.191 26.0901,83.558 26.0901,82.7799 M26.1986,72.109 C26.1986,71.3495 26.7592,70.8793 27.5006,70.8793 C28.2245,70.8793 28.8032,71.3675 28.8032,72.109 L28.8032,79.0728 C28.8032,79.8142 28.2245,80.3025 27.5006,80.3025 C26.7592,80.3025 26.1986,79.8317 26.1986,79.0728 L26.1986,72.109 " fill="#231F20" style="stroke:;stroke-width:0.0;stroke-dasharray:;"/><text fill="#000000" font-family="sans-serif" font-size="14" lengthAdjust="spacing" textLength="103" x="42" y="85.3389">: en discussion</text><g id="elem_Contact"><rect fill="#F0F8FF" height="138.0781" style="stroke:#0000FF;stroke-width:0.5;" width="517.3333" x="435.5" y="258.6406"/><rect fill="#87CEFA" height="20.2969" style="stroke:#0000FF;stroke-width:0.5;" width="517.3333" x="435.5" y="258.6406"/><text fill="#000000" font-family="sans-serif" font-size="14" lengthAdjust="spacing" textLength="101" x="643.6667" y="273.6357">ContactDetail</text><line style="stroke:#0000FF;stroke-width:1.0;" x1="435.5" x2="952.8333" y1="278.9375" y2="278.9375"/><text fill="#000000" font-family="sans-serif" font-size="14" lengthAdjust="spacing" textLength="33" x="495" y="293.9326">Nom</text><path d="M597,284.401 L597,287.901 L593.5,287.901 L593.5,290.2344 L597,290.2344 L597,293.7344 L599.3333,293.7344 L599.3333,290.2344 L602.8333,290.2344 L602.8333,287.901 L599.3333,287.901 L599.3333,284.401 L597,284.401 " fill="#000000" style="stroke:;stroke-width:0.0;stroke-dasharray:;"/><text fill="#000000" font-family="sans-serif" font-size="14" lengthAdjust="spacing" textLength="304" x="607.8333" y="293.9326">ECLAIREContactName : HumanName [0..1]</text><line style="stroke:#0000FF;stroke-width:1.0;" x1="587.5" x2="587.5" y1="278.9375" y2="299.2344"/><line style="stroke:#0000FF;stroke-width:1.0;" x1="435.5" x2="952.8333" y1="299.2344" y2="299.2344"/><text fill="#000000" font-family="sans-serif" font-size="14" lengthAdjust="spacing" textLength="142" x="440.5" y="314.2295">T&#233;l&#233;communication</text><text fill="#000000" font-family="sans-serif" font-size="14" lengthAdjust="spacing" textLength="213" x="592.5" y="314.2295">telecom :  ContactPoint [0..*]</text><line style="stroke:#0000FF;stroke-width:1.0;" x1="587.5" x2="587.5" y1="299.2344" y2="319.5313"/><line style="stroke:#0000FF;stroke-width:1.0;" x1="435.5" x2="952.8333" y1="319.5313" y2="319.5313"/><text fill="#000000" font-family="sans-serif" font-size="14" lengthAdjust="spacing" textLength="36" x="493.5" y="334.5264">Type</text><path d="M597,324.9948 L597,328.4948 L593.5,328.4948 L593.5,330.8281 L597,330.8281 L597,334.3281 L599.3333,334.3281 L599.3333,330.8281 L602.8333,330.8281 L602.8333,328.4948 L599.3333,328.4948 L599.3333,324.9948 L597,324.9948 " fill="#000000" style="stroke:;stroke-width:0.0;stroke-dasharray:;"/><text fill="#000000" font-family="sans-serif" font-size="14" lengthAdjust="spacing" textLength="336" x="607.8333" y="334.5264">ECLAIREContacType :  CodeableConcept [0..1]</text><text fill="#000000" font-family="sans-serif" font-size="14" lengthAdjust="spacing" textLength="154" x="596.5" y="350.8232">("Public"/"Scientific")</text><line style="stroke:#0000FF;stroke-width:1.0;" x1="587.5" x2="587.5" y1="319.5313" y2="356.125"/><line style="stroke:#0000FF;stroke-width:1.0;" x1="435.5" x2="952.8333" y1="356.125" y2="356.125"/><text fill="#000000" font-family="sans-serif" font-size="14" lengthAdjust="spacing" textLength="57" x="483" y="371.1201">Adresse</text><path d="M597,361.5885 L597,365.0885 L593.5,365.0885 L593.5,367.4219 L597,367.4219 L597,370.9219 L599.3333,370.9219 L599.3333,367.4219 L602.8333,367.4219 L602.8333,365.0885 L599.3333,365.0885 L599.3333,361.5885 L597,361.5885 " fill="#000000" style="stroke:;stroke-width:0.0;stroke-dasharray:;"/><text fill="#000000" font-family="sans-serif" font-size="14" lengthAdjust="spacing" textLength="287" x="607.8333" y="371.1201">ECLAIREContactAddress : Address [0..1]</text><line style="stroke:#0000FF;stroke-width:1.0;" x1="587.5" x2="587.5" y1="356.125" y2="376.4219"/><line style="stroke:#0000FF;stroke-width:1.0;" x1="435.5" x2="952.8333" y1="376.4219" y2="376.4219"/><text fill="#000000" font-family="sans-serif" font-size="14" lengthAdjust="spacing" textLength="71" x="476" y="391.417">Affiliation</text><path d="M597,381.8854 L597,385.3854 L593.5,385.3854 L593.5,387.7188 L597,387.7188 L597,391.2188 L599.3333,391.2188 L599.3333,387.7188 L602.8333,387.7188 L602.8333,385.3854 L599.3333,385.3854 L599.3333,381.8854 L597,381.8854 " fill="#000000" style="stroke:;stroke-width:0.0;stroke-dasharray:;"/><text fill="#000000" font-family="sans-serif" font-size="14" lengthAdjust="spacing" textLength="286" x="607.8333" y="391.417">ECLAIREContactAffiliation : string [0..1]</text><line style="stroke:#0000FF;stroke-width:1.0;" x1="587.5" x2="587.5" y1="376.4219" y2="396.7188"/></g><g id="elem_slice_name"><rect fill="#F0F8FF" height="77.1875" style="stroke:#0000FF;stroke-width:0.5;" width="403" x="492.5" y="113.6406"/><rect fill="#87CEFA" height="20.2969" style="stroke:#0000FF;stroke-width:0.5;" width="403" x="492.5" y="113.6406"/><text fill="#000000" font-family="sans-serif" font-size="14" lengthAdjust="spacing" textLength="90" x="649" y="128.6357">HumanName</text><line style="stroke:#0000FF;stroke-width:1.0;" x1="492.5" x2="895.5" y1="133.9375" y2="133.9375"/><text fill="#000000" font-family="sans-serif" font-size="14" lengthAdjust="spacing" textLength="196" x="520.5" y="148.9326">Nom de famille (Last name)</text><text fill="#000000" font-family="sans-serif" font-size="14" lengthAdjust="spacing" textLength="141" x="749.5" y="148.9326">family : string [0..1]</text><line style="stroke:#0000FF;stroke-width:1.0;" x1="744.5" x2="744.5" y1="133.9375" y2="154.2344"/><line style="stroke:#0000FF;stroke-width:1.0;" x1="492.5" x2="895.5" y1="154.2344" y2="154.2344"/><text fill="#000000" font-family="sans-serif" font-size="14" lengthAdjust="spacing" textLength="146" x="497.5" y="169.2295">Pr&#233;nom (First name)</text><text fill="#000000" font-family="sans-serif" font-size="14" lengthAdjust="spacing" textLength="238" x="501.5" y="185.5264">Deuxi&#232;me pr&#233;nom (Middle name)</text><text fill="#000000" font-family="sans-serif" font-size="14" lengthAdjust="spacing" textLength="134" x="749.5" y="169.2295">given : string [0..*]</text><line style="stroke:#0000FF;stroke-width:1.0;" x1="744.5" x2="744.5" y1="154.2344" y2="190.8281"/></g><g id="elem_slice_identifier"><rect fill="#F0F8FF" height="60.8906" style="stroke:#0000FF;stroke-width:0.5;" width="306" x="7" y="637.1406"/><rect fill="#87CEFA" height="20.2969" style="stroke:#0000FF;stroke-width:0.5;" width="306" x="7" y="637.1406"/><path d="M100.8333,642.6042 L100.8333,647.2708 L105.5,647.2708 L105.5,642.6042 L100.8333,642.6042 M106.6667,644.9375 L106.6667,648.4375 L103.1667,648.4375 L103.1667,649.6042 L107.8333,649.6042 L107.8333,644.9375 L106.6667,644.9375 M109,647.2708 L109,650.7708 L105.5,650.7708 L105.5,651.9375 L110.1667,651.9375 L110.1667,647.2708 L109,647.2708 " fill="#000000" style="stroke:;stroke-width:0.0;stroke-dasharray:;"/><text fill="#000000" font-family="sans-serif" font-size="14" lengthAdjust="spacing" textLength="105" x="115.1667" y="652.1357">Slice identifier</text><line style="stroke:#0000FF;stroke-width:1.0;" x1="7" x2="313" y1="657.4375" y2="657.4375"/><text fill="#000000" font-family="sans-serif" font-size="14" lengthAdjust="spacing" textLength="143" x="19.5" y="672.4326">Identifiant principal</text><text fill="#000000" font-family="sans-serif" font-size="14" lengthAdjust="spacing" textLength="110" x="180" y="672.4326">idPrimary [0..1]</text><line style="stroke:#0000FF;stroke-width:1.0;" x1="175" x2="175" y1="657.4375" y2="677.7344"/><line style="stroke:#0000FF;stroke-width:1.0;" x1="7" x2="313" y1="677.7344" y2="677.7344"/><text fill="#000000" font-family="sans-serif" font-size="14" lengthAdjust="spacing" textLength="158" x="12" y="692.7295">Identifiant secondaire</text><text fill="#000000" font-family="sans-serif" font-size="14" lengthAdjust="spacing" textLength="128" x="180" y="692.7295">idSecondary [0..*]</text><line style="stroke:#0000FF;stroke-width:1.0;" x1="175" x2="175" y1="677.7344" y2="698.0313"/></g><g id="elem_slice_condition"><rect fill="#F0F8FF" height="60.8906" style="stroke:#0000FF;stroke-width:0.5;" width="295" x="1544.5" y="637.1406"/><rect fill="#87CEFA" height="20.2969" style="stroke:#0000FF;stroke-width:0.5;" width="295" x="1544.5" y="637.1406"/><path d="M1632.3333,642.6042 L1632.3333,647.2708 L1637,647.2708 L1637,642.6042 L1632.3333,642.6042 M1638.1667,644.9375 L1638.1667,648.4375 L1634.6667,648.4375 L1634.6667,649.6042 L1639.3333,649.6042 L1639.3333,644.9375 L1638.1667,644.9375 M1640.5,647.2708 L1640.5,650.7708 L1637,650.7708 L1637,651.9375 L1641.6667,651.9375 L1641.6667,647.2708 L1640.5,647.2708 " fill="#000000" style="stroke:;stroke-width:0.0;stroke-dasharray:;"/><text fill="#000000" font-family="sans-serif" font-size="14" lengthAdjust="spacing" textLength="106" x="1646.6667" y="652.1357">Slice condition</text><line style="stroke:#0000FF;stroke-width:1.0;" x1="1544.5" x2="1839.5" y1="657.4375" y2="657.4375"/><text fill="#000000" font-family="sans-serif" font-size="14" lengthAdjust="spacing" textLength="102" x="1549.5" y="672.4326">Code MedDRA</text><text fill="#000000" font-family="sans-serif" font-size="14" lengthAdjust="spacing" textLength="173" x="1661.5" y="672.4326">medDRACondition [0..*]</text><line style="stroke:#0000FF;stroke-width:1.0;" x1="1656.5" x2="1656.5" y1="657.4375" y2="677.7344"/><line style="stroke:#0000FF;stroke-width:1.0;" x1="1544.5" x2="1839.5" y1="677.7344" y2="677.7344"/><text fill="#000000" font-family="sans-serif" font-size="14" lengthAdjust="spacing" textLength="77" x="1562" y="692.7295">Pathologie</text><text fill="#000000" font-family="sans-serif" font-size="14" lengthAdjust="spacing" textLength="163" x="1661.5" y="692.7295">diseaseCondition [0..*]</text><line style="stroke:#0000FF;stroke-width:1.0;" x1="1656.5" x2="1656.5" y1="677.7344" y2="698.0313"/></g><g id="elem_label"><rect fill="#F0F8FF" height="60.8906" style="stroke:#0000FF;stroke-width:0.5;" width="321" x="1003.5" y="297.6406"/><rect fill="#87CEFA" height="20.2969" style="stroke:#0000FF;stroke-width:0.5;" width="321" x="1003.5" y="297.6406"/><path d="M1111.3333,303.1042 L1111.3333,306.6042 L1107.8333,306.6042 L1107.8333,308.9375 L1111.3333,308.9375 L1111.3333,312.4375 L1113.6667,312.4375 L1113.6667,308.9375 L1117.1667,308.9375 L1117.1667,306.6042 L1113.6667,306.6042 L1113.6667,303.1042 L1111.3333,303.1042 " fill="#000000" style="stroke:;stroke-width:0.0;stroke-dasharray:;"/><text fill="#000000" font-family="sans-serif" font-size="14" lengthAdjust="spacing" textLength="99" x="1122.1667" y="312.6357">ECLAIRELabel</text><line style="stroke:#0000FF;stroke-width:1.0;" x1="1003.5" x2="1324.5" y1="317.9375" y2="317.9375"/><text fill="#000000" font-family="sans-serif" font-size="14" lengthAdjust="spacing" textLength="36" x="1013" y="332.9326">Type</text><text fill="#000000" font-family="sans-serif" font-size="14" lengthAdjust="spacing" textLength="256" x="1063.5" y="332.9326">labelType : CodeableConcept [0..1]</text><line style="stroke:#0000FF;stroke-width:1.0;" x1="1058.5" x2="1058.5" y1="317.9375" y2="338.2344"/><line style="stroke:#0000FF;stroke-width:1.0;" x1="1003.5" x2="1324.5" y1="338.2344" y2="338.2344"/><text fill="#000000" font-family="sans-serif" font-size="14" lengthAdjust="spacing" textLength="45" x="1008.5" y="353.2295">Valeur</text><text fill="#000000" font-family="sans-serif" font-size="14" lengthAdjust="spacing" textLength="171" x="1063.5" y="353.2295">labelValue : string [0..1]</text><line style="stroke:#0000FF;stroke-width:1.0;" x1="1058.5" x2="1058.5" y1="338.2344" y2="358.5313"/></g><g id="elem_Group"><rect fill="#C9FFC9" height="170.6719" style="stroke:#181818;stroke-width:0.5;" width="439" x="266.5" y="937.6406"/><rect fill="#90EE90" height="20.2969" style="stroke:#181818;stroke-width:0.5;" width="439" x="266.5" y="937.6406"/><text fill="#000000" font-family="sans-serif" font-size="14" lengthAdjust="spacing" textLength="44" x="464" y="952.6357">Group</text><line style="stroke:#181818;stroke-width:1.0;" x1="266.5" x2="705.5" y1="957.9375" y2="957.9375"/><text fill="#000000" font-family="sans-serif" font-size="14" lengthAdjust="spacing" textLength="83" x="295" y="972.9326">Identifiant*</text><text fill="#000000" font-family="sans-serif" font-size="14" lengthAdjust="spacing" textLength="187" x="411.5" y="972.9326">identifier : Identifier [0..*]</text><line style="stroke:#181818;stroke-width:1.0;" x1="406.5" x2="406.5" y1="957.9375" y2="978.2344"/><line style="stroke:#181818;stroke-width:1.0;" x1="266.5" x2="705.5" y1="978.2344" y2="978.2344"/><text fill="#000000" font-family="sans-serif" font-size="14" lengthAdjust="spacing" textLength="120" x="276.5" y="993.2295">Type de groupe*</text><text fill="#000000" font-family="sans-serif" font-size="14" lengthAdjust="spacing" textLength="206" x="411.5" y="993.2295">type : code [1..1] = "Person"</text><line style="stroke:#181818;stroke-width:1.0;" x1="406.5" x2="406.5" y1="978.2344" y2="998.5313"/><line style="stroke:#181818;stroke-width:1.0;" x1="266.5" x2="705.5" y1="998.5313" y2="998.5313"/><text fill="#000000" font-family="sans-serif" font-size="14" lengthAdjust="spacing" textLength="97" x="288" y="1013.5264">Groupe actif*</text><text fill="#000000" font-family="sans-serif" font-size="14" lengthAdjust="spacing" textLength="221" x="411.5" y="1013.5264">actual : boolean [1..1] = "True"</text><line style="stroke:#181818;stroke-width:1.0;" x1="406.5" x2="406.5" y1="998.5313" y2="1018.8281"/><line style="stroke:#181818;stroke-width:1.0;" x1="266.5" x2="705.5" y1="1018.8281" y2="1018.8281"/><text fill="#000000" font-family="sans-serif" font-size="14" lengthAdjust="spacing" textLength="130" x="271.5" y="1033.8232">Effectif &#224; recruter</text><text fill="#000000" font-family="sans-serif" font-size="14" lengthAdjust="spacing" textLength="199" x="411.5" y="1033.8232">quantity : unsignedInt [0..1]</text><line style="stroke:#181818;stroke-width:1.0;" x1="406.5" x2="406.5" y1="1018.8281" y2="1039.125"/><line style="stroke:#181818;stroke-width:1.0;" x1="266.5" x2="705.5" y1="1039.125" y2="1039.125"/><text fill="#000000" font-family="sans-serif" font-size="14" lengthAdjust="spacing" textLength="58" x="277.5" y="1054.1201">Crit&#232;res</text><text fill="#000000" font-family="sans-serif" font-size="14" lengthAdjust="spacing" textLength="28" x="281.5" y="1070.417">Age</text><text fill="#000000" font-family="sans-serif" font-size="14" lengthAdjust="spacing" textLength="44" x="281.5" y="1086.7139">Genre</text><text fill="#000000" font-family="sans-serif" font-size="14" lengthAdjust="spacing" textLength="114" x="281.5" y="1103.0107">Groupe de sujet</text><text fill="#000000" font-family="sans-serif" font-size="14" lengthAdjust="spacing" textLength="4" x="411.5" y="1054.1201">&#160;</text><text fill="#000000" font-family="sans-serif" font-size="14" lengthAdjust="spacing" textLength="285" x="415.5" y="1070.417">characteristic : BackboneElement [0..*]</text><line style="stroke:#181818;stroke-width:1.0;" x1="406.5" x2="406.5" y1="1039.125" y2="1108.3125"/></g><g id="elem_Characteristic"><rect fill="#C9FFC9" height="81.1875" style="stroke:#181818;stroke-width:0.5;" width="306" x="333" y="1175.6406"/><rect fill="#90EE90" height="20.2969" style="stroke:#181818;stroke-width:0.5;" width="306" x="333" y="1175.6406"/><text fill="#000000" font-family="sans-serif" font-size="14" lengthAdjust="spacing" textLength="101" x="435.5" y="1190.6357">Characteristic</text><line style="stroke:#181818;stroke-width:1.0;" x1="333" x2="639" y1="1195.9375" y2="1195.9375"/><text fill="#000000" font-family="sans-serif" font-size="14" lengthAdjust="spacing" textLength="36" x="353" y="1210.9326">Type</text><text fill="#000000" font-family="sans-serif" font-size="14" lengthAdjust="spacing" textLength="220" x="414" y="1210.9326">code : CodeableConcept [1..1]</text><line style="stroke:#181818;stroke-width:1.0;" x1="409" x2="409" y1="1195.9375" y2="1216.2344"/><line style="stroke:#181818;stroke-width:1.0;" x1="333" x2="639" y1="1216.2344" y2="1216.2344"/><text fill="#000000" font-family="sans-serif" font-size="14" lengthAdjust="spacing" textLength="45" x="348.5" y="1231.2295">Valeur</text><text fill="#000000" font-family="sans-serif" font-size="14" lengthAdjust="spacing" textLength="106" x="414" y="1231.2295">value[x] : [1..1]</text><line style="stroke:#181818;stroke-width:1.0;" x1="409" x2="409" y1="1216.2344" y2="1236.5313"/><line style="stroke:#181818;stroke-width:1.0;" x1="333" x2="639" y1="1236.5313" y2="1236.5313"/><text fill="#000000" font-family="sans-serif" font-size="14" lengthAdjust="spacing" textLength="66" x="338" y="1251.5264">Exclusion</text><text fill="#000000" font-family="sans-serif" font-size="14" lengthAdjust="spacing" textLength="168" x="414" y="1251.5264">exclude : boolean [1..1]</text><line style="stroke:#181818;stroke-width:1.0;" x1="409" x2="409" y1="1236.5313" y2="1256.8281"/></g><g id="elem_Organization"><rect fill="#FFFFCC" height="101.4844" style="stroke:#181818;stroke-width:0.5;" width="345" x="756.5" y="972.1406"/><rect fill="#FFD700" height="20.2969" style="stroke:#181818;stroke-width:0.5;" width="345" x="756.5" y="972.1406"/><text fill="#000000" font-family="sans-serif" font-size="14" lengthAdjust="spacing" textLength="92" x="883" y="987.1357">Organization</text><line style="stroke:#181818;stroke-width:1.0;" x1="756.5" x2="1101.5" y1="992.4375" y2="992.4375"/><text fill="#000000" font-family="sans-serif" font-size="14" lengthAdjust="spacing" textLength="83" x="761.5" y="1007.4326">Identifiant*</text><text fill="#000000" font-family="sans-serif" font-size="14" lengthAdjust="spacing" textLength="187" x="854.5" y="1007.4326">identifier : Identifier [0..*]</text><line style="stroke:#181818;stroke-width:1.0;" x1="849.5" x2="849.5" y1="992.4375" y2="1012.7344"/><line style="stroke:#181818;stroke-width:1.0;" x1="756.5" x2="1101.5" y1="1012.7344" y2="1012.7344"/><text fill="#000000" font-family="sans-serif" font-size="14" lengthAdjust="spacing" textLength="33" x="786.5" y="1027.7295">Nom</text><text fill="#000000" font-family="sans-serif" font-size="14" lengthAdjust="spacing" textLength="137" x="854.5" y="1027.7295">name : string [0..1]</text><line style="stroke:#181818;stroke-width:1.0;" x1="849.5" x2="849.5" y1="1012.7344" y2="1033.0313"/><line style="stroke:#181818;stroke-width:1.0;" x1="756.5" x2="1101.5" y1="1033.0313" y2="1033.0313"/><text fill="#000000" font-family="sans-serif" font-size="14" lengthAdjust="spacing" textLength="57" x="774.5" y="1048.0264">Adresse</text><text fill="#000000" font-family="sans-serif" font-size="14" lengthAdjust="spacing" textLength="165" x="854.5" y="1048.0264">address : Address [0..*]</text><line style="stroke:#181818;stroke-width:1.0;" x1="849.5" x2="849.5" y1="1033.0313" y2="1053.3281"/><line style="stroke:#181818;stroke-width:1.0;" x1="756.5" x2="1101.5" y1="1053.3281" y2="1053.3281"/><text fill="#000000" font-family="sans-serif" font-size="14" lengthAdjust="spacing" textLength="58" x="774" y="1068.3232">Contact</text><text fill="#000000" font-family="sans-serif" font-size="14" lengthAdjust="spacing" textLength="242" x="854.5" y="1068.3232">contact : BackboneElement [0..*]</text><line style="stroke:#181818;stroke-width:1.0;" x1="849.5" x2="849.5" y1="1053.3281" y2="1073.625"/></g><g id="elem_Location"><rect fill="#FFE4E1" height="101.4844" style="stroke:#181818;stroke-width:0.5;" width="312" x="1153" y="972.1406"/><rect fill="#EE82EE" height="20.2969" style="stroke:#181818;stroke-width:0.5;" width="312" x="1153" y="972.1406"/><text fill="#000000" font-family="sans-serif" font-size="14" lengthAdjust="spacing" textLength="62" x="1278" y="987.1357">Location</text><line style="stroke:#181818;stroke-width:1.0;" x1="1153" x2="1465" y1="992.4375" y2="992.4375"/><text fill="#000000" font-family="sans-serif" font-size="14" lengthAdjust="spacing" textLength="83" x="1158" y="1007.4326">Identifiant*</text><text fill="#000000" font-family="sans-serif" font-size="14" lengthAdjust="spacing" textLength="187" x="1251" y="1007.4326">identifier : Identifier [0..*]</text><line style="stroke:#181818;stroke-width:1.0;" x1="1246" x2="1246" y1="992.4375" y2="1012.7344"/><line style="stroke:#181818;stroke-width:1.0;" x1="1153" x2="1465" y1="1012.7344" y2="1012.7344"/><text fill="#000000" font-family="sans-serif" font-size="14" lengthAdjust="spacing" textLength="33" x="1183" y="1027.7295">Nom</text><text fill="#000000" font-family="sans-serif" font-size="14" lengthAdjust="spacing" textLength="137" x="1251" y="1027.7295">name : string [0..1]</text><line style="stroke:#181818;stroke-width:1.0;" x1="1246" x2="1246" y1="1012.7344" y2="1033.0313"/><line style="stroke:#181818;stroke-width:1.0;" x1="1153" x2="1465" y1="1033.0313" y2="1033.0313"/><text fill="#000000" font-family="sans-serif" font-size="14" lengthAdjust="spacing" textLength="57" x="1171" y="1048.0264">Adresse</text><text fill="#000000" font-family="sans-serif" font-size="14" lengthAdjust="spacing" textLength="167" x="1251" y="1048.0264">address : Address [0..1]</text><line style="stroke:#181818;stroke-width:1.0;" x1="1246" x2="1246" y1="1033.0313" y2="1053.3281"/><line style="stroke:#181818;stroke-width:1.0;" x1="1153" x2="1465" y1="1053.3281" y2="1053.3281"/><text fill="#000000" font-family="sans-serif" font-size="14" lengthAdjust="spacing" textLength="58" x="1170.5" y="1068.3232">Contact</text><text fill="#000000" font-family="sans-serif" font-size="14" lengthAdjust="spacing" textLength="209" x="1251" y="1068.3232">telecom : ContactPoint [0..*]</text><line style="stroke:#181818;stroke-width:1.0;" x1="1246" x2="1246" y1="1053.3281" y2="1073.625"/></g><g id="elem_Telecom"><rect fill="#FFE4E1" height="81.1875" style="stroke:#181818;stroke-width:0.5;" width="431.3333" x="1093.5" y="1175.6406"/><rect fill="#EE82EE" height="20.2969" style="stroke:#181818;stroke-width:0.5;" width="431.3333" x="1093.5" y="1175.6406"/><text fill="#000000" font-family="sans-serif" font-size="14" lengthAdjust="spacing" textLength="62" x="1278.1667" y="1190.6357">Telecom</text><line style="stroke:#181818;stroke-width:1.0;" x1="1093.5" x2="1524.8333" y1="1195.9375" y2="1195.9375"/><text fill="#000000" font-family="sans-serif" font-size="14" lengthAdjust="spacing" textLength="63" x="1098.5" y="1210.9326">Syst&#232;me</text><text fill="#000000" font-family="sans-serif" font-size="14" lengthAdjust="spacing" textLength="142" x="1171.5" y="1210.9326">system : code [0..1]</text><line style="stroke:#181818;stroke-width:1.0;" x1="1166.5" x2="1166.5" y1="1195.9375" y2="1216.2344"/><line style="stroke:#181818;stroke-width:1.0;" x1="1093.5" x2="1524.8333" y1="1216.2344" y2="1216.2344"/><text fill="#000000" font-family="sans-serif" font-size="14" lengthAdjust="spacing" textLength="45" x="1107.5" y="1231.2295">Valeur</text><text fill="#000000" font-family="sans-serif" font-size="14" lengthAdjust="spacing" textLength="134" x="1171.5" y="1231.2295">value : string [0..1]</text><line style="stroke:#181818;stroke-width:1.0;" x1="1166.5" x2="1166.5" y1="1216.2344" y2="1236.5313"/><line style="stroke:#181818;stroke-width:1.0;" x1="1093.5" x2="1524.8333" y1="1236.5313" y2="1236.5313"/><text fill="#000000" font-family="sans-serif" font-size="14" lengthAdjust="spacing" textLength="33" x="1113.5" y="1251.5264">Nom</text><path d="M1176,1241.9948 L1176,1245.4948 L1172.5,1245.4948 L1172.5,1247.8281 L1176,1247.8281 L1176,1251.3281 L1178.3333,1251.3281 L1178.3333,1247.8281 L1181.8333,1247.8281 L1181.8333,1245.4948 L1178.3333,1245.4948 L1178.3333,1241.9948 L1176,1241.9948 " fill="#000000" style="stroke:;stroke-width:0.0;stroke-dasharray:;"/><text fill="#000000" font-family="sans-serif" font-size="14" lengthAdjust="spacing" textLength="333" x="1186.8333" y="1251.5264">ECLAIRESiteContactName : HumanName [0..1]</text><line style="stroke:#181818;stroke-width:1.0;" x1="1166.5" x2="1166.5" y1="1236.5313" y2="1256.8281"/></g><g id="elem_RS"><rect fill="#F0F8FF" height="405.9375" style="stroke:#0000FF;stroke-width:0.5;" width="1129.3333" x="364.5" y="464.6406"/><rect fill="#87CEFA" height="20.2969" style="stroke:#0000FF;stroke-width:0.5;" width="1129.3333" x="364.5" y="464.6406"/><text fill="#000000" font-family="sans-serif" font-size="14" lengthAdjust="spacing" textLength="212" x="823.1667" y="479.6357">EssaiClinique : ResearchStudy</text><line style="stroke:#0000FF;stroke-width:1.0;" x1="364.5" x2="1493.8333" y1="484.9375" y2="484.9375"/><text fill="#000000" font-family="sans-serif" font-size="14" lengthAdjust="spacing" textLength="404" x="390.5" y="499.9326">Identifiant (Primary and Secondary Identifying Numbers)</text><path d="M826.5,490.401 L826.5,495.0677 L831.1667,495.0677 L831.1667,490.401 L826.5,490.401 M832.3333,492.7344 L832.3333,496.2344 L828.8333,496.2344 L828.8333,497.401 L833.5,497.401 L833.5,492.7344 L832.3333,492.7344 M834.6667,495.0677 L834.6667,498.5677 L831.1667,498.5677 L831.1667,499.7344 L835.8333,499.7344 L835.8333,495.0677 L834.6667,495.0677 " fill="#000000" style="stroke:;stroke-width:0.0;stroke-dasharray:;"/><text fill="#000000" font-family="sans-serif" font-size="14" lengthAdjust="spacing" textLength="187" x="840.8333" y="499.9326">identifier : Identifier [0..*]</text><line style="stroke:#0000FF;stroke-width:1.0;" x1="820.5" x2="820.5" y1="484.9375" y2="505.2344"/><line style="stroke:#0000FF;stroke-width:1.0;" x1="364.5" x2="1493.8333" y1="505.2344" y2="505.2344"/><text fill="#000000" font-family="sans-serif" font-size="14" lengthAdjust="spacing" textLength="193" x="496" y="520.2295">Date de r&#233;vision technique</text><text fill="#000000" font-family="sans-serif" font-size="14" lengthAdjust="spacing" textLength="236" x="825.5" y="520.2295">meta.lastUpdated : instant [0..1]</text><line style="stroke:#0000FF;stroke-width:1.0;" x1="820.5" x2="820.5" y1="505.2344" y2="525.5313"/><line style="stroke:#0000FF;stroke-width:1.0;" x1="364.5" x2="1493.8333" y1="525.5313" y2="525.5313"/><text fill="#000000" font-family="sans-serif" font-size="14" lengthAdjust="spacing" textLength="217" x="484" y="540.5264">Date de r&#233;vision fonctionnelle</text><path d="M830,530.9948 L830,534.4948 L826.5,534.4948 L826.5,536.8281 L830,536.8281 L830,540.3281 L832.3333,540.3281 L832.3333,536.8281 L835.8333,536.8281 L835.8333,534.4948 L832.3333,534.4948 L832.3333,530.9948 L830,530.9948 " fill="#000000" style="stroke:;stroke-width:0.0;stroke-dasharray:;"/><text fill="#000000" font-family="sans-serif" font-size="14" lengthAdjust="spacing" textLength="252" x="840.8333" y="540.5264">ECLAIREReviewDate : instant [0..1]</text><line style="stroke:#0000FF;stroke-width:1.0;" x1="820.5" x2="820.5" y1="525.5313" y2="545.8281"/><line style="stroke:#0000FF;stroke-width:1.0;" x1="364.5" x2="1493.8333" y1="545.8281" y2="545.8281"/><text fill="#000000" font-family="sans-serif" font-size="14" lengthAdjust="spacing" textLength="237" x="474" y="560.8232">Nom de l'essai (Scientifique title)</text><text fill="#000000" font-family="sans-serif" font-size="14" lengthAdjust="spacing" textLength="128" x="825.5" y="560.8232">title : string [0..1]</text><line style="stroke:#0000FF;stroke-width:1.0;" x1="820.5" x2="820.5" y1="545.8281" y2="566.125"/><line style="stroke:#0000FF;stroke-width:1.0;" x1="364.5" x2="1493.8333" y1="566.125" y2="566.125"/><text fill="#000000" font-family="sans-serif" font-size="14" lengthAdjust="spacing" textLength="251" x="467" y="581.1201">Autres noms de l'essai (Public title)</text><path d="M830,571.5885 L830,575.0885 L826.5,575.0885 L826.5,577.4219 L830,577.4219 L830,580.9219 L832.3333,580.9219 L832.3333,577.4219 L835.8333,577.4219 L835.8333,575.0885 L832.3333,575.0885 L832.3333,571.5885 L830,571.5885 " fill="#000000" style="stroke:;stroke-width:0.0;stroke-dasharray:;"/><text fill="#000000" font-family="sans-serif" font-size="14" lengthAdjust="spacing" textLength="420" x="840.8333" y="581.1201">R5 ECLAIRELabel : Extension R5 ResearchStudy.label [0..*]</text><line style="stroke:#0000FF;stroke-width:1.0;" x1="820.5" x2="820.5" y1="566.125" y2="586.4219"/><line style="stroke:#0000FF;stroke-width:1.0;" x1="364.5" x2="1493.8333" y1="586.4219" y2="586.4219"/><text fill="#000000" font-family="sans-serif" font-size="14" lengthAdjust="spacing" textLength="115" x="535" y="601.417">Statut de l'essai</text><text fill="#000000" font-family="sans-serif" font-size="14" lengthAdjust="spacing" textLength="134" x="825.5" y="601.417">status : code [1..1]</text><line style="stroke:#0000FF;stroke-width:1.0;" x1="820.5" x2="820.5" y1="586.4219" y2="606.7188"/><line style="stroke:#0000FF;stroke-width:1.0;" x1="364.5" x2="1493.8333" y1="606.7188" y2="606.7188"/><text fill="#000000" font-family="sans-serif" font-size="14" lengthAdjust="spacing" textLength="260" x="462.5" y="621.7139">Phase de l'essai (Study type : phase)</text><text fill="#000000" font-family="sans-serif" font-size="14" lengthAdjust="spacing" textLength="228" x="825.5" y="621.7139">phase : CodeableConcept [0..1]</text><line style="stroke:#0000FF;stroke-width:1.0;" x1="820.5" x2="820.5" y1="606.7188" y2="627.0156"/><line style="stroke:#0000FF;stroke-width:1.0;" x1="364.5" x2="1493.8333" y1="627.0156" y2="627.0156"/><text fill="#000000" font-family="sans-serif" font-size="14" lengthAdjust="spacing" textLength="290" x="447.5" y="642.0107">Type d'essai (Study type : type of study)</text><text fill="#000000" font-family="sans-serif" font-size="14" lengthAdjust="spacing" textLength="247" x="825.5" y="642.0107">category : CodeableConcept [0..*]</text><line style="stroke:#0000FF;stroke-width:1.0;" x1="820.5" x2="820.5" y1="627.0156" y2="647.3125"/><line style="stroke:#0000FF;stroke-width:1.0;" x1="364.5" x2="1493.8333" y1="647.3125" y2="647.3125"/><text fill="#000000" font-family="sans-serif" font-size="14" lengthAdjust="spacing" textLength="420" x="382.5" y="662.3076">Sujet concern&#233; (Health Condition(s) or Problem(s) Studied)</text><path d="M826.5,652.776 L826.5,657.4427 L831.1667,657.4427 L831.1667,652.776 L826.5,652.776 M832.3333,655.1094 L832.3333,658.6094 L828.8333,658.6094 L828.8333,659.776 L833.5,659.776 L833.5,655.1094 L832.3333,655.1094 M834.6667,657.4427 L834.6667,660.9427 L831.1667,660.9427 L831.1667,662.1094 L835.8333,662.1094 L835.8333,657.4427 L834.6667,657.4427 " fill="#000000" style="stroke:;stroke-width:0.0;stroke-dasharray:;"/><text fill="#000000" font-family="sans-serif" font-size="14" lengthAdjust="spacing" textLength="317" x="840.8333" y="662.3076">condition : CodeableConcept [0..*] (MeDRA)</text><line style="stroke:#0000FF;stroke-width:1.0;" x1="820.5" x2="820.5" y1="647.3125" y2="667.6094"/><line style="stroke:#0000FF;stroke-width:1.0;" x1="364.5" x2="1493.8333" y1="667.6094" y2="667.6094"/><text fill="#000000" font-family="sans-serif" font-size="14" lengthAdjust="spacing" textLength="178" x="503.5" y="682.6045">Domaine th&#233;rapeutique*</text><path d="M830,673.0729 L830,676.5729 L826.5,676.5729 L826.5,678.9063 L830,678.9063 L830,682.4063 L832.3333,682.4063 L832.3333,678.9063 L835.8333,678.9063 L835.8333,676.5729 L832.3333,676.5729 L832.3333,673.0729 L830,673.0729 " fill="#000000" style="stroke:;stroke-width:0.0;stroke-dasharray:;"/><text fill="#000000" font-family="sans-serif" font-size="14" lengthAdjust="spacing" textLength="277" x="840.8333" y="682.6045">ECLAIRETherapeuticArea : string [0..1]</text><line style="stroke:#0000FF;stroke-width:1.0;" x1="820.5" x2="820.5" y1="667.6094" y2="687.9063"/><line style="stroke:#0000FF;stroke-width:1.0;" x1="364.5" x2="1493.8333" y1="687.9063" y2="687.9063"/><text fill="#000000" font-family="sans-serif" font-size="14" lengthAdjust="spacing" textLength="126" x="529.5" y="702.9014">R&#233;sum&#233; de l'essai</text><text fill="#000000" font-family="sans-serif" font-size="14" lengthAdjust="spacing" textLength="212" x="825.5" y="702.9014">description : markdown [0..1]</text><line style="stroke:#0000FF;stroke-width:1.0;" x1="820.5" x2="820.5" y1="687.9063" y2="708.2031"/><line style="stroke:#0000FF;stroke-width:1.0;" x1="364.5" x2="1493.8333" y1="708.2031" y2="708.2031"/><text fill="#000000" font-family="sans-serif" font-size="14" lengthAdjust="spacing" textLength="314" x="435.5" y="723.1982">Texte bref d&#233;crivant l'essai (Brief summary)</text><path d="M830,713.6667 L830,717.1667 L826.5,717.1667 L826.5,719.5 L830,719.5 L830,723 L832.3333,723 L832.3333,719.5 L835.8333,719.5 L835.8333,717.1667 L832.3333,717.1667 L832.3333,713.6667 L830,713.6667 " fill="#000000" style="stroke:;stroke-width:0.0;stroke-dasharray:;"/><text fill="#000000" font-family="sans-serif" font-size="14" lengthAdjust="spacing" textLength="648" x="840.8333" y="723.1982">R5 ECLAIREDescriptionSummary : Extension R5 ResearchStudy.descriptionSummary [0..1]</text><line style="stroke:#0000FF;stroke-width:1.0;" x1="820.5" x2="820.5" y1="708.2031" y2="728.5"/><line style="stroke:#0000FF;stroke-width:1.0;" x1="364.5" x2="1493.8333" y1="728.5" y2="728.5"/><text fill="#000000" font-family="sans-serif" font-size="14" lengthAdjust="spacing" textLength="278" x="453.5" y="743.4951">P&#233;riode pr&#233;visionnelle de recrutement</text><path d="M830,733.9635 L830,737.4635 L826.5,737.4635 L826.5,739.7969 L830,739.7969 L830,743.2969 L832.3333,743.2969 L832.3333,739.7969 L835.8333,739.7969 L835.8333,737.4635 L832.3333,737.4635 L832.3333,733.9635 L830,733.9635 " fill="#000000" style="stroke:;stroke-width:0.0;stroke-dasharray:;"/><text fill="#000000" font-family="sans-serif" font-size="14" lengthAdjust="spacing" textLength="299" x="840.8333" y="743.4951">ECLAIRERecruitmentPeriod : period [0..1]</text><line style="stroke:#0000FF;stroke-width:1.0;" x1="820.5" x2="820.5" y1="728.5" y2="748.7969"/><line style="stroke:#0000FF;stroke-width:1.0;" x1="364.5" x2="1493.8333" y1="748.7969" y2="748.7969"/><text fill="#000000" font-family="sans-serif" font-size="14" lengthAdjust="spacing" textLength="338" x="423.5" y="763.792">Contact (Contact for public / scientific queries)</text><text fill="#000000" font-family="sans-serif" font-size="14" lengthAdjust="spacing" textLength="210" x="825.5" y="763.792">contact : ContactDetail [0..*]</text><line style="stroke:#0000FF;stroke-width:1.0;" x1="820.5" x2="820.5" y1="748.7969" y2="769.0938"/><line style="stroke:#0000FF;stroke-width:1.0;" x1="364.5" x2="1493.8333" y1="769.0938" y2="769.0938"/><text fill="#000000" font-family="sans-serif" font-size="14" lengthAdjust="spacing" textLength="446" x="369.5" y="784.0889">Participants (Key Inclusion and Exclusion Criteria, Sample size)</text><text fill="#000000" font-family="sans-serif" font-size="14" lengthAdjust="spacing" textLength="262" x="825.5" y="784.0889">enrollment : Reference(Group) [0..*]</text><line style="stroke:#0000FF;stroke-width:1.0;" x1="820.5" x2="820.5" y1="769.0938" y2="789.3906"/><line style="stroke:#0000FF;stroke-width:1.0;" x1="364.5" x2="1493.8333" y1="789.3906" y2="789.3906"/><text fill="#000000" font-family="sans-serif" font-size="14" lengthAdjust="spacing" textLength="37" x="574" y="804.3857">Lieux</text><text fill="#000000" font-family="sans-serif" font-size="14" lengthAdjust="spacing" textLength="227" x="825.5" y="804.3857">site : Reference(Location) [0..*]</text><line style="stroke:#0000FF;stroke-width:1.0;" x1="820.5" x2="820.5" y1="789.3906" y2="809.6875"/><line style="stroke:#0000FF;stroke-width:1.0;" x1="364.5" x2="1493.8333" y1="809.6875" y2="809.6875"/><text fill="#000000" font-family="sans-serif" font-size="14" lengthAdjust="spacing" textLength="347" x="419" y="824.6826">Pays de recrutement (Countries of Recruitment)</text><text fill="#000000" font-family="sans-serif" font-size="14" lengthAdjust="spacing" textLength="241" x="825.5" y="824.6826">location : CodeableConcept [0..*]</text><line style="stroke:#0000FF;stroke-width:1.0;" x1="820.5" x2="820.5" y1="809.6875" y2="829.9844"/><line style="stroke:#0000FF;stroke-width:1.0;" x1="364.5" x2="1493.8333" y1="829.9844" y2="829.9844"/><text fill="#000000" font-family="sans-serif" font-size="14" lengthAdjust="spacing" textLength="274" x="455.5" y="844.9795">Promoteur principal (Primary sponsor)</text><text fill="#000000" font-family="sans-serif" font-size="14" lengthAdjust="spacing" textLength="289" x="825.5" y="844.9795">sponsor : Reference(Organization) [0..1]</text><line style="stroke:#0000FF;stroke-width:1.0;" x1="820.5" x2="820.5" y1="829.9844" y2="850.2813"/><line style="stroke:#0000FF;stroke-width:1.0;" x1="364.5" x2="1493.8333" y1="850.2813" y2="850.2813"/><text fill="#000000" font-family="sans-serif" font-size="14" lengthAdjust="spacing" textLength="328" x="428.5" y="865.2764">Promoteur secondaire (Secondary Sponsor(s))</text><path d="M830,855.7448 L830,859.2448 L826.5,859.2448 L826.5,861.5781 L830,861.5781 L830,865.0781 L832.3333,865.0781 L832.3333,861.5781 L835.8333,861.5781 L835.8333,859.2448 L832.3333,859.2448 L832.3333,855.7448 L830,855.7448 " fill="#000000" style="stroke:;stroke-width:0.0;stroke-dasharray:;"/><text fill="#000000" font-family="sans-serif" font-size="14" lengthAdjust="spacing" textLength="428" x="840.8333" y="865.2764">ECLAIRESecondarySponsor  : Reference(Organization) [0..*]</text><line style="stroke:#0000FF;stroke-width:1.0;" x1="820.5" x2="820.5" y1="850.2813" y2="870.5781"/></g><!--link RS to Location--><g id="link_RS_Location"><path codeLine="87" d="M1158.8361,881.9461 C1196.2261,916.7291 1218.7868,937.7181 1246.8768,963.8471 " fill="none" id="RS-Location" style="stroke:#EE82EE;stroke-width:4.0;stroke-dasharray:7.0,7.0;"/><polygon fill="#EE82EE" points="1150.05,873.7726,1151.7185,880.788,1158.8361,881.9461,1157.1675,874.9307,1150.05,873.7726" style="stroke:#EE82EE;stroke-width:4.0;"/><polygon fill="#EE82EE" points="1251.27,967.9336,1247.4045,958.875,1247.609,964.5282,1241.9558,964.7327,1251.27,967.9336" style="stroke:#EE82EE;stroke-width:4.0;"/></g><!--link RS to Group--><g id="link_RS_Group"><path codeLine="88" d="M661.9254,881.2575 C635.7534,902.1425 624.3428,911.2472 601.0718,929.8172 " fill="none" id="RS-Group" style="stroke:#90EE90;stroke-width:4.0;stroke-dasharray:7.0,7.0;"/><polygon fill="#90EE90" points="671.305,873.7726,664.1202,874.3885,661.9254,881.2575,669.1101,880.6416,671.305,873.7726" style="stroke:#90EE90;stroke-width:4.0;"/><polygon fill="#90EE90" points="596.382,933.5596,605.9117,931.0725,600.2902,930.4409,600.9218,924.8195,596.382,933.5596" style="stroke:#90EE90;stroke-width:4.0;"/></g><!--link RS to Organization--><g id="link_RS_Organization"><path codeLine="89" d="M929,885.7726 C929,920.5556 929,935.8046 929,961.9336 " fill="none" id="RS-Organization" style="stroke:#FFD700;stroke-width:4.0;stroke-dasharray:7.0,7.0;"/><polygon fill="#FFD700" points="929,873.7726,925,879.7726,929,885.7726,933,879.7726,929,873.7726" style="stroke:#FFD700;stroke-width:4.0;"/><polygon fill="#FFD700" points="929,967.9336,933,958.9336,929,962.9336,925,958.9336,929,967.9336" style="stroke:#FFD700;stroke-width:4.0;"/></g><!--link slice_identifier to RS--><g id="link_slice_identifier_RS"><path codeLine="91" d="M321.084,667.1406 C332.859,667.1406 344.633,667.1406 356.408,667.1406 " fill="none" id="slice_identifier-RS" style="stroke:#ADD8E6;stroke-width:2.0;"/></g><!--link RS to slice_condition--><g id="link_RS_slice_condition"><path codeLine="92" d="M1501.62,667.1406 C1513.15,667.1406 1524.68,667.1406 1536.2,667.1406 " fill="none" id="RS-slice_condition" style="stroke:#ADD8E6;stroke-width:2.0;"/></g><!--link Contact to RS--><g id="link_Contact_RS"><path codeLine="93" d="M744.413,401.0426 C757.023,419.1526 771.183,439.4886 785.907,460.6346 " fill="none" id="Contact-RS" style="stroke:#ADD8E6;stroke-width:2.0;"/></g><!--link label to RS--><g id="link_label_RS"><path codeLine="94" d="M1140.82,361.9246 C1123.74,386.4546 1098.93,422.0986 1072.24,460.4176 " fill="none" id="label-RS" style="stroke:#ADD8E6;stroke-width:2.0;"/></g><!--link slice_name to Contact--><g id="link_slice_name_Contact"><path codeLine="95" d="M694,194.7006 C694,212.6406 694,234.1706 694,254.5706 " fill="none" id="slice_name-Contact" style="stroke:#ADD8E6;stroke-width:2.0;"/></g><!--link Group to Organization--><!--link Group to Characteristic--><g id="link_Group_Characteristic"><path codeLine="99" d="M486,1111.8236 C486,1132.5356 486,1147.7236 486,1165.4771 " fill="none" id="Group-to-Characteristic" style="stroke:#90EE90;stroke-width:2.0;"/><polygon fill="#90EE90" points="486,1171.4771,490,1162.4771,486,1166.4771,482,1162.4771,486,1171.4771" style="stroke:#90EE90;stroke-width:2.0;"/></g><!--link Location to Telecom--><g id="link_Location_Telecom"><path codeLine="100" d="M1309,1074.6406 C1309,1107.0826 1309,1137.7376 1309,1165.4723 " fill="none" id="Location-to-Telecom" style="stroke:#EE82EE;stroke-width:2.0;"/><polygon fill="#EE82EE" points="1309,1171.4723,1313,1162.4723,1309,1166.4723,1305,1162.4723,1309,1171.4723" style="stroke:#EE82EE;stroke-width:2.0;"/></g><!--SRC=[nLZRRXit47tNLn0Ea4X6xCH5-w8c1cHPjOt85sYT58Lh5DJkI6BDvMv8hcEbQB-bZz5twCSwG-vL5oTm7keNSScPuPovqp5FsKu_KPQ7zXWi5tA7SSFo7VPipCExRa-A48va1Z_FW4UWkqCndTdWRkxsf53G7UEA_TLY-7UHnEpj8LCy1jPbp5Wjr9JTlDxVFxXbZk9wkP3BHPZ4SQP4oAr8575Oa82Rn9JVVvK8PHthxYtBUUSf4F6RvwdCp24Rz8Uziz70CxX3nnu17ql0tH1IMrp-ksBjdQjiZ71sNkq4eG1bnGG_EavqBz9Wp7RfjXSv2hoXM7d1ddio4LAKOBP8g15rcwQfssupyuMtw6aMS-NMEUFVhLPCRYmFd0iDEUqFvuMdUZ42Dk6na19OUyYDTJxja89kUxuHmfLUBXGojtyHkcH1onz3zY2MNr2TjA0u5r64iakfKt4FAtRPhU2zUIxv73IQ9I0aJ4JUVQ1hUAlD9w4-ozavXbsAIeGYvP9K4z6L5Z7NyphKEhN1q5KH5neyUU2_SuP7O12Pe82eeIZtdWI2ef-TGtGywf4kiLlrIv6vFivNtCuIcKo5KpeI1hY1DSfAyqPK3laOVBMGj7gIgaKsEmbvzcvENaV-WKl8TCc0dnci1M6XxebEijJfvrQvVjU3_kd5vV3ovBU6WYSQCFJMWc3NExECgMvvY1zvNQg0eDcdT1KuDklXXEIDcmDNWDwodIjqFVdQSJd5W65kYudZmLM60TTbuoIHm5MDyLfdiEEu1fC940TR_iiqX3gpu6poCKEDXQMqp9GHKmNHcRADojlNmYw_OEcYZEnDWNvEG6c_yDgWkYRx4oo9nDrmnZMg1LeOAqAKVOHc72SA1X9YgCfpQVT-Wy6tawQCR_Q4iohfuOou8JGEAcXLRDnJMDmyt293dM3m46BuvkKPwCF9NB5q2UDIJxaIdtcPclMD7CBH- -3iOX041O2JH4RV4KJDphcXSTOw5D_OYmf9HVzsflFBhpjkc8GLsk8ZHtgEdfkF4bEczGU1PhF_AzY3TR3L2B5XWYY1NdigXpDVVnFCO6wiws1qbS4FYCi4Vxqr4ZUZszpf0s7XyMvVkMjW31TzhAZYexja15Y-TJWBR1RD7RPHyDrDi5sqFQuYLlMqd6HEg2woU8n5hUFX5CtjAo7WZN3ChQitE13S2vUQ5iAP1-Gwb-Nx4WUFzsc4b15A4ifONXMrRM8cM20eUXNGyB9kvn7S2_Za-DPariSV-GB8ognT3eka6XPPwISMjzeIlfcbEek3Zcb8ylDdJKQXskYdHcT5gOC72yhXmRE6U_TzowtdKs2vpMpzAWfIsZJDBkGx_mmxVHCXoIsQLah7JZktsjgLwyrleo3taqnG4Tnq0h6im3JHyoqoIpYk1OLqejLomTgdmAMTiN8wQMF49Hh7pGGbnFH55mk8LWAncgMsNjW-1voGEdam9J77X61sjbneda9coUUx6uBeUWOvGTZJm3U7mMYvC5cC09gEYS24MgIvNfXXTr7oIJMj2kX-DjOmOH6-bhIufo0j_NMa1PwWR4hFBO5qNDqIUCB7eofQfwzFzcWGGN6KbedcyujIpyyXhgziIZSy5PPESVv16HHYVj58vAAIjul513sS-eHvnKpvOCDH1xd1rvogmJNUiOrekk8QlOJ3lBA6jTy1LZ1LJ0DKsQhPW2OabCrVie37AO8puhFF11oJ4YaTGYgs4z20KTHsKrEdSTjGu5l7fP-mq20kkcfdHRkvMJKYcY1Jba1I-jGCw7IHHNVU5jFvKoo94qkzg7hBb0NTf8aoYNRYydL3rVguqscwgP9RU_Mqg-uGU76OavrDFQwWoydOLwvrtGARNWlRsUxUpJFVabz6tCmWUcbd8hnJc1DlVxpTEop7beAu6YctCFYtGK5E0zmMmhfYhTRQQnEP9Tr57RN6-iCjTc6IllryvSdNAc9_xr6HlW4yJbFx5y0ZXFbzhPOtnTxD39_be6vN4BlJRhTwGUmrpLkNURWoyRSAjo1_3LtkoIPdFf2XloLC0NFJ9YcJCB4OUbLLxtgpkJqVNLq6HM73tNzsgSJW31IzM2u-PbWx9OKN9hMooyN-H3CbsA-dboIW-ubhXNMxwuGeUWU7cN62y7wlnNy0]--></g></svg>