<?xml version="1.0" encoding="us-ascii" standalone="no"?><svg xmlns="http://www.w3.org/2000/svg" xmlns:xlink="http://www.w3.org/1999/xlink" contentStyleType="text/css" height="821px" preserveAspectRatio="none" style="width:1862px;height:821px;background:#FFFFFF;" version="1.1" viewBox="0 0 1862 821" width="1862px" zoomAndPan="magnify"><defs/><g><rect fill="#DDDDDD" height="58.8906" id="_legend" rx="7.5" ry="7.5" style="stroke:#000000;stroke-width:1.0;" width="277" x="12" y="12"/><path d="M18,20.4635 L18,25.1302 L22.6667,25.1302 L22.6667,20.4635 L18,20.4635 M23.8333,22.7969 L23.8333,26.2969 L20.3333,26.2969 L20.3333,27.4635 L25,27.4635 L25,22.7969 L23.8333,22.7969 M26.1667,25.1302 L26.1667,28.6302 L22.6667,28.6302 L22.6667,29.7969 L27.3333,29.7969 L27.3333,25.1302 L26.1667,25.1302 " fill="#000000" style="stroke:;stroke-width:0.0;stroke-dasharray:;"/><text fill="#000000" font-family="sans-serif" font-size="14" lengthAdjust="spacing" textLength="41" x="32.3333" y="29.9951">: slice</text><path d="M21.5,36.7604 L21.5,40.2604 L18,40.2604 L18,42.5938 L21.5,42.5938 L21.5,46.0938 L23.8333,46.0938 L23.8333,42.5938 L27.3333,42.5938 L27.3333,40.2604 L23.8333,40.2604 L23.8333,36.7604 L21.5,36.7604 " fill="#000000" style="stroke:;stroke-width:0.0;stroke-dasharray:;"/><text fill="#000000" font-family="sans-serif" font-size="14" lengthAdjust="spacing" textLength="80" x="32.3333" y="46.292">: extension</text><ellipse cx="22.5" cy="58.3906" fill="#000000" rx="2.5" ry="2.5" style="stroke:#000000;stroke-width:0.0;"/><text fill="#000000" font-family="sans-serif" font-size="14" lengthAdjust="spacing" textLength="255" x="29" y="62.5889">: pas d'&#233;quivalence Sant&#233;.fr ni WHO</text><g id="elem_Contact"><rect fill="#F0F8FF" height="97.4844" style="stroke:#0000FF;stroke-width:0.5;" width="371" x="1484" y="352.8906"/><rect fill="#87CEFA" height="20.2969" style="stroke:#0000FF;stroke-width:0.5;" width="371" x="1484" y="352.8906"/><text fill="#000000" font-family="sans-serif" font-size="14" lengthAdjust="spacing" textLength="101" x="1619" y="367.8857">ContactDetail</text><line style="stroke:#0000FF;stroke-width:1.0;" x1="1484" x2="1855" y1="373.1875" y2="373.1875"/><text fill="#000000" font-family="sans-serif" font-size="14" lengthAdjust="spacing" textLength="33" x="1543.5" y="388.1826">Nom</text><text fill="#000000" font-family="sans-serif" font-size="14" lengthAdjust="spacing" textLength="49" x="1641" y="388.1826">name :</text><text fill="#000000" font-family="sans-serif" font-size="14" font-style="italic" lengthAdjust="spacing" textLength="80" x="1698" y="388.1826">string [0..1]</text><line style="stroke:#0000FF;stroke-width:1.0;" x1="1636" x2="1636" y1="373.1875" y2="393.4844"/><line style="stroke:#0000FF;stroke-width:1.0;" x1="1484" x2="1855" y1="393.4844" y2="393.4844"/><text fill="#000000" font-family="sans-serif" font-size="14" lengthAdjust="spacing" textLength="142" x="1489" y="408.4795">T&#233;l&#233;communication</text><text fill="#000000" font-family="sans-serif" font-size="14" lengthAdjust="spacing" textLength="69" x="1641" y="408.4795">telecom :</text><text fill="#000000" font-family="sans-serif" font-size="14" font-style="italic" lengthAdjust="spacing" textLength="128" x="1718" y="408.4795">ContactPoint [0..*]</text><line style="stroke:#0000FF;stroke-width:1.0;" x1="1636" x2="1636" y1="393.4844" y2="413.7813"/><line style="stroke:#0000FF;stroke-width:1.0;" x1="1484" x2="1855" y1="413.7813" y2="413.7813"/><text fill="#000000" font-family="sans-serif" font-size="14" lengthAdjust="spacing" textLength="36" x="1542" y="428.7764">Type</text><text fill="#000000" font-family="sans-serif" font-size="14" lengthAdjust="spacing" textLength="85" x="1641" y="428.7764">contacType</text><path d="M1734.5,419.2448 L1734.5,422.7448 L1731,422.7448 L1731,425.0781 L1734.5,425.0781 L1734.5,428.5781 L1736.8333,428.5781 L1736.8333,425.0781 L1740.3333,425.0781 L1740.3333,422.7448 L1736.8333,422.7448 L1736.8333,419.2448 L1734.5,419.2448 " fill="#000000" style="stroke:;stroke-width:0.0;stroke-dasharray:;"/><text fill="#000000" font-family="sans-serif" font-size="14" lengthAdjust="spacing" textLength="5" x="1745.3333" y="428.7764">:</text><text fill="#000000" font-family="sans-serif" font-size="14" font-style="italic" lengthAdjust="spacing" textLength="75" x="1758.3333" y="428.7764">code [0..1]</text><text fill="#000000" font-family="sans-serif" font-size="14" lengthAdjust="spacing" textLength="4" x="1837.3333" y="428.7764">&#160;</text><text fill="#000000" font-family="sans-serif" font-size="14" lengthAdjust="spacing" textLength="4" x="1641" y="445.0732">&#160;</text><text fill="#000000" font-family="sans-serif" font-size="14" font-style="italic" lengthAdjust="spacing" textLength="146" x="1649" y="445.0732">("Public"/"Scientific")</text><line style="stroke:#0000FF;stroke-width:1.0;" x1="1636" x2="1636" y1="413.7813" y2="450.375"/></g><g id="elem_frStatus"><rect fill="#F0F8FF" height="60.8906" style="stroke:#0000FF;stroke-width:0.5;" width="307" x="846" y="90.8906"/><rect fill="#87CEFA" height="20.2969" style="stroke:#0000FF;stroke-width:0.5;" width="307" x="846" y="90.8906"/><text fill="#000000" font-family="sans-serif" font-size="14" lengthAdjust="spacing" textLength="58" x="962.8333" y="105.8857">frStatus</text><path d="M1029.3333,96.3542 L1029.3333,99.8542 L1025.8333,99.8542 L1025.8333,102.1875 L1029.3333,102.1875 L1029.3333,105.6875 L1031.6667,105.6875 L1031.6667,102.1875 L1035.1667,102.1875 L1035.1667,99.8542 L1031.6667,99.8542 L1031.6667,96.3542 L1029.3333,96.3542 " fill="#000000" style="stroke:;stroke-width:0.0;stroke-dasharray:;"/><line style="stroke:#0000FF;stroke-width:1.0;" x1="846" x2="1153" y1="111.1875" y2="111.1875"/><text fill="#000000" font-family="sans-serif" font-size="14" lengthAdjust="spacing" textLength="46" x="855.5" y="126.1826">Statut</text><text fill="#000000" font-family="sans-serif" font-size="14" lengthAdjust="spacing" textLength="53" x="916" y="126.1826">status :</text><text fill="#000000" font-family="sans-serif" font-size="14" font-style="italic" lengthAdjust="spacing" textLength="167" x="977" y="126.1826">CodeableConcept [0..1]</text><line style="stroke:#0000FF;stroke-width:1.0;" x1="911" x2="911" y1="111.1875" y2="131.4844"/><line style="stroke:#0000FF;stroke-width:1.0;" x1="846" x2="1153" y1="131.4844" y2="131.4844"/><text fill="#000000" font-family="sans-serif" font-size="14" lengthAdjust="spacing" textLength="55" x="851" y="146.4795">P&#233;riode</text><text fill="#000000" font-family="sans-serif" font-size="14" lengthAdjust="spacing" textLength="56" x="916" y="146.4795">period :</text><text fill="#000000" font-family="sans-serif" font-size="14" font-style="italic" lengthAdjust="spacing" textLength="85" x="980" y="146.4795">Period [0..1]</text><line style="stroke:#0000FF;stroke-width:1.0;" x1="911" x2="911" y1="131.4844" y2="151.7813"/></g><g id="elem_slice_identifier"><rect fill="#F0F8FF" height="60.8906" style="stroke:#0000FF;stroke-width:0.5;" width="304" x="210.5" y="371.3906"/><rect fill="#87CEFA" height="20.2969" style="stroke:#0000FF;stroke-width:0.5;" width="304" x="210.5" y="371.3906"/><text fill="#000000" font-family="sans-serif" font-size="14" lengthAdjust="spacing" textLength="105" x="302.3333" y="386.3857">Slice identifier</text><path d="M412.3333,376.8542 L412.3333,381.5208 L417,381.5208 L417,376.8542 L412.3333,376.8542 M418.1667,379.1875 L418.1667,382.6875 L414.6667,382.6875 L414.6667,383.8542 L419.3333,383.8542 L419.3333,379.1875 L418.1667,379.1875 M420.5,381.5208 L420.5,385.0208 L417,385.0208 L417,386.1875 L421.6667,386.1875 L421.6667,381.5208 L420.5,381.5208 " fill="#000000" style="stroke:;stroke-width:0.0;stroke-dasharray:;"/><line style="stroke:#0000FF;stroke-width:1.0;" x1="210.5" x2="514.5" y1="391.6875" y2="391.6875"/><text fill="#000000" font-family="sans-serif" font-size="14" lengthAdjust="spacing" textLength="143" x="223" y="406.6826">Identifiant principal</text><text fill="#000000" font-family="sans-serif" font-size="14" lengthAdjust="spacing" textLength="111" x="383.5" y="406.6826">primaryId [0..1]</text><line style="stroke:#0000FF;stroke-width:1.0;" x1="378.5" x2="378.5" y1="391.6875" y2="411.9844"/><line style="stroke:#0000FF;stroke-width:1.0;" x1="210.5" x2="514.5" y1="411.9844" y2="411.9844"/><text fill="#000000" font-family="sans-serif" font-size="14" lengthAdjust="spacing" textLength="158" x="215.5" y="426.9795">Identifiant secondaire</text><text fill="#000000" font-family="sans-serif" font-size="14" lengthAdjust="spacing" textLength="126" x="383.5" y="426.9795">secondaryId [0..*]</text><line style="stroke:#0000FF;stroke-width:1.0;" x1="378.5" x2="378.5" y1="411.9844" y2="432.2813"/></g><g id="elem_Group"><rect fill="#C9FFC9" height="162.375" style="stroke:#181818;stroke-width:0.5;" width="438" x="367.5" y="651.8906"/><rect fill="#90EE90" height="20.2969" style="stroke:#181818;stroke-width:0.5;" width="438" x="367.5" y="651.8906"/><text fill="#000000" font-family="sans-serif" font-size="14" lengthAdjust="spacing" textLength="44" x="564.5" y="666.8857">Group</text><line style="stroke:#181818;stroke-width:1.0;" x1="367.5" x2="805.5" y1="672.1875" y2="672.1875"/><text fill="#000000" font-family="sans-serif" font-size="14" lengthAdjust="spacing" textLength="76" x="399.5" y="687.1826">Identifiant</text><text fill="#000000" font-family="sans-serif" font-size="14" lengthAdjust="spacing" textLength="76" x="512.5" y="687.1826">identifier :</text><text fill="#000000" font-family="sans-serif" font-size="14" font-style="italic" lengthAdjust="spacing" textLength="102" x="596.5" y="687.1826">Identifier [0..*]</text><line style="stroke:#181818;stroke-width:1.0;" x1="507.5" x2="507.5" y1="672.1875" y2="692.4844"/><line style="stroke:#181818;stroke-width:1.0;" x1="367.5" x2="805.5" y1="692.4844" y2="692.4844"/><text fill="#000000" font-family="sans-serif" font-size="14" lengthAdjust="spacing" textLength="113" x="381" y="707.4795">Type de groupe</text><text fill="#000000" font-family="sans-serif" font-size="14" lengthAdjust="spacing" textLength="43" x="512.5" y="707.4795">type :</text><text fill="#000000" font-family="sans-serif" font-size="14" font-style="italic" lengthAdjust="spacing" textLength="155" x="563.5" y="707.4795">code [1..1] = "Person"</text><line style="stroke:#181818;stroke-width:1.0;" x1="507.5" x2="507.5" y1="692.4844" y2="712.7813"/><line style="stroke:#181818;stroke-width:1.0;" x1="367.5" x2="805.5" y1="712.7813" y2="712.7813"/><text fill="#000000" font-family="sans-serif" font-size="14" lengthAdjust="spacing" textLength="90" x="392.5" y="727.7764">Groupe actif</text><text fill="#000000" font-family="sans-serif" font-size="14" lengthAdjust="spacing" textLength="52" x="512.5" y="727.7764">actual :</text><text fill="#000000" font-family="sans-serif" font-size="14" font-style="italic" lengthAdjust="spacing" textLength="163" x="572.5" y="727.7764">boolean [1..1] = "True"</text><line style="stroke:#181818;stroke-width:1.0;" x1="507.5" x2="507.5" y1="712.7813" y2="733.0781"/><line style="stroke:#181818;stroke-width:1.0;" x1="367.5" x2="805.5" y1="733.0781" y2="733.0781"/><text fill="#000000" font-family="sans-serif" font-size="14" lengthAdjust="spacing" textLength="130" x="372.5" y="748.0732">Effectif &#224; recruter</text><text fill="#000000" font-family="sans-serif" font-size="14" lengthAdjust="spacing" textLength="69" x="512.5" y="748.0732">quantity :</text><text fill="#000000" font-family="sans-serif" font-size="14" font-style="italic" lengthAdjust="spacing" textLength="123" x="589.5" y="748.0732">unsignedInt [0..1]</text><line style="stroke:#181818;stroke-width:1.0;" x1="507.5" x2="507.5" y1="733.0781" y2="753.375"/><line style="stroke:#181818;stroke-width:1.0;" x1="367.5" x2="805.5" y1="753.375" y2="753.375"/><text fill="#000000" font-family="sans-serif" font-size="14" lengthAdjust="spacing" textLength="58" x="408.5" y="768.3701">Crit&#232;res</text><text fill="#000000" font-family="sans-serif" font-size="14" lengthAdjust="spacing" textLength="108" x="512.5" y="768.3701">characteristic :</text><text fill="#000000" font-family="sans-serif" font-size="14" font-style="italic" lengthAdjust="spacing" textLength="168" x="628.5" y="768.3701">BackboneElement [0..*]</text><line style="stroke:#181818;stroke-width:1.0;" x1="507.5" x2="507.5" y1="753.375" y2="773.6719"/><line style="stroke:#181818;stroke-width:1.0;" x1="367.5" x2="805.5" y1="773.6719" y2="773.6719"/><text fill="#000000" font-family="sans-serif" font-size="14" lengthAdjust="spacing" textLength="28" x="423.5" y="788.667">Age</text><text fill="#000000" font-family="sans-serif" font-size="14" lengthAdjust="spacing" textLength="108" x="512.5" y="788.667">characteristic :</text><text fill="#000000" font-family="sans-serif" font-size="14" font-style="italic" lengthAdjust="spacing" textLength="168" x="628.5" y="788.667">BackboneElement [0..*]</text><line style="stroke:#181818;stroke-width:1.0;" x1="507.5" x2="507.5" y1="773.6719" y2="793.9688"/><line style="stroke:#181818;stroke-width:1.0;" x1="367.5" x2="805.5" y1="793.9688" y2="793.9688"/><text fill="#000000" font-family="sans-serif" font-size="14" lengthAdjust="spacing" textLength="44" x="415.5" y="808.9639">Genre</text><text fill="#000000" font-family="sans-serif" font-size="14" lengthAdjust="spacing" textLength="108" x="512.5" y="808.9639">characteristic :</text><text fill="#000000" font-family="sans-serif" font-size="14" font-style="italic" lengthAdjust="spacing" textLength="168" x="628.5" y="808.9639">BackboneElement [0..*]</text><line style="stroke:#181818;stroke-width:1.0;" x1="507.5" x2="507.5" y1="793.9688" y2="814.2656"/></g><g id="elem_Characteristic"><rect fill="#C9FFC9" height="81.1875" style="stroke:#181818;stroke-width:0.5;" width="309" x="7" y="692.3906"/><rect fill="#90EE90" height="20.2969" style="stroke:#181818;stroke-width:0.5;" width="309" x="7" y="692.3906"/><text fill="#000000" font-family="sans-serif" font-size="14" lengthAdjust="spacing" textLength="101" x="111" y="707.3857">Characteristic</text><line style="stroke:#181818;stroke-width:1.0;" x1="7" x2="316" y1="712.6875" y2="712.6875"/><text fill="#000000" font-family="sans-serif" font-size="14" lengthAdjust="spacing" textLength="34" x="28" y="727.6826">type</text><text fill="#000000" font-family="sans-serif" font-size="14" lengthAdjust="spacing" textLength="44" x="88" y="727.6826">code :</text><text fill="#000000" font-family="sans-serif" font-size="14" font-style="italic" lengthAdjust="spacing" textLength="167" x="140" y="727.6826">CodeableConcept [1..1]</text><line style="stroke:#181818;stroke-width:1.0;" x1="83" x2="83" y1="712.6875" y2="732.9844"/><line style="stroke:#181818;stroke-width:1.0;" x1="7" x2="316" y1="732.9844" y2="732.9844"/><text fill="#000000" font-family="sans-serif" font-size="14" lengthAdjust="spacing" textLength="43" x="23.5" y="747.9795">valeur</text><text fill="#000000" font-family="sans-serif" font-size="14" lengthAdjust="spacing" textLength="64" x="88" y="747.9795">value[x] :</text><text fill="#000000" font-family="sans-serif" font-size="14" font-style="italic" lengthAdjust="spacing" textLength="36" x="160" y="747.9795">[1..1]</text><line style="stroke:#181818;stroke-width:1.0;" x1="83" x2="83" y1="732.9844" y2="753.2813"/><line style="stroke:#181818;stroke-width:1.0;" x1="7" x2="316" y1="753.2813" y2="753.2813"/><text fill="#000000" font-family="sans-serif" font-size="14" lengthAdjust="spacing" textLength="66" x="12" y="768.2764">exclusion</text><text fill="#000000" font-family="sans-serif" font-size="14" lengthAdjust="spacing" textLength="64" x="88" y="768.2764">exclude :</text><text fill="#000000" font-family="sans-serif" font-size="14" font-style="italic" lengthAdjust="spacing" textLength="98" x="160" y="768.2764">boolean [1..1]</text><line style="stroke:#181818;stroke-width:1.0;" x1="83" x2="83" y1="753.2813" y2="773.5781"/></g><g id="elem_Organization"><rect fill="#FFFFCC" height="81.1875" style="stroke:#181818;stroke-width:0.5;" width="286" x="856.5" y="692.3906"/><rect fill="#FFD700" height="20.2969" style="stroke:#181818;stroke-width:0.5;" width="286" x="856.5" y="692.3906"/><text fill="#000000" font-family="sans-serif" font-size="14" lengthAdjust="spacing" textLength="104" x="947.5" y="707.3857">frOrganization</text><line style="stroke:#181818;stroke-width:1.0;" x1="856.5" x2="1142.5" y1="712.6875" y2="712.6875"/><text fill="#000000" font-family="sans-serif" font-size="14" lengthAdjust="spacing" textLength="76" x="861.5" y="727.6826">Identifiant</text><text fill="#000000" font-family="sans-serif" font-size="14" lengthAdjust="spacing" textLength="76" x="947.5" y="727.6826">identifier :</text><text fill="#000000" font-family="sans-serif" font-size="14" font-style="italic" lengthAdjust="spacing" textLength="102" x="1031.5" y="727.6826">Identifier [0..*]</text><line style="stroke:#181818;stroke-width:1.0;" x1="942.5" x2="942.5" y1="712.6875" y2="732.9844"/><line style="stroke:#181818;stroke-width:1.0;" x1="856.5" x2="1142.5" y1="732.9844" y2="732.9844"/><text fill="#000000" font-family="sans-serif" font-size="14" lengthAdjust="spacing" textLength="33" x="883" y="747.9795">Nom</text><text fill="#000000" font-family="sans-serif" font-size="14" lengthAdjust="spacing" textLength="49" x="947.5" y="747.9795">name :</text><text fill="#000000" font-family="sans-serif" font-size="14" font-style="italic" lengthAdjust="spacing" textLength="80" x="1004.5" y="747.9795">string [0..1]</text><line style="stroke:#181818;stroke-width:1.0;" x1="942.5" x2="942.5" y1="732.9844" y2="753.2813"/><line style="stroke:#181818;stroke-width:1.0;" x1="856.5" x2="1142.5" y1="753.2813" y2="753.2813"/><text fill="#000000" font-family="sans-serif" font-size="14" lengthAdjust="spacing" textLength="57" x="871" y="768.2764">Adresse</text><text fill="#000000" font-family="sans-serif" font-size="14" lengthAdjust="spacing" textLength="64" x="947.5" y="768.2764">address :</text><text fill="#000000" font-family="sans-serif" font-size="14" font-style="italic" lengthAdjust="spacing" textLength="95" x="1019.5" y="768.2764">Address [0..*]</text><line style="stroke:#181818;stroke-width:1.0;" x1="942.5" x2="942.5" y1="753.2813" y2="773.5781"/></g><g id="elem_Location"><rect fill="#FFE4E1" height="101.4844" style="stroke:#181818;stroke-width:0.5;" width="325.3333" x="1194" y="682.3906"/><rect fill="#EE82EE" height="20.2969" style="stroke:#181818;stroke-width:0.5;" width="325.3333" x="1194" y="682.3906"/><text fill="#000000" font-family="sans-serif" font-size="14" lengthAdjust="spacing" textLength="62" x="1325.6667" y="697.3857">Location</text><line style="stroke:#181818;stroke-width:1.0;" x1="1194" x2="1519.3333" y1="702.6875" y2="702.6875"/><text fill="#000000" font-family="sans-serif" font-size="14" lengthAdjust="spacing" textLength="76" x="1199" y="717.6826">Identifiant</text><text fill="#000000" font-family="sans-serif" font-size="14" lengthAdjust="spacing" textLength="76" x="1285" y="717.6826">identifier :</text><text fill="#000000" font-family="sans-serif" font-size="14" font-style="italic" lengthAdjust="spacing" textLength="102" x="1369" y="717.6826">Identifier [0..*]</text><line style="stroke:#181818;stroke-width:1.0;" x1="1280" x2="1280" y1="702.6875" y2="722.9844"/><line style="stroke:#181818;stroke-width:1.0;" x1="1194" x2="1519.3333" y1="722.9844" y2="722.9844"/><text fill="#000000" font-family="sans-serif" font-size="14" lengthAdjust="spacing" textLength="33" x="1220.5" y="737.9795">Nom</text><text fill="#000000" font-family="sans-serif" font-size="14" lengthAdjust="spacing" textLength="49" x="1285" y="737.9795">name :</text><text fill="#000000" font-family="sans-serif" font-size="14" font-style="italic" lengthAdjust="spacing" textLength="80" x="1342" y="737.9795">string [0..1]</text><line style="stroke:#181818;stroke-width:1.0;" x1="1280" x2="1280" y1="722.9844" y2="743.2813"/><line style="stroke:#181818;stroke-width:1.0;" x1="1194" x2="1519.3333" y1="743.2813" y2="743.2813"/><text fill="#000000" font-family="sans-serif" font-size="14" lengthAdjust="spacing" textLength="57" x="1208.5" y="758.2764">Adresse</text><text fill="#000000" font-family="sans-serif" font-size="14" lengthAdjust="spacing" textLength="64" x="1285" y="758.2764">address :</text><text fill="#000000" font-family="sans-serif" font-size="14" font-style="italic" lengthAdjust="spacing" textLength="97" x="1357" y="758.2764">Address [0..1]</text><line style="stroke:#181818;stroke-width:1.0;" x1="1280" x2="1280" y1="743.2813" y2="763.5781"/><line style="stroke:#181818;stroke-width:1.0;" x1="1194" x2="1519.3333" y1="763.5781" y2="763.5781"/><text fill="#000000" font-family="sans-serif" font-size="14" lengthAdjust="spacing" textLength="58" x="1208" y="778.5732">Contact</text><text fill="#000000" font-family="sans-serif" font-size="14" lengthAdjust="spacing" textLength="56" x="1285" y="778.5732">contact</text><path d="M1349.5,769.0417 L1349.5,772.5417 L1346,772.5417 L1346,774.875 L1349.5,774.875 L1349.5,778.375 L1351.8333,778.375 L1351.8333,774.875 L1355.3333,774.875 L1355.3333,772.5417 L1351.8333,772.5417 L1351.8333,769.0417 L1349.5,769.0417 " fill="#000000" style="stroke:;stroke-width:0.0;stroke-dasharray:;"/><text fill="#000000" font-family="sans-serif" font-size="14" lengthAdjust="spacing" textLength="5" x="1360.3333" y="778.5732">:</text><text fill="#000000" font-family="sans-serif" font-size="14" font-style="italic" lengthAdjust="spacing" textLength="137" x="1373.3333" y="778.5732">ContactDetail [0..1]</text><line style="stroke:#181818;stroke-width:1.0;" x1="1280" x2="1280" y1="763.5781" y2="783.875"/></g><g id="elem_RS"><rect fill="#F0F8FF" height="365.3438" style="stroke:#0000FF;stroke-width:0.5;" width="867.3333" x="566" y="218.8906"/><rect fill="#87CEFA" height="20.2969" style="stroke:#0000FF;stroke-width:0.5;" width="867.3333" x="566" y="218.8906"/><text fill="#000000" font-family="sans-serif" font-size="14" lengthAdjust="spacing" textLength="212" x="893.6667" y="233.8857">EssaiClinique : ResearchStudy</text><line style="stroke:#0000FF;stroke-width:1.0;" x1="566" x2="1433.3333" y1="239.1875" y2="239.1875"/><text fill="#000000" font-family="sans-serif" font-size="14" lengthAdjust="spacing" textLength="404" x="602" y="254.1826">Identifiant (Primary and Secondary Identifying Numbers)</text><text fill="#000000" font-family="sans-serif" font-size="14" lengthAdjust="spacing" textLength="67" x="1047" y="254.1826">identifier</text><path d="M1119,244.651 L1119,249.3177 L1123.6667,249.3177 L1123.6667,244.651 L1119,244.651 M1124.8333,246.9844 L1124.8333,250.4844 L1121.3333,250.4844 L1121.3333,251.651 L1126,251.651 L1126,246.9844 L1124.8333,246.9844 M1127.1667,249.3177 L1127.1667,252.8177 L1123.6667,252.8177 L1123.6667,253.9844 L1128.3333,253.9844 L1128.3333,249.3177 L1127.1667,249.3177 " fill="#000000" style="stroke:;stroke-width:0.0;stroke-dasharray:;"/><text fill="#000000" font-family="sans-serif" font-size="14" lengthAdjust="spacing" textLength="5" x="1133.3333" y="254.1826">:</text><text fill="#000000" font-family="sans-serif" font-size="14" font-style="italic" lengthAdjust="spacing" textLength="102" x="1146.3333" y="254.1826">Identifier [0..*]</text><line style="stroke:#0000FF;stroke-width:1.0;" x1="1042" x2="1042" y1="239.1875" y2="259.4844"/><line style="stroke:#0000FF;stroke-width:1.0;" x1="566" x2="1433.3333" y1="259.4844" y2="259.4844"/><text fill="#000000" font-family="sans-serif" font-size="14" lengthAdjust="spacing" textLength="193" x="707.5" y="274.4795">Date de r&#233;vision technique</text><text fill="#000000" font-family="sans-serif" font-size="14" lengthAdjust="spacing" textLength="139" x="1047" y="274.4795">meta.lastUpdated :</text><text fill="#000000" font-family="sans-serif" font-size="14" font-style="italic" lengthAdjust="spacing" textLength="88" x="1194" y="274.4795">instant [0..1]</text><line style="stroke:#0000FF;stroke-width:1.0;" x1="1042" x2="1042" y1="259.4844" y2="279.7813"/><line style="stroke:#0000FF;stroke-width:1.0;" x1="566" x2="1433.3333" y1="279.7813" y2="279.7813"/><text fill="#000000" font-family="sans-serif" font-size="14" lengthAdjust="spacing" textLength="217" x="695.5" y="294.7764">Date de r&#233;vision fonctionnelle</text><text fill="#000000" font-family="sans-serif" font-size="14" lengthAdjust="spacing" textLength="82" x="1047" y="294.7764">reviewDate</text><path d="M1137.5,285.2448 L1137.5,288.7448 L1134,288.7448 L1134,291.0781 L1137.5,291.0781 L1137.5,294.5781 L1139.8333,294.5781 L1139.8333,291.0781 L1143.3333,291.0781 L1143.3333,288.7448 L1139.8333,288.7448 L1139.8333,285.2448 L1137.5,285.2448 " fill="#000000" style="stroke:;stroke-width:0.0;stroke-dasharray:;"/><text fill="#000000" font-family="sans-serif" font-size="14" lengthAdjust="spacing" textLength="5" x="1148.3333" y="294.7764">:</text><text fill="#000000" font-family="sans-serif" font-size="14" font-style="italic" lengthAdjust="spacing" textLength="108" x="1161.3333" y="294.7764">dateTime [0..1]</text><line style="stroke:#0000FF;stroke-width:1.0;" x1="1042" x2="1042" y1="279.7813" y2="300.0781"/><line style="stroke:#0000FF;stroke-width:1.0;" x1="566" x2="1433.3333" y1="300.0781" y2="300.0781"/><text fill="#000000" font-family="sans-serif" font-size="14" lengthAdjust="spacing" textLength="194" x="707" y="315.0732">Nom de l'essai (Public title)</text><text fill="#000000" font-family="sans-serif" font-size="14" lengthAdjust="spacing" textLength="40" x="1047" y="315.0732">title :</text><text fill="#000000" font-family="sans-serif" font-size="14" font-style="italic" lengthAdjust="spacing" textLength="80" x="1095" y="315.0732">string [0..1]</text><line style="stroke:#0000FF;stroke-width:1.0;" x1="1042" x2="1042" y1="300.0781" y2="320.375"/><line style="stroke:#0000FF;stroke-width:1.0;" x1="566" x2="1433.3333" y1="320.375" y2="320.375"/><text fill="#000000" font-family="sans-serif" font-size="14" lengthAdjust="spacing" textLength="115" x="746.5" y="335.3701">Statut de l'essai</text><text fill="#000000" font-family="sans-serif" font-size="14" lengthAdjust="spacing" textLength="58" x="1047" y="335.3701">frStatus</text><path d="M1113.5,325.8385 L1113.5,329.3385 L1110,329.3385 L1110,331.6719 L1113.5,331.6719 L1113.5,335.1719 L1115.8333,335.1719 L1115.8333,331.6719 L1119.3333,331.6719 L1119.3333,329.3385 L1115.8333,329.3385 L1115.8333,325.8385 L1113.5,325.8385 " fill="#000000" style="stroke:;stroke-width:0.0;stroke-dasharray:;"/><text fill="#000000" font-family="sans-serif" font-size="14" lengthAdjust="spacing" textLength="5" x="1124.3333" y="335.3701">:</text><text fill="#000000" font-family="sans-serif" font-size="14" font-style="italic" lengthAdjust="spacing" textLength="36" x="1137.3333" y="335.3701">[0..1]</text><line style="stroke:#0000FF;stroke-width:1.0;" x1="1042" x2="1042" y1="320.375" y2="340.6719"/><line style="stroke:#0000FF;stroke-width:1.0;" x1="566" x2="1433.3333" y1="340.6719" y2="340.6719"/><text fill="#000000" font-family="sans-serif" font-size="14" lengthAdjust="spacing" textLength="256" x="676" y="355.667">Phasede l'essai (Study type : phase)</text><text fill="#000000" font-family="sans-serif" font-size="14" lengthAdjust="spacing" textLength="52" x="1047" y="355.667">phase :</text><text fill="#000000" font-family="sans-serif" font-size="14" font-style="italic" lengthAdjust="spacing" textLength="167" x="1107" y="355.667">CodeableConcept [0..1]</text><line style="stroke:#0000FF;stroke-width:1.0;" x1="1042" x2="1042" y1="340.6719" y2="360.9688"/><line style="stroke:#0000FF;stroke-width:1.0;" x1="566" x2="1433.3333" y1="360.9688" y2="360.9688"/><text fill="#000000" font-family="sans-serif" font-size="14" lengthAdjust="spacing" textLength="290" x="659" y="375.9639">Type d'essai (Study type : type of study)</text><text fill="#000000" font-family="sans-serif" font-size="14" lengthAdjust="spacing" textLength="73" x="1047" y="375.9639">category :</text><text fill="#000000" font-family="sans-serif" font-size="14" font-style="italic" lengthAdjust="spacing" textLength="165" x="1128" y="375.9639">CodeableConcept [0..*]</text><line style="stroke:#0000FF;stroke-width:1.0;" x1="1042" x2="1042" y1="360.9688" y2="381.2656"/><line style="stroke:#0000FF;stroke-width:1.0;" x1="566" x2="1433.3333" y1="381.2656" y2="381.2656"/><text fill="#000000" font-family="sans-serif" font-size="14" lengthAdjust="spacing" textLength="420" x="594" y="396.2607">Sujet concern&#233; (Health Condition(s) or Problem(s) Studied)</text><text fill="#000000" font-family="sans-serif" font-size="14" lengthAdjust="spacing" textLength="77" x="1047" y="396.2607">condition :</text><text fill="#000000" font-family="sans-serif" font-size="14" font-style="italic" lengthAdjust="spacing" textLength="231" x="1132" y="396.2607">CodeableConcept [0..*] (MeDRA)</text><line style="stroke:#0000FF;stroke-width:1.0;" x1="1042" x2="1042" y1="381.2656" y2="401.5625"/><line style="stroke:#0000FF;stroke-width:1.0;" x1="566" x2="1433.3333" y1="401.5625" y2="401.5625"/><text fill="#000000" font-family="sans-serif" font-size="14" lengthAdjust="spacing" textLength="466" x="571" y="416.5576">Pr&#233;cision sur le sujet (Health Condition(s)  or  Problem(s) Studied)</text><text fill="#000000" font-family="sans-serif" font-size="14" lengthAdjust="spacing" textLength="118" x="1047" y="416.5576">conditionDetails</text><path d="M1173.5,407.026 L1173.5,410.526 L1170,410.526 L1170,412.8594 L1173.5,412.8594 L1173.5,416.3594 L1175.8333,416.3594 L1175.8333,412.8594 L1179.3333,412.8594 L1179.3333,410.526 L1175.8333,410.526 L1175.8333,407.026 L1173.5,407.026 " fill="#000000" style="stroke:;stroke-width:0.0;stroke-dasharray:;"/><text fill="#000000" font-family="sans-serif" font-size="14" lengthAdjust="spacing" textLength="5" x="1184.3333" y="416.5576">:</text><text fill="#000000" font-family="sans-serif" font-size="14" font-style="italic" lengthAdjust="spacing" textLength="80" x="1197.3333" y="416.5576">string [0..1]</text><line style="stroke:#0000FF;stroke-width:1.0;" x1="1042" x2="1042" y1="401.5625" y2="421.8594"/><line style="stroke:#0000FF;stroke-width:1.0;" x1="566" x2="1433.3333" y1="421.8594" y2="421.8594"/><text fill="#000000" font-family="sans-serif" font-size="14" lengthAdjust="spacing" textLength="178" x="715" y="436.8545">Domaine th&#233;rapeutique*</text><text fill="#000000" font-family="sans-serif" font-size="14" lengthAdjust="spacing" textLength="118" x="1047" y="436.8545">therapeuticArea</text><path d="M1173.5,427.3229 L1173.5,430.8229 L1170,430.8229 L1170,433.1562 L1173.5,433.1562 L1173.5,436.6562 L1175.8333,436.6562 L1175.8333,433.1562 L1179.3333,433.1562 L1179.3333,430.8229 L1175.8333,430.8229 L1175.8333,427.3229 L1173.5,427.3229 " fill="#000000" style="stroke:;stroke-width:0.0;stroke-dasharray:;"/><text fill="#000000" font-family="sans-serif" font-size="14" lengthAdjust="spacing" textLength="5" x="1184.3333" y="436.8545">:</text><text fill="#000000" font-family="sans-serif" font-size="14" font-style="italic" lengthAdjust="spacing" textLength="80" x="1197.3333" y="436.8545">string [0..1]</text><line style="stroke:#0000FF;stroke-width:1.0;" x1="1042" x2="1042" y1="421.8594" y2="442.1563"/><line style="stroke:#0000FF;stroke-width:1.0;" x1="566" x2="1433.3333" y1="442.1563" y2="442.1563"/><text fill="#000000" font-family="sans-serif" font-size="14" lengthAdjust="spacing" textLength="126" x="741" y="457.1514">R&#233;sum&#233; de l'essai</text><text fill="#000000" font-family="sans-serif" font-size="14" lengthAdjust="spacing" textLength="91" x="1047" y="457.1514">description :</text><text fill="#000000" font-family="sans-serif" font-size="14" font-style="italic" lengthAdjust="spacing" textLength="115" x="1146" y="457.1514">markdown [0..1]</text><line style="stroke:#0000FF;stroke-width:1.0;" x1="1042" x2="1042" y1="442.1563" y2="462.4531"/><line style="stroke:#0000FF;stroke-width:1.0;" x1="566" x2="1433.3333" y1="462.4531" y2="462.4531"/><text fill="#000000" font-family="sans-serif" font-size="14" lengthAdjust="spacing" textLength="278" x="665" y="477.4482">P&#233;riode pr&#233;visionnelle de recrutement</text><text fill="#000000" font-family="sans-serif" font-size="14" lengthAdjust="spacing" textLength="211" x="1047" y="477.4482">estimatedRecruitmentPeriod</text><path d="M1266.5,467.9167 L1266.5,471.4167 L1263,471.4167 L1263,473.75 L1266.5,473.75 L1266.5,477.25 L1268.8333,477.25 L1268.8333,473.75 L1272.3333,473.75 L1272.3333,471.4167 L1268.8333,471.4167 L1268.8333,467.9167 L1266.5,467.9167 " fill="#000000" style="stroke:;stroke-width:0.0;stroke-dasharray:;"/><text fill="#000000" font-family="sans-serif" font-size="14" lengthAdjust="spacing" textLength="5" x="1277.3333" y="477.4482">:</text><text fill="#000000" font-family="sans-serif" font-size="14" font-style="italic" lengthAdjust="spacing" textLength="86" x="1290.3333" y="477.4482">period [0..1]</text><line style="stroke:#0000FF;stroke-width:1.0;" x1="1042" x2="1042" y1="462.4531" y2="482.75"/><line style="stroke:#0000FF;stroke-width:1.0;" x1="566" x2="1433.3333" y1="482.75" y2="482.75"/><text fill="#000000" font-family="sans-serif" font-size="14" lengthAdjust="spacing" textLength="338" x="635" y="497.7451">Contact (Contact for public / scientific queries)</text><text fill="#000000" font-family="sans-serif" font-size="14" lengthAdjust="spacing" textLength="65" x="1047" y="497.7451">contact :</text><text fill="#000000" font-family="sans-serif" font-size="14" font-style="italic" lengthAdjust="spacing" textLength="135" x="1120" y="497.7451">ContactDetail [0..*]</text><line style="stroke:#0000FF;stroke-width:1.0;" x1="1042" x2="1042" y1="482.75" y2="503.0469"/><line style="stroke:#0000FF;stroke-width:1.0;" x1="566" x2="1433.3333" y1="503.0469" y2="503.0469"/><text fill="#000000" font-family="sans-serif" font-size="14" lengthAdjust="spacing" textLength="446" x="581" y="518.042">Participants (Key Inclusion and Exclusion Criteria, Sample size)</text><text fill="#000000" font-family="sans-serif" font-size="14" lengthAdjust="spacing" textLength="89" x="1047" y="518.042">enrollment :</text><text fill="#000000" font-family="sans-serif" font-size="14" font-style="italic" lengthAdjust="spacing" textLength="166" x="1144" y="518.042">Reference(Group) [0..*]</text><line style="stroke:#0000FF;stroke-width:1.0;" x1="1042" x2="1042" y1="503.0469" y2="523.3438"/><line style="stroke:#0000FF;stroke-width:1.0;" x1="566" x2="1433.3333" y1="523.3438" y2="523.3438"/><text fill="#000000" font-family="sans-serif" font-size="14" lengthAdjust="spacing" textLength="234" x="687" y="538.3389">Lieux (Countries of Recruitment)</text><text fill="#000000" font-family="sans-serif" font-size="14" lengthAdjust="spacing" textLength="36" x="1047" y="538.3389">site :</text><text fill="#000000" font-family="sans-serif" font-size="14" font-style="italic" lengthAdjust="spacing" textLength="185" x="1091" y="538.3389">Reference(Location) [0..1]</text><line style="stroke:#0000FF;stroke-width:1.0;" x1="1042" x2="1042" y1="523.3438" y2="543.6406"/><line style="stroke:#0000FF;stroke-width:1.0;" x1="566" x2="1433.3333" y1="543.6406" y2="543.6406"/><text fill="#000000" font-family="sans-serif" font-size="14" lengthAdjust="spacing" textLength="274" x="667" y="558.6357">Promoteur principal (Primary sponsor)</text><text fill="#000000" font-family="sans-serif" font-size="14" lengthAdjust="spacing" textLength="57" x="1047" y="558.6357">sponsor</text><text fill="#000000" font-family="sans-serif" font-size="14" font-style="italic" lengthAdjust="spacing" textLength="215" x="1112" y="558.6357">Reference(Organization) [0..1]</text><line style="stroke:#0000FF;stroke-width:1.0;" x1="1042" x2="1042" y1="543.6406" y2="563.9375"/><line style="stroke:#0000FF;stroke-width:1.0;" x1="566" x2="1433.3333" y1="563.9375" y2="563.9375"/><text fill="#000000" font-family="sans-serif" font-size="14" lengthAdjust="spacing" textLength="328" x="640" y="578.9326">Promoteur secondaire (Secondary Sponsor(s))</text><text fill="#000000" font-family="sans-serif" font-size="14" lengthAdjust="spacing" textLength="132" x="1047" y="578.9326">secondarySponsor</text><path d="M1187.5,569.401 L1187.5,572.901 L1184,572.901 L1184,575.2344 L1187.5,575.2344 L1187.5,578.7344 L1189.8333,578.7344 L1189.8333,575.2344 L1193.3333,575.2344 L1193.3333,572.901 L1189.8333,572.901 L1189.8333,569.401 L1187.5,569.401 " fill="#000000" style="stroke:;stroke-width:0.0;stroke-dasharray:;"/><text fill="#000000" font-family="sans-serif" font-size="14" lengthAdjust="spacing" textLength="5" x="1198.3333" y="578.9326">:</text><text fill="#000000" font-family="sans-serif" font-size="14" font-style="italic" lengthAdjust="spacing" textLength="213" x="1211.3333" y="578.9326">Reference(Organization) [0..*]</text><line style="stroke:#0000FF;stroke-width:1.0;" x1="1042" x2="1042" y1="563.9375" y2="584.2344"/></g><!--link RS to Location--><g id="link_RS_Location"><path codeLine="67" d="M1210.31,596.9576 C1238.59,623.0646 1265.76,648.1386 1288.84,669.4386 " fill="none" id="RS-Location" style="stroke:#EE82EE;stroke-width:4.0;stroke-dasharray:7.0,7.0;"/><polygon fill="#EE82EE" points="1200.69,588.0856,1202.3872,595.0942,1209.5094,596.2231,1207.8122,589.2146,1200.69,588.0856" style="stroke:#EE82EE;stroke-width:4.0;"/><polygon fill="#EE82EE" points="1298.47,678.3276,1294.568,669.2847,1294.7953,674.937,1289.143,675.1643,1298.47,678.3276" style="stroke:#EE82EE;stroke-width:4.0;"/><line style="stroke:#EE82EE;stroke-width:4.0;" x1="1294.7953" x2="1288.915" y1="674.937" y2="669.5101"/></g><!--link RS to Group--><g id="link_RS_Group"><path codeLine="68" d="M756.416,596.3286 C737.863,611.1296 719.718,625.6066 702.605,639.2596 " fill="none" id="RS-Group" style="stroke:#90EE90;stroke-width:4.0;stroke-dasharray:7.0,7.0;"/><polygon fill="#90EE90" points="766.747,588.0856,759.5621,588.7003,757.3662,595.5689,764.551,594.9542,766.747,588.0856" style="stroke:#90EE90;stroke-width:4.0;"/><polygon fill="#90EE90" points="692.088,647.6506,701.6181,645.1651,695.9967,644.5326,696.6292,638.9112,692.088,647.6506" style="stroke:#90EE90;stroke-width:4.0;"/><line style="stroke:#90EE90;stroke-width:4.0;" x1="695.9967" x2="702.2505" y1="644.5326" y2="639.5426"/></g><!--link RS to Organization--><g id="link_RS_Organization"><path codeLine="69" d="M999.5,601.3896 C999.5,628.2506 999.5,653.8406 999.5,675.1306 " fill="none" id="RS-Organization" style="stroke:#FFD700;stroke-width:4.0;stroke-dasharray:7.0,7.0;"/><polygon fill="#FFD700" points="999.5,588.3256,995.5,594.3256,999.5,600.3256,1003.5,594.3256,999.5,588.3256" style="stroke:#FFD700;stroke-width:4.0;"/><polygon fill="#FFD700" points="999.5,688.1356,1003.5,679.1356,999.5,683.1356,995.5,679.1356,999.5,688.1356" style="stroke:#FFD700;stroke-width:4.0;"/><line style="stroke:#FFD700;stroke-width:4.0;" x1="999.5" x2="999.5" y1="683.1356" y2="675.1356"/></g><!--link slice_identifier to RS--><g id="link_slice_identifier_RS"><path codeLine="71" d="M522.683,401.3906 C534.324,401.3906 545.965,401.3906 557.606,401.3906 " fill="none" id="slice_identifier-RS" style="stroke:#ADD8E6;stroke-width:2.0;"/></g><!--link RS to Contact--><g id="link_RS_Contact"><path codeLine="72" d="M1441.15,401.3906 C1452.75,401.3906 1464.34,401.3906 1475.94,401.3906 " fill="none" id="RS-Contact" style="stroke:#ADD8E6;stroke-width:6.0;stroke-dasharray:1.0,3.0;"/></g><!--link frStatus to RS--><g id="link_frStatus_RS"><path codeLine="73" d="M999.5,154.9316 C999.5,171.1416 999.5,192.0786 999.5,214.8826 " fill="none" id="frStatus-RS" style="stroke:#ADD8E6;stroke-width:6.0;stroke-dasharray:1.0,3.0;"/></g><!--link Group to Organization--><!--reverse link Characteristic to Group--><g id="link_Characteristic_Group"><path codeLine="78" d="M324.201,761.0591 C338.467,762.2121 352.718,762.8906 366.5,762.8906 " fill="none" id="Characteristic-backto-Group" style="stroke:#90EE90;stroke-width:2.0;"/></g><!--reverse link Characteristic to Group--><g id="link_Characteristic_Group"><path codeLine="79" d="M307.71,777.3967 C327.295,780.7677 347.265,782.8906 366.5,782.8906 " fill="none" id="Characteristic-backto-Group-1" style="stroke:#90EE90;stroke-width:2.0;"/></g><!--link Group to Characteristic--><g id="link_Group_Characteristic"><path codeLine="80" d="M366.5,803.8906 C326.75,803.8906 284.942,791.7178 249.596,777.4528 " fill="none" id="Group-to-Characteristic" style="stroke:#90EE90;stroke-width:2.0;"/></g><!--SRC=[pLVTJkD65BxFKuo2r4qGORjLrGjQaFWJYyf25BEjAXfL4_iacJAUCJDZbcpLT-bbynnviPupOpks8InYRye5ZCV-piztVabvnhh7MZaUknDmNCWkuvOLDsnhmkFRlKCfOZYIEVmu1vw0sRiGixcBRXV-JWe5UnCyiRyw37ykTShs3vZYAR0zzlOjiyu8DMCtt-xklXlZXV_gUhMKgsMiqpHN8kPEQ4Ke1nBmCW0BAuPQAEVXsmHd0R_8W02n_yO__VHD9dDx4B2nJc2jalskw7UlEymdw4ptRJUA1IWdflZGzqB_xdHI8cDg8iTTRajnde_gyZM4UAWZOsqGKZYN09z8G2TZo5oBdk5gQGIvWAWCw1XGmt1UErRP7P5DJ2J1Ap1el-GBC8K7bbx_KNlz6a_E2pZ7U6GOr5XaN7eJZKYvMPoNbZtwsc9KLSA5yHuLJnLWUrovSMPqddcB_Qamy_hq-FtbrSNLsMyDEyyCW7h2DbHHyzGJTxv-hZ9fdKX8z8pKUUiStTIIw9tdUfzraNohLRT4dWK4PgYO4WuFETBXaHEj9N1L0r-R7Be5ydGw1OzQ_SCCn2PtQ1PAkClHUk4MGKQkh9WfICvLEpkEZN2hVmrONm5pRb0r9ePr8WxG8oHjeXMSIaYXNZmUVZY3rm7FG9bNGClO7ZTGeT4q1RqusZv6eVuJs51Gx-gKtNC9kISPJpdSF8m3glaLFCHOyqKlyW-bz5P0QrvDpPMPSIK- -oRclQfV53uTVOpEBq-ZgFJeJClaApFtPOtsCC4yiJvgFF7dyF5XyV0uJ1SwNhjIFXHkVC0uBKRQLltY5u6ykF-D9xKQAKPODIDSSq0qXbuDMx9mQYqNnzW1nLrELet00ZVnF79vil3KZAAlRgAzOMYSZAk4HMLNB3zP40UNUJh1ljDl4LfrzytKXa5vmftlRsQrl1S-jHt4y-0LYapH_rt9hVkO9VXbCMQ4mb5LRpkRP4sns2Wz54ZfvHcu5_39VzYWcuHVYnHQKQB8eq3v1eXkvCFFPuPDK89tsP-UIOfYkDPa8AWzmujIRqxOERTGL-q3MpR_ZDvw0_pf9ICx398dfVa_UeeUuAMNYaK5CsqMcmMlgoFA_yGAY-cTKQibwxq7BjsSCZWHH7uFiqCRDZGQPQJqHDe59FqY-yDdp-hgVO2JqM6_OWT378SGMsoR60BhhNXIDod_elPGQAsGF1dI4vroh1dcvhW4yGnoHycwxRDX3iLDV6Y0lq3OQBMqUOgiDJCa0HiRaQrfmIgyJVGdjMaFowgS3wbELH0cjnzsD2vmWgLKGYEw5uxkYtMjOMRsQ8MhjwjUUPWYgLce1dIjsbPnHq0ys7wziMreQEiK6dA3bE6sffnblPy1Mumg9nsrdjDgxj5gWGhu3ejucb7SnUTG23ZxjPJUMwzl15CmW4dKyujGlwNoGa3-GExaof71bFyrPhn8YxhQmig1qsz7mkXKEvhXwyspQfysqyfg4uI6SrDgVIBtszolHTVMrDww7KT18gPslx6z5lVDy3wdSxjQsJkZQ6ylKBGzkDaAKtGduNOEoOwRY_XMOQxkVpyU75GZs6CQaIJeUZNQ00zxT01NZXAILf0DcBhfmTPYmD1G64YOkfijIOffmjN0tuqV_QFXqMLI3-gmH3lNKFt3k4pYJjN1luGOC98Vfa2d4tmTtCn5WWQCMtw4rsXDjJuNhjGuhFjoq5fFIppjpwz3XWLwy78S_aYO0PQeqnaZdPYnzTdlwVPtPGx2WmD5jOotspJAS5L9tgoMTxcW9HWp4qjRkTLoTsgO4kpNzrSTL13K_0S0]--></g></svg>