<?xml version="1.0" encoding="us-ascii" standalone="no"?><svg xmlns="http://www.w3.org/2000/svg" xmlns:xlink="http://www.w3.org/1999/xlink" contentStyleType="text/css" height="1243px" preserveAspectRatio="none" style="width:1626px;height:1243px;background:#FFFFFF;" version="1.1" viewBox="0 0 1626 1243" width="1626px" zoomAndPan="magnify"><defs/><g><rect fill="#DDDDDD" height="81.6406" id="_legend" rx="7.5" ry="7.5" style="stroke:#000000;stroke-width:1.0;" width="276" x="12" y="12"/><path d="M18,20.4635 L18,25.1302 L22.6667,25.1302 L22.6667,20.4635 L18,20.4635 M23.8333,22.7969 L23.8333,26.2969 L20.3333,26.2969 L20.3333,27.4635 L25,27.4635 L25,22.7969 L23.8333,22.7969 M26.1667,25.1302 L26.1667,28.6302 L22.6667,28.6302 L22.6667,29.7969 L27.3333,29.7969 L27.3333,25.1302 L26.1667,25.1302 " fill="#000000" style="stroke:;stroke-width:0.0;stroke-dasharray:;"/><text fill="#000000" font-family="sans-serif" font-size="14" lengthAdjust="spacing" textLength="41" x="32.3333" y="29.9951">: slice</text><path d="M21.5,36.7604 L21.5,40.2604 L18,40.2604 L18,42.5938 L21.5,42.5938 L21.5,46.0938 L23.8333,46.0938 L23.8333,42.5938 L27.3333,42.5938 L27.3333,40.2604 L23.8333,40.2604 L23.8333,36.7604 L21.5,36.7604 " fill="#000000" style="stroke:;stroke-width:0.0;stroke-dasharray:;"/><text fill="#000000" font-family="sans-serif" font-size="14" lengthAdjust="spacing" textLength="80" x="32.3333" y="46.292">: extension</text><text fill="#000000" font-family="sans-serif" font-size="14" lengthAdjust="spacing" textLength="266" x="17" y="62.5889">* : pas d'&#233;quivalence Sant&#233;.fr ni WHO</text><path d="M18.5476,86.3073 C17.4731,86.3073 16.9994,85.5268 17.4941,84.573 L26.5993,67.041 C27.0946,66.0872 27.9048,66.0872 28.4001,67.041 L37.5053,84.5736 C38.0012,85.5268 37.5269,86.3073 36.4524,86.3073 L18.5476,86.3073 " fill="#FFCC4D" style="stroke:;stroke-width:0.0;stroke-dasharray:;"/><path d="M26.0901,82.7799 C26.0901,82.0023 26.723,81.3694 27.5012,81.3694 C28.2788,81.3694 28.9117,82.0023 28.9117,82.7799 C28.9117,83.558 28.2782,84.191 27.5012,84.191 C26.723,84.191 26.0901,83.558 26.0901,82.7799 M26.1986,72.109 C26.1986,71.3495 26.7592,70.8793 27.5006,70.8793 C28.2245,70.8793 28.8032,71.3675 28.8032,72.109 L28.8032,79.0728 C28.8032,79.8142 28.2245,80.3025 27.5006,80.3025 C26.7592,80.3025 26.1986,79.8317 26.1986,79.0728 L26.1986,72.109 " fill="#231F20" style="stroke:;stroke-width:0.0;stroke-dasharray:;"/><text fill="#000000" font-family="sans-serif" font-size="14" lengthAdjust="spacing" textLength="103" x="42" y="85.3389">: en discussion</text><g id="elem_Contact"><rect fill="#F0F8FF" height="138.0781" style="stroke:#0000FF;stroke-width:0.5;" width="517.3333" x="325.5" y="258.6406"/><rect fill="#87CEFA" height="20.2969" style="stroke:#0000FF;stroke-width:0.5;" width="517.3333" x="325.5" y="258.6406"/><text fill="#000000" font-family="sans-serif" font-size="14" lengthAdjust="spacing" textLength="101" x="533.6667" y="273.6357">ContactDetail</text><line style="stroke:#0000FF;stroke-width:1.0;" x1="325.5" x2="842.8333" y1="278.9375" y2="278.9375"/><text fill="#000000" font-family="sans-serif" font-size="14" lengthAdjust="spacing" textLength="33" x="385" y="293.9326">Nom</text><path d="M487,284.401 L487,287.901 L483.5,287.901 L483.5,290.2344 L487,290.2344 L487,293.7344 L489.3333,293.7344 L489.3333,290.2344 L492.8333,290.2344 L492.8333,287.901 L489.3333,287.901 L489.3333,284.401 L487,284.401 " fill="#000000" style="stroke:;stroke-width:0.0;stroke-dasharray:;"/><text fill="#000000" font-family="sans-serif" font-size="14" lengthAdjust="spacing" textLength="304" x="497.8333" y="293.9326">ECLAIREContactName : HumanName [0..1]</text><line style="stroke:#0000FF;stroke-width:1.0;" x1="477.5" x2="477.5" y1="278.9375" y2="299.2344"/><line style="stroke:#0000FF;stroke-width:1.0;" x1="325.5" x2="842.8333" y1="299.2344" y2="299.2344"/><text fill="#000000" font-family="sans-serif" font-size="14" lengthAdjust="spacing" textLength="142" x="330.5" y="314.2295">T&#233;l&#233;communication</text><text fill="#000000" font-family="sans-serif" font-size="14" lengthAdjust="spacing" textLength="213" x="482.5" y="314.2295">telecom :  ContactPoint [0..*]</text><line style="stroke:#0000FF;stroke-width:1.0;" x1="477.5" x2="477.5" y1="299.2344" y2="319.5313"/><line style="stroke:#0000FF;stroke-width:1.0;" x1="325.5" x2="842.8333" y1="319.5313" y2="319.5313"/><text fill="#000000" font-family="sans-serif" font-size="14" lengthAdjust="spacing" textLength="36" x="383.5" y="334.5264">Type</text><path d="M487,324.9948 L487,328.4948 L483.5,328.4948 L483.5,330.8281 L487,330.8281 L487,334.3281 L489.3333,334.3281 L489.3333,330.8281 L492.8333,330.8281 L492.8333,328.4948 L489.3333,328.4948 L489.3333,324.9948 L487,324.9948 " fill="#000000" style="stroke:;stroke-width:0.0;stroke-dasharray:;"/><text fill="#000000" font-family="sans-serif" font-size="14" lengthAdjust="spacing" textLength="336" x="497.8333" y="334.5264">ECLAIREContacType :  CodeableConcept [0..1]</text><text fill="#000000" font-family="sans-serif" font-size="14" lengthAdjust="spacing" textLength="154" x="486.5" y="350.8232">("Public"/"Scientific")</text><line style="stroke:#0000FF;stroke-width:1.0;" x1="477.5" x2="477.5" y1="319.5313" y2="356.125"/><line style="stroke:#0000FF;stroke-width:1.0;" x1="325.5" x2="842.8333" y1="356.125" y2="356.125"/><text fill="#000000" font-family="sans-serif" font-size="14" lengthAdjust="spacing" textLength="57" x="373" y="371.1201">Adresse</text><path d="M487,361.5885 L487,365.0885 L483.5,365.0885 L483.5,367.4219 L487,367.4219 L487,370.9219 L489.3333,370.9219 L489.3333,367.4219 L492.8333,367.4219 L492.8333,365.0885 L489.3333,365.0885 L489.3333,361.5885 L487,361.5885 " fill="#000000" style="stroke:;stroke-width:0.0;stroke-dasharray:;"/><text fill="#000000" font-family="sans-serif" font-size="14" lengthAdjust="spacing" textLength="287" x="497.8333" y="371.1201">ECLAIREContactAddress : Address [0..1]</text><line style="stroke:#0000FF;stroke-width:1.0;" x1="477.5" x2="477.5" y1="356.125" y2="376.4219"/><line style="stroke:#0000FF;stroke-width:1.0;" x1="325.5" x2="842.8333" y1="376.4219" y2="376.4219"/><text fill="#000000" font-family="sans-serif" font-size="14" lengthAdjust="spacing" textLength="71" x="366" y="391.417">Affiliation</text><path d="M487,381.8854 L487,385.3854 L483.5,385.3854 L483.5,387.7188 L487,387.7188 L487,391.2188 L489.3333,391.2188 L489.3333,387.7188 L492.8333,387.7188 L492.8333,385.3854 L489.3333,385.3854 L489.3333,381.8854 L487,381.8854 " fill="#000000" style="stroke:;stroke-width:0.0;stroke-dasharray:;"/><text fill="#000000" font-family="sans-serif" font-size="14" lengthAdjust="spacing" textLength="286" x="497.8333" y="391.417">ECLAIREContactAffiliation : string [0..1]</text><line style="stroke:#0000FF;stroke-width:1.0;" x1="477.5" x2="477.5" y1="376.4219" y2="396.7188"/></g><g id="elem_slice_name"><rect fill="#F0F8FF" height="77.1875" style="stroke:#0000FF;stroke-width:0.5;" width="403" x="382.5" y="113.6406"/><rect fill="#87CEFA" height="20.2969" style="stroke:#0000FF;stroke-width:0.5;" width="403" x="382.5" y="113.6406"/><text fill="#000000" font-family="sans-serif" font-size="14" lengthAdjust="spacing" textLength="90" x="539" y="128.6357">HumanName</text><line style="stroke:#0000FF;stroke-width:1.0;" x1="382.5" x2="785.5" y1="133.9375" y2="133.9375"/><text fill="#000000" font-family="sans-serif" font-size="14" lengthAdjust="spacing" textLength="196" x="410.5" y="148.9326">Nom de famille (Last name)</text><text fill="#000000" font-family="sans-serif" font-size="14" lengthAdjust="spacing" textLength="141" x="639.5" y="148.9326">family : string [0..1]</text><line style="stroke:#0000FF;stroke-width:1.0;" x1="634.5" x2="634.5" y1="133.9375" y2="154.2344"/><line style="stroke:#0000FF;stroke-width:1.0;" x1="382.5" x2="785.5" y1="154.2344" y2="154.2344"/><text fill="#000000" font-family="sans-serif" font-size="14" lengthAdjust="spacing" textLength="146" x="387.5" y="169.2295">Pr&#233;nom (First name)</text><text fill="#000000" font-family="sans-serif" font-size="14" lengthAdjust="spacing" textLength="238" x="391.5" y="185.5264">Deuxi&#232;me pr&#233;nom (Middle name)</text><text fill="#000000" font-family="sans-serif" font-size="14" lengthAdjust="spacing" textLength="134" x="639.5" y="169.2295">given : string [0..*]</text><line style="stroke:#0000FF;stroke-width:1.0;" x1="634.5" x2="634.5" y1="154.2344" y2="190.8281"/></g><g id="elem_slice_identifier"><rect fill="#F0F8FF" height="60.8906" style="stroke:#0000FF;stroke-width:0.5;" width="306" x="7" y="627.1406"/><rect fill="#87CEFA" height="20.2969" style="stroke:#0000FF;stroke-width:0.5;" width="306" x="7" y="627.1406"/><path d="M100.8333,632.6042 L100.8333,637.2708 L105.5,637.2708 L105.5,632.6042 L100.8333,632.6042 M106.6667,634.9375 L106.6667,638.4375 L103.1667,638.4375 L103.1667,639.6042 L107.8333,639.6042 L107.8333,634.9375 L106.6667,634.9375 M109,637.2708 L109,640.7708 L105.5,640.7708 L105.5,641.9375 L110.1667,641.9375 L110.1667,637.2708 L109,637.2708 " fill="#000000" style="stroke:;stroke-width:0.0;stroke-dasharray:;"/><text fill="#000000" font-family="sans-serif" font-size="14" lengthAdjust="spacing" textLength="105" x="115.1667" y="642.1357">Slice identifier</text><line style="stroke:#0000FF;stroke-width:1.0;" x1="7" x2="313" y1="647.4375" y2="647.4375"/><text fill="#000000" font-family="sans-serif" font-size="14" lengthAdjust="spacing" textLength="143" x="19.5" y="662.4326">Identifiant principal</text><text fill="#000000" font-family="sans-serif" font-size="14" lengthAdjust="spacing" textLength="110" x="180" y="662.4326">idPrimary [0..1]</text><line style="stroke:#0000FF;stroke-width:1.0;" x1="175" x2="175" y1="647.4375" y2="667.7344"/><line style="stroke:#0000FF;stroke-width:1.0;" x1="7" x2="313" y1="667.7344" y2="667.7344"/><text fill="#000000" font-family="sans-serif" font-size="14" lengthAdjust="spacing" textLength="158" x="12" y="682.7295">Identifiant secondaire</text><text fill="#000000" font-family="sans-serif" font-size="14" lengthAdjust="spacing" textLength="128" x="180" y="682.7295">idSecondary [0..*]</text><line style="stroke:#0000FF;stroke-width:1.0;" x1="175" x2="175" y1="667.7344" y2="688.0313"/></g><g id="elem_slice_condition"><rect fill="#F0F8FF" height="60.8906" style="stroke:#0000FF;stroke-width:0.5;" width="295" x="1324.5" y="627.1406"/><rect fill="#87CEFA" height="20.2969" style="stroke:#0000FF;stroke-width:0.5;" width="295" x="1324.5" y="627.1406"/><path d="M1412.3333,632.6042 L1412.3333,637.2708 L1417,637.2708 L1417,632.6042 L1412.3333,632.6042 M1418.1667,634.9375 L1418.1667,638.4375 L1414.6667,638.4375 L1414.6667,639.6042 L1419.3333,639.6042 L1419.3333,634.9375 L1418.1667,634.9375 M1420.5,637.2708 L1420.5,640.7708 L1417,640.7708 L1417,641.9375 L1421.6667,641.9375 L1421.6667,637.2708 L1420.5,637.2708 " fill="#000000" style="stroke:;stroke-width:0.0;stroke-dasharray:;"/><text fill="#000000" font-family="sans-serif" font-size="14" lengthAdjust="spacing" textLength="106" x="1426.6667" y="642.1357">Slice condition</text><line style="stroke:#0000FF;stroke-width:1.0;" x1="1324.5" x2="1619.5" y1="647.4375" y2="647.4375"/><text fill="#000000" font-family="sans-serif" font-size="14" lengthAdjust="spacing" textLength="102" x="1329.5" y="662.4326">Code MedDRA</text><text fill="#000000" font-family="sans-serif" font-size="14" lengthAdjust="spacing" textLength="173" x="1441.5" y="662.4326">medDRACondition [0..*]</text><line style="stroke:#0000FF;stroke-width:1.0;" x1="1436.5" x2="1436.5" y1="647.4375" y2="667.7344"/><line style="stroke:#0000FF;stroke-width:1.0;" x1="1324.5" x2="1619.5" y1="667.7344" y2="667.7344"/><text fill="#000000" font-family="sans-serif" font-size="14" lengthAdjust="spacing" textLength="77" x="1342" y="682.7295">Pathologie</text><text fill="#000000" font-family="sans-serif" font-size="14" lengthAdjust="spacing" textLength="163" x="1441.5" y="682.7295">diseaseCondition [0..*]</text><line style="stroke:#0000FF;stroke-width:1.0;" x1="1436.5" x2="1436.5" y1="667.7344" y2="688.0313"/></g><g id="elem_label"><rect fill="#F0F8FF" height="60.8906" style="stroke:#0000FF;stroke-width:0.5;" width="321" x="893.5" y="297.6406"/><rect fill="#87CEFA" height="20.2969" style="stroke:#0000FF;stroke-width:0.5;" width="321" x="893.5" y="297.6406"/><path d="M1001.3333,303.1042 L1001.3333,306.6042 L997.8333,306.6042 L997.8333,308.9375 L1001.3333,308.9375 L1001.3333,312.4375 L1003.6667,312.4375 L1003.6667,308.9375 L1007.1667,308.9375 L1007.1667,306.6042 L1003.6667,306.6042 L1003.6667,303.1042 L1001.3333,303.1042 " fill="#000000" style="stroke:;stroke-width:0.0;stroke-dasharray:;"/><text fill="#000000" font-family="sans-serif" font-size="14" lengthAdjust="spacing" textLength="99" x="1012.1667" y="312.6357">ECLAIRELabel</text><line style="stroke:#0000FF;stroke-width:1.0;" x1="893.5" x2="1214.5" y1="317.9375" y2="317.9375"/><text fill="#000000" font-family="sans-serif" font-size="14" lengthAdjust="spacing" textLength="36" x="903" y="332.9326">Type</text><text fill="#000000" font-family="sans-serif" font-size="14" lengthAdjust="spacing" textLength="256" x="953.5" y="332.9326">labelType : CodeableConcept [0..1]</text><line style="stroke:#0000FF;stroke-width:1.0;" x1="948.5" x2="948.5" y1="317.9375" y2="338.2344"/><line style="stroke:#0000FF;stroke-width:1.0;" x1="893.5" x2="1214.5" y1="338.2344" y2="338.2344"/><text fill="#000000" font-family="sans-serif" font-size="14" lengthAdjust="spacing" textLength="45" x="898.5" y="353.2295">Valeur</text><text fill="#000000" font-family="sans-serif" font-size="14" lengthAdjust="spacing" textLength="171" x="953.5" y="353.2295">labelValue : string [0..1]</text><line style="stroke:#0000FF;stroke-width:1.0;" x1="948.5" x2="948.5" y1="338.2344" y2="358.5313"/></g><g id="elem_Group"><rect fill="#C9FFC9" height="170.6719" style="stroke:#181818;stroke-width:0.5;" width="439" x="156.5" y="917.6406"/><rect fill="#90EE90" height="20.2969" style="stroke:#181818;stroke-width:0.5;" width="439" x="156.5" y="917.6406"/><text fill="#000000" font-family="sans-serif" font-size="14" lengthAdjust="spacing" textLength="44" x="354" y="932.6357">Group</text><line style="stroke:#181818;stroke-width:1.0;" x1="156.5" x2="595.5" y1="937.9375" y2="937.9375"/><text fill="#000000" font-family="sans-serif" font-size="14" lengthAdjust="spacing" textLength="83" x="185" y="952.9326">Identifiant*</text><text fill="#000000" font-family="sans-serif" font-size="14" lengthAdjust="spacing" textLength="187" x="301.5" y="952.9326">identifier : Identifier [0..*]</text><line style="stroke:#181818;stroke-width:1.0;" x1="296.5" x2="296.5" y1="937.9375" y2="958.2344"/><line style="stroke:#181818;stroke-width:1.0;" x1="156.5" x2="595.5" y1="958.2344" y2="958.2344"/><text fill="#000000" font-family="sans-serif" font-size="14" lengthAdjust="spacing" textLength="120" x="166.5" y="973.2295">Type de groupe*</text><text fill="#000000" font-family="sans-serif" font-size="14" lengthAdjust="spacing" textLength="206" x="301.5" y="973.2295">type : code [1..1] = "Person"</text><line style="stroke:#181818;stroke-width:1.0;" x1="296.5" x2="296.5" y1="958.2344" y2="978.5313"/><line style="stroke:#181818;stroke-width:1.0;" x1="156.5" x2="595.5" y1="978.5313" y2="978.5313"/><text fill="#000000" font-family="sans-serif" font-size="14" lengthAdjust="spacing" textLength="97" x="178" y="993.5264">Groupe actif*</text><text fill="#000000" font-family="sans-serif" font-size="14" lengthAdjust="spacing" textLength="221" x="301.5" y="993.5264">actual : boolean [1..1] = "True"</text><line style="stroke:#181818;stroke-width:1.0;" x1="296.5" x2="296.5" y1="978.5313" y2="998.8281"/><line style="stroke:#181818;stroke-width:1.0;" x1="156.5" x2="595.5" y1="998.8281" y2="998.8281"/><text fill="#000000" font-family="sans-serif" font-size="14" lengthAdjust="spacing" textLength="130" x="161.5" y="1013.8232">Effectif &#224; recruter</text><text fill="#000000" font-family="sans-serif" font-size="14" lengthAdjust="spacing" textLength="199" x="301.5" y="1013.8232">quantity : unsignedInt [0..1]</text><line style="stroke:#181818;stroke-width:1.0;" x1="296.5" x2="296.5" y1="998.8281" y2="1019.125"/><line style="stroke:#181818;stroke-width:1.0;" x1="156.5" x2="595.5" y1="1019.125" y2="1019.125"/><text fill="#000000" font-family="sans-serif" font-size="14" lengthAdjust="spacing" textLength="58" x="167.5" y="1034.1201">Crit&#232;res</text><text fill="#000000" font-family="sans-serif" font-size="14" lengthAdjust="spacing" textLength="28" x="171.5" y="1050.417">Age</text><text fill="#000000" font-family="sans-serif" font-size="14" lengthAdjust="spacing" textLength="44" x="171.5" y="1066.7139">Genre</text><text fill="#000000" font-family="sans-serif" font-size="14" lengthAdjust="spacing" textLength="114" x="171.5" y="1083.0107">Groupe de sujet</text><text fill="#000000" font-family="sans-serif" font-size="14" lengthAdjust="spacing" textLength="4" x="301.5" y="1034.1201">&#160;</text><text fill="#000000" font-family="sans-serif" font-size="14" lengthAdjust="spacing" textLength="285" x="305.5" y="1050.417">characteristic : BackboneElement [0..*]</text><line style="stroke:#181818;stroke-width:1.0;" x1="296.5" x2="296.5" y1="1019.125" y2="1088.3125"/></g><g id="elem_Characteristic"><rect fill="#C9FFC9" height="81.1875" style="stroke:#181818;stroke-width:0.5;" width="306" x="223" y="1155.6406"/><rect fill="#90EE90" height="20.2969" style="stroke:#181818;stroke-width:0.5;" width="306" x="223" y="1155.6406"/><text fill="#000000" font-family="sans-serif" font-size="14" lengthAdjust="spacing" textLength="101" x="325.5" y="1170.6357">Characteristic</text><line style="stroke:#181818;stroke-width:1.0;" x1="223" x2="529" y1="1175.9375" y2="1175.9375"/><text fill="#000000" font-family="sans-serif" font-size="14" lengthAdjust="spacing" textLength="36" x="243" y="1190.9326">Type</text><text fill="#000000" font-family="sans-serif" font-size="14" lengthAdjust="spacing" textLength="220" x="304" y="1190.9326">code : CodeableConcept [1..1]</text><line style="stroke:#181818;stroke-width:1.0;" x1="299" x2="299" y1="1175.9375" y2="1196.2344"/><line style="stroke:#181818;stroke-width:1.0;" x1="223" x2="529" y1="1196.2344" y2="1196.2344"/><text fill="#000000" font-family="sans-serif" font-size="14" lengthAdjust="spacing" textLength="45" x="238.5" y="1211.2295">Valeur</text><text fill="#000000" font-family="sans-serif" font-size="14" lengthAdjust="spacing" textLength="106" x="304" y="1211.2295">value[x] : [1..1]</text><line style="stroke:#181818;stroke-width:1.0;" x1="299" x2="299" y1="1196.2344" y2="1216.5313"/><line style="stroke:#181818;stroke-width:1.0;" x1="223" x2="529" y1="1216.5313" y2="1216.5313"/><text fill="#000000" font-family="sans-serif" font-size="14" lengthAdjust="spacing" textLength="66" x="228" y="1231.5264">Exclusion</text><text fill="#000000" font-family="sans-serif" font-size="14" lengthAdjust="spacing" textLength="168" x="304" y="1231.5264">exclude : boolean [1..1]</text><line style="stroke:#181818;stroke-width:1.0;" x1="299" x2="299" y1="1216.5313" y2="1236.8281"/></g><g id="elem_Organization"><rect fill="#FFFFCC" height="101.4844" style="stroke:#181818;stroke-width:0.5;" width="345" x="646.5" y="952.1406"/><rect fill="#FFD700" height="20.2969" style="stroke:#181818;stroke-width:0.5;" width="345" x="646.5" y="952.1406"/><text fill="#000000" font-family="sans-serif" font-size="14" lengthAdjust="spacing" textLength="92" x="773" y="967.1357">Organization</text><line style="stroke:#181818;stroke-width:1.0;" x1="646.5" x2="991.5" y1="972.4375" y2="972.4375"/><text fill="#000000" font-family="sans-serif" font-size="14" lengthAdjust="spacing" textLength="83" x="651.5" y="987.4326">Identifiant*</text><text fill="#000000" font-family="sans-serif" font-size="14" lengthAdjust="spacing" textLength="187" x="744.5" y="987.4326">identifier : Identifier [0..*]</text><line style="stroke:#181818;stroke-width:1.0;" x1="739.5" x2="739.5" y1="972.4375" y2="992.7344"/><line style="stroke:#181818;stroke-width:1.0;" x1="646.5" x2="991.5" y1="992.7344" y2="992.7344"/><text fill="#000000" font-family="sans-serif" font-size="14" lengthAdjust="spacing" textLength="33" x="676.5" y="1007.7295">Nom</text><text fill="#000000" font-family="sans-serif" font-size="14" lengthAdjust="spacing" textLength="137" x="744.5" y="1007.7295">name : string [0..1]</text><line style="stroke:#181818;stroke-width:1.0;" x1="739.5" x2="739.5" y1="992.7344" y2="1013.0313"/><line style="stroke:#181818;stroke-width:1.0;" x1="646.5" x2="991.5" y1="1013.0313" y2="1013.0313"/><text fill="#000000" font-family="sans-serif" font-size="14" lengthAdjust="spacing" textLength="57" x="664.5" y="1028.0264">Adresse</text><text fill="#000000" font-family="sans-serif" font-size="14" lengthAdjust="spacing" textLength="165" x="744.5" y="1028.0264">address : Address [0..*]</text><line style="stroke:#181818;stroke-width:1.0;" x1="739.5" x2="739.5" y1="1013.0313" y2="1033.3281"/><line style="stroke:#181818;stroke-width:1.0;" x1="646.5" x2="991.5" y1="1033.3281" y2="1033.3281"/><text fill="#000000" font-family="sans-serif" font-size="14" lengthAdjust="spacing" textLength="58" x="664" y="1048.3232">Contact</text><text fill="#000000" font-family="sans-serif" font-size="14" lengthAdjust="spacing" textLength="242" x="744.5" y="1048.3232">contact : BackboneElement [0..*]</text><line style="stroke:#181818;stroke-width:1.0;" x1="739.5" x2="739.5" y1="1033.3281" y2="1053.625"/></g><g id="elem_Location"><rect fill="#FFE4E1" height="101.4844" style="stroke:#181818;stroke-width:0.5;" width="312" x="1043" y="952.1406"/><rect fill="#EE82EE" height="20.2969" style="stroke:#181818;stroke-width:0.5;" width="312" x="1043" y="952.1406"/><text fill="#000000" font-family="sans-serif" font-size="14" lengthAdjust="spacing" textLength="62" x="1168" y="967.1357">Location</text><line style="stroke:#181818;stroke-width:1.0;" x1="1043" x2="1355" y1="972.4375" y2="972.4375"/><text fill="#000000" font-family="sans-serif" font-size="14" lengthAdjust="spacing" textLength="83" x="1048" y="987.4326">Identifiant*</text><text fill="#000000" font-family="sans-serif" font-size="14" lengthAdjust="spacing" textLength="187" x="1141" y="987.4326">identifier : Identifier [0..*]</text><line style="stroke:#181818;stroke-width:1.0;" x1="1136" x2="1136" y1="972.4375" y2="992.7344"/><line style="stroke:#181818;stroke-width:1.0;" x1="1043" x2="1355" y1="992.7344" y2="992.7344"/><text fill="#000000" font-family="sans-serif" font-size="14" lengthAdjust="spacing" textLength="33" x="1073" y="1007.7295">Nom</text><text fill="#000000" font-family="sans-serif" font-size="14" lengthAdjust="spacing" textLength="137" x="1141" y="1007.7295">name : string [0..1]</text><line style="stroke:#181818;stroke-width:1.0;" x1="1136" x2="1136" y1="992.7344" y2="1013.0313"/><line style="stroke:#181818;stroke-width:1.0;" x1="1043" x2="1355" y1="1013.0313" y2="1013.0313"/><text fill="#000000" font-family="sans-serif" font-size="14" lengthAdjust="spacing" textLength="57" x="1061" y="1028.0264">Adresse</text><text fill="#000000" font-family="sans-serif" font-size="14" lengthAdjust="spacing" textLength="167" x="1141" y="1028.0264">address : Address [0..1]</text><line style="stroke:#181818;stroke-width:1.0;" x1="1136" x2="1136" y1="1013.0313" y2="1033.3281"/><line style="stroke:#181818;stroke-width:1.0;" x1="1043" x2="1355" y1="1033.3281" y2="1033.3281"/><text fill="#000000" font-family="sans-serif" font-size="14" lengthAdjust="spacing" textLength="58" x="1060.5" y="1048.3232">Contact</text><text fill="#000000" font-family="sans-serif" font-size="14" lengthAdjust="spacing" textLength="209" x="1141" y="1048.3232">telecom : ContactPoint [0..*]</text><line style="stroke:#181818;stroke-width:1.0;" x1="1136" x2="1136" y1="1033.3281" y2="1053.625"/></g><g id="elem_Telecom"><rect fill="#FFE4E1" height="81.1875" style="stroke:#181818;stroke-width:0.5;" width="431.3333" x="983.5" y="1155.6406"/><rect fill="#EE82EE" height="20.2969" style="stroke:#181818;stroke-width:0.5;" width="431.3333" x="983.5" y="1155.6406"/><text fill="#000000" font-family="sans-serif" font-size="14" lengthAdjust="spacing" textLength="62" x="1168.1667" y="1170.6357">Telecom</text><line style="stroke:#181818;stroke-width:1.0;" x1="983.5" x2="1414.8333" y1="1175.9375" y2="1175.9375"/><text fill="#000000" font-family="sans-serif" font-size="14" lengthAdjust="spacing" textLength="63" x="988.5" y="1190.9326">Syst&#232;me</text><text fill="#000000" font-family="sans-serif" font-size="14" lengthAdjust="spacing" textLength="142" x="1061.5" y="1190.9326">system : code [0..1]</text><line style="stroke:#181818;stroke-width:1.0;" x1="1056.5" x2="1056.5" y1="1175.9375" y2="1196.2344"/><line style="stroke:#181818;stroke-width:1.0;" x1="983.5" x2="1414.8333" y1="1196.2344" y2="1196.2344"/><text fill="#000000" font-family="sans-serif" font-size="14" lengthAdjust="spacing" textLength="45" x="997.5" y="1211.2295">Valeur</text><text fill="#000000" font-family="sans-serif" font-size="14" lengthAdjust="spacing" textLength="134" x="1061.5" y="1211.2295">value : string [0..1]</text><line style="stroke:#181818;stroke-width:1.0;" x1="1056.5" x2="1056.5" y1="1196.2344" y2="1216.5313"/><line style="stroke:#181818;stroke-width:1.0;" x1="983.5" x2="1414.8333" y1="1216.5313" y2="1216.5313"/><text fill="#000000" font-family="sans-serif" font-size="14" lengthAdjust="spacing" textLength="33" x="1003.5" y="1231.5264">Nom</text><path d="M1066,1221.9948 L1066,1225.4948 L1062.5,1225.4948 L1062.5,1227.8281 L1066,1227.8281 L1066,1231.3281 L1068.3333,1231.3281 L1068.3333,1227.8281 L1071.8333,1227.8281 L1071.8333,1225.4948 L1068.3333,1225.4948 L1068.3333,1221.9948 L1066,1221.9948 " fill="#000000" style="stroke:;stroke-width:0.0;stroke-dasharray:;"/><text fill="#000000" font-family="sans-serif" font-size="14" lengthAdjust="spacing" textLength="333" x="1076.8333" y="1231.5264">ECLAIRESiteContactName : HumanName [0..1]</text><line style="stroke:#181818;stroke-width:1.0;" x1="1056.5" x2="1056.5" y1="1216.5313" y2="1236.8281"/></g><g id="elem_RS"><rect fill="#F0F8FF" height="385.6406" style="stroke:#0000FF;stroke-width:0.5;" width="909.3333" x="364.5" y="464.6406"/><rect fill="#87CEFA" height="20.2969" style="stroke:#0000FF;stroke-width:0.5;" width="909.3333" x="364.5" y="464.6406"/><text fill="#000000" font-family="sans-serif" font-size="14" lengthAdjust="spacing" textLength="212" x="713.1667" y="479.6357">EssaiClinique : ResearchStudy</text><line style="stroke:#0000FF;stroke-width:1.0;" x1="364.5" x2="1273.8333" y1="484.9375" y2="484.9375"/><text fill="#000000" font-family="sans-serif" font-size="14" lengthAdjust="spacing" textLength="404" x="390.5" y="499.9326">Identifiant (Primary and Secondary Identifying Numbers)</text><path d="M826.5,490.401 L826.5,495.0677 L831.1667,495.0677 L831.1667,490.401 L826.5,490.401 M832.3333,492.7344 L832.3333,496.2344 L828.8333,496.2344 L828.8333,497.401 L833.5,497.401 L833.5,492.7344 L832.3333,492.7344 M834.6667,495.0677 L834.6667,498.5677 L831.1667,498.5677 L831.1667,499.7344 L835.8333,499.7344 L835.8333,495.0677 L834.6667,495.0677 " fill="#000000" style="stroke:;stroke-width:0.0;stroke-dasharray:;"/><text fill="#000000" font-family="sans-serif" font-size="14" lengthAdjust="spacing" textLength="187" x="840.8333" y="499.9326">identifier : Identifier [0..*]</text><line style="stroke:#0000FF;stroke-width:1.0;" x1="820.5" x2="820.5" y1="484.9375" y2="505.2344"/><line style="stroke:#0000FF;stroke-width:1.0;" x1="364.5" x2="1273.8333" y1="505.2344" y2="505.2344"/><text fill="#000000" font-family="sans-serif" font-size="14" lengthAdjust="spacing" textLength="193" x="496" y="520.2295">Date de r&#233;vision technique</text><text fill="#000000" font-family="sans-serif" font-size="14" lengthAdjust="spacing" textLength="236" x="825.5" y="520.2295">meta.lastUpdated : instant [0..1]</text><line style="stroke:#0000FF;stroke-width:1.0;" x1="820.5" x2="820.5" y1="505.2344" y2="525.5313"/><line style="stroke:#0000FF;stroke-width:1.0;" x1="364.5" x2="1273.8333" y1="525.5313" y2="525.5313"/><text fill="#000000" font-family="sans-serif" font-size="14" lengthAdjust="spacing" textLength="217" x="484" y="540.5264">Date de r&#233;vision fonctionnelle</text><path d="M830,530.9948 L830,534.4948 L826.5,534.4948 L826.5,536.8281 L830,536.8281 L830,540.3281 L832.3333,540.3281 L832.3333,536.8281 L835.8333,536.8281 L835.8333,534.4948 L832.3333,534.4948 L832.3333,530.9948 L830,530.9948 " fill="#000000" style="stroke:;stroke-width:0.0;stroke-dasharray:;"/><text fill="#000000" font-family="sans-serif" font-size="14" lengthAdjust="spacing" textLength="252" x="840.8333" y="540.5264">ECLAIREReviewDate : instant [0..1]</text><line style="stroke:#0000FF;stroke-width:1.0;" x1="820.5" x2="820.5" y1="525.5313" y2="545.8281"/><line style="stroke:#0000FF;stroke-width:1.0;" x1="364.5" x2="1273.8333" y1="545.8281" y2="545.8281"/><text fill="#000000" font-family="sans-serif" font-size="14" lengthAdjust="spacing" textLength="237" x="474" y="560.8232">Nom de l'essai (Scientifique title)</text><text fill="#000000" font-family="sans-serif" font-size="14" lengthAdjust="spacing" textLength="128" x="825.5" y="560.8232">title : string [0..1]</text><line style="stroke:#0000FF;stroke-width:1.0;" x1="820.5" x2="820.5" y1="545.8281" y2="566.125"/><line style="stroke:#0000FF;stroke-width:1.0;" x1="364.5" x2="1273.8333" y1="566.125" y2="566.125"/><text fill="#000000" font-family="sans-serif" font-size="14" lengthAdjust="spacing" textLength="251" x="467" y="581.1201">Autres noms de l'essai (Public title)</text><path d="M830,571.5885 L830,575.0885 L826.5,575.0885 L826.5,577.4219 L830,577.4219 L830,580.9219 L832.3333,580.9219 L832.3333,577.4219 L835.8333,577.4219 L835.8333,575.0885 L832.3333,575.0885 L832.3333,571.5885 L830,571.5885 " fill="#000000" style="stroke:;stroke-width:0.0;stroke-dasharray:;"/><text fill="#000000" font-family="sans-serif" font-size="14" lengthAdjust="spacing" textLength="291" x="840.8333" y="581.1201">ECLAIRELabel : Complex extension [0..*]</text><line style="stroke:#0000FF;stroke-width:1.0;" x1="820.5" x2="820.5" y1="566.125" y2="586.4219"/><line style="stroke:#0000FF;stroke-width:1.0;" x1="364.5" x2="1273.8333" y1="586.4219" y2="586.4219"/><text fill="#000000" font-family="sans-serif" font-size="14" lengthAdjust="spacing" textLength="115" x="535" y="601.417">Statut de l'essai</text><text fill="#000000" font-family="sans-serif" font-size="14" lengthAdjust="spacing" textLength="134" x="825.5" y="601.417">status : code [1..1]</text><line style="stroke:#0000FF;stroke-width:1.0;" x1="820.5" x2="820.5" y1="586.4219" y2="606.7188"/><line style="stroke:#0000FF;stroke-width:1.0;" x1="364.5" x2="1273.8333" y1="606.7188" y2="606.7188"/><text fill="#000000" font-family="sans-serif" font-size="14" lengthAdjust="spacing" textLength="260" x="462.5" y="621.7139">Phase de l'essai (Study type : phase)</text><text fill="#000000" font-family="sans-serif" font-size="14" lengthAdjust="spacing" textLength="228" x="825.5" y="621.7139">phase : CodeableConcept [0..1]</text><line style="stroke:#0000FF;stroke-width:1.0;" x1="820.5" x2="820.5" y1="606.7188" y2="627.0156"/><line style="stroke:#0000FF;stroke-width:1.0;" x1="364.5" x2="1273.8333" y1="627.0156" y2="627.0156"/><text fill="#000000" font-family="sans-serif" font-size="14" lengthAdjust="spacing" textLength="290" x="447.5" y="642.0107">Type d'essai (Study type : type of study)</text><text fill="#000000" font-family="sans-serif" font-size="14" lengthAdjust="spacing" textLength="247" x="825.5" y="642.0107">category : CodeableConcept [0..*]</text><line style="stroke:#0000FF;stroke-width:1.0;" x1="820.5" x2="820.5" y1="627.0156" y2="647.3125"/><line style="stroke:#0000FF;stroke-width:1.0;" x1="364.5" x2="1273.8333" y1="647.3125" y2="647.3125"/><text fill="#000000" font-family="sans-serif" font-size="14" lengthAdjust="spacing" textLength="420" x="382.5" y="662.3076">Sujet concern&#233; (Health Condition(s) or Problem(s) Studied)</text><path d="M826.5,652.776 L826.5,657.4427 L831.1667,657.4427 L831.1667,652.776 L826.5,652.776 M832.3333,655.1094 L832.3333,658.6094 L828.8333,658.6094 L828.8333,659.776 L833.5,659.776 L833.5,655.1094 L832.3333,655.1094 M834.6667,657.4427 L834.6667,660.9427 L831.1667,660.9427 L831.1667,662.1094 L835.8333,662.1094 L835.8333,657.4427 L834.6667,657.4427 " fill="#000000" style="stroke:;stroke-width:0.0;stroke-dasharray:;"/><text fill="#000000" font-family="sans-serif" font-size="14" lengthAdjust="spacing" textLength="317" x="840.8333" y="662.3076">condition : CodeableConcept [0..*] (MeDRA)</text><line style="stroke:#0000FF;stroke-width:1.0;" x1="820.5" x2="820.5" y1="647.3125" y2="667.6094"/><line style="stroke:#0000FF;stroke-width:1.0;" x1="364.5" x2="1273.8333" y1="667.6094" y2="667.6094"/><text fill="#000000" font-family="sans-serif" font-size="14" lengthAdjust="spacing" textLength="178" x="503.5" y="682.6045">Domaine th&#233;rapeutique*</text><path d="M830,673.0729 L830,676.5729 L826.5,676.5729 L826.5,678.9063 L830,678.9063 L830,682.4063 L832.3333,682.4063 L832.3333,678.9063 L835.8333,678.9063 L835.8333,676.5729 L832.3333,676.5729 L832.3333,673.0729 L830,673.0729 " fill="#000000" style="stroke:;stroke-width:0.0;stroke-dasharray:;"/><text fill="#000000" font-family="sans-serif" font-size="14" lengthAdjust="spacing" textLength="277" x="840.8333" y="682.6045">ECLAIRETherapeuticArea : string [0..1]</text><line style="stroke:#0000FF;stroke-width:1.0;" x1="820.5" x2="820.5" y1="667.6094" y2="687.9063"/><line style="stroke:#0000FF;stroke-width:1.0;" x1="364.5" x2="1273.8333" y1="687.9063" y2="687.9063"/><text fill="#000000" font-family="sans-serif" font-size="14" lengthAdjust="spacing" textLength="126" x="529.5" y="702.9014">R&#233;sum&#233; de l'essai</text><text fill="#000000" font-family="sans-serif" font-size="14" lengthAdjust="spacing" textLength="212" x="825.5" y="702.9014">description : markdown [0..1]</text><line style="stroke:#0000FF;stroke-width:1.0;" x1="820.5" x2="820.5" y1="687.9063" y2="708.2031"/><line style="stroke:#0000FF;stroke-width:1.0;" x1="364.5" x2="1273.8333" y1="708.2031" y2="708.2031"/><text fill="#000000" font-family="sans-serif" font-size="14" lengthAdjust="spacing" textLength="278" x="453.5" y="723.1982">P&#233;riode pr&#233;visionnelle de recrutement</text><path d="M830,713.6667 L830,717.1667 L826.5,717.1667 L826.5,719.5 L830,719.5 L830,723 L832.3333,723 L832.3333,719.5 L835.8333,719.5 L835.8333,717.1667 L832.3333,717.1667 L832.3333,713.6667 L830,713.6667 " fill="#000000" style="stroke:;stroke-width:0.0;stroke-dasharray:;"/><text fill="#000000" font-family="sans-serif" font-size="14" lengthAdjust="spacing" textLength="299" x="840.8333" y="723.1982">ECLAIRERecruitmentPeriod : period [0..1]</text><line style="stroke:#0000FF;stroke-width:1.0;" x1="820.5" x2="820.5" y1="708.2031" y2="728.5"/><line style="stroke:#0000FF;stroke-width:1.0;" x1="364.5" x2="1273.8333" y1="728.5" y2="728.5"/><text fill="#000000" font-family="sans-serif" font-size="14" lengthAdjust="spacing" textLength="338" x="423.5" y="743.4951">Contact (Contact for public / scientific queries)</text><text fill="#000000" font-family="sans-serif" font-size="14" lengthAdjust="spacing" textLength="210" x="825.5" y="743.4951">contact : ContactDetail [0..*]</text><line style="stroke:#0000FF;stroke-width:1.0;" x1="820.5" x2="820.5" y1="728.5" y2="748.7969"/><line style="stroke:#0000FF;stroke-width:1.0;" x1="364.5" x2="1273.8333" y1="748.7969" y2="748.7969"/><text fill="#000000" font-family="sans-serif" font-size="14" lengthAdjust="spacing" textLength="446" x="369.5" y="763.792">Participants (Key Inclusion and Exclusion Criteria, Sample size)</text><text fill="#000000" font-family="sans-serif" font-size="14" lengthAdjust="spacing" textLength="262" x="825.5" y="763.792">enrollment : Reference(Group) [0..*]</text><line style="stroke:#0000FF;stroke-width:1.0;" x1="820.5" x2="820.5" y1="748.7969" y2="769.0938"/><line style="stroke:#0000FF;stroke-width:1.0;" x1="364.5" x2="1273.8333" y1="769.0938" y2="769.0938"/><text fill="#000000" font-family="sans-serif" font-size="14" lengthAdjust="spacing" textLength="37" x="574" y="784.0889">Lieux</text><text fill="#000000" font-family="sans-serif" font-size="14" lengthAdjust="spacing" textLength="227" x="825.5" y="784.0889">site : Reference(Location) [0..*]</text><line style="stroke:#0000FF;stroke-width:1.0;" x1="820.5" x2="820.5" y1="769.0938" y2="789.3906"/><line style="stroke:#0000FF;stroke-width:1.0;" x1="364.5" x2="1273.8333" y1="789.3906" y2="789.3906"/><text fill="#000000" font-family="sans-serif" font-size="14" lengthAdjust="spacing" textLength="347" x="419" y="804.3857">Pays de recrutement (Countries of Recruitment)</text><text fill="#000000" font-family="sans-serif" font-size="14" lengthAdjust="spacing" textLength="241" x="825.5" y="804.3857">location : CodeableConcept [0..*]</text><line style="stroke:#0000FF;stroke-width:1.0;" x1="820.5" x2="820.5" y1="789.3906" y2="809.6875"/><line style="stroke:#0000FF;stroke-width:1.0;" x1="364.5" x2="1273.8333" y1="809.6875" y2="809.6875"/><text fill="#000000" font-family="sans-serif" font-size="14" lengthAdjust="spacing" textLength="274" x="455.5" y="824.6826">Promoteur principal (Primary sponsor)</text><text fill="#000000" font-family="sans-serif" font-size="14" lengthAdjust="spacing" textLength="289" x="825.5" y="824.6826">sponsor : Reference(Organization) [0..1]</text><line style="stroke:#0000FF;stroke-width:1.0;" x1="820.5" x2="820.5" y1="809.6875" y2="829.9844"/><line style="stroke:#0000FF;stroke-width:1.0;" x1="364.5" x2="1273.8333" y1="829.9844" y2="829.9844"/><text fill="#000000" font-family="sans-serif" font-size="14" lengthAdjust="spacing" textLength="328" x="428.5" y="844.9795">Promoteur secondaire (Secondary Sponsor(s))</text><path d="M830,835.4479 L830,838.9479 L826.5,838.9479 L826.5,841.2813 L830,841.2813 L830,844.7813 L832.3333,844.7813 L832.3333,841.2813 L835.8333,841.2813 L835.8333,838.9479 L832.3333,838.9479 L832.3333,835.4479 L830,835.4479 " fill="#000000" style="stroke:;stroke-width:0.0;stroke-dasharray:;"/><text fill="#000000" font-family="sans-serif" font-size="14" lengthAdjust="spacing" textLength="428" x="840.8333" y="844.9795">ECLAIRESecondarySponsor  : Reference(Organization) [0..*]</text><line style="stroke:#0000FF;stroke-width:1.0;" x1="820.5" x2="820.5" y1="829.9844" y2="850.2813"/></g><!--link RS to Location--><g id="link_RS_Location"><path codeLine="86" d="M1044.2627,861.7689 C1082.6527,896.4659 1106.2193,917.7688 1135.2393,944.0058 " fill="none" id="RS-Location" style="stroke:#EE82EE;stroke-width:4.0;stroke-dasharray:7.0,7.0;"/><polygon fill="#EE82EE" points="1035.36,853.7226,1037.1292,860.7133,1044.2627,861.7689,1042.4934,854.7782,1035.36,853.7226" style="stroke:#EE82EE;stroke-width:4.0;"/><polygon fill="#EE82EE" points="1139.69,948.0296,1135.6966,939.0267,1135.9811,944.6764,1130.3314,944.961,1139.69,948.0296" style="stroke:#EE82EE;stroke-width:4.0;"/></g><!--link RS to Group--><g id="link_RS_Group"><path codeLine="87" d="M557.2809,861.0759 C530.4329,881.8939 518.4236,891.2061 494.4236,909.8151 " fill="none" id="RS-Group" style="stroke:#90EE90;stroke-width:4.0;stroke-dasharray:7.0,7.0;"/><polygon fill="#90EE90" points="566.764,853.7226,559.5714,854.2382,557.2809,861.0759,564.4735,860.5603,566.764,853.7226" style="stroke:#90EE90;stroke-width:4.0;"/><polygon fill="#90EE90" points="489.682,913.4916,499.2455,911.1379,493.6334,910.4278,494.3434,904.8157,489.682,913.4916" style="stroke:#90EE90;stroke-width:4.0;"/></g><!--link RS to Organization--><g id="link_RS_Organization"><path codeLine="88" d="M819,865.9726 C819,900.6246 819,915.9436 819,942.1336 " fill="none" id="RS-Organization" style="stroke:#FFD700;stroke-width:4.0;stroke-dasharray:7.0,7.0;"/><polygon fill="#FFD700" points="819,853.9726,815,859.9726,819,865.9726,823,859.9726,819,853.9726" style="stroke:#FFD700;stroke-width:4.0;"/><polygon fill="#FFD700" points="819,948.1336,823,939.1336,819,943.1336,815,939.1336,819,948.1336" style="stroke:#FFD700;stroke-width:4.0;"/></g><!--link slice_identifier to RS--><g id="link_slice_identifier_RS"><path codeLine="90" d="M321.21,657.1406 C332.877,657.1406 344.544,657.1406 356.211,657.1406 " fill="none" id="slice_identifier-RS" style="stroke:#ADD8E6;stroke-width:2.0;"/></g><!--link RS to slice_condition--><g id="link_RS_slice_condition"><path codeLine="91" d="M1281.65,657.1406 C1293.17,657.1406 1304.7,657.1406 1316.22,657.1406 " fill="none" id="RS-slice_condition" style="stroke:#ADD8E6;stroke-width:2.0;"/></g><!--link Contact to RS--><g id="link_Contact_RS"><path codeLine="92" d="M635.863,400.9176 C648.906,419.0946 663.539,439.4866 678.698,460.6126 " fill="none" id="Contact-RS" style="stroke:#ADD8E6;stroke-width:2.0;"/></g><!--link label to RS--><g id="link_label_RS"><path codeLine="93" d="M1030.17,361.8456 C1012.5,386.4816 986.79,422.3056 959.355,460.5396 " fill="none" id="label-RS" style="stroke:#ADD8E6;stroke-width:2.0;"/></g><!--link slice_name to Contact--><g id="link_slice_name_Contact"><path codeLine="94" d="M584,194.7006 C584,212.6406 584,234.1706 584,254.5756 " fill="none" id="slice_name-Contact" style="stroke:#ADD8E6;stroke-width:2.0;"/></g><!--link Group to Organization--><!--link Group to Characteristic--><g id="link_Group_Characteristic"><path codeLine="98" d="M376,1091.8236 C376,1112.5356 376,1127.7236 376,1145.4771 " fill="none" id="Group-to-Characteristic" style="stroke:#90EE90;stroke-width:2.0;"/><polygon fill="#90EE90" points="376,1151.4771,380,1142.4771,376,1146.4771,372,1142.4771,376,1151.4771" style="stroke:#90EE90;stroke-width:2.0;"/></g><!--link Location to Telecom--><g id="link_Location_Telecom"><path codeLine="99" d="M1199,1054.6406 C1199,1087.0826 1199,1117.7376 1199,1145.4723 " fill="none" id="Location-to-Telecom" style="stroke:#EE82EE;stroke-width:2.0;"/><polygon fill="#EE82EE" points="1199,1151.4723,1203,1142.4723,1199,1146.4723,1195,1142.4723,1199,1151.4723" style="stroke:#EE82EE;stroke-width:2.0;"/></g><!--SRC=[nLVDRXit4BxhAGW7I2GZTkAY9pKneCYgRLIs1Sb9KRX6GUsE9DPSxeRaEbQAzbbwZ9v3BzOPSd-bbHCuX-eYBZapd9zlVXZnXEtrOsLvO4_0SY7t63Siss7FfZouw_Qa2E2TJE6d1V0GT7SevWixkLkwFIaKTAUuOd-r6FukuuYzFMQAHy2wZ1chXPgpczU7XqUtp55ShrTolGhYA4gL2BWLiI8E2n9mavYo-qUnKDQnxj-oZ7UP016_UPx8r1opGN_OEnyFF8CxTEmXyAa4t0qWiVdblolMtXkbKpHdxzNU912Wh9ZXHyU9xeKQZDajtVP2Hu4tv2ils7FFPaAAmfWT4Yf4tRfhghvhPhxq7ZrB8wxSEcFykzMAA8p5WGkXeQ3zuQBmr2Y6m6Oy4b82Qm-viIwc7LBGRIyRJHZfzKeXS_jdeGiMzFm9f0zY_GNLINAA2n66ABkGEXVtiE6N_TAyDyybNu96jqp84YP27pxG5NlBpITPVPwnSuHTWae48k6IL1FXI8k8wsNLr2grGUYga0iDddpYlpE6HymWCa60g5XHx3t9248_ku3mPDmZNIAtwXSYCtrShBXTn3AU2wTqA0nm0rkKfUOrL0xv57oraBHwagfvDZi9MVOs9wyZ_y0bfBfWmCyKja2OgtkgupHn-hbLfj_re7zsUJMyElsjfk2f1eJU5WZsVJ0BJ7MBG_p8wb9f2BfzJbU1OxFUd82YSNFa2j1RjZV2q5Ei7PTJ31ZcjfWv7bob2BWkcyQn1AugZDSwXJt7DPZDW3ZO-b-c8T2f1UUJZobgB2obPQgCc2i8pvMjLTw-5dRz1KiNPMHl3lHt2ahxXTS6rJNfds199Eu62wvHBT32M16Wx7VencciO20XWh8y5txlrnXyEwdB-EP8EA-I7iw93T0uAaqhiN5FiBXvk4M6Ai7W8K3uPkKPwCF9tF1qOSQLddCbFlCYDQiRcGdlta_EBmUJIMx0QIp3xm1HlNCsDCvAX-ADlIYNbFTlvpg__7hWXd5GMfj_P9PUOEIMuzWKQVr1eDli_shiqRQnvGZHC44KXbvxAcTdjlucCoTBOrq7ewiCVa1K9FZhdKXijgwvqq-4XSUxVHckWJ5SzB6YYe_kaZ5W-TR1OcBJSEbi6q- -kmcsyxR7LSZAdfQHBCcgopIQOb7hU7FovlOL27Wdd73hwWqE1FV2fQQ5OE4DSftByaE9WyVx94JA42K9PImlYzekCJCi48HU1JIyRFjv3FS2FZc-BPdLyKU-0F8oQnV38gc6HLRwYSMjTi0tjLHdST0nDKb-_gp8Q6gh3i1H8k41AvK5PSfsxALFBBUfhGecIDAcgVSSt-SNsDVhzX18yXQLqB7JnQrszk1ggsiKvFxY6Ig2cquW5X6OntgvGsPXZciu0PrejLwnzXbmQHUic4NQYAzOut0PeuI8lkXY0U46xCh9QUU5xGl0UQYJGIUEECAVsSLwfNa2gQK8xpV4vNe16K7Gqy2RWpvUhqmQeG7rm8HW0YsIJ2_Cfxim_gHgd2EyNr3OaWB57ho4Qz_aNT5kmZAU2akdE5oW38geNzIo92-JxNmnGuSc7eslc2bUGpX783VuX2wxH-sHM0lUY6jq2axAoXhM_WMmFAYyrLBPA1ilZHyecxza4qxePaPyzi336IIMqbb8bMm66Z1eRJUIT6gt3GK-91pQXOKQSTwoEXlQBSsc4z45gR9a9A6rua2dYynRtou8PU-SE8ej5VhoeL1KIvF4oiJQYSlMDLMhiqId7gPIRkL9qIvBxyIBmnHegXu5NKR6ldAjAyNOKLhOA_OFRfxvVlSov6O1uKkx4C6TGXY__V7suBYO2NBYSbxRmU07xvoSfgCTX5N5MgsjfnmoIxgBsbM5zOTRR74aVVVvndkgbMF_u56H_a7pE4tbVVq8ONPVg-LTSN2pm3SlgDiDYzrfjrkEvmTrzrPb7c-CqwqyBCXViIwBP9qpctOmtXBcWBbfuuH9c5c4Nbb4kzvjRi-Zgrks8TpzPvzA30uOuOlrwcCgSCmXU65IAxjU7SuqKuBzUdP50hgVk5PO9hjEYA97Pf0Q9mZlzrhy1m00]--></g></svg>